<svg xmlns="http://www.w3.org/2000/svg" version="1.1" xmlns:xlink="http://www.w3.org/1999/xlink" xmlns:svgjs="http://svgjs.com/svgjs" width="512" height="512" x="0" y="0" viewBox="0 0 237.986 225.706" style="enable-background:new 0 0 512 512" xml:space="preserve" class=""><g><path d="M53.848 134.932 81.521 91.48c-2.445-5.19-7.415-14.089-14.934-20l1.488-1.746c8.412 6.65 13.714 16.704 16.059 21.924l-28.346 44.509a8 8 0 1 0 13.496 8.594l30.568-48a7.998 7.998 0 0 0 .816-6.901c-.367-1.065-7.064-20.011-22.225-32.299-5.195-4.211-11.378-7.644-18.648-9.302l-.068-.012a7.7 7.7 0 0 0-5.702.539c-1.141 7.303-5.507 14.028-12.456 17.884a24.828 24.828 0 0 1-12.015 3.12c-3.415 0-6.728-.705-9.766-2.005a7.714 7.714 0 0 0-3.726 5.937l-3.017 10.486L5.2 111.472a8.015 8.015 0 0 0-.175 3.685l8.905 47.558a8.002 8.002 0 0 0 9.335 6.391 8 8 0 0 0 6.391-9.336l-8.557-45.694 7.91-27.492 2.295.341-3.222 11.198 14.29 25.751-15.326 9.466 4.87 26.006a10.225 10.225 0 0 1-1.625 7.714 10.229 10.229 0 0 1-6.604 4.306 10.265 10.265 0 0 1-4.747-.229l2.789 27.893c.631 6.318 5.957 11.032 12.174 11.032.408 0 .819-.021 1.233-.062 6.732-.674 11.644-6.677 10.971-13.408l-4.354-43.54 11.91-7.356a10.311 10.311 0 0 1-1.187-3.002 10.252 10.252 0 0 1 1.372-7.762zm-25.82 45.553a2.558 2.558 0 1 1 0-5.115 2.558 2.558 0 0 1 0 5.115zm4.8 15.032a1.926 1.926 0 1 1 0-3.851 1.926 1.926 0 0 1 0 3.851zm1.263-26.59a2.558 2.558 0 1 1 5.115 0 2.558 2.558 0 0 1-5.115 0zm5.179 17.179a1.926 1.926 0 1 1 0-3.851 1.926 1.926 0 0 1 0 3.851z" fill="#3c478b" data-original="#000000" class=""></path><path d="m97.488 111.71-.536-.966c-.043-.081-.088-.16-.133-.24l-1.393-2.51-21.758 34.166v71.182c0 6.83 5.537 12.363 12.365 12.363 6.826 0 12.363-5.533 12.363-12.363v-96.805c0-.039-.005-.076-.006-.115a7.678 7.678 0 0 0-.902-4.712zm-15.344 82.502a2.558 2.558 0 1 1 0-5.115 2.558 2.558 0 0 1 0 5.115zm3.41-20.085a2.558 2.558 0 1 1 0-5.115 2.558 2.558 0 0 1 0 5.115zm4.169 31.327a1.926 1.926 0 1 1 0-3.851 1.926 1.926 0 0 1 0 3.851zm1.515-9.79a1.926 1.926 0 1 1 0-3.851 1.926 1.926 0 0 1 0 3.851zm-.473-10.452a2.558 2.558 0 1 1 0-5.115 2.558 2.558 0 0 1 0 5.115zM231.198 208.541a2.498 2.498 0 0 0 3.392-.4 2.5 2.5 0 0 0-.172-3.411l-8.281-8.005c-.032-.03-.065-.061-.099-.09l-2.619-2.273-3.442.861-3.153-1.579-2.396-2.515-8.654-.944.169-2.295 9.571 1.044 2.7 2.833 2.033 1.018 6.078-1.52.697-.774.776-6.217.774-3.215-2.181-4.731c1.201-1.547 2.447-3.371 2.114-3.915-.221-.362-1.213-.311-2.383-.102 1.114-1.467 2.168-3.079 1.857-3.585-.378-.62-3.011-.033-4.941.498l-10.274-2.188-11.095 2.672-.121 13.195-2.298-.186.083-8.997a91.66 91.66 0 0 0-1.638-1.528s-36.765 10.767-29.526 42.562c-4.389.233-12.055-.997-18.737-10.429a2.5 2.5 0 0 0-4.08 2.89c7.402 10.45 16.137 12.515 21.885 12.515.8 0 1.528-.045 2.201-.108-.034.846-.016 1.505.081 1.849.266.935 5.191 1.382 10.402 1.311 5.724-.078 11.794-.78 12.413-2.151.425-.939.094-2.783-1.671-3.551-3.146-1.369-10.999-1.65-10.09-2.412 1.42-1.193 10.746-6.726 6.726-12.918-.696-1.072-1.644-1.592-2.732-1.733 1.819-.804 3.636-.713 4.984 1.397 4.02 6.291-5.297 11.881-6.715 13.09-.694.588 3.619.421 7.103.924 3.842-2.076 10.359-5.916 15.674-10.628.802 7.868 2.314 17.676 4.847 17.604 3.008-.085 3.335-13.418 3.362-22.436l8.788 2.249zm-8.396-25.194a1.604 1.604 0 0 1 2.183-.602 1.593 1.593 0 0 1 .602 2.177 1.593 1.593 0 0 1-2.177.606 1.597 1.597 0 0 1-.608-2.181z" fill="#3c478b" data-original="#000000" class=""></path><circle cx="232.491" cy="216.696" r="5.495" fill="#3c478b" data-original="#000000" class=""></circle><path d="M40.455 64.66c10.865-6.03 14.785-19.726 8.756-30.592-6.03-10.866-19.726-14.786-30.591-8.756-10.867 6.03-14.787 19.726-8.757 30.592 6.03 10.865 19.725 14.786 30.592 8.756zM27.301 48.072c5.014-4.877 11.368-6.479 14.193-3.577 2.823 2.904-4.066 3.954-9.08 8.833-5.013 4.878-6.254 11.737-9.078 8.833-2.824-2.902-1.049-9.209 3.965-14.089zM170.335 183.627l.901-.432c-.161-.338-16.652-33.583-58.285-18.443l.342.939c40.759-14.825 56.884 17.607 57.042 17.936zM105.786 167.401c-1.586.916-2.556 2.205-2.166 2.88s1.991.48 3.577-.436 2.556-2.205 2.166-2.88-1.992-.48-3.577.436zM106.615 147.986c-.39-.675-1.991-.48-3.577.436s-2.556 2.205-2.166 2.88 1.991.48 3.577-.436 2.556-2.205 2.166-2.88z" fill="#3c478b" data-original="#000000" class=""></path><path d="m108.419 146.92.187.982c45.557-8.662 65.197 32.397 65.39 32.814l.907-.421c-.197-.422-20.154-42.183-66.484-33.375zM6.933 19.705c-2.335 1.801-2.674 4.737-2.687 4.861a.999.999 0 0 0 .995 1.105c.501 0 .934-.378.993-.888.003-.022.276-2.236 1.934-3.505 1.062-.812 2.503-1.084 4.279-.817a.999.999 0 1 0 .3-1.977c-2.346-.358-4.302.056-5.814 1.221z" fill="#3c478b" data-original="#000000" class=""></path><path d="M5.422 17.094c1.842-1.283 4.255-1.652 7.167-1.095a1 1 0 1 0 .375-1.965c-3.469-.663-6.4-.181-8.706 1.433C.75 17.924.041 22.094.012 22.271A.999.999 0 0 0 1 23.43c.48 0 .904-.348.986-.837.007-.036.621-3.539 3.436-5.499zM70.799 2.129c-4.417-6.401-16.11 2.834-15.953 11.804 10.461-6.836 20.11-5.78 15.953-11.804zM44.713 15.906C46.489 6.166 52.358 1.196 46.629.3c-6.087-.952-7.157 10.804-1.916 15.606zM71.536 20.289c-2.186-4.925-11.332-.138-12.376 5.989 8-3.312 14.434-1.355 12.376-5.989zM12.032 171.96c-.021-.008-2.12-.765-2.989-2.662-.557-1.215-.506-2.68.15-4.354a1 1 0 1 0-1.862-.731c-.866 2.209-.898 4.207-.096 5.939 1.239 2.676 4.027 3.656 4.146 3.697a.999.999 0 0 0 .651-1.889z" fill="#3c478b" data-original="#000000" class=""></path><path d="M8.954 175.616c-.033-.013-3.288-1.356-4.591-4.548-.852-2.086-.68-4.524.511-7.25a.999.999 0 1 0-1.833-.8c-1.416 3.239-1.594 6.202-.53 8.808 1.619 3.965 5.529 5.579 5.694 5.646a1 1 0 1 0 .749-1.856z" fill="#3c478b" data-original="#000000" class=""></path></g></svg>