<svg id="Capa_1" enable-background="new 0 0 512 512" height="512" viewBox="0 0 512 512" width="512" xmlns="http://www.w3.org/2000/svg"><g><path d="m512 256c0 60.02-20.66 115.22-55.25 158.87-46.89 59.17-119.39 49.1-200.75 49.1s-153.86 10.07-200.75-49.1c-34.59-43.65-55.25-98.85-55.25-158.87 0-141.38 114.62-256 256-256s256 114.62 256 256z" fill="#aa8080"/><g><path d="m456.75 414.87c-16.31 20.58-35.72 38.6-57.52 53.34-40.88 27.64-90.17-4.24-143.23-4.24s-102.35 31.88-143.23 4.24c-21.8-14.74-41.21-32.76-57.52-53.34 13.09-34.21 37.65-62.75 68.99-80.88 23.39-13.55 50.56-21.31 79.54-21.31h104.44c28.98 0 56.14 7.76 79.54 21.31 12.05 6.97 23.1 15.47 32.88 25.25 15.65 15.66 28.06 34.57 36.11 55.63z" fill="#ffd8d5"/><path d="m399.23 390.24v77.97c-15.87 10.73-33 19.73-51.14 26.72-6.28 2.42-15.072-5.615-21.582-3.685-23.1 6.86-45.178-8.874-70.508-8.874-45.19 0-73.261 7.395-110.122-13.155-6.41-3.58-27.048 3.095-33.108-1.005v-77.97c0-19.97 4.09-38.98 11.47-56.25 7.24-16.94 17.65-32.2 30.48-45.03 25.92-25.92 61.73-41.95 101.28-41.95 59.13 0 109.9 35.84 131.76 86.98 7.38 17.269 11.47 36.279 11.47 56.249z" fill="#f9f6f6"/><path d="m145.88 469.22c-6.41-3.58-27.05 3.09-33.11-1.01v-77.97c0-19.97 4.09-38.98 11.47-56.25 7.24-16.94 17.65-32.2 30.48-45.03 25.92-25.92 61.73-41.95 101.28-41.95 10.64 0 21.01 1.16 30.99 3.36-27.12 5.98-51.35 19.64-70.3 38.59-12.83 12.83-23.24 28.09-30.48 45.03-7.38 17.27-11.47 36.28-11.47 56.25v77.97c6.06 4.1 5.59 20.22-28.86 1.01z" fill="#fbe2dd"/><path d="m359.76 296.28c0 57.31-46.45 103.77-103.76 103.77-31.54 0-59.79-14.07-78.81-36.28-15.56-18.14-24.95-41.72-24.95-67.49 0-5.13.37-10.17 1.09-15.1l73.2-1.19 131.6-2.13c1.07 5.98 1.63 12.14 1.63 18.42z" fill="#95d6a4"/><path d="m226.53 279.99c-3.42 2.84-6.7 5.83-9.84 8.97-12.83 12.83-23.24 28.09-30.48 45.03-4.04 9.45-7.09 19.42-9.02 29.78-15.56-18.14-24.95-41.72-24.95-67.49 0-5.13.37-10.17 1.09-15.1z" fill="#78c2a4"/><path d="m354.299 305.131c-65.093 10.729-131.506 10.729-196.599 0-13.304-2.193-22.097-15.044-19.363-28.247.032-.157.065-.313.097-.47 2.585-12.481 14.559-20.671 27.135-18.6 59.883 9.862 120.978 9.862 180.861 0 12.576-2.071 24.55 6.119 27.134 18.6.032.157.065.313.097.47 2.736 13.203-6.058 26.054-19.362 28.247z" fill="#dd636e"/><path d="m214.471 311.751c-18.99-1.31-37.93-3.51-56.77-6.62-13.3-2.19-22.1-15.04-19.36-28.25.03-.15.06-.31.09-.47 2.59-12.48 14.56-20.67 27.14-18.6 17.58 2.9 35.27 4.94 53 6.13-8.97 2.37-16.25 9.6-18.25 19.24-.03.17-.07.34-.1.5-2.441 11.8 3.789 23.33 14.25 28.07z" fill="#da4a54"/><g><g><path d="m398.773 25.432-1.513 109.426-131.278-78.233 95.522-53.403c16.831-9.409 37.535 2.93 37.269 22.21z" fill="#f9f6f6"/><path d="m383.539 41.382-1.17 84.602-101.496-60.485 73.852-41.288c13.012-7.275 29.02 2.265 28.814 17.171z" fill="#dd636e"/></g><g><path d="m113.227 25.432 1.513 109.426 131.277-78.232-95.521-53.403c-16.831-9.41-37.535 2.929-37.269 22.209z" fill="#fbe2dd"/><path d="m128.461 41.382 1.17 84.602 101.496-60.485-73.852-41.288c-13.012-7.275-29.02 2.265-28.814 17.171z" fill="#dd636e"/></g></g><path d="m292.411 54.97h-72.823c-61.222 0-110.852 49.63-110.852 110.852 0 61.222 49.63 110.852 110.852 110.852h72.823c61.222 0 110.852-49.63 110.852-110.852.001-61.222-49.63-110.852-110.852-110.852z" fill="#f9f6f6"/><path d="m223.796 244.206c18.984 18.984 44.831 31.113 73.504 32.355-1.62.073-3.246.109-4.888.109h-72.828c-30.604 0-58.318-12.404-78.377-32.463s-32.471-47.773-32.471-78.384c0-61.223 49.632-110.855 110.848-110.855h72.828c1.641 0 3.268.036 4.888.109-58.957 2.549-105.967 51.157-105.967 110.746 0 30.61 12.404 58.324 32.463 78.383z" fill="#fbe2dd"/><g><path d="m277.208 233.203c-8.555 0-16.203-3.958-21.208-10.138-5.006 6.181-12.654 10.138-21.208 10.138-3.355 0-6.074-2.719-6.074-6.074s2.719-6.074 6.074-6.074c8.345 0 15.135-6.789 15.135-15.134 0-3.355 2.719-6.074 6.074-6.074s6.074 2.719 6.074 6.074c0 8.345 6.789 15.134 15.134 15.134 3.355 0 6.074 2.719 6.074 6.074s-2.72 6.074-6.075 6.074z" fill="#ffd8d5"/><path d="m267.705 173.82h-23.41c-7.307 0-13.23 5.923-13.23 13.23s5.923 13.23 13.23 13.23h4.434v4.444c0 4.016 3.256 7.271 7.271 7.271 4.016 0 7.271-3.256 7.271-7.271v-4.444h4.434c7.307 0 13.23-5.923 13.23-13.23s-5.923-13.23-13.23-13.23z" fill="#dd636e"/><path d="m253.988 200.279h-9.694c-7.307 0-13.229-5.922-13.229-13.229s5.922-13.229 13.229-13.229h9.694c-7.307 0-13.229 5.922-13.229 13.229s5.922 13.229 13.229 13.229z" fill="#da4a54"/></g><g fill="#ffd8d5"><g><path d="m215.19 203.496c-.637 0-1.284-.123-1.91-.381-31.645-13.094-64.727-5.075-65.058-4.993-2.674.667-5.393-.957-6.063-3.633-.672-2.676.949-5.39 3.624-6.064 1.476-.372 36.532-8.944 71.321 5.451 2.551 1.056 3.764 3.98 2.708 6.532-.796 1.924-2.659 3.087-4.622 3.088z"/><path d="m146.983 222.424c-1.958 0-3.816-1.157-4.617-3.077-1.062-2.548.142-5.476 2.69-6.539 1.405-.585 34.816-14.239 71.345-5.136 2.68.667 4.311 3.381 3.643 6.061-.668 2.679-3.382 4.309-6.061 3.643-33.349-8.309-64.765 4.532-65.077 4.662-.629.261-1.281.386-1.923.386z"/><path d="m159.388 243.916c-1.853 0-3.632-1.033-4.498-2.81-1.21-2.482-.179-5.475 2.303-6.686 13.38-6.522 34.348-14.054 58.248-12.861 2.758.137 4.883 2.484 4.746 5.242-.137 2.757-2.445 4.891-5.242 4.746-22.927-1.132-43.278 6.944-53.369 11.863-.707.343-1.453.506-2.188.506z"/></g><g><path d="m296.81 203.496c-1.963 0-3.825-1.163-4.622-3.09-1.056-2.551.157-5.476 2.708-6.532 34.786-14.394 69.846-5.823 71.321-5.451 2.677.675 4.301 3.393 3.626 6.07-.676 2.678-3.395 4.3-6.067 3.627-.454-.112-33.471-8.076-65.056 4.994-.626.259-1.274.382-1.91.382z"/><path d="m365.017 222.424c-.641 0-1.292-.124-1.921-.386-.477-.196-31.932-12.921-65.079-4.663-2.683.666-5.394-.963-6.061-3.643-.668-2.68.963-5.393 3.643-6.061 36.529-9.104 69.939 4.55 71.345 5.136 2.549 1.063 3.753 3.991 2.69 6.539-.801 1.921-2.66 3.078-4.617 3.078z"/><path d="m352.612 243.916c-.735 0-1.481-.163-2.188-.506-10.09-4.919-30.443-12.998-53.369-11.863-2.761.147-5.105-1.988-5.242-4.746s1.988-5.105 4.746-5.242c23.898-1.194 44.867 6.338 58.248 12.861 2.481 1.21 3.513 4.203 2.303 6.686-.866 1.776-2.645 2.81-4.498 2.81z"/></g></g><g><circle cx="335.408" cy="158.368" fill="#665e66" r="20.172"/><path d="m342.678 177.18c-2.251.878-4.709 1.357-7.271 1.357-11.142 0-20.169-9.035-20.169-20.169 0-11.142 9.027-20.177 20.169-20.177 2.562 0 5.02.479 7.271 1.357-7.551 2.913-12.906 10.24-12.906 18.821 0 8.571 5.355 15.898 12.906 18.811z" fill="#544f57"/></g><g><circle cx="179.451" cy="158.368" fill="#665e66" r="20.172"/><path d="m186.721 177.18c-2.251.878-4.709 1.357-7.271 1.357-11.142 0-20.169-9.035-20.169-20.169 0-11.142 9.027-20.177 20.169-20.177 2.562 0 5.02.479 7.271 1.357-7.551 2.913-12.906 10.24-12.906 18.821 0 8.571 5.355 15.898 12.906 18.811z" fill="#544f57"/></g><path d="m219.27 327.35c0-18.501 13.677-33.811 31.475-36.358 1.718-.245 3.47-.372 5.256-.372s3.538.127 5.256.372c17.798 2.547 31.475 17.857 31.475 36.358 0 20.278-16.444 36.722-36.73 36.722s-36.732-16.444-36.732-36.722z" fill="#ffd064"/><path d="m269.062 361.68c-4.054 1.549-8.463 2.395-13.067 2.395-20.286 0-36.722-16.444-36.722-36.73 0-20.278 16.436-36.722 36.722-36.722 4.604 0 9.013.846 13.067 2.395-13.837 5.264-23.663 18.653-23.663 34.327-.001 15.682 9.825 29.071 23.663 34.335z" fill="#ffc250"/><path d="m348.09 494.93c-6.28 2.42-12.67 4.6-19.18 6.53-23.1 6.86-47.58-10.131-72.91-10.131-45.19 0-87.65 8.951-124.51-11.599-6.41-3.58-12.66-7.42-18.72-11.52v-60.87c4.27-8.71 10.03-16.88 17.27-24.13 17.66-17.66 40.82-26.49 63.96-26.49 23.15 0 46.3 8.83 63.96 26.49l65.37 65.37c13.16 13.16 21.41 29.37 24.76 46.35z" fill="#ffc250"/><path d="m328.91 501.46c-23.1 6.86-47.58 10.54-72.91 10.54-11.03 0-21.9-.7-32.57-2.06-2.611-.328-2.738-3.169-5.323-3.58-2.703-.429-7.863 1.571-10.536 1.06-2.43-.46-4.85-.96-7.26-1.51-1.54-.334-1.523-3.985-3.054-4.355-.994-.24-3.538 2.811-4.526 2.555-21.64-5.5-42.19-13.76-61.24-24.38-5.19-9.93-7.94-21.03-7.94-32.56 0-18.82 7.33-36.51 20.63-49.81 13.31-13.31 31-20.64 49.82-20.64s36.51 7.33 49.82 20.64l65.37 65.37c10.909 10.91 17.489 24.54 19.719 38.73z" fill="#ffd064"/><g fill="#544f57"><path d="m260.22 473.16-4.35 4.34c-2.54 2.54-6.65 2.54-9.19 0-2.54-2.53-2.54-6.65 0-9.19l4.34-4.34c1.12-1.12 1.12-2.95 0-4.07s-2.94-1.12-4.06 0l-44.63 44.64c-.6.6-1.29 1.06-2.02 1.37-2.54-.55-5.07-1.15-7.58-1.8-2.12-2.56-1.99-6.37.4-8.77l10.93-10.92-5.23-5.23-10.92 10.92c-2.54 2.54-6.66 2.54-9.2 0-2.54-2.53-2.54-6.65 0-9.19l10.93-10.92 5.95-5.96-8.99-8.99-16.88 16.88c-2.54 2.54-6.65 2.54-9.19 0s-2.54-6.65 0-9.19l16.88-16.88 5.33-5.33-9.62-9.62-22.21 22.21c-2.54 2.54-6.65 2.54-9.19 0s-2.54-6.66 0-9.19l51.26-51.26c2.54-2.54 6.65-2.54 9.19 0 2.54 2.53 2.54 6.65 0 9.19l-19.86 19.86 9.62 9.62 19.86-19.86c2.54-2.54 6.65-2.54 9.19 0s2.54 6.65 0 9.19l-25.19 25.19 9 8.99 25.18-25.19c2.54-2.54 6.66-2.54 9.2 0 2.53 2.54 2.53 6.66 0 9.19l-25.19 25.19-5.96 5.96 5.23 5.23 24.52-24.52c6.19-6.19 16.26-6.19 22.45 0 6.18 6.19 6.18 16.26 0 22.45z"/><path d="m280.75 477.93-13.63 13.63c-5.51 5.51-12.83 8.54-20.61 8.54h-6.55c-4.31 0-8.37 1.68-11.42 4.73l-5.11 5.11c-5.34-.67-10.63-1.52-15.86-2.52l11.78-11.78c5.51-5.51 12.83-8.54 20.61-8.54h6.55c4.31 0 8.37-1.68 11.42-4.73l13.63-13.63c2.54-2.54 6.65-2.54 9.19 0s2.54 6.65 0 9.19z"/></g><path d="m243.136 327.35c0-5.23 3.131-9.724 7.608-11.739v-24.62c1.718-.245 3.47-.372 5.256-.372s3.538.127 5.256.372v24.62c4.477 2.014 7.608 6.508 7.608 11.739 0 7.101-5.763 12.864-12.864 12.864s-12.864-5.763-12.864-12.864z" fill="#544f57"/><g><g><path d="m158.916 451.865c-2.757 2.757-7.227 2.757-9.983 0l-12.927-12.927 9.983-9.983 12.927 12.927c2.756 2.756 2.756 7.226 0 9.983z" fill="#dd636e"/><path d="m160.515 449.414c-.348.887-.878 1.73-1.599 2.451-2.755 2.755-7.24 2.755-9.995 0l-12.924-12.924 4.05-4.05 12.924 12.924c2.034 2.034 5.006 2.572 7.544 1.599z" fill="#da4a54"/></g><g><path d="m180.769 430.012c-2.757 2.757-7.227 2.757-9.983 0l-12.927-12.927 9.983-9.983 12.927 12.927c2.756 2.756 2.756 7.226 0 9.983z" fill="#dd636e"/><path d="m182.368 427.561c-.348.887-.878 1.73-1.599 2.451-2.755 2.755-7.24 2.755-9.995 0l-12.924-12.924 4.05-4.05 12.924 12.924c2.034 2.034 5.006 2.572 7.544 1.599z" fill="#da4a54"/></g><g><path d="m202.589 408.191c-2.757 2.757-7.227 2.757-9.983 0l-12.927-12.927 9.983-9.983 12.927 12.927c2.757 2.756 2.757 7.226 0 9.983z" fill="#dd636e"/><path d="m204.189 405.74c-.348.887-.878 1.73-1.599 2.451-2.755 2.755-7.24 2.755-9.995 0l-12.924-12.924 4.05-4.05 12.924 12.924c2.033 2.034 5.006 2.573 7.544 1.599z" fill="#da4a54"/></g><path d="m72.637 322.476c-19.194 19.194-19.194 50.313 0 69.507l52.271 52.271c7.343 7.342 19.247 7.342 26.59 0 4.412-4.412 6.153-10.469 5.262-16.196 5.727.891 11.784-.85 16.196-5.262s6.153-10.469 5.262-16.196c5.727.891 11.784-.85 16.196-5.262 7.343-7.342 7.343-19.247 0-26.59l-52.271-52.271c-19.193-19.194-50.313-19.194-69.506-.001z" fill="#f9f6f6"/><path d="m72.637 322.471c3.746-3.746 7.944-6.762 12.428-9.039-9.43 18.469-6.414 41.648 9.03 57.092l52.269 52.269c2.929 2.929 6.588 4.693 10.395 5.284.452 2.868.235 5.797-.643 8.569-.878 2.79-2.407 5.397-4.615 7.605-7.344 7.344-19.251 7.344-26.595 0l-52.269-52.269c-19.19-19.189-19.199-50.312 0-69.511z" fill="#fbe2dd"/></g><path d="m406.603 365.463c23.692 0 42.898-19.206 42.898-42.898v-154.632h-85.796v154.632c0 23.692 19.206 42.898 42.898 42.898z" fill="#f9f6f6"/><path d="m422.233 362.533c-4.85 1.89-10.12 2.93-15.63 2.93-23.69 0-42.9-19.2-42.9-42.9v-154.63h31.26v154.63c0 18.18 11.31 33.72 27.27 39.97z" fill="#fbe2dd"/><g><g><path d="m379.685 215.819c-4.457 0-8.07-3.613-8.07-8.07v-20.9h16.14v20.9c0 4.457-3.613 8.07-8.07 8.07z" fill="#dd636e"/><path d="m382.959 215.131c-.998.436-2.108.688-3.274.688-4.454 0-8.079-3.625-8.079-8.079v-20.894h6.548v20.894c-.001 3.288 1.967 6.126 4.805 7.391z" fill="#da4a54"/></g><g><path d="m415.015 215.819c-4.457 0-8.07-3.613-8.07-8.07v-20.9h16.14v20.9c0 4.457-3.613 8.07-8.07 8.07z" fill="#dd636e"/><path d="m418.289 215.131c-.998.436-2.108.688-3.274.688-4.454 0-8.079-3.625-8.079-8.079v-20.894h6.548v20.894c-.001 3.288 1.966 6.126 4.805 7.391z" fill="#da4a54"/></g><g><path d="m450.292 215.819c-4.457 0-8.07-3.613-8.07-8.07v-20.9h16.14v20.9c.001 4.457-3.613 8.07-8.07 8.07z" fill="#dd636e"/><path d="m453.566 215.131c-.998.436-2.108.688-3.274.688-4.454 0-8.079-3.625-8.079-8.079v-20.894h6.548v20.894c0 3.288 1.967 6.126 4.805 7.391z" fill="#da4a54"/></g><path d="m414.533 125.991c-31.03 0-56.185 25.155-56.185 56.185 0 11.87 9.623 21.493 21.493 21.493 7.133 0 13.436-3.489 17.346-8.838 3.909 5.349 10.213 8.838 17.345 8.838 7.133 0 13.436-3.489 17.346-8.838 3.909 5.349 10.213 8.838 17.345 8.838 11.87 0 21.493-9.623 21.493-21.493.002-31.03-25.153-56.185-56.183-56.185z" fill="#f9f6f6"/><path d="m414.537 125.987c6.056 0 11.887.956 17.353 2.74-22.551 7.306-38.851 28.481-38.851 53.449v-.004c0 4.735 1.532 9.119 4.131 12.674-1.953 2.684-4.496 4.876-7.447 6.407-2.965 1.546-6.309 2.417-9.878 2.417-11.873 0-21.498-9.625-21.498-21.498v.004c.001-31.024 25.152-56.189 56.19-56.189z" fill="#fbe2dd"/></g></g></g></svg>