<svg id="Icons" height="512" viewBox="0 0 60 60" width="512" xmlns="http://www.w3.org/2000/svg"><path d="m24.62 55.03h-.01a13.661 13.661 0 0 1 -6.81.97 7.767 7.767 0 0 0 -6.3 2.33 2.014 2.014 0 0 1 -1.5.67 1.963 1.963 0 0 1 -1.32-.5 1.99 1.99 0 0 1 -.19-2.8 11.849 11.849 0 0 1 9.71-3.69c.32.03.62.05.92.06h.01z" fill="#252534"/><path d="m27.16 43.77c.2-1.93.52-4.78.96-7.63a9.6 9.6 0 0 1 9.46-8.14 2.788 2.788 0 0 0 2.747-2.347c.273-1.67.706-3.732 1.253-4.4a54.463 54.463 0 0 1 5.31-5.14.712.712 0 0 1 1.17.66l-.4 2.16c3.55 1 3.01 2.81 3.27 3.6a2.264 2.264 0 0 0 .7 1.016 1.362 1.362 0 0 1 .377 1.474l-.316.957a1.488 1.488 0 0 1 -1.411 1.02h-.68a1.485 1.485 0 0 0 -1.481 1.379l-.049.691a1.394 1.394 0 0 0 .16.8 6.883 6.883 0 0 1 .77 3.13 9.017 9.017 0 0 1 -2.87 5.98 3.158 3.158 0 0 0 -.84 2.75l.51 3.09a2.194 2.194 0 0 0 1.207 1.68 1.789 1.789 0 0 1 .993 1.668v2.832h-20z" fill="#252534"/><path d="m54.847 48.312a28.045 28.045 0 0 1 -21.521 8.65 28 28 0 1 1 5.774-55.635.526.526 0 0 1 0 1.037 24.163 24.163 0 0 0 2.237 47.786 24.262 24.262 0 0 0 12.9-2.674.524.524 0 0 1 .61.836z" fill="#f8b331"/></svg>