<svg clip-rule="evenodd" fill-rule="evenodd" stroke-linejoin="round" stroke-miterlimit="2" viewBox="0 0 64 64" xmlns="http://www.w3.org/2000/svg" xmlns:serif="http://www.serif.com/"><g transform="translate(-30 -300)"><g id="Icon"><g transform="matrix(1 0 0 -1 -288 423)"><path d="m327.523 73h-3.523c-.552 0-1 .448-1 1v4c0 .265.105.52.293.707.187.188.442.293.707.293h1c.796 0 1.559.316 2.121.879.563.562.879 1.325.879 2.121v8c0 .552-.448 1-1 1s-1-.448-1-1c0 0 0-5.082 0-8 0-.265-.105-.52-.293-.707-.187-.188-.442-.293-.707-.293h-1c-.796 0-1.559-.316-2.121-.879-.563-.562-.879-1.325-.879-2.121v-4c0-1.657 1.343-3 3-3h3.523c.552 0 1 .448 1 1s-.448 1-1 1z" fill="#9c6f0f"/></g><path d="m66.257 339.033 1.957.01c.745-3.356 3.365-6.009 6.703-6.8.532-.127.864-.657.745-1.191-.579-2.598-1.886-5.003-3.799-6.915-2.617-2.617-6.156-4.101-9.854-4.136-.266-.003-.523.101-.713.289-.189.188-.296.444-.296.711v.999c0 .552-.448 1-1 1s-1-.448-1-1v-.999c0-.267-.107-.523-.296-.711-.19-.188-.447-.292-.713-.289-3.698.035-7.237 1.519-9.854 4.136-2.649 2.649-4.137 6.241-4.137 9.987v4.772c0 .399.238.761.605.918.367.158.793.083 1.083-.192 2.218-2.101 5.496-3.622 10.312-3.622h9.39z" fill="#5490f2"/><path d="m42.765 352c.284 0 .555-.121.745-.333.366-.409.898-.667 1.49-.667s1.124.258 1.49.667c.19.212.461.333.745.333h25.53c.284 0 .555-.121.745-.333.147-.164.32-.304.514-.413.34-.191.538-.562.507-.95-.03-.389-.284-.724-.65-.86-3.432-1.269-3.291-15.444-3.737-15.444h-14.144c-17 0-17 17-17 17 0 .552.448 1 1 1z" fill="#ce9823"/><g transform="translate(15 290)"><path d="m70.786 49.041c.099.447.489.769.946.783.458.013.866-.285.992-.725l2.237-7.824c.1-.349.003-.725-.254-.982s-.633-.354-.982-.254l-6.282 1.796c-.371.107-.648.416-.712.797-.063.381.098.764.414.985 1.816 1.269 3.144 3.191 3.641 5.424z" fill="#ce9823"/></g><g transform="translate(15 290)"><path d="m56.855 43.617c.316-.221.477-.604.414-.985-.064-.381-.341-.69-.712-.797l-6.282-1.796c-.349-.1-.725-.003-.982.254s-.354.633-.254.982l2.237 7.824c.126.44.534.739.992.725.457-.014.847-.336.946-.783.496-2.233 1.824-4.155 3.641-5.424z" fill="#9c6f0f"/></g><path d="m73.188 351.32c.275.102.58.078.836-.066.289-.162.622-.254.976-.254.591 0 1.122.257 1.489.665.195.218.475.339.767.332 5.953-.136 10.744-5.011 10.744-10.997 0-6.071-4.929-11-11-11s-11 4.929-11 11c0 4.731 2.993 8.768 7.188 10.32z" fill="#f0b638"/><path d="m50 309h20c.552 0 1-.448 1-1v-2c0-1.591-.632-3.117-1.757-4.243-1.126-1.125-2.652-1.757-4.243-1.757h-10c-1.591 0-3.117.632-4.243 1.757-1.125 1.126-1.757 2.652-1.757 4.243v2c0 .552.448 1 1 1z" fill="#333"/><path d="m47.235 350c-.394 0-.752.232-.913.592s-.095.781.168 1.075c.317.354.51.821.51 1.333 0 1.104-.896 2-2 2-.552 0-1 .448-1 1v5c0 1.657 1.343 3 3 3h26c1.657 0 3-1.343 3-3v-5c0-.552-.448-1-1-1-1.104 0-2-.896-2-2 0-.512.193-.979.51-1.333.263-.294.329-.715.168-1.075s-.519-.592-.913-.592z" fill="#5490f2"/><g transform="translate(-211 180)"><path d="m274 138.693c0-.317-.15-.615-.405-.804-.255-.188-.584-.245-.887-.152-.561.171-1.157.263-1.774.263h-.002c-.564 0-1.121-.08-1.653-.235-.302-.088-.628-.028-.88.161-.251.189-.399.485-.399.799v3.275c0 1.657 1.343 3 3 3s3-1.343 3-3z" fill="#eb886b"/></g><g transform="translate(-211 180)"><path d="m279 127c0-1.657-1.343-3-3-3h-10c-1.657 0-3 1.343-3 3v5.068c0 2.104.836 4.121 2.323 5.609 1.488 1.487 3.505 2.323 5.609 2.323h.002c4.455 0 8.066-3.611 8.066-8.066z" fill="#f9bc9d"/></g><g transform="matrix(-1.143 0 0 1 365.286 180)"><path d="m261 127c.483 0 .875.448.875 1v4c0 .552-.392 1-.875 1h-1.719c-1.467 0-2.656-1.359-2.656-3.036v-.002c0-.786.273-1.539.759-2.094.486-.556 1.145-.868 1.833-.868z" fill="#f9bc9d"/></g><g transform="matrix(1.143 0 0 1 -245.286 180)"><path d="m261.875 128c0-.552-.392-1-.875-1h-1.783c-.688 0-1.347.312-1.833.868-.486.555-.759 1.308-.759 2.094v.002c0 1.677 1.189 3.036 2.656 3.036h1.719c.483 0 .875-.448.875-1z" fill="#f9bc9d"/></g><g transform="translate(-369 276)"><path d="m449.5 60.5c.366 0 .61-.237.62-.247.253-.469.834-.659 1.317-.424.496.241.704.84.462 1.336 0 0-.568 1.335-2.399 1.335-1.831 0-2.399-1.335-2.399-1.335-.242-.496-.034-1.095.462-1.336.484-.235 1.064-.045 1.317.424.01.01.254.247.62.247z" fill="#9c6f0f"/></g><g transform="translate(-376 276)"><path d="m449.5 60.5c.366 0 .61-.237.62-.247.253-.469.834-.659 1.317-.424.496.241.704.84.462 1.336 0 0-.568 1.335-2.399 1.335-1.831 0-2.399-1.335-2.399-1.335-.242-.496-.034-1.095.462-1.336.484-.235 1.064-.045 1.317.424.01.01.254.247.62.247z" fill="#9c6f0f"/></g><g transform="matrix(.667 0 0 .667 16.333 279.667)"><circle cx="62.5" cy="45.5" fill="#333" r="1.5"/></g><g transform="matrix(.667 0 0 .667 20.333 279.667)"><circle cx="62.5" cy="45.5" fill="#333" r="1.5"/></g><g transform="matrix(1 0 0 1.143 15.118 283.357)"><path d="m64.53 51.951c.47-.528.555-1.243.22-1.844-.336-.601-1.033-.982-1.797-.982-.647 0-1.36 0-2 0-.751 0-1.438.368-1.78.952-.342.585-.281 1.288.157 1.821l1.741 2.113c.188.229.489.364.811.364 0 0 .789-.337.789-.337z" fill="#9c6f0f"/></g><g transform="matrix(.8 0 0 .8 27.4 301.7)"><path d="m60.75 53.5c0 .69-.56 1.25-1.25 1.25s-1.25-.56-1.25-1.25-.56-1.25-1.25-1.25-1.25.56-1.25 1.25c0 2.07 1.68 3.75 3.75 3.75s3.75-1.68 3.75-3.75c0-.69-.56-1.25-1.25-1.25s-1.25.56-1.25 1.25z" fill="#9c6f0f"/></g><g transform="matrix(.8 0 0 .8 31.4 301.7)"><path d="m60.75 53.5c0 .69-.56 1.25-1.25 1.25s-1.25-.56-1.25-1.25-.56-1.25-1.25-1.25-1.25.56-1.25 1.25c0 2.07 1.68 3.75 3.75 3.75s3.75-1.68 3.75-3.75c0-.69-.56-1.25-1.25-1.25s-1.25.56-1.25 1.25z" fill="#9c6f0f"/></g><g transform="matrix(.857 0 0 1 45 288)"><path d="m52.5 52h-4.667c-.644 0-1.166.448-1.166 1s.522 1 1.166 1h4.667c.644 0 1.167-.448 1.167-1s-.523-1-1.167-1z" fill="#ce9823"/></g><g transform="translate(37.5 292)"><path d="m52.5 52h-4.5c-.552 0-1 .448-1 1s.448 1 1 1h4.5c.552 0 1-.448 1-1s-.448-1-1-1z" fill="#ce9823"/></g><g transform="matrix(1.143 0 0 1.143 -331.857 271.143)"><path d="m331.5 62.875c1.449 0 2.625 1.176 2.625 2.625 0 .483.392.875.875.875s.875-.392.875-.875c0-2.415-1.96-4.375-4.375-4.375-.483 0-.875.392-.875.875s.392.875.875.875z" fill="#9c6f0f"/></g><g transform="translate(-281 278)"><path d="m332 69h3c.265 0 .52.105.707.293.188.187.293.442.293.707v2h2v-2c0-.796-.316-1.559-.879-2.121-.562-.563-1.325-.879-2.121-.879-1.392 0-3 0-3 0-.552 0-1 .448-1 1s.448 1 1 1z" fill="#9c6f0f"/></g><g transform="matrix(1.2 0 0 1.2 -286.8 159.792)"><circle cx="276.5" cy="161.007" fill="#f9bc9d" r="3.333"/></g><g transform="matrix(.857 0 0 1 22 288)"><path d="m53.667 52h-4.667c-.644 0-1.167.448-1.167 1s.523 1 1.167 1h4.667c.644 0 1.166-.448 1.166-1s-.522-1-1.166-1z" fill="#9c6f0f"/></g><g transform="translate(15 292)"><path d="m53.5 52h-4.5c-.552 0-1 .448-1 1s.448 1 1 1h4.5c.552 0 1-.448 1-1s-.448-1-1-1z" fill="#9c6f0f"/></g><g transform="matrix(1.2 0 0 1.2 -256.8 159.792)"><circle cx="276.5" cy="161.007" fill="#f9bc9d" r="3.333"/></g></g></g></svg>