<svg id="Flat" height="512" viewBox="0 0 128 128" width="512" xmlns="http://www.w3.org/2000/svg"><path d="m70.38 93.44-6.21 8.02c-1.55.17-3.99.63-6.55.84-.42.04-.84.06-1.27.08a9.424 9.424 0 0 1 -6.1-1.583c-1.43-.94-1.17-3.3.109-4.375a1.969 1.969 0 0 1 .951-.492c2.22-.59 6.13-1.56 8.27-4.34.54-.69.932-2.585 2.212-3.715z" fill="#543c66"/><path d="m51.833 65.333c-16.755 28.642-49.28 28.834-49.28 28.834v-22.827a2.99 2.99 0 0 1 3.256-2.987c4.728.426 13.857.424 22.161-4.562 3.808-2.287 15.2-9.208 15.2-9.208z" fill="#ff7171"/><path d="m67.417 62.438h-21.823c4.406 4.842 4.4 8.212 7.282 14.091s8.465 14.125 14.624 16.346l9.812-2.375z" fill="#ffdbcf"/><path d="m34.08 64.51a13.08 13.08 0 0 1 -6.05-.74c-.47-.16-.92-.32-1.35-.5-1.89-.76-3.41-1.72-3.81-2.47a2.915 2.915 0 0 1 1.05-3.74 8.806 8.806 0 0 1 2.04-.5c.15-.03.31-.05.47-.08 3.45-.55 9.3-1.23 12.03-3.23 0 0 .22 8.18-4.38 11.26z" fill="#543c66"/><path d="m122.917 26.625c-5.941 4.78-4.933 7.024-5.217 9.935-.885 9.063 1.04 18.05.22 24.13-1.31 9.73-6.81 18.04-17.66 20.01a13.2 13.2 0 0 0 -7.97 5.43c-4.39 7.52-11.93 12.5-16.63 16.78a29.817 29.817 0 0 1 -5.63 4.06 16.758 16.758 0 0 1 -7.87 2.36c-1.257-.007-2.84-.914-2.91-2.174-.12-2.07 1.73-4.256 3.33-5.4.18-.13.34-.24.49-.34 1.72-1.12 4.45-4.13 4.51-6.18.03-1.13-.72-3.37-2.72-5.8a15.291 15.291 0 0 1 -3.3-11.5 1.982 1.982 0 0 0 -1.05-1.98 42.794 42.794 0 0 1 -14.65-12.846c-1.5 2.52-5.42 5.38-8.76 7.24a14.361 14.361 0 0 1 -4.367 1.45c-.98.21-1.578.465-2.379-.13-1.039-.773-2.049-2.581-1.229-4.011a11.721 11.721 0 0 1 1.615-2.339c.12-.13.24-.25.36-.38a23.97 23.97 0 0 0 4.92-8.2 7.6 7.6 0 0 0 -2.12-8.12 24.442 24.442 0 0 1 -5.47-7.26c-.7-1.71-.94-3.97.3-5.23a6.834 6.834 0 0 1 2.34-1.39s4.05-5.11 6.96-6.11c.07-.03.22-.07.24-.08.74-.25 1.07-2.03 1.85-3.65a1.111 1.111 0 0 1 .07-.16 2.36 2.36 0 0 1 3.15-.83 8.727 8.727 0 0 1 2.23 2.24 13.275 13.275 0 0 0 4.89 4.03 121.857 121.857 0 0 0 13.5 4.84c8.22 2.66 15.48 6.49 21.59 12.59 4.65 4.65 8.5 11.98 10.49 20.34a3.583 3.583 0 0 0 4.11 2.72c4.62-.88 8.942-5.85 6.23-26.94-.492-3.83-.81-8.85-.8-10.33a18.923 18.923 0 0 1 3.628-10.775c2.57-3.88 5.527-5.554 9.625-5.417 4.959.167 6.698 7.313 4.084 9.417z" fill="#594472"/><path d="m37.2 35.548-1.167.8a1.155 1.155 0 1 1 -.62-2.108l1.414.041a.694.694 0 0 1 .675.714.7.7 0 0 1 -.302.553z" fill="#fff"/><path d="m72.494 56.257c2.555-5.589-1.215-6.772-2.749-5.473 1.312-3.433-2.8-5.456-4.6-2.393 1.189-3.565-3.547-5.874-5.291-1.5a38.38 38.38 0 0 1 -5.275 8.781 1.506 1.506 0 0 1 -2.421-.4c-.545-1.016-.178-3.692-1.725-5.989a2.671 2.671 0 0 0 -4.718 1.688c-.25 2.078 1.136 9.451-.887 13.511-4.17 8.367-19.6 20.834-42.279 22.719v22.529a3 3 0 0 0 3.609 2.944c37.97-8.03 60.781-40.326 66.228-47.847 5.151-7.111 2.235-10.571.108-8.57z" fill="#ff8c83"/><path d="m123.38 27.5c-.47.33-.9.67-1.31 1-2.86 2.4-4.183 6.376-4.473 9.286a3.921 3.921 0 0 1 -4.18.589c-2.077-.977-3.339-5.234-7.837-4.975a18.75 18.75 0 0 1 3.02-10.89 13.082 13.082 0 0 1 10.68-6.04c6.27-.12 8.72 7.78 4.1 11.03z" fill="#ffdbcf"/><path d="m35.576 52.3a1.5 1.5 0 0 1 -.478-2.922c11.977-4.034 16.515-11.954 16.767-18.022a1.473 1.473 0 0 1 1.562-1.436 1.5 1.5 0 0 1 1.436 1.561c-.294 7.063-5.389 16.221-18.808 20.74a1.489 1.489 0 0 1 -.479.079z" fill="#ed4559"/><circle cx="30.771" cy="51.878" fill="#ffb95c" r="2.705"/><g fill="#ff7171"><path d="m65.681 59.852a1.5 1.5 0 0 1 -1.239-2.346 31 31 0 0 0 3.9-7.257 1.5 1.5 0 1 1 2.8 1.07 33.988 33.988 0 0 1 -4.221 7.881 1.5 1.5 0 0 1 -1.24.652z"/><path d="m69.369 62.733a1.5 1.5 0 0 1 -1.119-2.5 22.7 22.7 0 0 0 2.908-4.633 1.5 1.5 0 0 1 2.7 1.318 25.039 25.039 0 0 1 -3.366 5.316 1.5 1.5 0 0 1 -1.123.499z"/><path d="m60.814 57.57a1.5 1.5 0 0 1 -1.284-2.27c.286-.476.616-1.011.965-1.576a42.625 42.625 0 0 0 3.231-5.8 1.5 1.5 0 0 1 2.845.949 41.1 41.1 0 0 1 -3.522 6.43c-.343.555-.667 1.08-.948 1.548a1.5 1.5 0 0 1 -1.287.719z"/></g><path d="m41.06 28.38a10.593 10.593 0 0 0 -2.79.17c.74-.25 1.07-2.03 1.85-3.65a.076.076 0 0 1 .04.02c.82.47 1.06 2.33.9 3.46z" fill="#ffdbcf"/><path d="m70.03 106.97a26.992 26.992 0 0 1 -5.33 2.28 7.95 7.95 0 0 1 -3.6.43 2.913 2.913 0 0 1 -2.56-2.4c-.12-2.07 2.44-4.38 4.04-5.52.79 2.2 4.97 1.84 6.42 3.45a5.237 5.237 0 0 1 1.03 1.76z" fill="#ffdbcf"/><path d="m56.35 102.38c-2.6.12-5.18-.11-6.9-1.25a2.885 2.885 0 0 1 .6-4.82 10.683 10.683 0 0 1 1.26-.38c.02 1.76 3.68 1.37 4.89 3.32a4.1 4.1 0 0 1 .15 3.13z" fill="#ffc9bb"/><path d="m37.1 70.35a18.468 18.468 0 0 1 -4.34 1.88 4.255 4.255 0 0 1 -2.9-.3c-1.88-.98-1.74-2.98-.92-4.41a11.785 11.785 0 0 1 1.8-2.2c.3 1.58 1.73 1.52 3.8 1.68 1.84.14 2.39 2.13 2.56 3.35z" fill="#ffdbcf"/><path d="m28.03 63.77c-.47-.16-.92-.32-1.35-.5a10.049 10.049 0 0 1 -3.81-2.47 2.514 2.514 0 0 1 1.05-3.74 11.96 11.96 0 0 1 2.04-.5c.15-.03.31-.05.47-.08-.12 1.24.92 2.36 1.57 3.39a3.753 3.753 0 0 1 .03 3.9z" fill="#ffc9bb"/><circle cx="28.49" cy="36.733" fill="#473049" r="1.198"/></svg>