<svg id="Layer_1" enable-background="new 0 0 509.272 509.272" height="512" viewBox="0 0 509.272 509.272" width="512" xmlns="http://www.w3.org/2000/svg"><g><path d="m425.767 265.086c-46.313 26.943-103.954 132.497-63.964 216.721 1.98 4.17 6.879 6.141 11.169 4.435 17.885-7.112 34.774-19.171 49.215-34.152l61.227-127.811z" fill="#59a7ff"/><path d="m478.405 289.258c44.443 64.614 33.429 169.207-18.39 217.671-3.375 3.156-8.666 3.113-12.025-.06-65.46-61.857-50.676-177.071-18.462-217.611z" fill="#fbb071"/><path d="m454.134 289.258v220.009c2.119-.02 4.23-.793 5.881-2.338 51.819-48.464 62.833-153.057 18.39-217.671z" fill="#fb5858"/><g><path d="m453.988 253.828c-8.284 0-15-6.716-15-15v-50.05c0-12.715 4.37-25.19 12.304-35.128 16.373-20.504 21.01-48.573 12.102-73.254-10.46-28.983-37.584-48.791-68.165-50.146l-187.846 187.848c-5.857 5.857-15.355 5.857-21.213 0s-5.858-15.355 0-21.213l192.314-192.315c2.813-2.813 6.628-4.394 10.606-4.394h2.788c44.536 0 84.616 28.146 99.735 70.036 12.422 34.418 5.955 73.563-16.877 102.156-3.706 4.643-5.748 10.47-5.748 16.409v50.05c0 8.285-6.715 15.001-15 15.001z" fill="#e8f8fd"/></g><path d="m186.17 196.885 192.684-192.409c5.942-5.939 15.561-5.972 21.544-.075 6.061 5.974 6.079 15.748.039 21.743l-191.954 190.853z" fill="#582b1f"/><path d="m14.837 389.431c-15.612-15.612-15.612-40.924 0-56.536l136.134-136.135c15.612-15.612 40.924-15.612 56.536 0 15.612 15.612 15.612 40.924 0 56.536l-136.134 136.135c-15.612 15.612-40.924 15.612-56.536 0z" fill="#c6865c"/><path d="m71.373 389.431 36.924-36.924-56.537-56.536-36.924 36.924c-15.612 15.612-15.612 40.924 0 56.536 15.613 15.612 40.925 15.612 56.537 0z" fill="#985e33"/><path d="m454.134 20.485v42.118c3.807 5.418 6.944 11.383 9.26 17.802 8.369 23.187 4.78 49.363-9.26 69.449v103.976c8.216-.079 14.855-6.758 14.855-14.993v-50.05c0-5.939 2.042-11.767 5.748-16.409 22.832-28.594 29.299-67.738 16.877-102.156-7.362-20.398-20.651-37.52-37.48-49.737z" fill="#c8ddff"/><g><path d="m453.967 388.211c-9.514 0-17.227-7.713-17.227-17.227v-73.634c0-9.514 7.713-17.227 17.227-17.227s17.227 7.713 17.227 17.227v73.634c0 9.514-7.713 17.227-17.227 17.227z" fill="#ffe278"/></g><path d="m454.134 280.14v108.071c9.436-.091 17.06-7.761 17.06-17.219v-73.634c0-9.457-7.624-17.128-17.06-17.218z" fill="#fbb071"/><circle cx="453.989" cy="274.476" fill="#582b1f" r="38.427"/><path d="m454.134 236.049v76.846c21.155-.079 38.282-17.249 38.282-38.423s-17.127-38.344-38.282-38.423z" fill="#471d19"/></g></svg>