<svg id="圖層_1" enable-background="new 0 0 469.2 408.1" height="512" viewBox="0 0 469.2 408.1" width="512" xmlns="http://www.w3.org/2000/svg"><g><path d="m289.6 8.9c-27.4 11-59.2 14.3-87.8 7.2s-57.2-19.6-86.4-15.2c-43.8 6.6-75.5 56.7-62.6 99.2 8.6 28.2 8.6 57.3 2.3 86.2-5.8 26.7-7.7 29.1-21.3 52.8-19.6 34 6.2 84.4 45.3 88.4 26.9 2.7 51.7-4.8 77.3 4 27.8 9.6 33.5 25.1 52.4 47.7 15.7 18.7 37.5 29.2 61.9 29.1s48.8-13.6 59.8-35.4c14.2-28.2 4.4-50.7 26.1-73.5 15.6-16.4 38.9-13.8 59.5-23.3 24.1-11.1 71-52.3 15.7-109-30.4-31.2-27.6-61.8-30.3-87.8-6.3-59.3-60.6-91-111.9-70.4z" fill="#ebe1db"/><g><path d="m322.2 65.3c-1.8-8.2-8.2-16.4-13.9-22.6-.3-.3-.6-.6-1-.7-.8-.2-1.6.5-2.1 1.2-3.4 4.3-8.5 11.3-9.2 19.2z"/><path d="m47.6 242.8c-.8 2.1-1.9 4.5-.6 6.4.9 1.3 2.8 1.7 4.3 1.3 1.6-.4 2.8-1.5 3.9-2.7 4.9-5.2 7.2-12.2 10.3-18.6.8-1.6 1.7-3.3 3.1-4.4 1.2-.9 2.6-1.5 4-1.9 9.5-3.3 19.6-6.1 26.8-13.1-.5-.6-1-1.2-1.5-1.8-4.5-5.5-8.2-11.7-11.1-18.2-.7-1.5-1.3-3.1-1.8-4.6 0 0-.8-1.1-1.6-4.8-.5-2.4-1-5.9-1.3-10.9-1.4 6.4-4.1 12.4-8.2 17.5-2.1 2.6-4.5 5-7 7.3-2.4 2.2-4.9 4.2-7.4 6.1-1.9 1.4-3.9 2.9-5.1 4.9-.8 1.3-1.2 2.7-1.6 4.1-.6 2.3-1.2 4.7-1.6 7-.6 3.3-1.1 6.6-1.3 9.9-.5 5.5-.4 11.3-2.3 16.5z"/><path d="m219.5 214.2v.1c3 4.1 3.8 9.5 3.7 14.6s-.9 10.2-.4 15.3c.2 1.9.5 3.8 1.4 5.6 2.4 4.9 8.1 7 13.3 8.6 1.9.6 4.1 1.2 6 .5 2.2-.9 3.4-3.6 3-6s-1.9-4.4-3.8-6c3-14.7 14.6-26.3 19.6-40-13.9 4.6-28.2 6.6-42.8 7.3z"/><path d="m322.2 65.8c-.1 0-.1 0 0 0l-26.3-2.9c-.3 0-.5-.3-.4-.5.7-7.5 5.1-14 9.3-19.5.3-.4 1.3-1.7 2.6-1.4.6.1.9.6 1.2.9 8 8.7 12.6 16.1 14 22.8 0 .2 0 .3-.1.4-.1.2-.2.2-.3.2zm-25.7-3.8 25 2.8c-1.6-6.3-6-13.4-13.6-21.7-.3-.3-.5-.5-.7-.6-.4-.1-.9.2-1.6 1-4 5.2-8.2 11.5-9.1 18.5z"/><path d="m151.6 209.3c7.8 2.7 16.2 3.4 24.4 4 14.5 1 29.1 1.7 43.4 1 14.5-.7 28.9-2.8 42.7-7.3 2.6-.9 5.2-1.8 7.8-2.8 9.6 14.3 21.3 37.1 33.4 48.7 1.8 1.7 3.7 3.4 6 4.2 2.2.8 4.6.7 7 .6 5.1-.3 10.2-1.1 15.2-2.2.9-.2 2-.5 2.6-1.3.4-.6.6-1.4.6-2.1.1-4.4-3-8.7-7.2-10-1.8-.5-3.7-.6-5.2-1.8-.8-.7-1.4-1.6-1.8-2.5-3.8-7.1-6.1-21.8-8.1-29.6-.1-.3-.2-.7-.2-1-2.4-9.7-4.4-19.6-4.8-29.7-.1-1.6-.1-3.2-.1-4.8.1-8.5 1.4-16.9 4.6-24.8 2.9-4.8 8.3-7 13.1-9.8 11.6-6.8 20.6-18 24.8-30.7 2.5-6.1 2.4-13-.3-18.7-.8-1.7-2-3.4-3.8-4.1-.7-.3-1.5-.4-2.2-.7-2-.8-3.2-2.9-4.4-4.8-4.2-6.6-10.3-12.1-17.4-15.4-7.1-3.4-15.1-4.7-23.1-3.5-9.3 1.1-18.3 5.4-25 12-5.7 5.6-9.8 12.7-16.3 17.3-6.9 4.9-15.8 6.3-24.3 5.8-3.1-.2-6.3-.6-9.4-1.1-5.3-.9-10.5-2.1-15.7-3.1-18.2-3.5-36.9-4.3-55.5-2.4-6.6.4-13.2.8-19.7 2.3-5 1.1-9 2.9-11.5 4-8.7 4-17 8.7-23.6 15.6-8.8 9.3-13.8 21.9-14.8 34.7-.8 10.5-.9 18.4-.6 24.2.3 5 .8 8.5 1.3 10.9.8 3.6 1.6 4.8 1.6 4.8.6 1.6 1.2 3.1 1.8 4.6 2.8 6.5 6.5 12.7 11.1 18.2.5.6 1 1.2 1.5 1.8 2.9 3.5 5.8 7.4 5.4 11.8-.2 2-1 3.9-.8 5.9.2 3.1 2.7 5.6 5.1 7.6 1 .8 2 1.7 3 2.5 8 6.4 16.6 12.4 22.2 21 .4.6.9.9 1.6 1 5.9.4 12.1.4 18.2.2 1.2 0 2.5-.2 3.4-1 .7-.7.8-1.9.7-2.9-.3-3-2.4-5.7-5.2-6.9-1.8-.8-3.9-.9-5.9-.5-2.9-4.1-5.3-8.6-7.1-13.3-.6-1.7-1.2-3.4-1-5.2.3-2.2 1.9-4 3.3-5.7s2.7-3.4 3.9-5.1c2.1-3.2 3.9-6.5 5.3-9.9z"/><path d="m2.1 135.7c2.8 11.9 12 22.3 23.8 25.5 6 1.7 12.4 1.6 18.7.9.7-.1 1.4-.1 2-.2 3.6-.4 7.2-1.1 10.7-2.2 9.7-3.1 18-9.8 24.3-17.9 2.1-2.7 4-5.5 6.2-8.2 5.2-6.5 11.5-11.9 17.8-17.5 1.7-1.5 3.5-3.1 4.4-5.2 1-2.1 1-4.8 0-6.8-4.5-.1-9 1.7-12.7 4.3s-6.9 6-10 9.2c-7.6 7.9-15.7 15.6-25 21.4-1.6 1-3.2 1.9-4.9 2.8-.8.4-1.6.8-2.4 1.2-3.7 1.7-7.6 3.1-11.7 3.6-1.5.2-3 .3-4.5.2-6.5-.3-13-3.4-16.2-9.1-1.9-3.4-2.4-7.4-3.8-11.1s-4.2-7.3-8.1-7.7c-3.6-.4-7.1 2.4-8.5 5.7-1.2 3.7-.9 7.6-.1 11.1z"/><g><path d="m50 251.1c-1.5 0-2.8-.6-3.5-1.7-1.3-1.9-.4-4.3.4-6.4l.2-.4c1.5-4.1 1.8-8.7 2-13.1.1-1.1.1-2.2.2-3.3.2-3.3.7-6.7 1.3-10 .4-2.3 1-4.7 1.6-7 .4-1.4.8-2.9 1.6-4.2 1.2-2 3.1-3.4 5-4.8l.3-.2c2.8-2.1 5.3-4.1 7.4-6.1 2.7-2.4 5-4.8 7-7.3 3.9-4.8 6.7-10.6 8.1-17.2 0-.2.2-.4.5-.4s.5.2.5.5v.1c-1.5 6.8-4.3 12.7-8.3 17.7-2 2.5-4.4 4.9-7.1 7.4-2.2 2-4.6 4-7.5 6.1l-.3.2c-1.8 1.3-3.6 2.7-4.7 4.6-.7 1.2-1.2 2.6-1.5 4-.6 2.3-1.2 4.7-1.6 7-.6 3.3-1.1 6.6-1.3 9.9-.1 1.1-.1 2.2-.2 3.3-.2 4.5-.5 9.1-2.1 13.4l-.2.4c-.7 1.9-1.5 4-.5 5.5.8 1.2 2.5 1.5 3.8 1.1 1.6-.4 2.8-1.6 3.7-2.5 3.7-3.9 6-9 8.1-13.9.7-1.5 1.3-3 2.1-4.5.8-1.6 1.7-3.4 3.2-4.6 1.2-1 2.7-1.5 4.2-2 1.1-.4 2.2-.7 3.3-1.1 8.4-2.8 17-5.7 23.3-11.9.2-.2.5-.2.7 0s.2.5 0 .7c-6.4 6.3-15.2 9.2-23.7 12.1-1.1.4-2.2.7-3.3 1.1-1.5.5-2.8 1-3.9 1.9-1.4 1.1-2.2 2.7-2.9 4.3-.7 1.5-1.4 3-2 4.5-2.2 5-4.5 10.2-8.3 14.2-1 1.1-2.4 2.3-4.2 2.8-.5-.2-.9-.2-1.4-.2z"/><path d="m207 215c-11 0-21.7-.6-31-1.3-8.9-.6-16.9-1.4-24.5-4h-.1l.1-.5.2-.5.2.1c7.6 2.6 15.5 3.3 24.3 3.9 12.8.9 28 1.7 43.4 1 16-.8 29.9-3.2 42.6-7.3 2.6-.9 5.2-1.8 7.8-2.8.3-.1.5 0 .7.3.1.3 0 .5-.3.7-2.6 1-5.2 2-7.8 2.9-12.7 4.2-26.7 6.5-42.8 7.3-4.5.1-8.6.2-12.8.2z"/><path d="m241.5 259.8c-1.4 0-2.8-.4-4.2-.9-5.5-1.8-11.2-3.9-13.6-8.9-.8-1.5-1.2-3.4-1.4-5.7-.3-3.3-.1-6.6.2-9.8.1-1.8.2-3.7.3-5.5.1-6.2-1.1-10.9-3.6-14.3-.2-.2-.1-.5.1-.7s.5-.1.7.1c2.6 3.6 3.9 8.4 3.8 14.9 0 1.9-.2 3.8-.3 5.6-.2 3.2-.4 6.5-.2 9.7.2 2.3.6 4 1.3 5.4 2.3 4.6 7.7 6.7 13 8.4 2 .6 4 1.2 5.6.5 1.9-.8 3.1-3.1 2.7-5.4-.4-2.5-2.2-4.5-3.6-5.6-.1-.1-.2-.3-.2-.5 1.7-8.4 6.3-15.9 10.7-23.1 3.3-5.5 6.8-11.1 8.9-17 .1-.3.4-.4.6-.3.3.1.4.4.3.6-2.1 6-5.6 11.7-9 17.2-4.3 7.1-8.8 14.4-10.5 22.5 1.5 1.3 3.3 3.4 3.7 6.1.4 2.8-1 5.6-3.3 6.5-.6.1-1.3.2-2 .2z"/><path d="m147.2 248.9c-.2 0-.3-.1-.4-.2l.4-.3-.4.3c-2.9-4.2-5.3-8.7-7.2-13.5-.6-1.6-1.3-3.5-1-5.4.3-2.2 1.8-4 3.2-5.7l.2-.2c1.4-1.7 2.7-3.4 3.8-5.1 2.2-3.2 4-6.5 5.4-9.7.5-1.3 1-2.6 1.4-3.9 2.3-7.3 2.4-14.8.3-21.2-.1-.3.1-.5.3-.6.3-.1.5.1.6.3 2.2 6.6 2.1 14.3-.3 21.8-.4 1.3-.9 2.7-1.5 4-1.4 3.3-3.2 6.6-5.5 9.9-1.1 1.7-2.5 3.4-3.9 5.2l-.2.2c-1.3 1.6-2.7 3.3-3 5.2-.2 1.7.4 3.4.9 4.9 1.8 4.7 4.2 9.1 7 13.2l.1.1c.2.2.1.5-.1.7.1 0 0 0-.1 0z"/><path d="m146.3 260.3c-3.6 0-7.1-.1-10.5-.3-.8 0-1.5-.5-2-1.2-4.7-7.2-11.6-12.6-18.4-17.9-1.2-1-2.5-1.9-3.7-2.9-1-.8-2-1.7-3-2.5-2.6-2.2-5.1-4.7-5.3-7.9-.1-1.2.2-2.4.4-3.6.2-.8.3-1.6.4-2.3.3-4.2-2.3-7.8-5.3-11.4l-1.5-1.8c-4.5-5.5-8.2-11.7-11.1-18.4-.7-1.5-1.3-3.1-1.8-4.6-.2-.3-.9-1.6-1.6-4.9-.7-3-1.1-6.7-1.3-11-.3-6.7-.1-14.9.6-24.3 1.1-13.6 6.4-26 14.9-35 5.7-6 13-10.8 23.7-15.7 2.2-1 6.4-2.9 11.6-4 6.7-1.5 13.4-1.9 19.8-2.3 18.5-1.9 37.2-1.1 55.6 2.4 2.1.4 4.1.8 6.2 1.2 3.1.6 6.4 1.3 9.6 1.9 3.4.6 6.5.9 9.3 1.1 6.7.4 16.3-.3 24-5.7 3.9-2.8 7-6.6 10.1-10.2 1.9-2.4 4-4.8 6.2-7 6.8-6.7 15.8-11 25.3-12.2 7.9-1.2 16 .1 23.3 3.6 7.1 3.4 13.4 8.9 17.6 15.6l.3.4c1.1 1.7 2.2 3.4 3.9 4.1.3.1.7.2 1 .3.4.1.8.2 1.1.4 1.6.6 2.9 2 4 4.3 2.9 5.8 3 12.8.4 19.1-4.2 12.8-13.3 24.1-25 31-.9.5-1.8 1-2.7 1.5-3.9 2.1-7.9 4.4-10.2 8.1-2.9 7.2-4.4 15.5-4.5 24.5 0 1.6 0 3.2.1 4.7.5 10.9 2.8 21.5 4.8 29.6l.2 1c.5 2.1 1.1 4.8 1.7 7.6 1.6 7.5 3.6 16.8 6.3 22 .5.9 1 1.8 1.7 2.4.9.7 2.1 1 3.4 1.3.5.1 1.1.2 1.6.4 4.4 1.3 7.7 5.8 7.6 10.5 0 .7-.1 1.6-.7 2.4-.7.9-1.8 1.2-2.8 1.5-5 1.2-10.2 1.9-15.3 2.2-2.2.1-4.8.2-7.2-.6-2.4-.9-4.4-2.6-6.2-4.3-8.5-8.2-17-22.1-24.4-34.4-3.2-5.2-6.2-10.2-9-14.4-1-1.5-2-3-2.9-4.4-.2-.2-.1-.5.1-.7s.5-.1.7.1c.9 1.4 1.9 2.9 2.9 4.4 2.8 4.2 5.8 9.2 9 14.4 7.4 12.2 15.8 26.1 24.3 34.2 1.7 1.6 3.6 3.3 5.8 4.1s4.6.7 6.8.6c5.1-.3 10.2-1.1 15.1-2.2.9-.2 1.8-.5 2.3-1.1.3-.4.5-1 .5-1.8.1-4.2-2.9-8.3-6.9-9.5-.5-.1-1-.3-1.5-.4-1.3-.3-2.7-.6-3.8-1.5-.9-.7-1.4-1.7-2-2.7-2.8-5.2-4.8-14.6-6.4-22.2-.6-2.8-1.2-5.4-1.7-7.5l-.2-1c-2-8.1-4.4-18.8-4.9-29.7-.1-1.6-.1-3.2-.1-4.8.1-9.2 1.6-17.6 4.6-25 2.5-4.1 6.6-6.4 10.6-8.6.9-.5 1.8-1 2.7-1.5 11.5-6.7 20.4-17.8 24.5-30.4 2.5-6 2.4-12.9-.3-18.3-1-2-2.2-3.3-3.5-3.8-.3-.1-.7-.2-1-.3-.4-.1-.8-.2-1.1-.4-2-.8-3.2-2.7-4.4-4.5l-.3-.4c-4.1-6.5-10.2-11.9-17.2-15.2-7.2-3.4-15-4.6-22.8-3.5-9.3 1.1-18 5.4-24.7 11.9-2.2 2.1-4.2 4.6-6.1 6.9-3.1 3.7-6.3 7.6-10.3 10.4-7.9 5.6-17.7 6.3-24.6 5.9-2.9-.2-6-.5-9.4-1.1-3.2-.5-6.5-1.2-9.6-1.9-2-.4-4.1-.8-6.1-1.2-18.3-3.5-36.9-4.3-55.3-2.4-6.3.3-13 .8-19.6 2.2-5.1 1.1-9 2.9-11.4 4-10.6 4.8-17.8 9.6-23.4 15.5-8.4 8.8-13.6 21-14.7 34.4-.7 9.3-1 17.4-.6 24.1.2 4.3.7 7.9 1.3 10.8.8 3.4 1.5 4.6 1.5 4.6s0 .1.1.1c.5 1.5 1.2 3.1 1.8 4.6 2.9 6.6 6.6 12.7 11 18.1l1.5 1.8c3 3.6 5.9 7.6 5.5 12.2-.1.8-.2 1.7-.4 2.5-.2 1.2-.5 2.2-.4 3.3.2 2.9 2.5 5.2 4.9 7.3 1 .8 2 1.7 3 2.5 1.2 1 2.4 1.9 3.7 2.9 6.8 5.3 13.8 10.9 18.6 18.2.3.4.7.7 1.2.7 5.6.3 11.7.4 18.2.2 1.2 0 2.3-.1 3-.9.6-.7.7-1.7.6-2.5-.3-2.7-2.2-5.3-4.9-6.5-1.7-.7-3.6-.9-5.6-.4-1 .2-1.9.6-2.7 1-.2.1-.5 0-.7-.2-.1-.2-.1-.5.2-.7.9-.5 1.9-.9 3-1.1 2.1-.5 4.3-.3 6.2.5 3 1.3 5.2 4.2 5.5 7.3.1 1 0 2.3-.9 3.3s-2.4 1.1-3.7 1.2c-2.6-.3-5.2-.2-7.8-.2z"/></g><path d="m347.8 87.9c-.9-.2-1.8-.4-2.7-.6-.4-.1-.9-.2-1.2-.5-.4-.4-.5-.9-.4-1.4.1-.4.3-.8.5-1.1.5.1.9.2 1.4.4 1.5.6 2.5 1.8 3.3 3.2h-.1c-.2.1-.5.1-.8 0z" fill="#ff9aa4"/><path d="m36.9 163.2c-3.6 0-7.4-.3-11.1-1.4-11.7-3.3-21.2-13.4-24.1-25.9-1.1-4.5-1-8.1.3-11.1 1.4-3.3 4.9-6.5 9-6 3.5.4 6.7 3.4 8.5 8 .5 1.4 1 2.9 1.4 4.4.6 2.3 1.3 4.6 2.4 6.7 2.9 5.1 8.9 8.5 15.8 8.8 1.4.1 2.9 0 4.4-.2 3.6-.5 7.4-1.6 11.5-3.6.8-.4 1.6-.8 2.3-1.2 1.6-.9 3.2-1.8 4.8-2.8 9.5-5.9 17.6-13.8 24.9-21.4l.6-.7c2.9-3 5.9-6.2 9.4-8.6 1.9-1.3 3.8-2.3 5.7-3.1.3-.1.5 0 .6.3s0 .5-.3.6c-1.8.7-3.7 1.7-5.5 3-3.4 2.4-6.4 5.5-9.3 8.5l-.6.7c-7.4 7.6-15.5 15.5-25.1 21.5-1.6 1-3.3 2-4.9 2.8-.8.4-1.6.8-2.4 1.2-4.2 2-8.1 3.2-11.8 3.6-1.6.2-3.1.3-4.6.2-7.2-.3-13.6-3.9-16.6-9.3-1.2-2.2-1.9-4.6-2.5-6.9-.4-1.4-.8-2.9-1.3-4.3-.6-1.6-3-6.9-7.6-7.4-3.6-.4-6.7 2.4-8 5.4-1.2 2.8-1.2 6.3-.2 10.5 2.9 12.1 12.1 22 23.4 25.2 6.4 1.8 13.2 1.4 18.5.9.7-.1 1.4-.1 2-.2 4.2-.5 7.5-1.2 10.6-2.2 8.9-2.9 17.2-9 24.1-17.7.6-.8 1.2-1.5 1.8-2.3.2-.2.5-.3.7-.1s.3.5.1.7c-.6.8-1.2 1.6-1.8 2.3-7 8.9-15.5 15.1-24.6 18-3.1 1-6.6 1.7-10.8 2.2-.7.1-1.4.2-2 .2-2.3.5-4.9.7-7.7.7z"/><path d="m273.4 79.2c.1-5-.3-10-1.2-14.9-.7-4-1.7-8-1.3-12 .2-1.7.8-3.5 2.2-4.4 1.9-1.2 4.3-.5 6.4.3 4.6 1.7 9.1 3.5 13.2 6.1s7.8 6.1 9.8 10.6c0 0-8.5 9.2-13.9 11.5-5.3 2.4-15.2 2.8-15.2 2.8z"/><path d="m273.4 79.7c-.3 0-.5-.2-.5-.5.1-4.9-.3-9.9-1.1-14.8-.1-.7-.3-1.4-.4-2.1-.6-3.3-1.3-6.7-.9-10 .3-2.3 1.1-3.9 2.4-4.8 2-1.3 4.5-.7 6.9.2 4.7 1.8 9.2 3.6 13.3 6.2 4.6 3 8.1 6.7 10 10.8.1.3 0 .5-.2.7-.2.1-.5 0-.7-.2-1.8-3.9-5.1-7.5-9.6-10.3-4-2.6-8.5-4.3-13.1-6.1-2.1-.8-4.4-1.4-6-.3-1.1.7-1.7 2.1-2 4.1-.4 3.2.3 6.5.9 9.7.1.7.3 1.4.4 2.1.9 4.9 1.3 10 1.2 15-.1.1-.4.3-.6.3z"/><path d="m287.9 75.3c-.1 0-.1 0-.2 0-.3-.1-.4-.4-.3-.6.9-2.4 1-5.4.2-9.1-.8-3.5-2-6.3-3.7-8.5-2-2.6-4.8-4.3-7.6-4.7-.3 0-.3 0-.3 0s-.1.1-.1.4c-.1 2.9-.1 5.8.1 8.7 0 .3-.2.5-.5.5s-.5-.2-.5-.5c-.2-2.9-.3-5.9-.2-8.8 0-.3 0-.8.5-1.1.4-.3.8-.2 1.1-.2 3.1.4 6.1 2.3 8.3 5.1 1.8 2.3 3 5.2 3.9 8.9.9 3.9.8 7.1-.2 9.7-.1.1-.3.2-.5.2z"/><path d="m320.4 91.2c-.7 0-1.3-.1-2.1-.3-.5-.1-1.2-.3-1.7-.8-.4-.3-.8-.8-1.2-1.4-.5-.9-.9-1.9-1.1-2.9v-.1c1.2-2 4-3.1 6.2-2.3 2.3.8 3.9 3.2 3.7 5.7v.1c-.5 1-1.5 1.7-2.7 2-.2-.1-.6 0-1.1 0z"/></g><g><path d="m439.4 142c-1.8-8.2-8.2-16.4-13.9-22.6-.3-.3-.6-.6-1-.7-.8-.2-1.6.5-2.1 1.2-3.4 4.3-8.5 11.3-9.2 19.2z" fill="#ffbd2d"/><path d="m164.8 319.5c-.8 2.1-1.9 4.5-.6 6.4.9 1.3 2.8 1.7 4.3 1.3 1.6-.4 2.8-1.5 3.9-2.7 4.9-5.2 7.2-12.2 10.3-18.6.8-1.6 1.7-3.3 3.1-4.4 1.2-.9 2.6-1.5 4-1.9 9.5-3.3 19.6-6.1 26.8-13.1-.5-.6-1-1.2-1.5-1.8-4.5-5.5-8.2-11.7-11.1-18.2-.7-1.5-1.3-3.1-1.8-4.6 0 0-.8-1.1-1.6-4.8-.5-2.4-1-5.9-1.3-10.9-1.4 6.4-4.1 12.4-8.2 17.5-2.1 2.6-4.5 5-7 7.3-2.4 2.2-4.9 4.2-7.4 6.1-1.9 1.4-3.9 2.9-5.1 4.9-.8 1.3-1.2 2.7-1.6 4.1-.6 2.3-1.2 4.7-1.6 7-.6 3.3-1.1 6.6-1.3 9.9-.4 5.5-.3 11.2-2.3 16.5z" fill="#ffb020"/><path d="m203.4 294.7c-4.1 1.7-8.3 3.1-12.5 4.5-3.2-2.5-5.9-5.4-8.3-8.8-1.8-2.4-.4-6.2 2-7.6 2.8-1.6 5.8-.4 7.6 2 .2.3.3.4.4.5.3.4.6.8 1 1.2.7.8 1.4 1.5 2.1 2.2s1.4 1.4 2.2 2.1c.7.6 1.2 1.1 1.7 1.4 1.1 1 2.5 1.8 3.8 2.5z" fill="#ec891c"/><path d="m336.8 290.9v.1c3 4.1 3.8 9.5 3.7 14.6s-.9 10.2-.4 15.3c.2 1.9.5 3.8 1.4 5.6 2.4 4.9 8.1 7 13.3 8.6 1.9.6 4.1 1.2 6 .5 2.2-.9 3.4-3.6 3-6s-1.9-4.4-3.8-6c3-14.7 14.6-26.3 19.6-40-13.9 4.5-28.3 6.6-42.8 7.3z" fill="#ffb020"/><path d="m439.4 142.5-26.2-2.9c-.3 0-.5-.3-.4-.5.7-7.5 5.1-14 9.3-19.5.3-.4 1.3-1.7 2.6-1.4.5.1.9.6 1.2.9 8 8.7 12.6 16.1 14 22.8 0 .2 0 .3-.1.4-.1.2-.2.2-.4.2zm-25.6-3.8 25 2.8c-1.6-6.3-6-13.4-13.6-21.7-.3-.3-.5-.5-.7-.6-.4-.1-.9.2-1.6 1-4.1 5.2-8.3 11.5-9.1 18.5z"/><path d="m268.9 286c7.8 2.7 16.2 3.4 24.4 4 14.5 1 29.1 1.7 43.4 1 14.5-.7 28.9-2.8 42.7-7.3 2.6-.9 5.2-1.8 7.8-2.8 9.6 14.3 21.3 30.1 33.4 41.7 1.8 1.7 3.7 3.4 6 4.2 2.2.8 4.6.7 7 .6 5.1-.3 10.2-1.1 15.2-2.2.9-.2 2-.5 2.6-1.3.4-.6.6-1.4.6-2.1.1-4.4-3-8.7-7.2-10-1.8-.5-3.7-.6-5.2-1.8-.8-.7-1.4-1.6-1.8-2.5-3.8-7.1-6.1-14.8-8.1-22.6-.1-.3-.2-.7-.2-1-2.4-9.7-4.4-19.6-4.8-29.7-.1-1.6-.1-3.2-.1-4.8.1-8.5 1.4-16.9 4.6-24.8 2.9-4.8 8.3-7 13.1-9.8 11.6-6.8 20.6-18 24.8-30.7 2.5-6.1 2.4-13-.3-18.7-.8-1.7-2-3.4-3.8-4.1-.7-.3-1.5-.4-2.2-.7-2-.8-3.2-2.9-4.4-4.8-4.2-6.6-10.3-12.1-17.4-15.4-7.1-3.4-15.1-4.7-23.1-3.5-9.3 1.1-18.3 5.4-25 12-5.7 5.6-9.8 12.7-16.3 17.3-6.9 4.9-15.8 6.3-24.3 5.8-3.1-.2-6.3-.6-9.4-1.1-5.3-.9-10.5-2.1-15.7-3.1-18.2-3.5-36.9-4.3-55.5-2.4-6.6.4-13.2.8-19.7 2.3-5 1.1-9 2.9-11.5 4-8.7 4-17 8.7-23.6 15.6-8.8 9.3-13.8 21.9-14.8 34.7-.8 10.5-.9 18.4-.6 24.2.3 5 .8 8.5 1.3 10.9.8 3.6 1.6 4.8 1.6 4.8.6 1.6 1.2 3.1 1.8 4.6 2.8 6.5 6.5 12.7 11.1 18.2.5.6 1 1.2 1.5 1.8 2.9 3.5 5.8 7.4 5.4 11.8-.2 2-1 3.9-.8 5.9.2 3.1 2.7 5.6 5.1 7.6 1 .8 2 1.7 3 2.5 8 6.4 16.6 12.5 22.2 21 .4.5.9.9 1.6.9 5.9.4 12.1.4 18.3.2 1.2 0 2.5-.2 3.4-1 .7-.7.8-1.9.7-2.9-.3-3-2.4-5.7-5.2-6.9-1.8-.8-3.9-.9-5.9-.5-2.9-4.1-5.3-8.6-7.1-13.3-.6-1.7-1.2-3.4-1-5.2.3-2.2 1.9-4 3.3-5.7s2.7-3.4 3.9-5.1c1.9-3.1 3.8-6.4 5.2-9.8z" fill="#ffbd2d"/><path d="m119.4 212.4c2.8 11.9 12 22.3 23.8 25.5 6 1.7 12.4 1.6 18.7.9.7-.1 1.4-.1 2-.2 3.6-.4 7.2-1.1 10.7-2.2 9.7-3.1 18-9.8 24.3-17.9 2.1-2.7 4-5.5 6.2-8.2 5.2-6.5 11.5-11.9 17.8-17.5 1.7-1.5 3.5-3.1 4.4-5.2 1-2.1 1-4.8 0-6.8-4.5-.1-9 1.7-12.7 4.3s-6.9 6-10 9.2c-7.6 7.9-15.7 15.6-25 21.4-1.6 1-3.2 1.9-4.9 2.8-.8.4-1.6.8-2.4 1.2-3.7 1.7-7.6 3.1-11.7 3.6-1.5.2-3 .3-4.5.2-6.5-.3-13-3.4-16.2-9.1-1.9-3.4-2.4-7.4-3.8-11.1s-4.2-7.3-8.1-7.7c-3.6-.4-7.1 2.4-8.5 5.7-1.3 3.7-1 7.6-.1 11.1z" fill="#ffbd2d"/><g fill="#ec891c"><path d="m251.8 313.4c1.9-.4 3.8-.8 5.8-1.2 1.4 3.6 3.1 7 5.2 10.2-2.6.8-5.3 1.4-7.9 2.1-3 .8-6.2-1-7.1-4-.8-2.8.9-6.5 4-7.1z"/><path d="m245.2 288.5c4.4 1.3 8.9 2.4 13.4 3.1.8.1 1.2.2 2.3.3s2.2.2 3.3.2c.6 0 1.1.1 1.7.1-.7 1.2-1.5 2.4-2.3 3.5-1.2 1.8-2.5 3.5-3.9 5.1-.8.9-1.5 1.9-2.2 2.9-.2 0-.4 0-.6 0-5.2-.4-10.2-1.3-15.1-2.8-3.2-1-5.6-4.6-4.5-7.9 1-3.2 4.4-5.6 7.9-4.5z"/><path d="m160.7 223.6c1.8-.2 3.5-.6 5.3-1.1.4 1.9 1 3.7 1.5 5.6.3 1 .6 2 1 3l.5 1.1c.3.6.5 1.1.8 1.7.5 1.1 1.3 2.4 2 3.5-2.6.6-5.2 1.1-7.9 1.4-.7.1-1.4.2-2 .2-.8.1-1.7.2-2.6.2-1.2-2.5-2-5.1-2.6-7.8-.5-2.5-.6-5-.4-7.5 1.4-.1 2.9-.1 4.4-.3z"/><path d="m133.9 216.2c1.2-2.1 2.6-4.1 4.3-5.9.5 1.5 1 3 1.8 4.4 1 1.9 2.4 3.4 4.1 4.7-.3.6-.6 1.2-.9 1.8-2.1 4.3-3 9-2.9 14 0 .6-.1 1.2-.3 1.7-4-1.6-7.6-4-10.6-7 .6-4.8 2.2-9.5 4.5-13.7z"/><path d="m413.3 298.1c-2.9-.3-5.5-2.3-5.5-5.5 0-2.7 2.5-5.7 5.5-5.5 3.6.3 7.4.5 10.9 0 1.9-.3 3.8-.6 5.7-1 .8 3.1 1.7 6.2 2.7 9.3-5.9 2.7-13.2 3.3-19.3 2.7z"/><path d="m350.1 172.1h.5c-.1 1.5-.2 3-.2 4.6-.1 3.1-.1 6.1 0 9.2 0 1.4.1 2.8.2 4.3.1.8.1 1.5.2 2.3 0 .4.1.9.1 1.3.1.7.1.9 0 .4-.1-.4 0-.3.1.4.1.4.1.9.2 1.3.1.6.2 1.3.3 1.9.3 1.5.6 3 .9 4.5.7 3 1.5 5.9 2.5 8.8.5 1.5 1 2.9 1.5 4.3.2.5.4 1 .6 1.5 0 0 .7 1.5.7 1.7 1.6 3.6 4.8 7.7 3.4 11.8-1.2 3.4-4.4 5.5-8 4.6-4.8-1.2-6.5-6.8-8.2-10.9-1.2-2.8-2.2-5.7-3.1-8.6-2-6.5-3.1-13.3-3.8-20.1-.6-6.7-.4-13.3.5-19.9.2-1.6.5-3.1.8-4.6.4.1.8.1 1.1.2 3.4.4 6.5.8 9.7 1z"/><path d="m290.5 219.8c.3 1.6.6 3.2 1 4.8.2.8.4 1.6.5 2.4.4 2.2 0 3.6-.9 5.6-.8 1.7-2.8 2.8-4.6 3-2.1.3-3.6-.4-5.3-1.7-3-2.4-3.2-7.9-3.8-11.5s-1-7.2-1.3-10.8c-.6-6.8-.6-13.7 0-20.5.6-7.1 1.7-14 3.6-20.9.5-1.8 1-3.7 1.6-5.5 4-.2 8-.2 11.9-.1-.6 2.8-1.4 5.6-1.9 8.5-.3 1.6-.6 3.2-.8 4.8-.2 1.4-.3 2-.5 3.9-.4 3.3-.8 6.7-1 10-.4 6.5-.3 13 .3 19.5.4 3.6.6 4.9 1.2 8.5z"/><path d="m425.7 266.1c.5 3.1 1 6.2 1.7 9.3-1.3.5-2.7 1-4 1.5-4.2 1.4-8.6 2.2-13 2.6-2.7.3-5.1-2.5-5.1-5.1 0-2.9 2.3-4.9 5.1-5.1 3.6-.2 7-.8 10.5-1.7 1.6-.3 3.2-.9 4.8-1.5z"/><path d="m321.7 173c-.6 6.4-.9 13-.7 19.5.1 3.1.2 6.3.5 9.4.1 1.7.3 3.4.5 5 0 .3.1.5.1.6s0 .2.1.5c.1 1 .3 1.9.4 2.9.5 3.1 1.1 6.2 1.8 9.2.9 3.7 2.9 8.2 1.8 12-1.4 4.9-7.3 6.1-10.9 2.9-2.8-2.5-3.4-7.6-4.2-11.2-.7-3.3-1.4-6.6-1.8-9.9-1-7-1.6-14.1-1.7-21.3 0-7.1.6-14.1 1.7-21.1.3-1.9.6-3.8 1-5.6 4 .5 8 1 12 1.7-.1 1.6-.4 3.3-.6 5.4z"/></g><path d="m353.3 299.1c4.6 1 9.3 1.6 14 1.7 1.1 0 2.2 0 3.2-.1-2 3.3-4 6.6-5.8 10-4.8.1-9.6-.4-14.3-1.4-2.8-.6-4.4-3.9-3.7-6.5.9-2.9 3.8-4.3 6.6-3.7z" fill="#ec891c"/><g><path d="m167.3 327.8c-1.5 0-2.8-.6-3.5-1.7-1.3-1.9-.4-4.3.4-6.4l.2-.4c1.5-4.1 1.8-8.7 2-13.1.1-1.1.1-2.2.2-3.3.2-3.3.7-6.7 1.3-10 .4-2.3 1-4.7 1.6-7.1.4-1.4.8-2.9 1.6-4.2 1.2-2 3.1-3.4 5-4.8l.3-.2c2.8-2.1 5.3-4.1 7.4-6.1 2.7-2.4 5-4.8 7-7.3 3.9-4.8 6.7-10.6 8.1-17.2 0-.2.2-.4.5-.4s.5.2.5.5v.1c-1.5 6.8-4.3 12.7-8.3 17.7-2 2.5-4.4 4.9-7.1 7.4-2.2 2-4.6 4-7.5 6.1l-.3.2c-1.8 1.3-3.6 2.7-4.7 4.5-.7 1.2-1.2 2.6-1.5 4-.6 2.3-1.2 4.7-1.6 7-.6 3.3-1.1 6.6-1.3 9.9-.1 1.1-.1 2.2-.2 3.3-.2 4.5-.5 9.1-2.1 13.4l-.2.4c-.7 1.9-1.5 4-.5 5.5.8 1.2 2.5 1.5 3.8 1.1 1.6-.4 2.8-1.6 3.7-2.5 3.7-3.9 6-9 8.1-13.9.7-1.5 1.3-3 2-4.5.8-1.6 1.7-3.4 3.2-4.6 1.2-1 2.7-1.5 4.2-2 1.1-.4 2.2-.7 3.3-1.1 8.4-2.8 17-5.7 23.3-11.9.2-.2.5-.2.7 0s.2.5 0 .7c-6.4 6.3-15.2 9.2-23.7 12.1-1.1.4-2.2.7-3.3 1.1-1.5.5-2.8 1-3.9 1.9-1.4 1.1-2.2 2.8-2.9 4.3s-1.4 3-2 4.5c-2.2 5-4.5 10.2-8.3 14.2-1 1.1-2.4 2.3-4.2 2.8-.4 0-.9 0-1.3 0z"/><path d="m324.5 291.7c-11.3 0-22.3-.6-31.2-1.3-8.9-.6-16.9-1.4-24.5-4-.3-.1-.4-.4-.3-.6.1-.3.4-.4.6-.3 7.6 2.6 15.5 3.3 24.3 3.9 12.1.9 27.9 1.7 43.4 1 16-.8 29.9-3.2 42.6-7.3 2.6-.9 5.2-1.8 7.8-2.8.3-.1.5 0 .7.3.1.3 0 .5-.3.7-2.6 1-5.2 2-7.8 2.9-12.7 4.2-26.7 6.5-42.8 7.3-4.3.1-8.5.2-12.5.2z"/><path d="m358.8 336.5c-1.4 0-2.8-.4-4.2-.9-5.5-1.8-11.2-3.9-13.6-8.9-.8-1.5-1.2-3.4-1.4-5.7-.3-3.3-.1-6.6.2-9.8.1-1.8.2-3.7.3-5.5.1-6.2-1.1-10.9-3.6-14.3-.2-.2-.1-.5.1-.7s.5-.1.7.1c2.6 3.6 3.9 8.4 3.8 14.9 0 1.9-.2 3.8-.3 5.6-.2 3.2-.4 6.5-.2 9.7.2 2.3.6 4 1.3 5.4 2.3 4.6 7.7 6.7 13 8.4 2 .6 4 1.2 5.6.5 1.9-.8 3.1-3.1 2.7-5.4-.4-2.5-2.2-4.5-3.6-5.6-.1-.1-.2-.3-.2-.5 1.7-8.4 6.3-15.9 10.7-23.1 3.3-5.5 6.8-11.1 8.9-17 .1-.3.4-.4.6-.3.3.1.4.4.3.6-2.1 6-5.6 11.7-9 17.2-4.3 7.1-8.8 14.4-10.5 22.5 1.5 1.3 3.3 3.4 3.7 6.1.4 2.8-1 5.6-3.3 6.5-.6.1-1.3.2-2 .2z"/><path d="m264.4 325.6c-.2 0-.3-.1-.4-.2-2.9-4.1-5.3-8.7-7.1-13.4-.6-1.6-1.3-3.5-1-5.4.3-2.2 1.8-4 3.2-5.7l.2-.2c1.4-1.7 2.7-3.4 3.8-5.1 2.2-3.2 4-6.5 5.4-9.7.5-1.3 1-2.6 1.4-3.9 2.3-7.3 2.4-14.8.3-21.2-.1-.3.1-.5.3-.6.3-.1.5.1.6.3 2.2 6.6 2.1 14.3-.3 21.8-.4 1.3-.9 2.7-1.5 4-1.4 3.3-3.2 6.6-5.5 9.9-1.1 1.7-2.5 3.4-3.9 5.2l-.2.2c-1.3 1.6-2.7 3.3-3 5.2-.2 1.7.4 3.4.9 4.9 1.8 4.7 4.2 9.1 7 13.2.2.2.1.5-.2.7.2-.1.1 0 0 0z"/><path d="m263.6 336.9c-3.7 0-7.2-.1-10.5-.3-.8 0-1.5-.5-2-1.2-4.7-7.2-11.7-12.7-18.4-18-1.2-1-2.5-1.9-3.7-2.9-1-.8-2-1.7-3-2.5-2.6-2.2-5.1-4.7-5.3-7.9-.1-1.2.2-2.4.4-3.6.2-.8.3-1.6.4-2.3.3-4.2-2.3-7.8-5.3-11.4l-1.5-1.8c-4.5-5.5-8.2-11.7-11.1-18.4-.7-1.5-1.3-3.1-1.8-4.6-.2-.3-.9-1.6-1.6-4.9-.7-3-1.1-6.7-1.3-11-.3-6.7-.1-14.9.6-24.3 1.1-13.6 6.4-26 14.9-35 5.7-6 13-10.8 23.7-15.7 2.2-1 6.4-2.9 11.6-4 6.7-1.5 13.4-1.9 19.8-2.3 18.5-1.9 37.2-1.1 55.6 2.4 2.1.4 4.1.8 6.1 1.2 3.1.6 6.4 1.3 9.6 1.9 3.4.6 6.5.9 9.3 1.1 6.7.4 16.3-.3 24-5.7 3.9-2.8 7.1-6.6 10.1-10.2 1.9-2.4 4-4.8 6.2-7 6.8-6.7 15.8-11 25.3-12.2 7.9-1.2 16 .1 23.3 3.6 7.1 3.4 13.4 8.9 17.6 15.6l.3.4c1.1 1.7 2.2 3.4 3.9 4.1.3.1.7.2 1 .3.4.1.8.2 1.1.4 1.6.6 2.9 2 4 4.3 2.9 5.8 3 12.8.4 19.1-4.2 12.8-13.3 24.1-25 31-.9.5-1.8 1-2.7 1.5-3.9 2.1-7.9 4.4-10.2 8.1-2.9 7.2-4.4 15.5-4.5 24.5 0 1.6 0 3.2.1 4.7.5 10.9 2.8 21.5 4.8 29.6l.2 1c1.8 7 4.1 15.2 8 22.5.5.9 1 1.8 1.7 2.4.9.7 2.1 1 3.4 1.3.5.1 1.1.2 1.6.4 4.4 1.3 7.7 5.8 7.6 10.5 0 .7-.1 1.6-.7 2.4-.7.9-1.8 1.2-2.8 1.5-5 1.2-10.2 1.9-15.3 2.2-2.2.1-4.8.2-7.2-.6-2.4-.9-4.4-2.6-6.2-4.3-10.2-9.7-21.4-23.8-33.4-41.8-1-1.5-2-3-2.9-4.4-.2-.2-.1-.5.1-.7s.5-.1.7.1c.9 1.4 1.9 2.9 2.9 4.4 12 17.9 23.2 31.9 33.3 41.6 1.7 1.6 3.6 3.3 5.8 4.1s4.6.7 6.8.6c5.1-.3 10.2-1.1 15.2-2.2.9-.2 1.8-.5 2.3-1.1.3-.4.5-1 .5-1.8.1-4.2-2.9-8.3-6.9-9.5-.5-.2-1-.3-1.5-.4-1.3-.3-2.7-.6-3.8-1.5-.9-.7-1.4-1.7-2-2.7-4-7.4-6.3-15.7-8.1-22.7l-.2-1c-2-8.1-4.4-18.8-4.9-29.8-.1-1.6-.1-3.2-.1-4.8.1-9.2 1.6-17.6 4.6-25 2.5-4.1 6.6-6.4 10.6-8.6.9-.5 1.8-1 2.7-1.5 11.5-6.7 20.4-17.8 24.5-30.4 2.5-6 2.4-12.9-.3-18.3-1-2-2.2-3.3-3.5-3.8-.3-.1-.7-.2-1-.3-.4-.1-.8-.2-1.1-.4-2-.8-3.2-2.7-4.4-4.5l-.3-.4c-4.1-6.5-10.2-11.9-17.2-15.2-7.2-3.4-15-4.6-22.8-3.5-9.3 1.1-18 5.4-24.7 11.9-2.2 2.1-4.2 4.6-6.1 6.9-3.1 3.7-6.3 7.6-10.3 10.4-7.9 5.6-17.7 6.3-24.6 5.9-2.9-.2-5.9-.5-9.4-1.1-3.2-.5-6.5-1.2-9.6-1.9-2-.4-4.1-.8-6.1-1.2-18.3-3.5-36.9-4.3-55.3-2.4-6.3.3-13 .8-19.6 2.2-5.1 1.1-9.2 3-11.4 4-10.6 4.8-17.8 9.6-23.4 15.5-8.4 8.8-13.6 21-14.7 34.4-.7 9.3-1 17.4-.6 24.1.2 4.3.7 7.9 1.3 10.8.8 3.4 1.5 4.6 1.5 4.6s0 .1.1.1c.5 1.5 1.2 3.1 1.8 4.6 2.9 6.6 6.6 12.7 11 18.1l1.5 1.8c3 3.6 5.9 7.6 5.5 12.2-.1.8-.2 1.7-.4 2.5-.2 1.1-.5 2.2-.4 3.3.2 2.9 2.5 5.2 4.9 7.3 1 .8 2 1.7 3 2.5 1.2 1 2.4 1.9 3.7 2.9 6.8 5.4 13.8 10.9 18.6 18.2.3.4.7.7 1.2.7 5.6.3 11.7.4 18.2.2 1.2 0 2.3-.1 3-.9.6-.7.7-1.7.6-2.5-.3-2.7-2.2-5.3-4.9-6.5-1.7-.7-3.6-.9-5.6-.4-1 .2-1.9.6-2.7 1-.2.1-.5 0-.7-.2-.1-.2 0-.5.2-.7.9-.5 1.9-.9 3-1.1 2.1-.5 4.3-.3 6.2.5 3 1.3 5.2 4.2 5.5 7.3.1 1 0 2.3-.9 3.3s-2.4 1.1-3.7 1.2c-2.6.1-5.2.1-7.8.1z"/></g><path d="m465.1 164.6c-.9-.2-1.8-.4-2.7-.6-.4-.1-.9-.2-1.2-.5-.4-.4-.5-.9-.4-1.4.1-.4.3-.8.5-1.1.5.1.9.2 1.4.4 1.5.6 2.5 1.8 3.3 3.2h-.1c-.2.1-.5 0-.8 0z"/><path d="m154.2 239.8c-3.6 0-7.4-.3-11.2-1.4-11.7-3.3-21.2-13.4-24.1-25.9-1.1-4.5-1-8.1.3-11.1 1.4-3.3 4.9-6.5 9-6 3.5.4 6.7 3.4 8.5 8 .5 1.4 1 2.9 1.4 4.4.6 2.3 1.3 4.6 2.4 6.7 2.9 5.1 8.9 8.5 15.8 8.8 1.4.1 2.9 0 4.4-.2 3.6-.5 7.4-1.6 11.5-3.6.8-.4 1.6-.8 2.3-1.2 1.6-.9 3.2-1.8 4.8-2.8 9.5-5.9 17.6-13.8 24.9-21.4l.7-.7c2.9-3 5.9-6.2 9.4-8.6 1.9-1.3 3.8-2.3 5.7-3.1.3-.1.5 0 .6.3s0 .5-.3.6c-1.8.7-3.7 1.7-5.5 3-3.4 2.4-6.4 5.5-9.3 8.5l-.7.7c-7.4 7.6-15.5 15.5-25.1 21.5-1.6 1-3.2 1.9-4.9 2.8-.8.4-1.6.8-2.4 1.2-4.2 2-8.1 3.2-11.8 3.6-1.6.2-3.1.3-4.6.2-7.2-.3-13.6-3.9-16.6-9.3-1.2-2.2-1.9-4.6-2.5-6.9-.4-1.4-.8-2.9-1.3-4.3-.6-1.6-3-6.9-7.6-7.4-3.6-.4-6.7 2.4-8 5.4-1.2 2.8-1.2 6.3-.2 10.5 2.9 12.1 12.1 22 23.4 25.2 6.4 1.8 13.2 1.4 18.5.9.7-.1 1.4-.1 2-.2 4.2-.5 7.5-1.2 10.6-2.2 8.9-2.9 17.2-9 24.1-17.7.6-.8 1.2-1.5 1.8-2.3.2-.2.5-.3.7-.1s.3.5.1.7c-.6.8-1.2 1.6-1.8 2.3-7 8.9-15.5 15.1-24.6 18-3.1 1-6.6 1.7-10.8 2.2-.7.1-1.4.2-2 .2-2.2.6-4.8.7-7.6.7z"/><path d="m390.6 155.9c.1-5-.3-10-1.2-14.9-.7-4-1.7-8-1.3-12 .2-1.7.8-3.5 2.2-4.4 1.9-1.2 4.3-.5 6.4.3 4.6 1.7 9.1 3.5 13.2 6.1s7.8 6.1 9.8 10.6c0 0-8.5 9.2-13.9 11.5-5.2 2.3-15.2 2.8-15.2 2.8z" fill="#ffbd2d"/><path d="m390.6 156.4c-.3 0-.5-.2-.5-.5.1-4.9-.3-9.9-1.1-14.8-.1-.7-.3-1.4-.4-2.1-.6-3.3-1.3-6.7-.9-10 .3-2.3 1.1-3.9 2.4-4.8 2-1.3 4.5-.7 6.9.2 4.7 1.8 9.2 3.6 13.3 6.2 4.6 3 8.1 6.7 10 10.8.1.3 0 .5-.2.7-.2.1-.5 0-.7-.2-1.8-3.9-5.1-7.5-9.6-10.3-4-2.6-8.5-4.3-13.1-6.1-2.1-.8-4.4-1.4-6-.3-1.1.7-1.7 2.1-2 4.1-.4 3.2.3 6.5.9 9.7.1.7.3 1.4.4 2.1.9 4.9 1.3 10 1.2 15-.1.1-.3.3-.6.3z"/><path d="m405.2 152c-.1 0-.1 0-.2 0-.3-.1-.4-.4-.3-.6.9-2.4 1-5.4.2-9.1-.8-3.5-2-6.3-3.7-8.5-2-2.6-4.8-4.3-7.6-4.7-.3 0-.3 0-.3 0s-.1.1-.1.4c-.1 2.9-.1 5.8.2 8.7 0 .3-.2.5-.5.5s-.5-.2-.5-.5c-.2-2.9-.3-5.9-.2-8.8 0-.3 0-.8.5-1.1.4-.3.8-.2 1.1-.2 3.1.4 6.1 2.3 8.3 5.1 1.8 2.3 3 5.2 3.9 8.9.9 3.9.8 7.1-.2 9.7-.3 0-.4.2-.6.2z"/><path d="m439.4 168.6c-.7 0-1.3-.1-2.1-.3-.5-.1-1.2-.3-1.7-.8-.4-.3-.8-.8-1.2-1.4-.5-.9-.9-1.9-1.1-2.9v-.1c1.2-2 4-3.1 6.2-2.3 2.3.8 3.9 3.2 3.7 5.7v.1c-.5 1-1.5 1.7-2.7 2-.2 0-.6 0-1.1 0z"/></g></g></svg>