<svg id="Capa_1" enable-background="new 0 0 512 512" height="512" viewBox="0 0 512 512" width="512" xmlns="http://www.w3.org/2000/svg"><g><g><path d="m453.411 378.839-5.831 17.163-21.551 63.5c-10.652 31.39-40.105 52.498-73.246 52.498h-202.637c-33.141 0-62.604-21.108-73.256-52.498l-21.552-63.5-5.831-17.163 200.731-28.093z" fill="#f9f6f6"/><g fill="#dddaec"><path d="m453.411 378.839-5.831 17.163h-392.241l-5.831-17.163 200.731-28.093z"/><path d="m195.162 512h-45.019c-33.141 0-62.604-21.108-73.256-52.498l-27.372-80.663 200.72-28.093.35.051-111.332 28.042 15.216 80.663c5.915 31.39 22.284 52.498 40.693 52.498z"/><path d="m251.462 350.911-.876-.114.196-.051z"/></g><path d="m429.594 343.898c20.15 0 36.485-16.335 36.485-36.485 0-15.541-9.721-28.804-23.411-34.062 1.866-4.007 2.715-8.583 2.189-13.402-1.188-10.885-9.516-19.866-20.278-21.882-2.972-.557-5.862-.563-8.608-.134-1.014-11.69-7.537-21.803-16.96-27.725-7.574-4.76-16.745-6.188-25.556-4.644-11.326 2.143-17.328 11.146-18.828 15.047l-203.168-6.088c-6.955 0-14.373-5.061-21.196-6.411-2.296-.454-4.541-3.471-6.971-3.471-19.073 0-34.719 14.639-36.337 33.292-2.736-.428-5.615-.423-8.577.128-10.765 2.002-19.106 10.975-20.306 21.859-.533 4.83.316 9.417 2.186 13.431-13.69 5.258-23.411 18.521-23.411 34.062 0 20.15 16.335 36.485 36.485 36.485" fill="#cbafea"/><path d="m166.904 206.219c-13.969 4.265-24.374 16.679-25.672 31.709-1.267-.196-2.575-.299-3.904-.299-13.887 0-25.136 11.25-25.136 25.126 0 3.781.845 7.376 2.349 10.59-13.691 5.264-23.416 18.523-23.416 34.068 0 20.15 16.339 36.479 36.489 36.479h-53.61c-20.232 0-37.123-16.179-37.16-36.411-.028-15.575 9.705-28.864 23.416-34.136-1.504-3.214-2.349-6.809-2.349-10.59 0-13.877 11.25-25.126 25.137-25.126 1.329 0 2.627.103 3.904.299 1.617-18.657 17.266-33.295 36.335-33.295 17.308.342 19.543 10.697 27.066 11.125z" fill="#bc95e2"/><path d="m453.41 330.537h-403.898c-13.339 0-24.152 10.813-24.152 24.152 0 13.339 10.813 24.152 24.152 24.152h403.898c13.339 0 24.152-10.813 24.152-24.152 0-13.339-10.813-24.152-24.152-24.152z" fill="#f9f6f6"/><path d="m115.336 371.769c4.368 4.368 10.405 7.067 17.08 7.067h-82.909c-6.676 0-12.712-2.699-17.08-7.067s-7.067-10.405-7.067-17.08c0-13.341 10.807-24.158 24.147-24.158h82.909c-13.341 0-24.158 10.817-24.158 24.158.001 6.676 2.71 12.712 7.078 17.08z" fill="#dddaec"/></g><path d="m279.468 65.406c6.621-37.174 39.114-65.406 78.199-65.406h3.411v30.639l-18.525 117.599" fill="#e28424"/><path d="m298.614 84.839v.01l62.464 63.39v-117.6c-29.541 4.949-53.54 26.207-62.464 54.2z" fill="#ffddce"/><path d="m165.097 155.48-23.253-124.841v-30.639h3.411c39.085 0 71.578 28.232 78.199 65.406z" fill="#e28424"/><path d="m204.308 84.839v.01l-62.464 63.39v-117.6c29.541 4.949 53.54 26.207 62.464 54.2z" fill="#ffddce"/><path d="m361.079 148.233v73.081c0 24.889-10.971 47.213-28.351 62.388-3.636 1.298-6.82 3.554-9.241 6.469-4.605-7.541-12.908-12.568-22.386-12.568-6.933 0-13.228 2.699-17.915 7.088-6.48-10.745-18.265-17.925-31.73-17.925-10.23 0-19.491 4.152-26.187 10.858-2.122 2.112-3.987 4.492-5.543 7.067-4.677-4.389-10.982-7.088-17.904-7.088-9.478 0-17.781 5.027-22.386 12.568-2.421-2.905-5.604-5.172-9.241-6.459-.01-.01-.01-.01-.021-.01-17.359-15.185-28.33-37.509-28.33-62.388v-73.081c0-45.75 37.087-82.837 82.847-82.837h53.538c45.754 0 82.85 37.086 82.85 82.837z" fill="#e7a561"/><path d="m203.184 148.243v73.071c0 21.747 8.386 41.537 22.087 56.31-2.122 2.112-3.987 4.492-5.543 7.067-4.677-4.389-10.982-7.088-17.904-7.088-9.478 0-17.781 5.027-22.386 12.568-2.421-2.915-5.615-5.182-9.261-6.469-17.359-15.185-28.33-37.499-28.33-62.388v-73.071c0-45.761 37.087-82.857 82.837-82.857h53.549c1.308 0 2.617.031 3.904.093-43.948 2.039-78.953 38.312-78.953 82.764z" fill="#e49542"/><path d="m285.774 261.857c-14.15 0-26.69-7.028-34.313-17.775-7.623 10.747-20.163 17.775-34.312 17.775-4.268 0-7.726-3.459-7.726-7.726s3.459-7.726 7.726-7.726c14.659 0 26.586-11.927 26.586-26.586 0-4.267 3.459-7.726 7.726-7.726 4.268 0 7.726 3.459 7.726 7.726 0 14.659 11.927 26.586 26.587 26.586 4.268 0 7.726 3.459 7.726 7.726s-3.459 7.726-7.726 7.726z" fill="#df751c"/><path d="m261.813 190.59h-20.704c-8.071 0-14.615 6.543-14.615 14.615 0 8.071 6.543 14.615 14.615 14.615h20.704c8.071 0 14.615-6.543 14.615-14.615 0-8.072-6.544-14.615-14.615-14.615z" fill="#30579d"/><path d="m249.16 215.539c2.642 2.642 6.298 4.279 10.335 4.279h-18.387c-4.037 0-7.692-1.637-10.335-4.279-2.642-2.642-4.279-6.298-4.279-10.335 0-8.067 6.54-14.614 14.614-14.614h18.387c-8.074 0-14.614 6.547-14.614 14.614 0 4.037 1.637 7.692 4.279 10.335z" fill="#26457d"/><g fill="#26457d"><ellipse cx="197.655" cy="186.777" rx="11.566" ry="18.556"/><path d="m305.268 168.221c-6.377 0-11.566 8.324-11.566 18.556s5.189 18.556 11.566 18.556 11.565-8.324 11.565-18.556-5.188-18.556-11.565-18.556z"/></g><g fill="#cbafea"><circle cx="473.675" cy="190.016" r="22.288"/><circle cx="435.958" cy="102.437" r="33.103"/><circle cx="44.47" cy="158.866" r="28.434"/></g><path d="m482.925 210.292c-2.812 1.288-5.944 2.009-9.251 2.009-12.311 0-22.293-9.972-22.293-22.283s9.982-22.293 22.293-22.293c3.307 0 6.439.721 9.251 2.009-7.695 3.513-13.042 11.28-13.042 20.284s5.346 16.762 13.042 20.274z" fill="#bc95e2"/><path d="m445.208 134.235c-2.936.855-6.037 1.308-9.251 1.308-18.286 0-33.1-14.824-33.1-33.1 0-18.286 14.814-33.11 33.1-33.11 3.214 0 6.315.453 9.251 1.308-13.784 4.007-23.859 16.73-23.859 31.802s10.075 27.784 23.859 31.792z" fill="#bc95e2"/><path d="m53.721 185.754c-2.895.999-6.016 1.545-9.251 1.545-15.7 0-28.433-12.723-28.433-28.433 0-15.7 12.733-28.433 28.433-28.433 3.235 0 6.356.546 9.251 1.545-11.167 3.832-19.182 14.423-19.182 26.888-.001 12.475 8.014 23.055 19.182 26.888z" fill="#bc95e2"/><g fill="#f9f6f6"><path d="m308.619 233.414c-3.31 0-6.177-2.468-6.593-5.838-.449-3.646 2.142-6.965 5.787-7.415l86.106-10.616c3.647-.449 6.965 2.142 7.415 5.787.449 3.646-2.142 6.965-5.787 7.415l-86.106 10.616c-.276.034-.551.051-.822.051z"/><path d="m371.144 277.057c-.662 0-1.334-.099-1.999-.309l-63.695-20.052c-3.504-1.103-5.45-4.837-4.347-8.341 1.103-3.503 4.837-5.45 8.341-4.347l63.695 20.052c3.504 1.103 5.45 4.837 4.347 8.341-.894 2.84-3.515 4.656-6.342 4.656z"/><path d="m194.307 233.414c-.271 0-.546-.016-.822-.051l-86.106-10.616c-3.646-.449-6.237-3.769-5.787-7.415.45-3.645 3.768-6.236 7.415-5.787l86.106 10.616c3.646.449 6.237 3.769 5.787 7.415-.416 3.369-3.282 5.838-6.593 5.838z"/><path d="m131.782 277.057c-2.827 0-5.448-1.816-6.342-4.655-1.103-3.504.843-7.238 4.347-8.341l63.695-20.052c3.502-1.102 7.237.843 8.341 4.347 1.103 3.504-.843 7.238-4.347 8.341l-63.695 20.052c-.664.209-1.338.308-1.999.308z"/></g></g></svg>