<svg id="Capa_1" enable-background="new 0 0 491.647 491.647" height="512" viewBox="0 0 491.647 491.647" width="512" xmlns="http://www.w3.org/2000/svg"><g><g><path d="m332.964 128.707-96.431 11.504-113.189-11.504v-35.27c0-11.53 3.06-22.62 8.6-32.29 5.54-9.66 13.56-17.9 23.5-23.73 13.9-8.15 30.33-10.84 46.1-7.55l49.33 10.29 59.29 12.37 22.06 73.72z" fill="#9e9797"/><path d="m332.224 126.247c-4.87 1.6-10.08 2.46-15.48 2.46h-16.15c-27.46 0-49.72-22.27-49.72-49.73v-38.82l59.29 12.37z" fill="#8e8787"/><path d="m389.404 5.177v73.8c0 27.46-22.27 49.73-49.73 49.73h-16.14c-.43 0-.86-.01-1.28-.02-.71-.03-1.42-.07-2.12-.11-25.89-1.74-46.33-23.29-46.33-49.6v-73.91c0-4.22 4.87-6.59 8.19-3.97l18.16 14.3c4.23 3.33 9.45 5.14 14.83 5.14h33.69c5.45 0 10.74-1.86 14.99-5.27l2.8-2.24v-.01l14.72-11.78c3.309-2.66 8.22-.3 8.22 3.94z" fill="#9e9797"/><g fill="#8e8787"><path d="m314.983 20.537h-22.93c-5.38 0-10.6-1.81-14.83-5.14l-3.42-2.7v-7.63c0-4.22 4.87-6.59 8.19-3.97l18.16 14.3c4.231 3.33 9.451 5.14 14.83 5.14z"/><path d="m389.404 5.177v73.8c0 27.46-22.27 49.73-49.73 49.73l9.447-12.002c10.618-9.116 17.343-22.635 17.343-37.728v-65.96l14.72-11.78c3.309-2.66 8.22-.3 8.22 3.94z"/></g><g><path d="m212.936 136.203c-4.143 0-7.5-3.357-7.5-7.5 0-35.531-22.232-41.597-23.179-41.837-4.036-.93-6.515-4.946-5.585-8.982.93-4.035 4.989-6.547 9.032-5.616 1.418.326 34.731 8.549 34.731 56.436.001 4.141-3.357 7.499-7.499 7.499z" fill="#8e8787"/></g><g><path d="m331.963 88.346c-4.143 0-7.5-3.357-7.5-7.5v-17.546c0-4.143 3.357-7.5 7.5-7.5s7.5 3.357 7.5 7.5v17.546c0 4.143-3.357 7.5-7.5 7.5z" fill="#8e8787"/></g><g><path d="m338.086 69.453h-12.396c-4.143 0-7.5-3.357-7.5-7.5s3.357-7.5 7.5-7.5h12.396c4.143 0 7.5 3.357 7.5 7.5s-3.357 7.5-7.5 7.5z" fill="#fdb4ba"/></g><g fill="#766e6e"><circle cx="299.848" cy="61.672" r="7.452"/><circle cx="363.389" cy="61.672" r="7.452"/></g></g><path d="m287.914 210.417 2.879 11.25v21.06l-2.879 11.05 2.879 9.71v67.43h-89.939v-18.98l4.99-7.62-4.99-8.02v-26.17l4.99-8.44-4.99-7.2v-67.37h89.939z" fill="#ffcebf"/><path d="m287.914 210.417 2.879 11.25v21.06l-2.879 11.05 2.879 9.71v67.43h-22.929v-143.8h22.929z" fill="#ffb09e"/><g><g><path d="m290.793 242.727v20.76c-7.3 6.37-15.1 12.09-22.93 17.16-32.38 20.98-65.38 30.98-67.01 31.29v-15.64c9.23-3.12 39.76-14.38 67.01-33.86 8.16-5.83 16.021-12.4 22.93-19.71z" fill="#e49280"/></g><g><path d="m290.793 198.306v23.361c-7.3 6.37-15.1 12.09-22.93 17.16-32.38 20.98-65.38 30.99-67.01 31.3v-15.64c9.24-3.11 39.76-14.39 67.01-33.87 6.18-4.42 12.19-9.26 17.75-14.52z" fill="#e49280"/></g><g fill="#dd7f66"><path d="m290.793 198.306v23.361c-7.3 6.37-15.1 12.09-22.93 17.16v-18.21c6.18-4.42 12.19-9.26 17.75-14.52z"/><path d="m290.793 242.727v20.76c-7.3 6.37-15.1 12.09-22.93 17.16v-18.21c8.16-5.83 16.021-12.4 22.93-19.71z"/></g></g><g><path d="m362.39 262.534c-4.143 0-7.5-3.357-7.5-7.5v-60.417c0-4.143 3.357-7.5 7.5-7.5s7.5 3.357 7.5 7.5v60.417c0 4.142-3.357 7.5-7.5 7.5z" fill="#fdb4ba"/></g><path d="m431.791 491.647h-112.689l-73.279-13.753-73.277 13.753h-112.69c-8.425 0-15.255-6.83-15.255-15.255v-138.846c0-14.141 11.464-25.605 25.605-25.605h351.234c14.141 0 25.605 11.464 25.605 25.605v138.846c.001 8.425-6.829 15.255-15.254 15.255z" fill="#ffdfcf"/><path d="m421.44 311.941h-22.933c14.141 0 25.605 11.464 25.605 25.605v139.074c0 6.57-3.948 12.496-10.01 15.027h17.688c8.425 0 15.255-6.83 15.255-15.255v-138.846c.001-14.141-11.463-25.605-25.605-25.605z" fill="#ffcebf"/><path d="m319.102 491.647h-146.557v-72.829c0-36.927 29.935-66.862 66.862-66.862h12.833c36.927 0 66.862 29.935 66.862 66.862z" fill="#766e6e"/><path d="m252.24 351.956h-12.833c-1.701 0-3.381.085-5.05.209 34.565 2.584 61.812 31.427 61.812 66.653v72.829h22.933v-72.829c0-36.927-29.935-66.862-66.862-66.862z" fill="#686262"/><circle cx="362.392" cy="260.76" fill="#fe646f" r="20.829"/><path d="m362.392 239.931c-4.239 0-8.177 1.274-11.466 3.448 5.638 3.727 9.363 10.116 9.363 17.381s-3.724 13.653-9.363 17.381c3.29 2.175 7.228 3.448 11.466 3.448 11.504 0 20.829-9.325 20.829-20.829s-9.325-20.829-20.829-20.829z" fill="#fd4755"/><g fill="#ffdfcf"><path d="m415.325 123.041v26.154c0 31.427-25.477 56.904-56.904 56.904h-225.196c-31.427 0-56.904-25.477-56.904-56.904v-26.154c0-12.545 10.169-22.714 22.714-22.714h26.003c8.828 0 16.627 5.752 19.233 14.187 2.606 8.435 10.405 14.187 19.233 14.187h164.638c8.828 0 16.627-5.752 19.233-14.187 2.606-8.435 10.405-14.187 19.233-14.187h26.003c12.545 0 22.714 10.169 22.714 22.714z"/><path d="m415.325 123.041v26.154c0 31.427-25.477 56.904-56.904 56.904h-225.196c-31.427 0-56.904-25.477-56.904-56.904v-26.154c0-12.545 10.169-22.714 22.714-22.714h26.003c8.828 0 16.627 5.752 19.233 14.187 2.606 8.435 10.405 14.187 19.233 14.187h164.638c8.828 0 16.627-5.752 19.233-14.187 2.606-8.435 10.405-14.187 19.233-14.187h26.003c12.545 0 22.714 10.169 22.714 22.714z"/><path d="m415.325 123.041v26.154c0 31.427-25.477 56.904-56.904 56.904h-225.196c-31.427 0-56.904-25.477-56.904-56.904v-26.154c0-12.545 10.169-22.714 22.714-22.714h26.003c8.828 0 16.627 5.752 19.233 14.187 2.606 8.435 10.405 14.187 19.233 14.187h164.638c8.828 0 16.627-5.752 19.233-14.187 2.606-8.435 10.405-14.187 19.233-14.187h26.003c12.545 0 22.714 10.169 22.714 22.714z"/></g><g fill="#ffcebf"><path d="m121.339 114.514c2.606 8.435 10.405 14.187 19.233 14.187h22.933c-8.828 0-16.627-5.752-19.233-14.187s-10.405-14.187-19.233-14.187h-22.933c8.828 0 16.627 5.752 19.233 14.187z"/><path d="m392.611 100.327h-22.933c12.545 0 22.714 10.169 22.714 22.714v26.154c0 31.427-25.477 56.904-56.904 56.904h22.933c31.427 0 56.904-25.477 56.904-56.904v-26.154c0-12.545-10.169-22.714-22.714-22.714z"/></g></g></svg>