<svg id="Capa_1" enable-background="new 0 0 512.003 512.003" height="512" viewBox="0 0 512.003 512.003" width="512" xmlns="http://www.w3.org/2000/svg"><g><path d="m285.066 101.992c-29.411 0-67.073-7.673-111.538-14.7-17.613-42.666-59.607-72.702-108.633-72.702-4.696 0-8.502 3.807-8.502 8.502v274.713c0 103.562 78.868 188.704 179.818 198.64 6.51.641 13.112-.351 19.791-.351 110.241 0 187.735-88.049 187.735-198.289l-19.156-123.31z" fill="#c68d7a"/><g><path d="m447.108 15.59c-11.133 0-21.896 1.564-32.1 4.457.652 1.203 1.022 1.581 1.022 3.045v274.713c0 103.562-78.869 188.696-179.819 198.633 6.511.641 13.111.976 19.79.976 110.241 0 199.609-89.368 199.609-199.609v-66.932l-2-207.781c0-4.696-1.806-7.502-6.502-7.502z" fill="#aa6a51"/></g><path d="m445.108 16.589h-1c-11.132 0-18.901-.451-29.105 2.442-34.734 9.849-62.914 35.282-76.528 68.261-25.139-11.421-53.063-17.786-82.474-17.786-29.411 0-57.334 6.365-82.473 17.786l265.029 134.9 14.054-197.1c-.001-4.696-2.808-8.503-7.503-8.503z" fill="#eef5f6"/><path d="m447.108 14.589c-10.76 0-21.18 1.448-31.078 4.158v191.979l39.581 20.146v-28.582l-2-12.069 2-8.069v-56.571l-2-7.5 2-7.5v-16.261l-3-10.526 3-6.525v-54.177c-.001-4.696-3.808-8.503-8.503-8.503z" fill="#deecf1"/><path d="m170.123 255.625c-10.196 0-18.462-8.266-18.462-18.462v-12.58c0-10.196 8.266-18.462 18.462-18.462 10.196 0 18.462 8.266 18.462 18.462v12.58c0 10.196-8.265 18.462-18.462 18.462z" fill="#5b596d"/><path d="m341.879 255.625c-10.196 0-18.462-8.266-18.462-18.462v-12.58c0-10.196 8.266-18.462 18.462-18.462 10.196 0 18.462 8.266 18.462 18.462v12.58c.001 10.196-8.265 18.462-18.462 18.462z" fill="#5b596d"/><g><path d="m359.418 314.687c-3.532 0-6.678-2.507-7.36-6.105-.771-4.07 1.903-7.994 5.973-8.765l145.074-27.493c4.065-.769 7.994 1.901 8.766 5.972.77 4.07-1.903 7.994-5.973 8.765l-145.074 27.493c-.472.09-.942.133-1.406.133z" fill="#deecf1"/></g><g><path d="m504.501 353.481h-145.074c-4.143 0-7.5-3.358-7.5-7.5s3.357-7.5 7.5-7.5h145.074c4.143 0 7.5 3.358 7.5 7.5 0 4.143-3.357 7.5-7.5 7.5z" fill="#deecf1"/></g><g><path d="m504.51 419.772c-.464 0-.934-.043-1.405-.133l-145.074-27.493c-4.069-.771-6.743-4.695-5.973-8.765.771-4.07 4.704-6.744 8.766-5.972l145.074 27.493c4.069.771 6.743 4.695 5.973 8.765-.682 3.598-3.829 6.105-7.361 6.105z" fill="#deecf1"/></g><g><path d="m152.584 314.687c-.463 0-.933-.043-1.405-.133l-145.074-27.493c-4.07-.771-6.744-4.695-5.972-8.765.771-4.07 4.693-6.75 8.765-5.972l145.075 27.493c4.07.771 6.744 4.695 5.972 8.765-.682 3.598-3.829 6.105-7.361 6.105z" fill="#eef5f6"/></g><g><path d="m152.576 353.481h-145.075c-4.142 0-7.5-3.358-7.5-7.5s3.358-7.5 7.5-7.5h145.075c4.142 0 7.5 3.358 7.5 7.5 0 4.143-3.358 7.5-7.5 7.5z" fill="#eef5f6"/></g><g><path d="m7.493 419.772c-3.533 0-6.679-2.507-7.36-6.105-.771-4.07 1.902-7.994 5.972-8.765l145.075-27.493c4.071-.772 7.994 1.902 8.765 5.972s-1.902 7.994-5.972 8.765l-145.075 27.493c-.472.089-.942.133-1.405.133z" fill="#eef5f6"/></g><path d="m294.778 149.009 17.243 8.776-18.302-84.718c-5.217-.998-10.507-1.793-15.86-2.376z" fill="#deecf1"/><path d="m366.83 46.33 49.2 26.595 17.519 4.249 7.594.974-25.113-22.274-36.622-19.796c-4.428 3.13-8.631 6.554-12.578 10.252z" fill="#deecf1"/><path d="m416.03 55.874v17.051l39.58 21.395v-17.051z" fill="#c5d3dd"/><path d="m416.03 110.583h-40.315l-33.988-30.446c-1.158 2.344-2.249 4.726-3.252 7.155-6.463-2.937-13.114-5.532-19.923-7.778l97.478 87.321 16.087 2.458-16.087-22.596-23.57-21.114h23.57l22.526-6.463z" fill="#deecf1"/><path d="m455.61 182.153v20.138l-39.58-35.456v-20.138z" fill="#c5d3dd"/><path d="m256.001 354.083c-3.133 0-6.155 1.528-9.001.651-12.462-3.841-21.519-15.448-21.519-29.17v-5.432c0-5.523 4.477-10 10-10h31.039c5.523 0 10 4.477 10 10v5.432c.001 16.855-3.663 28.519-20.519 28.519z" fill="#fd8087"/><path d="m276.521 310.132h-18c5.523 0 10 4.477 10 10v5.432c0 13.722-9.057 25.328-21.519 29.169 2.845.877 5.867 1.351 9 1.351 16.855 0 30.519-13.664 30.519-30.519v-5.432c0-5.524-4.478-10.001-10-10.001z" fill="#fd4755"/><path d="m416.03 110.583h39.58v15h-39.58z" fill="#c5d3dd"/></g></svg>