<svg id="Layer_1" enable-background="new 0 0 473.284 503.43" height="512" viewBox="0 0 473.284 503.43" width="512" xmlns="http://www.w3.org/2000/svg" xmlns:xlink="http://www.w3.org/1999/xlink"><linearGradient id="lg1"><stop offset=".5208" stop-color="#f00"/><stop offset="1" stop-color="#c5004b"/></linearGradient><radialGradient id="SVGID_1_" cx="238.227" cy="19.657" gradientUnits="userSpaceOnUse" r="139.217" xlink:href="#lg1"/><linearGradient id="lg2"><stop offset="0" stop-color="#fff5d9"/><stop offset=".2952" stop-color="#fcdfc4"/><stop offset=".7395" stop-color="#f9c4ab"/><stop offset="1" stop-color="#f8baa1"/></linearGradient><radialGradient id="SVGID_2_" cx="-789.1" cy="-1000.218" gradientTransform="matrix(1.288 -.731 -.494 -.87 806.875 -1231.259)" gradientUnits="userSpaceOnUse" r="109.007" xlink:href="#lg2"/><radialGradient id="SVGID_3_" cx="-789.1" cy="-944.404" gradientTransform="matrix(1.288 -.731 -.494 -.87 806.875 -1231.259)" gradientUnits="userSpaceOnUse" r="109.007" xlink:href="#lg2"/><radialGradient id="SVGID_4_" cx="-789.1" cy="-888.59" gradientTransform="matrix(1.288 -.731 -.494 -.87 806.875 -1231.259)" gradientUnits="userSpaceOnUse" r="109.007" xlink:href="#lg2"/><radialGradient id="SVGID_5_" cx="-789.1" cy="-832.776" gradientTransform="matrix(1.288 -.731 -.494 -.87 806.875 -1231.259)" gradientUnits="userSpaceOnUse" r="109.007" xlink:href="#lg2"/><radialGradient id="SVGID_6_" cx="423.284" cy="343.788" gradientTransform="matrix(1 0 0 -1 0 287.272)" gradientUnits="userSpaceOnUse" r="668.872" xlink:href="#lg1"/><radialGradient id="SVGID_7_" cx="-993.109" cy="2353.393" gradientTransform="matrix(.08 .997 .997 -.08 -2084.275 1297.724)" gradientUnits="userSpaceOnUse" r="668.872" xlink:href="#lg1"/><radialGradient id="SVGID_8_" cx="-645.076" cy="2276.13" gradientTransform="matrix(.08 .997 .997 -.08 -2084.275 1297.724)" gradientUnits="userSpaceOnUse" r="668.872" xlink:href="#lg1"/><radialGradient id="SVGID_9_" cx="-3074.966" cy="817.601" gradientTransform="matrix(-.945 -.327 -.327 .945 -2272.683 -1258.227)" gradientUnits="userSpaceOnUse" r="668.872" xlink:href="#lg1"/><linearGradient id="lg3"><stop offset="0" stop-color="#876a87"/><stop offset="1" stop-color="#1d1d1b"/></linearGradient><linearGradient id="SVGID_10_" gradientUnits="userSpaceOnUse" x1="140.373" x2="29.165" xlink:href="#lg3" y1="15.553" y2="314.958"/><linearGradient id="lg4"><stop offset=".1118" stop-color="#ffffe5"/><stop offset=".7315" stop-color="#ffffe5"/><stop offset=".8071" stop-color="#fff0d1"/><stop offset=".9282" stop-color="#ffddb7"/><stop offset="1" stop-color="#ffd6ad"/></linearGradient><radialGradient id="SVGID_11_" cx="244.835" cy="11.059" gradientUnits="userSpaceOnUse" r="261.639" xlink:href="#lg4"/><linearGradient id="lg5"><stop offset="0" stop-color="#ffdc81"/><stop offset=".1432" stop-color="#ffca77"/><stop offset=".5249" stop-color="#ff9f5f"/><stop offset=".8234" stop-color="#ff8550"/><stop offset="1" stop-color="#ff7b4b"/></linearGradient><radialGradient id="SVGID_12_" cx="326.103" cy="-23.159" gradientUnits="userSpaceOnUse" r="332.394" xlink:href="#lg5"/><radialGradient id="SVGID_14_" cx="235.387" cy="307.614" gradientTransform="matrix(0 1 -1.04 0 555.364 72.226)" gradientUnits="userSpaceOnUse" r="196.863" xlink:href="#lg4"/><radialGradient id="SVGID_15_" cx="453.285" cy="299.501" gradientTransform="matrix(.999 -.055 .055 .999 -11.476 19.556)" gradientUnits="userSpaceOnUse" r="163.001" xlink:href="#lg3"/><radialGradient id="SVGID_16_" cx="536.161" cy="343.969" gradientTransform="matrix(.873 .487 -.487 .873 159.613 -149.103)" gradientUnits="userSpaceOnUse" r="163.001" xlink:href="#lg3"/><radialGradient id="SVGID_17_" cx="497.933" cy="317.67" gradientTransform="matrix(.983 .181 -.181 .983 41.605 -57.39)" gradientUnits="userSpaceOnUse" r="163.001" xlink:href="#lg3"/><radialGradient id="SVGID_18_" cx="654.344" cy="310.629" gradientTransform="matrix(-.999 -.055 -.055 .999 686.448 19.556)" gradientUnits="userSpaceOnUse" r="163.001" xlink:href="#lg3"/><radialGradient id="SVGID_19_" cx="712.038" cy="245.909" gradientTransform="matrix(-.873 .487 .487 .873 515.36 -149.103)" gradientUnits="userSpaceOnUse" r="163.001" xlink:href="#lg3"/><radialGradient id="SVGID_20_" cx="695.96" cy="281.15" gradientTransform="matrix(-.983 .181 .181 .983 633.368 -57.39)" gradientUnits="userSpaceOnUse" r="163.001" xlink:href="#lg3"/><radialGradient id="SVGID_21_" cx="264.818" cy="254.861" gradientUnits="userSpaceOnUse" r="193.071" xlink:href="#lg5"/><radialGradient id="SVGID_22_" cx="230.578" cy="270.188" gradientUnits="userSpaceOnUse" r="356.343"><stop offset=".1924" stop-color="#876a87"/><stop offset=".7887" stop-color="#1d1d1b"/></radialGradient><radialGradient id="SVGID_23_" cx="395.661" cy="113.981" gradientUnits="userSpaceOnUse" r="115.284"><stop offset="0" stop-color="#fffd53"/><stop offset=".3115" stop-color="#ffca50"/><stop offset=".6192" stop-color="#ff9f4d"/><stop offset=".8585" stop-color="#ff854c"/><stop offset="1" stop-color="#ff7b4b"/></radialGradient><radialGradient id="SVGID_24_" cx="359.608" cy="175.733" gradientUnits="userSpaceOnUse" r="167.745" xlink:href="#lg5"/><radialGradient id="SVGID_25_" cx="250.043" cy="17.898" gradientTransform="matrix(1 -.006 .006 1 3.442 6.688)" gradientUnits="userSpaceOnUse" r="234.977" xlink:href="#lg3"/><radialGradient id="SVGID_27_" cx="231.509" cy="231.759" gradientTransform="matrix(1 -.006 .006 1 3.442 6.688)" gradientUnits="userSpaceOnUse" r="107.795" xlink:href="#lg3"/><linearGradient id="lg6"><stop offset="0" stop-color="#ffa953"/><stop offset="1" stop-color="#ff004b"/></linearGradient><radialGradient id="SVGID_29_" cx="349.738" cy="912.641" gradientTransform="matrix(1 -.006 .006 1 -.29 -612.301)" gradientUnits="userSpaceOnUse" r="48.454" xlink:href="#lg6"/><radialGradient id="SVGID_30_" cx="108.634" cy="912.641" gradientTransform="matrix(1 -.006 .006 1 -.29 -612.301)" gradientUnits="userSpaceOnUse" r="48.454" xlink:href="#lg6"/><radialGradient id="SVGID_31_" cx="236.804" cy="474.321" gradientUnits="userSpaceOnUse" r="133.383" xlink:href="#lg3"/><radialGradient id="SVGID_32_" cx="237.8" cy="-42.996" gradientTransform="matrix(1 0 0 -.585 0 287.117)" gradientUnits="userSpaceOnUse" r="68.89" xlink:href="#lg3"/><g><g><g><path d="m346.585 146.007c0 29.688-48.333 53.795-107.947 53.795s-107.947-24.107-107.947-53.795c0-23.038 65.195-104.503 94.29-139.772 6.888-8.313 20.544-8.313 27.432 0 28.976 35.269 94.172 116.734 94.172 139.772z" fill="url(#SVGID_1_)"/></g><path d="m340.528 163.82-53.439 30.282c24.82-6.175 44.177-17.1 53.439-30.282z" fill="url(#SVGID_2_)"/><path d="m232.7 199.802 111.628-63.295c-2.969-7.956-8.788-18.169-16.15-29.807l-148.679 84.433c15.438 4.988 33.607 8.194 53.201 8.669z" fill="url(#SVGID_3_)"/><path d="m154.68 179.852 161.148-91.44c-6.294-9.025-13.182-18.407-20.188-27.551l-163.88 92.984c2.85 9.856 11.044 18.763 22.92 26.007z" fill="url(#SVGID_4_)"/><path d="m138.173 125.106 144.048-81.702c-7.6-9.738-14.963-18.882-21.376-26.838l-80.04 45.482c-17.1 22.445-33.488 45.72-42.632 63.058z" fill="url(#SVGID_5_)"/></g><g><path d="m383.972 63.364-30.726-15.901c19.81-12.533 15.902-30.726 15.902-30.726l30.726 15.902c0-.001 4.583 20.079-15.902 30.725z" fill="url(#SVGID_6_)"/><path d="m59.578 90.127 13.476-31.939c14.015 18.732 31.939 13.476 31.939 13.476l-13.476 31.939c0 .001-19.675 6.2-31.939-13.476z" fill="url(#SVGID_7_)"/><path d="m10.443 443.196 13.476-31.939c14.015 18.732 31.939 13.476 31.939 13.476l-13.476 31.939c-.134 0-19.675 6.199-31.939-13.476z" fill="url(#SVGID_8_)"/><path d="m443.106 418.092 23.853 25.066c-22.776 5.39-25.066 23.853-25.066 23.853l-23.853-25.066s2.291-20.484 25.066-23.853z" fill="url(#SVGID_9_)"/></g><g><g><g><path d="m36.197 263.188c53.466 64.868 183.289-42.134 129.824-107.001s-161.719-63.955-161.719-63.955-21.572 106.088 31.895 170.956z" fill="url(#SVGID_10_)"/><path d="m50.837 234.514c30.213 36.657 103.575-23.809 73.363-60.467s-91.388-36.139-91.388-36.139-12.189 59.95 18.025 96.606z" fill="url(#SVGID_11_)"/></g><g><path d="m468.982 92.232s-108.254-.913-161.719 63.954 76.358 171.869 129.824 107.001 31.895-170.955 31.895-170.955z" fill="url(#SVGID_12_)"/><path d="m440.472 137.908s-61.176-.519-91.388 36.139 43.15 97.123 73.363 60.467c30.214-36.656 18.025-96.606 18.025-96.606z" fill="url(#SVGID_11_)"/></g></g><g><path d="m460.521 336.67-35.605-65.873c-6.782-106.442-97.778-163.679-186.316-164.506-88.538.827-179.534 58.063-186.316 164.506l-35.605 65.873c5.503 13.122 23.704 11.852 23.704 11.852s-18.624 11.005-13.533 36.226c0 0 83.797 118.683 211.751 118.683s211.751-118.683 211.751-118.683c5.091-25.22-13.533-36.226-13.533-36.226s18.2 1.27 23.702-11.852z" fill="url(#SVGID_14_)"/></g><g><g><path d="m290.347 350.249 103.316-25.291c.919-.225 1.482-1.153 1.257-2.072s-1.153-1.482-2.072-1.257l-103.316 25.291c-.919.225-1.482 1.152-1.257 2.072s1.153 1.482 2.072 1.257" fill="url(#SVGID_15_)"/></g><g><path d="m288.68 370.911 100.837 33.847c.897.301 1.868-.182 2.17-1.079.301-.897-.182-1.868-1.079-2.17l-100.838-33.847c-.897-.301-1.868.182-2.17 1.079-.301.898.182 1.869 1.08 2.17" fill="url(#SVGID_16_)"/></g><g><path d="m297.702 361.031 106.366-.257c.946-.002 1.712-.771 1.709-1.718s-.771-1.712-1.718-1.709l-106.366.257c-.946.002-1.712.771-1.709 1.718s.772 1.711 1.718 1.709" fill="url(#SVGID_17_)"/></g></g><g><g><path d="m183.259 350.249-103.316-25.291c-.919-.225-1.482-1.153-1.257-2.072s1.153-1.482 2.072-1.257l103.316 25.291c.919.225 1.482 1.152 1.257 2.072-.225.919-1.153 1.482-2.072 1.257" fill="url(#SVGID_18_)"/></g><g><path d="m184.927 370.911-100.837 33.847c-.897.301-1.868-.182-2.17-1.079s.182-1.868 1.079-2.17l100.837-33.847c.897-.301 1.868.182 2.17 1.079.301.898-.182 1.869-1.079 2.17" fill="url(#SVGID_19_)"/></g><g><path d="m175.905 361.031-106.366-.257c-.946-.002-1.712-.771-1.709-1.718.002-.946.771-1.712 1.718-1.709l106.366.257c.946.002 1.712.771 1.709 1.718s-.772 1.711-1.718 1.709" fill="url(#SVGID_20_)"/></g></g><path d="m384.046 313.237c-74.805 0-135.446-60.641-135.446-135.446 0-25.292 6.94-48.96 19.008-69.217-9.623-1.429-19.33-2.193-29.008-2.284-9.678.09-19.385.855-29.008 2.284 12.068 20.258 19.008 43.926 19.008 69.218 0 74.805-60.641 135.446-135.446 135.446-20.372 0-39.688-4.506-57.02-12.562l-19.455 35.994c5.503 13.122 23.704 11.852 23.704 11.852s-18.624 11.005-13.533 36.226c0 0 83.797 118.683 211.751 118.683s211.751-118.683 211.751-118.683c5.091-25.22-13.533-36.226-13.533-36.226s18.201 1.27 23.704-11.852l-19.456-35.995c-17.333 8.056-36.65 12.562-57.021 12.562z" fill="none"/><g><path d="m384.046 313.237c20.372 0 39.688-4.506 57.02-12.562l-16.15-29.878c-6.041-94.808-78.891-150.578-157.308-162.222-12.068 20.257-19.008 43.925-19.008 69.217 0 74.804 60.641 135.445 135.446 135.445z" fill="url(#SVGID_21_)"/><path d="m228.6 177.792c0-25.292-6.94-48.96-19.008-69.217-78.417 11.644-151.267 67.414-157.308 162.222l-16.15 29.878c17.332 8.056 36.648 12.562 57.02 12.562 74.805 0 135.446-60.641 135.446-135.445z" fill="url(#SVGID_22_)"/></g><g><path d="m306.2 124.677c2.171-9.594-11.308-17.133-34.494-22.387-23.187-5.254-49.572 3.312-49.572 3.312-2.17 9.594 14.849 21.588 38.149 26.842 23.187 5.254 43.747 1.713 45.917-7.767z" fill="url(#SVGID_23_)"/><path d="m315.413 94.376c-1.125-5.873-11.738-13.394-47.168-7.777 9.295-10.655 13.336-21.245 9.178-26.368-3.098-3.81-14.107-4.995-38.985 15.033-19.787 16.008-26.652 28.021-28.25 31.225-.013.01-.028.023-.028.023.001.007.005.015.006.022-.261.525-.378.808-.378.808.268.33.596.627.954.908 4.79 10.495 34.07 20.541 59.695 15.54 26.907-5.146 47.087-18.335 44.976-29.414z" fill="url(#SVGID_24_)"/></g><g><path d="m371.831 212.859c.395-.315.639-.794.649-1.298.065-3.06-.298-5.867-.84-8.589-.573-2.979-1.434-5.784-2.447-8.529-1.055-2.701-2.254-5.346-3.691-7.827-.669-1.292-1.45-2.486-2.237-3.696-.798-1.19-1.624-2.38-2.528-3.5-3.53-4.573-7.778-8.664-12.696-12.184-4.9-3.521-10.582-6.407-16.878-8.332-6.282-1.925-13.243-2.855-20.31-2.278-7.058.512-14.155 2.821-20.074 6.425-1.495.879-2.938 1.837-4.232 2.947-1.315 1.078-2.628 2.118-3.792 3.315-1.11 1.251-2.226 2.429-3.223 3.721-1.038 1.254-1.863 2.631-2.681 3.994l-1.152 2.079c-.381.684-.749 1.356-1.008 2.123-.566 1.489-1.133 2.918-1.563 4.427-.508 1.438-.732 3.053-.98 4.599-.167 1.335-.317 2.643-.346 4.009-.011.499.214.98.591 1.307l.008.008c.671.583 1.674.547 2.307-.076 3.035-2.988 6.166-5.865 9.707-8.128 1.857-1.414 3.928-2.457 5.927-3.604.049-.028.097-.053.148-.075 2.108-.918 4.172-1.948 6.388-2.532 4.414-1.325 8.997-2.165 13.626-1.973 4.618.131 9.218.993 13.668 2.396 8.989 2.646 17.282 7.559 25.001 13.127 3.875 2.79 7.584 5.836 11.146 9.054 3.203 2.813 6.328 5.792 9.217 8.91.604.652 1.6.734 2.295.18z" fill="url(#SVGID_25_)"/><path d="m101.583 214.488c-.399-.31-.648-.786-.664-1.29-.102-3.059.227-5.87.737-8.599.537-2.985 1.364-5.801 2.344-8.557 1.023-2.714 2.19-5.373 3.596-7.871.654-1.3 1.419-2.504 2.192-3.723.784-1.199 1.595-2.399 2.486-3.53 3.474-4.616 7.673-8.757 12.548-12.336 4.857-3.58 10.504-6.534 16.776-8.535 6.258-2.001 13.208-3.014 20.281-2.522 7.064.426 14.188 2.651 20.15 6.182 1.505.861 2.96 1.801 4.268 2.896 1.328 1.062 2.654 2.086 3.832 3.269 1.125 1.238 2.255 2.402 3.268 3.682 1.053 1.242 1.894 2.608 2.729 3.962l1.177 2.065c.389.679.766 1.347 1.034 2.111.584 1.482 1.168 2.904 1.617 4.408.525 1.431.769 3.044 1.036 4.587.183 1.333.348 2.639.395 4.004.017.499-.202.982-.575 1.315l-.008.008c-.664.591-1.667.567-2.308-.048-3.071-2.952-6.236-5.79-9.804-8.01-1.874-1.391-3.957-2.409-5.97-3.533-.049-.027-.098-.052-.149-.073-2.119-.892-4.195-1.897-6.418-2.455-4.43-1.271-9.022-2.056-13.649-1.808-4.616.187-9.205 1.104-13.638 2.561-8.957 2.755-17.189 7.767-24.841 13.428-3.841 2.836-7.514 5.927-11.036 9.188-3.169 2.851-6.259 5.867-9.109 9.021-.601.655-1.595.749-2.297.203z" fill="url(#SVGID_25_)"/><g><g><g><g><path d="m276.653 281.257c-.217 26.167 14.864 47.506 33.679 47.661 18.815.156 34.243-20.932 34.458-47.103.217-26.167-14.864-47.509-33.679-47.664-18.814-.153-34.243 20.936-34.458 47.106z" fill="#fff"/></g></g><g><g><path d="m284.235 281.315c-.163 19.58 9.478 35.535 21.528 35.635s21.949-15.693 22.111-35.278c.162-19.58-9.478-35.536-21.528-35.637-12.052-.096-21.951 15.696-22.111 35.28z" fill="url(#SVGID_27_)"/></g></g><circle cx="310.296" cy="263.05" fill="#fff" r="13.881"/></g><g><g><g><g><path d="m200.166 281.719c.533 26.162-14.29 47.682-33.102 48.064-18.812.383-34.493-20.517-35.023-46.684-.533-26.162 14.29-47.684 33.102-48.066 18.813-.381 34.493 20.52 35.023 46.686z" fill="#fff"/></g></g></g><g><g><path d="m148.33 282.135c-.163 19.58 9.478 35.535 21.528 35.635 12.049.1 21.949-15.693 22.111-35.278.162-19.58-9.478-35.536-21.528-35.637-12.05-.097-21.951 15.696-22.111 35.28z" fill="url(#SVGID_27_)"/></g></g><circle cx="174.393" cy="263.87" fill="#fff" r="13.881"/></g></g><g><g><path d="m359.094 303.002c16.332-.098 29.612 6.288 29.66 14.264s-13.153 14.522-29.485 14.621-29.612-6.288-29.66-14.264c-.049-7.977 13.152-14.523 29.485-14.621z" fill="url(#SVGID_29_)"/></g><g><path d="m117.994 304.456c16.332-.098 29.612 6.288 29.66 14.264s-13.153 14.522-29.485 14.621-29.612-6.288-29.66-14.264c-.049-7.977 13.152-14.523 29.485-14.621z" fill="url(#SVGID_30_)"/></g></g></g><path d="m295.747 379.829-2.316-1.449c-3.2 4.534-6.822 8.744-10.963 12.365-4.076 3.68-8.589 6.853-13.421 9.392-4.845 2.506-9.918 4.566-15.205 5.869-2.303.577-4.64 1.001-6.992 1.32v-55.774h-18.335v55.769c-2.345-.318-4.676-.74-6.974-1.317-5.287-1.3-10.358-3.367-15.203-5.871-4.832-2.539-9.347-5.708-13.421-9.391-4.142-3.62-7.764-7.828-10.967-12.362l-2.316 1.449c-.328 1.91-.405 3.753-.443 5.645.08 1.809.202 3.672.48 5.484.284 1.807.73 3.555 1.192 5.353.536 1.733 1.177 3.434 1.849 5.167 2.898 6.72 7.326 12.892 12.901 17.935 11.092 10.214 26.679 15.908 42.077 15.836 15.395.018 30.968-5.672 42.045-15.894 5.571-5.043 9.994-11.209 12.894-17.92.673-1.729 1.323-3.422 1.854-5.157.468-1.791.912-3.54 1.201-5.343.281-1.809.407-3.668.49-5.473-.033-1.889-.107-3.73-.427-5.633z" fill="url(#SVGID_31_)"/><path d="m237.365 303.857c-22.468.542-40.345 9.608-40.345 20.716s17.876 31.49 40.345 32.72c22.468-1.23 40.345-21.612 40.345-32.72 0-11.107-17.877-20.174-40.345-20.716z" fill="url(#SVGID_32_)"/></g></g></svg>