<svg id="Capa_1" enable-background="new 0 0 512 512" height="512" viewBox="0 0 512 512" width="512" xmlns="http://www.w3.org/2000/svg"><g><g><path d="m94.452 445.672c43.124 37.863 99.649 60.828 161.548 60.828s118.424-22.965 161.548-60.828z" fill="#0ed290"/></g><g><path d="m181.318 333c2.079 0 3.877 1.411 4.372 3.431l2.247 9.185c.603 2.469 2.8 4.193 5.342 4.193h125.441c2.542 0 4.739-1.724 5.342-4.193l2.247-9.185c.495-2.02 2.293-3.43 4.372-3.43h159.698c6.895-22.622 10.621-46.625 10.621-71.501 0-135.31-109.69-245-245-245s-245 109.69-245 245c0 24.876 3.726 48.879 10.621 71.5z" fill="#99e6fc"/></g><g><path d="m101.56 241.948-32.912-57.006c-4.661-8.073-14.984-10.839-23.057-6.178s-10.839 14.984-6.178 23.057l32.912 57.006z" fill="#07b27b"/><g><path d="m57.704 317.315c27.984-13.9 68.321-22.315 111.802-22.315 3.754 0 7.482.067 11.183.191l-35.587-61.639c-4.142-7.174-13.316-9.633-20.49-5.49l-75.838 43.785c-7.174 4.142-9.632 13.316-5.49 20.49z" fill="#05e39c"/></g><g><path d="m57.704 317.315c3.794-1.885 7.816-3.668 12.042-5.344l-12.296-21.298c-2.761-4.783-1.123-10.899 3.66-13.66l80.168-46.285c.371-.214.75-.4 1.13-.579-4.695-4.438-11.916-5.484-17.797-2.088l-75.838 43.785c-7.174 4.142-9.632 13.316-5.49 20.49z" fill="#0ed290"/></g><g fill="#0ed290"><path d="m138.486 296.461c5.455-.516 11.001-.897 16.622-1.14-.097-.211-.202-.42-.32-.625l-24.176-41.874c-2.07-3.587-6.656-4.817-10.245-2.745-3.587 2.071-4.816 6.658-2.745 10.245z"/><path d="m107.507 301.006c5.114-1.039 10.37-1.95 15.744-2.73l-17.841-30.901c-2.07-3.587-6.656-4.817-10.245-2.745-3.587 2.071-4.816 6.658-2.745 10.245z"/><path d="m78.397 308.79c4.718-1.609 9.647-3.09 14.757-4.44l-12.947-22.424c-2.07-3.587-6.655-4.817-10.245-2.745-3.587 2.071-4.816 6.658-2.745 10.245z"/></g><g><g><path d="m61.098 213.112c1.272 0 2.563-.324 3.743-1.006 3.587-2.071 4.816-6.658 2.745-10.245l-4.176-7.232c-2.069-3.588-6.659-4.817-10.245-2.745-3.587 2.071-4.816 6.658-2.745 10.245l4.176 7.232c1.388 2.406 3.91 3.751 6.502 3.751z" fill="#05e39c"/></g></g></g><g><path d="m173.756 333 .138-.275c1.669-3.318 5.002-5.426 8.697-5.5 6.265-.125 11.172-4.943 11.172-10.968v-20.879c-7.898-.574-15.997-.877-24.256-.877-59.969 0-111.751 15.725-136.112 38.5h140.361z" fill="#fff"/></g><g><circle cx="169.5" cy="308" fill="#dff6fd" r="7.5"/></g><g><circle cx="94.5" cy="315" fill="#dff6fd" r="7.5"/></g><g><circle cx="137.5" cy="324" fill="#dff6fd" r="7.5"/></g><path d="m13.727 370.672 18.187 61.197c2.521 8.485 10.32 14.303 19.171 14.303h409.829c8.851 0 16.65-5.818 19.171-14.303l18.187-61.197z" fill="#fe646f"/><path d="m81.914 431.869-18.187-61.197h-50l18.187 61.197c2.521 8.485 10.32 14.303 19.171 14.303h50c-8.851 0-16.649-5.818-19.171-14.303z" fill="#fd4755"/><g><g><circle cx="483.5" cy="268.018" fill="#fff" r="7.5"/></g><g><circle cx="454.5" cy="240" fill="#fff" r="7.5"/></g><g><circle cx="446.5" cy="278" fill="#dff6fd" r="7.5"/></g></g><g><path d="m430.292 214.344h-29.981c1.111 5.87 1.82 11.802 2.118 17.751h29.58c-.243-5.939-.816-11.865-1.717-17.751z" fill="#fece85"/><path d="m402.253 247.846c-.951 13.463-3.972 26.806-9.099 39.495v9.9c8.86 1.303 17.429 3.158 25.599 5.513 7.682-17.509 12.038-36.131 13.119-54.907h-29.619z" fill="#fece85"/><g><path d="m388.618 180.004c3.05 6.028 5.612 12.242 7.663 18.588h30.801c-1.624-6.291-3.651-12.497-6.054-18.588z" fill="#fece85"/></g></g><path d="m181.318 333c2.079 0 3.877 1.411 4.372 3.431l2.247 9.185c.603 2.469 2.8 4.193 5.342 4.193h22.226c-.681-1.348-1.074-2.865-1.074-4.476v-8.142c0-5.388 4.38-9.858 9.764-9.965 6.265-.126 11.172-4.944 11.172-10.969v-25.262l-18.697-8.736c-9.018-4.763-16.896-11.04-23.407-18.416v52.415c0 5.865-4.817 10.351-10.681 10.468-4.198.084-7.784 2.643-9.374 6.275h8.11z" fill="#fdb441"/><path d="m235.367 256.547c0-12.551 10.211-22.762 22.762-22.762s22.762 10.211 22.762 22.762v55.575c13.591-6.414 29.063-11.226 45.656-14.088v-36.146c0-18.364 14.94-33.304 33.304-33.304s33.304 14.94 33.304 33.304h.5v-19.762c0-11.217-1.695-22.057-4.833-32.281-.025.012-.048.025-.073.037-6.293 2.43-13.167 3.671-20.393 3.671-.001 0-.001 0-.002 0-18.865 0-38.141-8.456-52.884-23.199-3.495-3.495-6.689-7.307-9.495-11.331l-.142-.203-.247-.011c-17.938-.787-36.202-9.214-50.109-23.121-1.588-1.587-3.137-3.275-4.734-5.16-.028-.032-.053-.063-.08-.095-2.96 4.107-6.68 7.766-11.121 10.746l-29.645 19.891c-10.73 7.2-23.232 11.005-36.154 11.005-.545 0-1.089-.016-1.633-.03v17.089c0 30.85 17.069 59.169 44.348 73.577l18.91 8.835v-34.999z" fill="#ffefd2"/><path d="m192.11 199.134v-9.711c-5.921 1.747-12.094 2.652-18.367 2.652-.545 0-1.089-.016-1.633-.03v17.089c0 30.85 17.069 59.169 44.348 73.577l18.91 8.835v-19.435c-26.639-14.582-43.258-42.542-43.258-72.977z" fill="#fedba6"/><path d="m292.5 132.279c0-.169.003-.331.003-.499-3.173-.277-6.38-.426-9.622-.426h-24.511c-1.004 7.012-3.738 13.717-8.01 19.497 1.502 1.773 3.081 3.51 4.762 5.191 14.795 14.795 33.45 22.71 51.092 23.306-10.061-14.308-15.077-31.124-13.714-47.069z" fill="#fff"/><path d="m235.589 349.808c9.443-15.433 25.547-28.448 45.802-37.917v-55.344c0-12.847-10.415-23.262-23.262-23.262s-23.262 10.415-23.262 23.262v59.709c0 5.865-4.817 10.351-10.681 10.468-5.683.114-10.254 4.756-10.254 10.466v8.142c0 1.604.371 3.117 1.016 4.476z" fill="#fece85"/><g><g><path d="m245.586 87.149 3.624 7.826-4.25-79.083c-.496-9.227-11.484-13.739-18.322-7.524l-32.774 29.794c24.051 6.352 43.751 24.456 51.722 48.987z" fill="#fe9901"/><path d="m236.834 68.99-1.996-37.141c-.331-6.151-7.656-9.16-12.214-5.016l-17.044 15.495c12.65 5.739 23.509 14.946 31.254 26.662z" fill="#ffefd2"/></g><g><path d="m255.189 106.695-9.128-19.701c-10.04-30.899-38.834-51.82-71.324-51.82-33.677 0-63.523 21.685-73.93 53.713l-13.636 29.114c-6.119 13.064-1.794 28.639 10.186 36.676l39.952 26.807c22.038 14.787 50.828 14.787 72.866 0l29.644-19.891c17.929-12.028 24.446-35.309 15.37-54.898z" fill="#fedba6"/></g><path d="m101.261 89.1c8.021-24.679 27.439-43.074 51.31-50.191l-31.725-28.84c-6.838-6.216-17.826-1.703-18.322 7.524l-4.178 77.729z" fill="#c4573a"/><path d="m141.143 43.336-16.283-14.802c-4.558-4.144-11.884-1.136-12.214 5.016l-1.942 36.142c7.673-11.403 18.21-20.46 30.439-26.356z" fill="#ffefd2"/><g><path d="m167.741 35.5c-30.754 2.768-57.254 23.598-66.933 53.388l-13.636 29.114c-1.933 4.128-2.821 8.506-2.757 12.818 9.305 5.596 20.142 8.905 31.733 9.146 35.721.742 65.679-28.574 65.678-64.303-.001-15.196-5.274-29.157-14.085-40.163z" fill="#fe9901"/></g></g><g><g><circle cx="136.271" cy="96.69" fill="#8c3d27" r="11.167"/></g><g><circle cx="211.301" cy="96.69" fill="#8c3d27" r="11.167"/></g></g><path d="m197.529 147.089c-6.693 0-12.452-4.071-14.936-9.867l10.565-13.264c2.79-3.503.296-8.678-4.182-8.678h-30.381c-4.478 0-6.972 5.176-4.182 8.678l10.565 13.264c-2.484 5.795-8.242 9.867-14.936 9.867-4.143 0-7.5 3.358-7.5 7.5s3.357 7.5 7.5 7.5c9.495 0 18.008-4.263 23.743-10.969 5.735 6.706 14.248 10.969 23.743 10.969 4.143 0 7.5-3.358 7.5-7.5s-3.356-7.5-7.499-7.5z" fill="#8c3d27"/><g><path d="m362.333 295c10.708 0 21.204.795 31.321 2.309v-35.421c0-18.669-15.135-33.804-33.804-33.804s-33.804 15.134-33.804 33.804v36.227c11.632-2.036 23.816-3.115 36.287-3.115z" fill="#fedba6"/></g><g><path d="m346.047 295.621v-23.733c0-18.669 15.135-33.804 33.804-33.804 1.445 0 2.865.101 4.261.277-6.144-6.334-14.74-10.277-24.261-10.277-18.669 0-33.804 15.134-33.804 33.804v36.227c6.508-1.139 13.191-1.976 20-2.494z" fill="#fece85"/></g><path d="m318.721 349.808c2.542 0 4.739-1.724 5.342-4.193l2.247-9.185c.495-2.02 2.293-3.43 4.372-3.43h145.248c-24.417-23.199-66.165-38.5-113.596-38.5-58.124 0-107.725 22.97-127.332 55.308z" fill="#fff"/><g fill="#dff6fd"><path d="m436.055 333c.176-.638.278-1.306.278-2 0-4.142-3.358-7.5-7.5-7.5s-7.5 3.358-7.5 7.5c0 .694.102 1.362.278 2z"/><circle cx="386.167" cy="311" r="7.5"/><circle cx="330.518" cy="318.716" r="7.5"/><circle cx="280.404" cy="332.232" r="7.5"/></g><g><path d="m292.047 131.739c-1.86 19.819 6.049 41.948 23.069 58.968 21.453 21.453 51.023 28.447 73.85 19.624-12.898-42.737-51.058-74.79-96.919-78.592z" fill="#fea613"/></g><g><path d="m385.623 126.083c-5.776-5.777-15.144-5.777-20.92 0-5.777 5.777-5.777 15.144 0 20.92 10.074 10.074 18.132 21.41 24.189 33.5h32.341c-7.75-19.835-19.612-38.422-35.61-54.42z" fill="#c4573a"/></g><g><path d="m426.95 198.093h-30.818c1.802 5.5 3.225 11.097 4.273 16.751h29.983c-.845-5.63-1.991-11.222-3.438-16.751z" fill="#c4573a"/></g><g><path d="m402.232 248.346h29.631c.338-5.578.39-11.169.145-16.751h-29.608c.301 5.58.247 11.176-.168 16.751z" fill="#c4573a"/></g><g><path d="m507.308 332.5h-176.627c-2.304 0-4.309 1.574-4.857 3.812l-2.247 9.185c-.548 2.238-2.553 3.812-4.857 3.812h-125.441c-2.304 0-4.309-1.574-4.857-3.812l-2.247-9.185c-.548-2.238-2.553-3.812-4.857-3.812h-176.626c-2.591 0-4.692 2.101-4.692 4.692v29.288c0 2.591 2.101 4.692 4.692 4.692h502.616c2.591 0 4.692-2.101 4.692-4.692v-29.288c0-2.591-2.101-4.692-4.692-4.692z" fill="#fd8087"/></g><g><path d="m50 366.48v-29.288c0-2.591 2.101-4.692 4.692-4.692h-50c-2.591 0-4.692 2.101-4.692 4.692v29.288c0 2.591 2.101 4.692 4.692 4.692h50c-2.591 0-4.692-2.101-4.692-4.692z" fill="#fe646f"/></g><path d="m84.414 130.82c8.519 5.122 18.322 8.321 28.811 9.011-4.548-8.022-5.19-17.998-1.053-26.83l13.636-29.114c7.023-21.614 22.903-38.506 42.835-47.213-.297-.388-.587-.781-.892-1.163-30.757 2.764-57.262 23.584-66.942 53.376l-13.636 29.114c-1.935 4.128-2.823 8.507-2.759 12.819z" fill="#fb8801"/><g><path d="m162.309 176.485-39.952-26.807c-3.881-2.604-6.953-6.002-9.132-9.847-10.489-.691-20.292-3.889-28.811-9.011.139 9.335 4.749 18.36 12.943 23.858l39.952 26.807c18.412 12.354 41.536 14.378 61.499 6.089-12.729.013-25.461-3.683-36.499-11.089z" fill="#fece85"/></g></g></svg>