<svg xmlns="http://www.w3.org/2000/svg" version="1.1" xmlns:xlink="http://www.w3.org/1999/xlink" xmlns:svgjs="http://svgjs.com/svgjs" width="512" height="512" x="0" y="0" viewBox="0 0 512 512" style="enable-background:new 0 0 512 512" xml:space="preserve" class=""><g><path fill="#7c6a7a" d="M480.34 46.07C376.61 53.92 263.29 90.3 319.36 231.14c140.84 56.07 177.22-57.25 185.07-160.97 1.04-13.7-10.4-25.14-24.09-24.1z" data-original="#7c6a7a" class=""></path><path fill="#6d5c6c" d="M399.93 59.51c-12.06 5.1-18.31 18.73-14.04 31.33 4.47 13.2 18.8 20.28 32 15.8l26.55 23.3c-3.96 13.36 3.66 27.41 17.03 31.37 12.82 3.8 26.26-3.06 30.83-15.42-19.98 73.55-66.8 127.51-172.94 85.25C278 127.26 328.8 80.21 399.93 59.51zM31.66 46.07c103.73 7.85 217.05 44.24 160.97 185.07C51.8 287.21 15.42 173.89 7.57 70.16c-1.04-13.69 10.4-25.13 24.09-24.09z" data-original="#6d5c6c" class=""></path><path fill="#5b4a5b" d="M112.07 59.51c12.06 5.1 18.31 18.73 14.04 31.33-4.47 13.2-18.8 20.28-32 15.8l-26.55 23.3c3.96 13.36-3.66 27.41-17.03 31.37-12.82 3.8-26.26-3.06-30.83-15.42 19.98 73.55 66.8 127.51 172.94 85.25C234 127.26 183.2 80.21 112.07 59.51z" data-original="#5b4a5b" class=""></path><path fill="#ed7c7c" d="M125.27 196c-14.86 0-30.54-3.61-44.58-29.78-8.85-16.51-15.41-38.84-19.6-66.64 61.94 9.29 83.06 28.24 90.24 39.74 8.7 13.93 6.93 33.89 1.9 52.44-10.32 2.82-19.68 4.24-27.96 4.24zM386.73 196c14.86 0 30.54-3.61 44.58-29.78 8.85-16.51 15.41-38.84 19.6-66.64-61.94 9.29-83.06 28.24-90.24 39.74-8.7 13.93-6.93 33.89-1.9 52.44 10.32 2.82 19.68 4.24 27.96 4.24z" data-original="#ed7c7c" class=""></path><path fill="#7c6a7a" d="M496.09 300.42c-21.57-18.42-56.13-51.77-66.96-84.25-14.33-43.01-43.62-77.93-80.93-99.78-.01 0-.01-.01-.02-.01-27.33-16-58.97-24.99-92.18-24.99-33.21 0-64.84 8.99-92.18 24.99-.01 0-.01.01-.02.01-37.31 21.85-66.6 56.78-80.93 99.78-10.82 32.49-45.39 65.83-66.96 84.25-9.8 8.37-11.25 22.98-3.23 33.07l21.9 27.55A23.917 23.917 0 0 0 44 388.5l36.57 24.38a316.248 316.248 0 0 0 350.85.01l36.57-24.38a23.917 23.917 0 0 0 9.42-27.46l21.9-27.55c8.03-10.09 6.58-24.7-3.22-33.08z" data-original="#7c6a7a" class=""></path><path fill="#6d5c6c" d="M146 281.39c0-89.66 65.38-164.81 153.32-184.78A182.443 182.443 0 0 0 256 91.39c-33.21 0-64.84 8.98-92.18 24.99-.01 0-.01.01-.02.01-37.31 21.85-66.6 56.78-80.93 99.78-10.82 32.49-45.39 65.83-66.96 84.25-9.8 8.37-11.25 22.98-3.23 33.07l21.9 27.55A23.917 23.917 0 0 0 44 388.5l36.57 24.38A316.235 316.235 0 0 0 256 466c11.68 0 23.32-.65 34.85-1.93C207.22 441.33 146 368.15 146 281.39z" data-original="#6d5c6c" class=""></path><path d="M500.96 294.72c-15.21-12.99-39.3-35.56-54.28-59.52 37.03-26.54 58.98-81.81 65.23-164.47.66-8.71-2.51-17.25-8.7-23.44s-14.73-9.37-23.44-8.7c-76.38 5.78-129.48 24.98-157.98 57.09C300.81 87.94 278.52 83.9 256 83.9c-22.53 0-44.81 4.04-65.79 11.78-28.49-32.1-81.59-51.3-157.98-57.09-8.7-.66-17.25 2.51-23.44 8.7S-.57 62.02.09 70.73c6.26 82.66 28.2 137.92 65.23 164.47-14.98 23.96-39.07 46.53-54.28 59.53-12.95 11.06-14.8 30.14-4.23 43.44L26.4 362.8c-2.29 12.22 2.89 24.91 13.45 31.95l36.57 24.38C129.77 454.7 191.87 473.5 256 473.5s126.23-18.8 179.58-54.37l36.57-24.38c10.56-7.04 15.74-19.72 13.45-31.95l19.58-24.63c10.58-13.31 8.73-32.39-4.22-43.45zM480.9 53.54c4.34-.33 8.61 1.26 11.7 4.35s4.68 7.36 4.35 11.7c-5.82 76.86-25.16 128.03-57.5 152.31-1.23-2.7-2.32-5.41-3.22-8.1-3-9-6.66-17.71-10.92-26.07 4.55-4.8 8.7-10.71 12.59-17.96 9.23-17.22 16.1-40.46 20.4-69.06.35-2.35-.43-4.74-2.11-6.42s-4.06-2.47-6.42-2.12c-36.9 5.53-64.3 15.08-81.6 28.41-5.17-3.78-10.54-7.33-16.12-10.6a.673.673 0 0 1-.11-.07c-5.01-2.93-10.15-5.61-15.39-8.07 26.69-26.82 75.15-43.06 144.35-48.3zm-63.4 120.3a189.832 189.832 0 0 0-37.13-43.56c10.83-7.39 29.49-15.8 61.42-21.59-4.04 22.2-9.77 40.33-17.1 53.99-2.28 4.26-4.69 7.98-7.19 11.16zM15.04 69.6c-.33-4.34 1.26-8.61 4.35-11.7s7.37-4.68 11.7-4.35c69.2 5.24 117.67 21.48 144.33 48.3-5.24 2.45-10.38 5.13-15.39 8.06-.03.02-.06.03-.08.05a190.47 190.47 0 0 0-16.15 10.62c-17.28-13.32-44.68-22.87-81.6-28.4a7.46 7.46 0 0 0-6.42 2.12 7.482 7.482 0 0 0-2.11 6.42c4.31 28.61 11.17 51.85 20.4 69.06 3.89 7.25 8.04 13.17 12.59 17.97-4.25 8.36-7.92 17.07-10.92 26.07-.9 2.69-1.99 5.4-3.22 8.11-32.33-24.3-51.66-75.47-57.48-152.33zM94.5 173.84c-2.5-3.18-4.91-6.89-7.19-11.16-7.32-13.66-13.06-31.79-17.1-53.99 31.84 5.76 50.51 14.13 61.42 21.58a189.672 189.672 0 0 0-37.13 43.57zm398.94 154.99-21.9 27.54a7.47 7.47 0 0 0-1.24 7.04c2.33 7-.33 14.75-6.47 18.85l-36.57 24.38C376.38 440.57 317.16 458.5 256 458.5s-120.38-17.93-171.26-51.85l-36.57-24.38c-6.14-4.09-8.8-11.85-6.47-18.85.8-2.41.33-5.05-1.24-7.04l-21.9-27.54c-5.52-6.95-4.54-16.92 2.23-22.7 46.24-39.49 63.15-69.43 69.21-87.58a174.939 174.939 0 0 1 77.54-95.64c.05-.03.1-.06.15-.08 26.76-15.66 57.3-23.93 88.33-23.93 31 0 61.5 8.25 88.31 23.91.03.02.07.04.1.06a174.926 174.926 0 0 1 77.6 95.68c6.05 18.16 22.97 48.09 69.21 87.58 6.75 5.77 7.73 15.74 2.2 22.69z" fill="#fbf0f0" data-original="#000000" class=""></path><path d="M118.97 330.1c-18.39-7.4-47.21-7.4-65.6 0a7.513 7.513 0 0 0-4.16 9.76c1.55 3.84 5.92 5.71 9.76 4.16 14.74-5.93 39.66-5.93 54.4 0a7.512 7.512 0 0 0 9.76-4.16c1.54-3.85-.32-8.22-4.16-9.76zM115.12 354.63c-13.64 1.94-30.99 11.95-39.49 22.8a7.506 7.506 0 0 0 1.28 10.53c1.37 1.08 3 1.6 4.62 1.6 2.23 0 4.43-.99 5.91-2.87 6.2-7.91 19.84-15.79 29.79-17.2 4.1-.58 6.95-4.38 6.37-8.48-.59-4.11-4.39-6.97-8.48-6.38zM458.63 330.1c-18.39-7.4-47.21-7.4-65.6 0-3.84 1.55-5.7 5.92-4.16 9.76s5.92 5.71 9.76 4.16c14.74-5.93 39.66-5.93 54.4 0a7.512 7.512 0 0 0 9.76-4.16c1.54-3.85-.32-8.22-4.16-9.76zM396.88 354.63c-4.11-.58-7.9 2.27-8.48 6.37s2.27 7.9 6.37 8.48c9.95 1.41 23.59 9.29 29.79 17.2a7.474 7.474 0 0 0 5.91 2.87c1.62 0 3.25-.52 4.62-1.6 3.26-2.55 3.83-7.27 1.28-10.53-8.5-10.84-25.84-20.85-39.49-22.79zM256.02 286.21c4.14 0 7.5-3.36 7.5-7.5s-3.36-7.5-7.5-7.5h-.01c-4.14 0-7.5 3.36-7.5 7.5s3.37 7.5 7.51 7.5zM321.46 328.29c-7.5 0-14.55 2.92-19.85 8.22a12.98 12.98 0 0 1-9.24 3.83c-15.92 0-28.87-12.95-28.87-28.87 0-4.14-3.36-7.5-7.5-7.5s-7.5 3.36-7.5 7.5c0 15.92-12.95 28.87-28.87 28.87-3.49 0-6.77-1.36-9.24-3.83-5.3-5.3-12.35-8.22-19.85-8.22s-14.55 2.92-19.85 8.23a7.502 7.502 0 1 0 10.61 10.61c2.47-2.47 5.75-3.83 9.24-3.83s6.77 1.36 9.24 3.83c5.3 5.3 12.35 8.22 19.85 8.22 15.12 0 28.48-7.69 36.37-19.36 7.89 11.67 21.25 19.36 36.37 19.36 7.5 0 14.54-2.92 19.84-8.22a12.98 12.98 0 0 1 9.24-3.83c3.49 0 6.77 1.36 9.24 3.83a7.502 7.502 0 1 0 10.61-10.61c-5.3-5.31-12.34-8.23-19.84-8.23zM400.83 268.71c4.14 0 7.5-3.36 7.5-7.5 0-31.71-25.79-57.5-57.5-57.5s-57.5 25.79-57.5 57.5 25.79 57.5 57.5 57.5c4.14 0 7.5-3.36 7.5-7.5s-3.36-7.5-7.5-7.5c-23.43 0-42.5-19.07-42.5-42.5s19.07-42.5 42.5-42.5 42.5 19.07 42.5 42.5c0 4.15 3.36 7.5 7.5 7.5z" fill="#fbf0f0" data-original="#000000" class=""></path><path d="M350.83 233.71c-4.14 0-7.5 3.36-7.5 7.5s3.36 7.5 7.5 7.5c6.89 0 12.5 5.61 12.5 12.5s-5.61 12.5-12.5 12.5-12.5-5.61-12.5-12.5c0-4.14-3.36-7.5-7.5-7.5s-7.5 3.36-7.5 7.5c0 15.16 12.34 27.5 27.5 27.5s27.5-12.34 27.5-27.5-12.34-27.5-27.5-27.5zM161.17 273.71c-6.89 0-12.5-5.61-12.5-12.5 0-4.14-3.36-7.5-7.5-7.5s-7.5 3.36-7.5 7.5c0 15.16 12.34 27.5 27.5 27.5s27.5-12.34 27.5-27.5-12.34-27.5-27.5-27.5c-4.14 0-7.5 3.36-7.5 7.5s3.36 7.5 7.5 7.5c6.89 0 12.5 5.61 12.5 12.5s-5.61 12.5-12.5 12.5z" fill="#fbf0f0" data-original="#000000" class=""></path><path d="M161.17 303.71c-23.43 0-42.5-19.07-42.5-42.5s19.07-42.5 42.5-42.5 42.5 19.07 42.5 42.5c0 4.14 3.36 7.5 7.5 7.5s7.5-3.36 7.5-7.5c0-31.71-25.79-57.5-57.5-57.5s-57.5 25.79-57.5 57.5 25.79 57.5 57.5 57.5c4.14 0 7.5-3.36 7.5-7.5s-3.36-7.5-7.5-7.5zM137.48 197.49c-1.27 0-2.56-.32-3.74-1.01a7.505 7.505 0 0 1-2.75-10.25c3.83-6.64 10.03-11.39 17.43-13.38 7.41-1.99 15.15-.97 21.79 2.87 3.59 2.07 4.82 6.66 2.75 10.25s-6.66 4.81-10.25 2.75c-3.17-1.83-6.87-2.32-10.41-1.37s-6.5 3.22-8.33 6.39a7.48 7.48 0 0 1-6.49 3.75zM374.52 197.49c-2.59 0-5.11-1.34-6.5-3.75-1.83-3.17-4.79-5.44-8.33-6.39s-7.23-.46-10.41 1.37c-3.59 2.07-8.17.84-10.25-2.75-2.07-3.59-.84-8.17 2.75-10.25 6.64-3.83 14.38-4.85 21.79-2.87s13.6 6.74 17.43 13.38c2.07 3.59.84 8.17-2.75 10.25a7.32 7.32 0 0 1-3.73 1.01z" fill="#fbf0f0" data-original="#000000" class=""></path></g></svg>