<svg id="flat" height="512" viewBox="0 0 512 512" width="512" xmlns="http://www.w3.org/2000/svg"><path d="m252.1779 347.1777-24.031 33.0173c-39.9472-12.6822-74.7035-37.9788-99.0519-72.0928l24.031-33.0174-54.0192-64.5706-33.3096 27.8665c-19.3942 16.2251-28.8535 41.4361-24.9189 66.4142 1.739 11.0395 6.0243 21.5224 12.5166 30.6187 42.2887 59.2497 102.6537 103.1851 172.0345 125.2116h.0001c10.6516 3.3816 21.9443 4.2368 32.9837 2.4979 24.9781-3.9346 46.0604-20.6862 55.5376-44.1291l16.2771-40.2632-78.0502-31.5532z" fill="#e42a3c"/><path d="m116.147 284.1953c-2.0474 0-4.0947-.7812-5.6567-2.3428l-24-24c-3.1245-3.125-3.1245-8.1895 0-11.3145 3.124-3.123 8.1895-3.123 11.3135 0l24 24c3.1245 3.125 3.1245 8.1895 0 11.3145-1.562 1.5615-3.6094 2.3428-5.6567 2.3428z" fill="#c92535"/><path d="m292.1406 404.1973c-1.2021 0-2.4229-.2725-3.5713-.8467l-32-16c-3.9521-1.9756-5.5537-6.7812-3.5776-10.7334s6.7817-5.5527 10.7329-3.5771l32 16c3.9521 1.9756 5.5537 6.7812 3.5776 10.7334-1.4014 2.8027-4.2271 4.4238-7.1616 4.4238z" fill="#c92535"/><path d="m427.262 278.6787c52.2194-59.9834 45.9254-150.9416-14.058-203.161s-150.9416-45.9254-203.161 14.058c-43.8822 50.4067-46.4367 122.684-10.5399 175.4679l3.5864 51.8285 51.8285-3.5863c57.2251 28.2846 128.4617 15.7995 172.3439-34.6072z" fill="#ffc864"/><g fill="#e42a3c"><path d="m252.147 228.1953c-13.2339 0-24-10.7666-24-24 0-4.418 3.5815-8 8-8s8 3.582 8 8c0 4.4111 3.5889 8 8 8s8-3.5889 8-8c0-3.0225-1.1768-5.8633-3.314-8.001l-20.686-20.6855c-5.1587-5.1592-8-12.0176-8-19.3135 0-13.2334 10.7661-24 24-24s24 10.7666 24 24c0 4.418-3.5815 8-8 8s-8-3.582-8-8c0-4.4111-3.5889-8-8-8s-8 3.5889-8 8c0 3.0215 1.1768 5.8623 3.3135 7.999l20.6865 20.6865c5.1592 5.1602 8 12.0195 8 19.3145 0 13.2334-10.7661 24-24 24z"/><path d="m388.147 228.1953c-13.2339 0-24-10.7666-24-24 0-4.418 3.5815-8 8-8s8 3.582 8 8c0 4.4111 3.5889 8 8 8s8-3.5889 8-8c0-3.0225-1.1768-5.8633-3.314-8.001l-20.686-20.6855c-5.1587-5.1592-8-12.0176-8-19.3135 0-13.2334 10.7661-24 24-24s24 10.7666 24 24c0 4.418-3.5815 8-8 8s-8-3.582-8-8c0-4.4111-3.5889-8-8-8s-8 3.5889-8 8c0 3.0215 1.1768 5.8623 3.3135 7.999l20.6865 20.6865c5.1592 5.1602 8 12.0195 8 19.3145 0 13.2334-10.7661 24-24 24z"/><path d="m320.147 228.1953c-15.4395 0-28-12.5605-28-28v-40c0-15.4395 12.5605-28 28-28s28 12.5605 28 28v40c0 15.4395-12.5605 28-28 28zm0-80c-6.6167 0-12 5.3828-12 12v40c0 6.6172 5.3833 12 12 12s12-5.3828 12-12v-40c0-6.6172-5.3833-12-12-12z"/></g></svg>