<svg id="Capa_1" enable-background="new 0 0 512 512" height="512" viewBox="0 0 512 512" width="512" xmlns="http://www.w3.org/2000/svg"><path d="m41.063 171.862-10.355-155.491c-.784-11.774 11.471-19.982 22.06-14.774l139.836 68.777z" fill="#ff9838"/><path d="m404.643 171.862 10.356-155.49c.784-11.774-11.472-19.982-22.06-14.774l-139.837 68.776z" fill="#ff9838"/><path d="m156.321 94.673 36.283-24.299-139.836-68.777c-10.589-5.208-22.845 3-22.06 14.774l1.137 17.08z" fill="#ff8709"/><path d="m392.938 1.597-16.966 8.345c.737 1.959 1.098 4.122.944 6.429l-8.73 131.076 36.457 24.415 10.356-155.49c.784-11.775-11.472-19.982-22.061-14.775z" fill="#ff8709"/><path d="m231.722 36.289h-17.737c-101.241 0-183.313 82.072-183.313 183.313v22.995c0 57.97 46.994 104.963 104.963 104.963h174.436c57.97 0 104.963-46.994 104.963-104.963v-22.995c0-101.241-82.072-183.313-183.312-183.313z" fill="#ffaa5c"/><path d="m262.633 38.897c50.204 32.701 83.401 89.322 83.401 153.705v22.995c0 57.969-46.994 104.963-104.963 104.963h-174.436c-.432 0-.861-.011-1.292-.016 18.608 16.791 43.255 27.016 70.292 27.016h174.436c57.97 0 104.963-46.994 104.963-104.963v-22.995c0-90.705-65.882-166.01-152.401-180.705z" fill="#ff9838"/><path d="m262.917 278.748c-12.572 0-24.105-6.056-31.266-16.292v-15.134c0-4.264-3.457-7.721-7.721-7.721s-7.721 3.457-7.721 7.721v15.133c-7.16 10.236-18.693 16.292-31.266 16.292-4.264 0-7.721 3.457-7.721 7.721s3.457 7.721 7.721 7.721c15.007 0 28.965-6.132 38.987-16.792 10.023 10.66 23.98 16.792 38.987 16.792 4.264 0 7.721-3.457 7.721-7.721 0-4.263-3.457-7.72-7.721-7.72z" fill="#f66700"/><path d="m236.139 245.999 12.715-22.024c4.118-7.133-1.029-16.048-9.265-16.048h-31.318c-8.236 0-13.383 8.916-9.266 16.048l12.715 22.024c5.427 9.399 18.992 9.399 24.419 0z" fill="#ff73c6"/><path d="m239.042 207.927h-6.457c.648 2.604.373 5.479-1.152 8.121l-12.082 20.927c-2.091 3.622-5.356 5.886-8.916 6.797l.926 1.603c5.586 9.676 19.552 9.676 25.138 0l12.082-20.927c4.239-7.342-1.06-16.521-9.539-16.521z" fill="#ff4fb8"/><path d="m295.487 105.048c0 12.183-9.877 22.06-22.06 22.06s-22.06-9.877-22.06-22.06c0-8.405 10.358-28.307 16.783-39.843 2.188-3.929 7.832-3.962 10.066-.059 6.596 11.528 17.271 31.483 17.271 39.902z" fill="#d5f3f7"/><path d="m278.216 65.146c-2.234-3.903-7.877-3.87-10.066.059-.152.272-.307.553-.463.835 5.831 10.93 11.939 23.898 11.939 30.266 0 12.183-9.876 22.06-22.06 22.06-.595 0-1.179-.043-1.762-.089 4.025 5.353 10.41 8.831 17.623 8.831 12.183 0 22.06-9.876 22.06-22.06 0-8.419-10.675-28.374-17.271-39.902z" fill="#a7e8f1"/><path d="m105.393 221.08c0 12.183-9.877 22.06-22.06 22.06s-22.06-9.877-22.06-22.06c0-8.405 10.358-28.307 16.783-39.843 2.188-3.929 7.832-3.962 10.066-.059 6.597 11.528 17.271 31.483 17.271 39.902z" fill="#d5f3f7"/><path d="m88.122 181.178c-2.234-3.903-7.877-3.87-10.066.059-.152.272-.307.553-.463.835 5.831 10.93 11.939 23.898 11.939 30.266 0 12.183-9.876 22.06-22.06 22.06-.595 0-1.179-.043-1.762-.089 4.025 5.353 10.41 8.831 17.623 8.831 12.183 0 22.06-9.876 22.06-22.06 0-8.419-10.674-28.374-17.271-39.902z" fill="#a7e8f1"/><path d="m354.161 147.365c0 12.183-9.877 22.06-22.06 22.06s-22.06-9.877-22.06-22.06c0-8.405 10.358-28.307 16.783-39.843 2.188-3.929 7.832-3.962 10.066-.059 6.596 11.528 17.271 31.483 17.271 39.902z" fill="#d5f3f7"/><path d="m336.89 107.463c-2.234-3.903-7.877-3.87-10.066.059-.152.272-.307.553-.463.835 5.831 10.93 11.939 23.898 11.939 30.266 0 12.183-9.876 22.06-22.06 22.06-.595 0-1.179-.043-1.762-.089 4.025 5.353 10.41 8.831 17.623 8.831 12.183 0 22.06-9.876 22.06-22.06 0-8.419-10.675-28.374-17.271-39.902z" fill="#a7e8f1"/><path d="m157.736 220.213c-11.432 0-21.663-6.381-26.7-16.653-1.878-3.828-.296-8.455 3.533-10.332 3.829-1.878 8.454-.296 10.332 3.533 2.423 4.94 7.341 8.01 12.835 8.01s10.412-3.069 12.835-8.01c1.878-3.828 6.503-5.41 10.333-3.532 3.828 1.878 5.41 6.504 3.532 10.333-5.037 10.27-15.268 16.651-26.7 16.651z" fill="#f66700"/><path d="m290.123 220.213c-11.432 0-21.663-6.381-26.7-16.653-1.877-3.828-.296-8.455 3.533-10.332 3.829-1.878 8.454-.296 10.332 3.533 2.423 4.94 7.341 8.01 12.835 8.01s10.412-3.069 12.835-8.01c1.878-3.828 6.504-5.41 10.333-3.532 3.828 1.878 5.41 6.504 3.532 10.333-5.038 10.27-15.269 16.651-26.7 16.651z" fill="#f66700"/><path d="m399.951 191.353-120.875 120.875c-10.515 10.515-19.179 22.73-25.627 36.13l-30.091 62.534-71.572 71.572c-6.757 6.757-6.757 17.712 0 24.469 6.757 6.757 17.712 6.757 24.469 0l70.602-70.602 63.848-31.106c13.174-6.419 25.189-14.985 35.552-25.347l121.108-121.108c18.616-18.616 18.616-48.799 0-67.415-18.615-18.618-48.798-18.618-67.414-.002z" fill="#d8d1d7"/><path d="m385.529 296.865-50.107 50.107c-2.814 2.814-7.377 2.814-10.191 0l-13.484-13.484c-2.814-2.814-2.814-7.377 0-10.191l50.107-50.107c2.814-2.814 7.377-2.814 10.191 0l13.484 13.484c2.814 2.814 2.814 7.377 0 10.191z" fill="#d5f3f7"/><path d="m385.529 286.674-13.484-13.484c-2.814-2.814-7.377-2.814-10.191 0l-1.838 1.838 8.557 8.557c2.814 2.814 2.814 7.377 0 10.191l-48.269 48.269 4.927 4.926c2.814 2.814 7.377 2.814 10.191 0l50.107-50.107c2.814-2.813 2.814-7.376 0-10.19z" fill="#a7e8f1"/><path d="m175.543 458.707-23.756 23.756c-6.757 6.757-6.757 17.712 0 24.469s17.712 6.757 24.469 0l23.756-23.756z" fill="#e6e2e6"/><path d="m467.366 191.353c-11.034-11.034-26.13-15.526-40.474-13.481 5.16 2.308 9.997 5.569 14.233 9.804 18.616 18.616 18.616 48.799 0 67.415l-121.108 121.109c-10.363 10.363-22.377 18.929-35.552 25.347l-63.848 31.106-70.602 70.602c-.212.212-.441.398-.661.597.683 1.092 1.484 2.13 2.433 3.079 6.757 6.757 17.712 6.757 24.469 0l70.602-70.602 63.848-31.107c13.174-6.419 25.189-14.985 35.552-25.347l121.108-121.108c18.616-18.615 18.616-48.797 0-67.414z" fill="#cac0c9"/><path d="m150.015 503.256c-.212.212-.441.398-.661.597.683 1.092 1.484 2.13 2.433 3.079 6.757 6.757 17.712 6.757 24.469 0l23.756-23.756-14.959-14.959z" fill="#d8d1d7"/></svg>