<svg id="Layer_1" enable-background="new 0 0 3000 3000" height="512" viewBox="0 0 3000 3000" width="512" xmlns="http://www.w3.org/2000/svg"><path d="m2927 2211v281.8c0 86.6-64.3 162.7-157.3 185.7-1239.7 307.2-2136.4 125-2497.7 18.9-10.7-3.2-21-6.2-30.8-9.2-78-24-133-85.5-143.4-157.4-1.2-8.2-1.8-16.5-1.8-25v-294.8z" fill="#ebdbc4"/><path d="m2927 2211v281.8c0 86.6-64.3 162.7-157.3 185.7-1239.7 307.2-2136.4 125-2497.7 18.9-10.7-3.2-21-6.2-30.8-9.2-78-24-133-85.5-143.4-157.4l1375.1 163.1c100.9 12 202.1-20.9 275.9-90.7 85.8-81.1 173.7-210.2 158.6-392.1h1019.6z" fill="#b29c89" opacity=".22"/><path d="m2839 897v1315c-1472.1 494.9-2656 0-2656 0v-1315z" fill="#ffb0b9"/><path d="m2839 897v1315c-1472.1 494.9-2656 0-2656 0v-144.3s889.2 303.4 1680.9 78.1c241.1-68.6 390.6-309.6 344.9-556.1-49.6-267.2-209.2-584.5-670.8-692.7z" fill="#df5970" opacity=".22"/><path d="m2927 541v313.9c0 96.5-64.3 181.2-157.3 206.9-1239.7 342.1-2136.4 139.1-2497.7 20.9-10.7-3.5-21-6.9-30.8-10.3-86.8-29.7-145.2-111.3-145.2-203.1v-328.3z" fill="#ebdbc4"/><path d="m2927 541v313.9c0 96.5-64.3 181.2-157.3 206.9-1239.7 342.1-2136.4 139.1-2497.7 20.9l9.4-9.8s1296.4 309.5 1394.8-439.3c4.2-32.3 12.1-63.2 23.3-92.7h1227.5z" fill="#b29c89" opacity=".22"/><ellipse cx="1511.5" cy="541.5" fill="#ebdbc4" rx="1415.5" ry="349.5"/><path d="m2740.2 541.4c0 51.9-90 99.8-242.1 138.6-224 57-582.9 93.9-987.3 93.9-679 0-1229.4-104.1-1229.4-232.5s550.4-232.5 1229.4-232.5c404.4 0 763.3 36.9 987.3 93.9 152.1 38.8 242.1 86.7 242.1 138.6z" fill="#b29c89"/><path d="m2740.2 541.4c0 51.9-90 99.8-242.1 138.6-152.1 8.1-320.1 12.6-496.7 12.6-684.5 0-1239.4-67.7-1239.4-151.2s554.9-151.2 1239.4-151.2c176.6 0 344.6 4.5 496.7 12.6 152.1 38.8 242.1 86.7 242.1 138.6z" fill="#fff" opacity=".11"/><path d="m1843.1 407.4c-390.7 0-707.4 60-707.4 134.1 0 74 316.7 134.1 707.4 134.1s707.4-60 707.4-134.1-316.7-134.1-707.4-134.1zm300.9 179.7c-166.2 0-300.9-25.2-300.9-56.4 0-31.1 134.7-56.3 300.9-56.3s300.9 25.2 300.9 56.3-134.7 56.4-300.9 56.4z" fill="#ebdbc4"/><g fill="#dc5d6e"><path d="m1204.3 1822c-15 43.1-58.1 79.8-108.4 82.2-65.1 3.3-112.9-52.2-128.1-98.9-28.2-86.3 37.2-193.4 99.1-196.4 38.6-1.9 70 37.5 90.9 63.8 23.3 29.2 68.6 86 46.5 149.3z"/><path d="m1751.9 1822c15 43.1 58.1 79.8 108.4 82.2 65.1 3.3 112.9-52.2 128.1-98.9 28.2-86.3-37.2-193.4-99.1-196.4-38.6-1.9-70 37.5-90.9 63.8-23.3 29.2-68.6 86-46.5 149.3z"/><path d="m1185.6 1630.7c-54.5-83.2 5.5-184.1 15-199.9 16.9-28.2 46.3-77.7 89.1-73.9 76.4 6.8 186.2 183.8 135.3 280.5-23.7 44.9-82.7 73.2-143.5 58.7-13-3.1-64.4-17.2-95.9-65.4z"/><path d="m1748.7 1630.7c54.5-83.2-5.5-184.1-15-199.9-16.9-28.2-46.3-77.7-89.1-73.9-76.4 6.8-186.2 183.8-135.3 280.5 23.7 44.9 82.7 73.2 143.5 58.7 12.8-3.1 64.2-17.2 95.9-65.4z"/><path d="m1065.5 2076.4c8.6-68.6 61-116.8 118.8-109.4l39.7 5.1c24.1 3.2 46.5-15 53-42.9l6.4-27c20.3-86.3 86.3-146.1 161.4-146.1 81.8 0 151.7 70.5 165.3 166.9 4.6 32.7 30.9 54.5 58.3 48.2 73.9-16.9 142.7 50.8 142.7 140.8v53.5c0 61.6-33 116.4-81.9 136l-54 24.7c-146.3 66.7-309 58.5-450.2-22.5-27.5-19.2-55.9-36.6-85.3-51.4-50-25.4-82.4-111.8-74.2-175.9z"/></g></svg>