<svg id="Capa_1" enable-background="new 0 0 512.049 512.049" height="512" viewBox="0 0 512.049 512.049" width="512" xmlns="http://www.w3.org/2000/svg"><path d="m331.024 360.049v75c0 41.4-33.6 77-75 77s-75-35.6-75-77v-75z" fill="#ffdc40"/><path d="m331.024 360.049v75c0 41.4-33.6 77-75 77v-152z" fill="#ffab15"/><path d="m419.794 320.029-163.77-163.77-68.262-68.262-36.182-6.182c-7.291-8.691-21.799-59.323-68.958-80.268-6.599-3.299-14.7-1.199-18.898 5.1-2.701 3.9-63.701 93.6-63.701 188.401 0 140.7 115.3 255 256 255 72.585 0 137.983-30.571 184.448-79.341z" fill="#697c86"/><path d="m419.794 320.029-163.77-163.77v293.789c72.585 0 137.983-30.571 184.448-79.341z" fill="#596c76"/><path d="m136.024 210.019c-14.707 0-29.414-5.596-40.605-16.787-5.859-5.859-5.859-15.352 0-21.211s15.352-5.859 21.211 0c10.693 10.693 28.096 10.693 38.789 0 5.859-5.859 15.352-5.859 21.211 0s5.859 15.352 0 21.211c-11.192 11.192-25.899 16.787-40.606 16.787z" fill="#465a61"/><path d="m271.024 315.049v30c0 8.399-6.599 15-15 15s-15-6.601-15-15v-30c0-8.401 6.599-15 15-15s15 6.599 15 15z" fill="#465a61"/><path d="m271.024 315.049v30c0 8.399-6.599 15-15 15v-60c8.401 0 15 6.599 15 15z" fill="#3b4a51"/><path d="m329.525 381.648c-3.9 7.5-12.599 10.501-20.099 6.901l-53.401-26.7-53.401 26.7c-7.2 3.6-16.199.599-20.099-6.901-3.6-7.2-.599-16.199 6.901-20.099l60-30c2.098-.901 4.199-1.5 6.599-1.5s4.501.599 6.599 1.5l60 30c7.499 3.899 10.501 12.899 6.901 20.099z" fill="#465a61"/><path d="m329.525 381.648c-3.9 7.5-12.599 10.501-20.099 6.901l-53.401-26.7v-31.8c2.401 0 4.501.599 6.599 1.5l60 30c7.499 3.899 10.501 12.899 6.901 20.099z" fill="#3b4a51"/><path d="m329.825 249.349c-2.401-5.7-7.8-9.3-13.801-9.3h-120c-6 0-11.4 3.6-13.801 9.3-2.399 5.7-1.199 11.999 3.301 16.199l60 60c2.699 3.001 6.599 4.501 10.499 4.501s7.8-1.5 10.499-4.501l60-60c4.502-4.201 5.702-10.499 3.303-16.199z" fill="#465a61"/><path d="m326.524 265.548-60 60c-2.699 3.001-6.599 4.501-10.499 4.501v-90h60c6 0 11.4 3.6 13.801 9.3 2.398 5.7 1.198 11.998-3.302 16.199z" fill="#3b4a51"/><path d="m512.024 195.049c0-94.801-61-184.501-63.701-188.401-4.199-6.299-12.299-8.399-18.898-5.099-2.543 1.13-48.041 25.181-63.159 72.532l29.738 59.738 91.875 91.875 21.998-8.002c.662-7.475 2.147-15.001 2.147-22.643z" fill="#596c76"/><path d="m509.878 217.691-143.611-143.611c-.938 2.935-2.159 5.651-2.842 8.769-14.423-5.821-29.332-10.19-44.429-13.618l.8 26.268-55.349-33.239c-2.811-.084-5.612-.412-8.423-.412-10.811 0-21.599.822-32.347 2.064l11.58 33.508-51.544-25.895c-10.876 2.853-21.625 6.182-32.131 10.291l104.442 104.444 184.448 184.448c6.927-7.271 13.361-14.978 19.398-23.024l-20.729-44.105 39.598 15.396c5.154-9.234 9.699-18.832 13.694-28.727l-23.947-49.158 35.37 13.004c2.823-11.857 4.923-23.973 6.022-36.403z" fill="#dcf4ff"/><path d="m459.87 347.684-20.729-44.105 39.598 15.396c5.154-9.234 9.699-18.832 13.694-28.727l-23.947-49.158 35.37 13.004c2.822-11.856 4.922-23.972 6.021-36.401l-143.61-143.613c-.938 2.935-2.159 5.651-2.842 8.769-14.423-5.821-29.332-10.19-44.429-13.618l.8 26.268-55.349-33.239c-2.811-.084-5.612-.412-8.423-.412v124.412l184.448 184.448c6.927-7.272 13.361-14.979 19.398-23.024z" fill="#ccefff"/><path d="m256.024 96.26-32.347-32.347c-13.473 1.555-26.808 4.162-39.965 7.614l72.312 72.312 203.846 203.845c6.868-9.15 13.262-18.664 18.869-28.709z" fill="#ccefff"/><g fill="#ace3fc"><path d="m478.739 318.974-222.715-222.714v47.578l203.846 203.846c6.868-9.15 13.262-18.664 18.869-28.71z"/><path d="m264.447 62.261 227.986 227.986c4.7-11.644 8.469-23.734 11.424-36.154l-184.861-184.862c-17.952-4.074-36.203-6.417-54.549-6.97z"/></g></svg>