<svg id="Capa_1" enable-background="new 0 0 512 512" height="512" viewBox="0 0 512 512" width="512" xmlns="http://www.w3.org/2000/svg"><g><path d="m11.183 220c-4.613 0-8.091-4.173-7.291-8.716 21.151-120.066 125.977-211.284 252.108-211.284 20.675 0 40.778 2.451 60.034 7.078 124.253 29.859 102.346 212.922-25.445 212.922z" fill="#7cd2e3"/><path d="m499.69 220h-204.437c-27.208-5.697-47.642-29.825-47.642-58.726v-34.601c0-49.406 23.245-93.383 59.394-121.591 102.181 20.659 182.299 102.17 200.902 205.081.927 5.122-3.012 9.837-8.217 9.837z" fill="#1ed688"/><path d="m343.436 220h-48.183c-27.208-5.697-47.642-29.825-47.642-58.726v-34.601c0-49.406 23.245-93.383 59.394-121.591 12.476 2.522 24.623 5.953 36.37 10.218-29.321 28.061-47.58 67.585-47.58 111.374v34.601c0 28.9 20.433 53.028 47.641 58.725z" fill="#1ab975"/><path d="m486.54 144.568h-116.49c-16.568 0-30-13.431-30-30 0-34.308 27.813-62.121 62.121-62.121h9.099c31.765 24.267 57.683 55.801 75.27 92.121z" fill="#127d4f"/><path d="m512 256c0 141.385-114.615 256-256 256s-256-114.615-256-256c0-15.704 1.414-31.077 4.122-46h503.757c2.707 14.923 4.121 30.296 4.121 46z" fill="#865b47"/><path d="m172.461 149.887c-.603 4.099-4.411 6.934-8.511 6.33-4.099-.603-6.932-4.413-6.329-8.511 1.613-10.978-1.138-21.919-7.748-30.808s-16.297-14.673-27.274-16.287c-4.099-.603-6.932-4.413-6.329-8.511.548-3.728 3.751-6.41 7.41-6.41.363 0 .73.026 1.101.081 30.823 4.53 52.213 33.294 47.68 64.116z" fill="#9b5e34"/><path d="m311.195 191v90h-120v-90c0-33.137 26.863-60 60-60 33.138 0 60 26.863 60 60z" fill="#b56d3c"/><path d="m281.195 120.143v45c0 16.568-13.431 30-30 30-16.568 0-30-13.432-30-30v-45z" fill="#c9885b"/><path d="m219.161 72.907-18.426-30.711c-1.02-1.701-2.737-2.936-4.707-3.157-3.735-.418-6.898 2.495-6.898 6.146v54.781c0 22.166 12.017 42.589 31.393 53.353 18.434 10.241 40.848 10.241 59.281 0 19.376-10.764 31.393-31.188 31.393-53.353 0-14.944-12.115-27.059-27.059-27.059z" fill="#b56d3c"/><path d="m311.195 87.439v12.527c0 22.166-12.017 42.589-31.393 53.353-4.702 2.612-9.664 4.558-14.752 5.838-5.088-1.28-10.05-3.225-14.752-5.838-19.376-10.764-31.393-31.188-31.393-53.353l.256-27.059h62.003l18.542-30.904c1.117-1.863 3.131-3.003 5.304-3.003 3.416 0 6.186 2.769 6.186 6.186v42.253z" fill="#c47e4e"/><path d="m311.195 45.186v27.506c0 4.761-3.86 8.621-8.621 8.621-5.955 0-10.116-5.893-8.125-11.505l10.932-30.797c3.244.192 5.814 2.883 5.814 6.175zm-116.253-6.175c-3.243.192-5.814 2.883-5.814 6.175v27.506c0 4.761 3.86 8.621 8.621 8.621 5.955 0 10.116-5.893 8.125-11.505z" fill="#69564e"/><path d="m235.162 96c0 2.761-2.239 5-5 5s-5-2.239-5-5 2.239-5 5-5 5 2.239 5 5zm35-5c-2.761 0-5 2.239-5 5s2.239 5 5 5 5-2.239 5-5-2.239-5-5-5z" fill="#1c314e"/><path d="m255.162 125.994v7.933c0 2.761-2.239 5-5 5s-5-2.239-5-5v-7.933c0-2.761 2.239-5 5-5s5 2.238 5 5z" fill="#fd9a9a"/><path d="m274.645 121c0 5.523-4.477 10-10 10h-28.967c-5.523 0-10-4.477-10-10s4.477-10 10-10h28.967c5.523 0 10 4.477 10 10z" fill="#9b5e34"/><path d="m259.128 111.96c0 2.761-2.239 5-5 5h-7.933c-2.761 0-5-2.239-5-5s2.239-5 5-5h7.933c2.762 0 5 2.238 5 5z" fill="#fd9a9a"/><path d="m238.297 118.835c1.392 2.385.249 5.473-2.218 6.714l-19.837 9.985c-2.467 1.242-5.473.249-6.714-2.218-1.242-2.467-.249-5.473 2.218-6.714l9.2-4.631-18.021-5.953c-2.622-.866-4.045-3.694-3.179-6.316s3.694-4.045 6.316-3.179l28.823 9.522c.417.137 2.317.915 3.412 2.79zm62.281-9.134c-.866-2.622-3.694-4.045-6.316-3.179l-28.823 9.522c-.417.138-2.545.916-3.412 2.791-1.159 2.506-.249 5.473 2.218 6.714l19.837 9.985c2.467 1.242 5.473.249 6.714-2.218 1.242-2.467.248-5.473-2.218-6.714l-9.2-4.631 18.021-5.953c2.622-.867 4.045-3.695 3.179-6.317z" fill="#69564e"/><path d="m255.162 214.997v73.006c0 2.761-2.239 5-5 5s-5-2.239-5-5v-73.006c0-2.761 2.239-5 5-5s5 2.238 5 5z" fill="#9b5e34"/><path d="m122.683 241.5v90h-30.988v-90c0-33.137 26.863-60 60-60 5.358 0 10.551.703 15.494 2.02-25.627 6.831-44.506 30.2-44.506 57.98z" fill="#ffb52d"/><path d="m211.695 241.5v90h-94.375v-90c0-28.74 20.207-52.76 47.188-58.629 16.134 3.509 29.846 13.51 38.263 27.129.464.751-2.594 1.253-2.163 2.025.865 1.549 1.664 3.141 2.392 4.771.432.968 4.346 2.21 4.728 3.204 1.232 3.21 2.197 6.552 2.866 10 .167.86-3.191 1.467-3.061 2.34.261 1.757.446 3.538.552 5.341.04.683 3.575 1.63 3.592 2.319.012.499.018.999.018 1.5z" fill="#ffc14f"/><path d="m119.661 123.407-18.441-30.735c-.989-1.648-2.637-2.856-4.542-3.113-.419-.057-.832-.071-1.235-.048-.794.047-.927 2.511-1.612 2.829-1.311.609 1.184 10.267 3.271 18.118 1.402 5.275-2.08 10.599-7.473 11.435v28.573c0 22.166 12.017 42.589 31.393 53.353 18.434 10.241 40.848 10.241 59.281 0 19.376-10.764 31.393-31.188 31.393-53.353v-27.059z" fill="#ffc14f"/><path d="m211.695 137.939v12.527c0 22.166-12.017 42.589-31.393 53.353-4.702 2.612-9.664 4.558-14.752 5.838-5.088-1.28-10.05-3.225-14.752-5.838-19.376-10.764-31.103-31.188-31.103-53.353l-.034-27.059h62.003l18.542-30.904c1.118-1.863 3.131-3.003 5.304-3.003.125 0 .249.004.371.011 3.243.192-4.55 28.191-4.55 31.483l10.364 2.198z" fill="#ffcd71"/><path d="m106.374 120.308c1.992 5.612-2.17 11.505-8.125 11.505-4.761 0-8.621-3.86-8.621-8.621v-27.506c0-3.292 2.571-5.982 5.814-6.175zm99.507-30.797-10.932 30.797c-1.992 5.612 2.17 11.505 8.125 11.505 4.761 0 8.621-3.86 8.621-8.621v-27.506c0-3.292-2.57-5.983-5.814-6.175z" fill="#fd9a9a"/><path d="m135.662 146.5c0 2.761-2.239 5-5 5s-5-2.239-5-5 2.239-5 5-5 5 2.239 5 5zm35-5c-2.761 0-5 2.239-5 5s2.239 5 5 5 5-2.239 5-5-2.239-5-5-5z" fill="#1c314e"/><path d="m155.662 176.494v7.933c0 2.761-2.239 5-5 5s-5-2.239-5-5v-7.933c0-2.761 2.239-5 5-5s5 2.238 5 5z" fill="#fd9a9a"/><path d="m175.145 171.5c0 5.523-4.477 10-10 10h-28.967c-5.523 0-10-4.477-10-10s4.477-10 10-10h28.967c5.523 0 10 4.477 10 10z" fill="#f5e8b4"/><path d="m159.628 162.46c0 2.761-2.239 5-5 5h-7.933c-2.761 0-5-2.239-5-5s2.239-5 5-5h7.933c2.762 0 5 2.238 5 5z" fill="#fd9a9a"/><path d="m138.797 169.335c1.392 2.385.249 5.473-2.218 6.714l-19.837 9.985c-2.467 1.242-5.473.249-6.714-2.218-1.242-2.467-.249-5.473 2.218-6.714l9.2-4.631-18.021-5.953c-2.622-.866-4.045-3.694-3.179-6.316s3.694-4.045 6.316-3.179l28.823 9.522c.417.137 2.317.915 3.412 2.79zm62.281-9.134c-.866-2.622-3.694-4.045-6.316-3.179l-28.823 9.522c-.417.138-2.545.916-3.412 2.791-1.159 2.506-.249 5.473 2.218 6.714l19.837 9.985c2.467 1.242 5.473.249 6.714-2.218 1.242-2.467.248-5.473-2.218-6.714l-9.2-4.631 18.021-5.953c2.622-.867 4.045-3.695 3.179-6.317z" fill="#ff7c48"/><path d="m322.791 275.394c-.548 3.728-3.751 6.41-7.41 6.41-.363 0-.73-.026-1.101-.081-30.823-4.532-52.213-33.295-47.681-64.118.603-4.099 4.411-6.934 8.511-6.33 4.099.603 6.932 4.413 6.329 8.511-1.613 10.978 1.138 21.919 7.748 30.808s16.297 14.673 27.274 16.287c4.1.604 6.933 4.415 6.33 8.513zm-4.13-100.987-18.441-30.735c-.989-1.648-2.637-2.856-4.542-3.113-.419-.057-.832-.071-1.235-.048-2.124.126.343 12.374 2.299 21.736 1.161 5.559-2.518 10.972-8.113 11.945v27.274c0 22.166 12.017 42.589 31.393 53.353 18.434 10.241 40.848 10.241 59.281 0 19.376-10.764 31.393-31.188 31.393-53.353v-27.059z" fill="#cecece"/><path d="m410.695 188.939v12.527c0 22.166-12.017 42.589-31.393 53.353-4.702 2.612-9.664 4.558-14.752 5.838-5.088-1.28-10.05-3.225-14.752-5.838-19.376-10.764-31.393-31.188-31.393-53.353l.256-27.059h62.003l18.441-30.735c.989-1.648 2.637-2.856 4.542-3.113.419-.057.832-.071 1.235-.048 2.07.123-.083 11.063-1.912 19.819-1.244 5.956 2.034 11.927 7.726 14.077v14.532z" fill="#e7e7e7"/><path d="m305.374 171.308c1.992 5.612-2.17 11.505-8.125 11.505-4.761 0-8.621-3.86-8.621-8.621v-27.506c0-3.292 2.571-5.982 5.814-6.175zm99.507-30.797-10.932 30.797c-1.992 5.612 2.17 11.505 8.125 11.505 4.761 0 8.621-3.86 8.621-8.621v-27.506c0-3.292-2.57-5.983-5.814-6.175z" fill="#fd9a9a"/><path d="m334.662 197.5c0 2.761-2.239 5-5 5s-5-2.239-5-5 2.239-5 5-5 5 2.239 5 5zm35-5c-2.761 0-5 2.239-5 5s2.239 5 5 5 5-2.239 5-5-2.239-5-5-5z" fill="#1c314e"/><path d="m354.662 227.494v7.933c0 2.761-2.239 5-5 5s-5-2.239-5-5v-7.933c0-2.761 2.239-5 5-5s5 2.238 5 5z" fill="#fd9a9a"/><path d="m374.145 222.5c0 5.523-4.477 10-10 10h-28.967c-5.523 0-10-4.477-10-10s4.477-10 10-10h28.967c5.523 0 10 4.477 10 10z" fill="#cecece"/><path d="m358.628 213.46c0 2.761-2.239 5-5 5h-7.933c-2.761 0-5-2.239-5-5s2.239-5 5-5h7.933c2.762 0 5 2.238 5 5z" fill="#fd9a9a"/><path d="m337.797 220.335c1.392 2.385.249 5.473-2.218 6.714l-19.837 9.985c-2.467 1.242-5.473.249-6.714-2.218-1.242-2.467-.249-5.473 2.218-6.714l9.2-4.631-18.021-5.953c-2.622-.866-4.045-3.694-3.179-6.316s3.694-4.045 6.316-3.179l28.823 9.522c.417.137 2.317.915 3.412 2.79zm62.281-9.134c-.866-2.622-3.694-4.045-6.316-3.179l-28.823 9.522c-.417.138-2.545.916-3.412 2.791-1.159 2.506-.249 5.473 2.218 6.714l19.837 9.985c2.467 1.242 5.473.249 6.714-2.218 1.242-2.467.248-5.473-2.218-6.714l-9.2-4.631 18.021-5.953c2.622-.867 4.045-3.695 3.179-6.317z" fill="#9b9b9b"/><path d="m145.662 309.5v-73.006c0-2.761 2.239-5 5-5 2.761 0 5 2.239 5 5v73.006c0 2.761-2.239 5-5 5-2.762 0-5-2.239-5-5zm-109.734-98.423c10.978 1.614 20.664 7.398 27.274 16.287s9.361 19.83 7.748 30.808c-.603 4.098 2.23 7.909 6.329 8.511 4.1.604 7.908-2.231 8.511-6.33 4.532-30.823-16.857-59.586-47.681-64.118-.37-.054-.737-.081-1.101-.081-3.659 0-6.862 2.682-7.41 6.41-.601 4.1 2.232 7.91 6.33 8.513z" fill="#ffb52d"/><path d="m211.676 240h-36.676c-2.761 0-5-2.239-5-5s2.239-5 5-5h35.594c.63 3.248.999 6.588 1.082 10zm-26.676-20h22.728c-1.345-3.503-3.009-6.849-4.957-10h-17.771c-2.761 0-5 2.239-5 5s2.239 5 5 5z" fill="#ff7c48"/><path d="m452 253v131.106c0 2.761-2.239 5-5 5h-282c-2.761 0-5-2.239-5-5v-131.106c0-2.761 2.239-5 5-5h282c2.761 0 5 2.239 5 5z" fill="#ecc581"/><path d="m173.566 248v141.106h-108.566c-2.761 0-5-2.239-5-5v-131.106c0-2.761 2.239-5 5-5z" fill="#e8b863"/><path d="m452 277.716v52.284h-90.432c-2.761 0-5-2.239-5-5v-42.284c0-2.761 2.239-5 5-5z" fill="#f5e8b4"/><path d="m370 293.858c0-2.761 2.239-5 5-5h60c2.761 0 5 2.239 5 5s-2.239 5-5 5h-60c-2.761 0-5-2.239-5-5zm65 15h-60c-2.761 0-5 2.239-5 5s2.239 5 5 5h60c2.761 0 5-2.239 5-5s-2.239-5-5-5z" fill="#e8b863"/><path d="m289 441v26.211c0 5.406-4.383 9.789-9.789 9.789h-162.211c-19.882 0-36-16.118-36-36 0-33.137 26.863-60 60-60h88c33.137 0 60 26.863 60 60z" fill="#9b9b9b"/><path d="m289 441v26.211c0 5.406-4.383 9.789-9.789 9.789h-107.549c-19.882 0-36-16.118-36-36 0-33.137 26.863-60 60-60h33.338c33.137 0 60 26.863 60 60z" fill="#aaa"/><path d="m140.662 430.228v34.006c0 2.761-2.239 5-5 5s-5-2.239-5-5v-34.006c0-2.761 2.239-5 5-5s5 2.238 5 5z" fill="#838383"/><path d="m164.323 467c0 5.523-4.477 10-10 10h-37.323c-5.523 0-10-4.477-10-10s4.477-10 10-10h37.323c5.523 0 10 4.477 10 10z" fill="#cecece"/><path d="m154.323 477h-22.435c-5.523 0-10-4.477-10-10s4.477-10 10-10h22.435c5.523 0 10 4.477 10 10s-4.477 10-10 10z" fill="#e7e7e7"/><path d="m153.847 399.025c-.604-6.685 1.149-12.938 4.522-18.025h44.47c1.374 0 2.659.73 3.323 1.933 2.21 4.001 3.468 8.6 3.468 13.494 0 16.049-13.526 28.938-29.8 27.891-13.599-.877-24.757-11.722-25.983-25.293z" fill="#69564e"/><path d="m257.713 388.303c-1.874 3.954-5.901 6.689-10.567 6.689-2.797 0-5.365-.983-7.377-2.622-2.98 7.026-9.941 11.954-18.053 11.954-2.169 0-4.256-.353-6.206-1.003.332.962.513 1.995.513 3.069 0 5.194-4.211 9.405-9.405 9.405s-9.405-4.211-9.405-9.405c0-5.13 4.107-9.3 9.213-9.402-2.697-3.358-4.311-7.623-4.311-12.265 0-1.273.122-2.518.353-3.724h26.532c10.401.001 20.184 2.648 28.713 7.304zm-45.382 40.697c-3.432 0-6.214 2.782-6.214 6.214s2.782 6.214 6.214 6.214 6.214-2.782 6.214-6.214-2.782-6.214-6.214-6.214zm76.588 41.59c-.548 3.728-3.751 6.41-7.41 6.41-.363 0-.73-.026-1.101-.081-26.761-3.935-46.412-26.135-48.16-52.091-.265-3.939 14.758-3.706 14.979-.684.568 7.778 3.327 15.245 8.088 21.647 6.61 8.889 16.297 14.673 27.274 16.287 4.1.603 6.933 4.414 6.33 8.512z" fill="#ff7c48"/><path d="m247.533 415.222c-.5 3.544-.546 7.082-.155 10.547.291 2.577-.727 5.126-2.752 6.746-4.588 3.67-11.446.876-12.127-4.959-.56-4.801-.507-9.75.228-14.754.618-4.203 4.606-7.077 8.823-6.277 3.977.754 6.549 4.69 5.983 8.697z" fill="#e7e7e7"/><path d="m162.249 391.682c9.443 1.561 11.662 14.299 3.319 18.989-.088.05-.177.099-.266.148-18.433 10.241-40.847 10.241-59.281 0-19.376-10.764-31.393-31.188-31.393-53.353v-27.274l8.031-4.107-5.106-22.66c0-3.292-.354-6.722 2.889-6.915.225-.013.452-.015.683-.003 2.108.101 3.999 1.34 5.085 3.149l18.45 30.751h6.518s12.017 43.647 31.393 54.412c6.21 3.45 12.87 5.737 19.678 6.863z" fill="#aaa"/><path d="m189.509 382.48c.849.189 1.319 1.111.936 1.891-5.397 10.986-14.067 20.295-25.143 26.448-4.702 2.612-9.664 4.558-14.752 5.838-5.088-1.28-10.05-3.225-14.752-5.838-19.376-10.764-31.393-31.188-31.393-53.353l.256-27.059h16.58c1.441 0 2.784.733 3.563 1.946l6.286 9.781c13.67 20.838 34.777 35.092 58.419 40.346z" fill="#bebebe"/><path d="m191.723 305.723-1.362 21.106 6.334 3.362v27.274c0 9.631-2.269 18.934-6.425 27.258h-14.885c-30.087 0-54.503-24.281-54.722-54.316h46l18.542-30.904c1.118-1.863 3.131-3.003 5.304-3.003.125 0 .249.004.371.011 3.245.192.843 5.921.843 9.212z" fill="#ff7c48"/><path d="m91.374 327.308c1.992 5.612-2.17 11.505-8.125 11.505-4.761 0-8.621-3.86-8.621-8.621v-27.506c0-3.292 2.571-5.982 5.814-6.175zm99.507-30.797-10.932 30.797c-1.992 5.612 2.17 11.505 8.125 11.505 4.761 0 8.621-3.86 8.621-8.621v-27.506c0-3.292-2.57-5.983-5.814-6.175z" fill="#fd9a9a"/><path d="m120.662 353.5c0 2.761-2.239 5-5 5s-5-2.239-5-5 2.239-5 5-5 5 2.239 5 5zm35-5c-2.761 0-5 2.239-5 5s2.239 5 5 5 5-2.239 5-5-2.239-5-5-5z" fill="#1c314e"/><path d="m140.662 383.494v7.933c0 2.761-2.239 5-5 5s-5-2.239-5-5v-7.933c0-2.761 2.239-5 5-5s5 2.238 5 5z" fill="#fd9a9a"/><path d="m160.145 378.5c0 5.523-4.477 10-10 10h-28.967c-5.523 0-10-4.477-10-10s4.477-10 10-10h28.967c5.523 0 10 4.477 10 10z" fill="#e7e7e7"/><path d="m144.628 369.46c0 2.761-2.239 5-5 5h-7.933c-2.761 0-5-2.239-5-5s2.239-5 5-5h7.933c2.762 0 5 2.238 5 5z" fill="#fd9a9a"/><path d="m123.797 376.335c1.392 2.385.249 5.473-2.218 6.714l-19.837 9.985c-2.467 1.242-5.473.249-6.714-2.218-1.242-2.467-.249-5.473 2.218-6.714l9.2-4.631-18.021-5.953c-2.622-.866-4.045-3.694-3.179-6.316s3.694-4.045 6.316-3.179l28.823 9.522c.417.137 2.317.915 3.412 2.79zm62.281-9.134c-.866-2.622-3.694-4.045-6.316-3.179l-28.823 9.522c-.417.138-2.545.916-3.412 2.791-1.159 2.506-.249 5.473 2.218 6.714l19.837 9.985c2.467 1.242 5.473.249 6.714-2.218 1.242-2.467.248-5.473-2.218-6.714l-9.2-4.631 18.021-5.953c2.622-.867 4.045-3.695 3.179-6.317z" fill="#9b9696"/></g></svg>