<?xml version="1.0" encoding="UTF-8" standalone="no"?>
<!-- Created with Inkscape (http://www.inkscape.org/) -->

<svg
   version="1.1"
   id="svg2715"
   xml:space="preserve"
   width="682.66669"
   height="682.66669"
   viewBox="0 0 682.66669 682.66669"
   xmlns="http://www.w3.org/2000/svg"
   xmlns:svg="http://www.w3.org/2000/svg"><defs
     id="defs2719"><clipPath
       clipPathUnits="userSpaceOnUse"
       id="clipPath2729"><path
         d="M 0,512 H 512 V 0 H 0 Z"
         id="path2727" /></clipPath></defs><g
     id="g2721"
     transform="matrix(1.3333333,0,0,-1.3333333,0,682.66667)"><g
       id="g2723"><g
         id="g2725"
         clip-path="url(#clipPath2729)"><g
           id="g2731"
           transform="translate(491.3965,214.793)"><path
             d="M 0,0 -235.396,-42.457 -470.793,0 v 138.854 c 0,11.768 1.68,23.475 4.989,34.767 l 27.538,93.967 c 5.145,17.557 21.25,29.619 39.545,29.619 h 326.65 c 18.294,0 34.399,-12.062 39.544,-29.619 L -4.989,173.621 C -1.68,162.329 0,150.622 0,138.854 Z"
             style="fill:#f0d87c;fill-opacity:1;fill-rule:nonzero;stroke:none"
             id="path2733" /></g><g
           id="g2735"
           transform="translate(235.3965,214.793)"><path
             d="M 0,0 C 0,11.379 9.225,20.604 20.604,20.604 V 256 C 9.225,256 0,265.225 0,276.604 c 0,11.378 9.225,20.603 20.604,20.603 h -163.325 c -18.295,0 -34.4,-12.062 -39.545,-29.619 l -27.538,-93.967 c -3.309,-11.292 -4.989,-22.999 -4.989,-34.767 V 0 L 20.604,-42.457 v 21.853 C 9.225,-20.604 0,-11.379 0,0"
             style="fill:#f7c67b;fill-opacity:1;fill-rule:nonzero;stroke:none"
             id="path2737" /></g><g
           id="g2739"
           transform="translate(330.7212,172.3359)"><path
             d="m 0,0 h -149.442 l -55.762,42.457 h -104.914 v -56.44 c 0,-11.768 1.681,-23.475 4.99,-34.767 l 27.538,-93.967 c 5.145,-17.557 21.249,-29.619 39.544,-29.619 h 326.65 c 18.294,0 34.399,12.062 39.544,29.619 l 27.538,93.967 c 3.309,11.292 4.989,22.999 4.989,34.767 v 56.44 H 55.761 Z"
             style="fill:#eb8d9a;fill-opacity:1;fill-rule:nonzero;stroke:none"
             id="path2741" /></g><g
           id="g2743"
           transform="translate(203.5771,75.7754)"><path
             d="m 0,0 c -0.012,-13.482 -13.745,-24.399 -30.674,-24.384 -16.93,0.014 -30.645,10.955 -30.633,24.437 0.012,13.482 13.745,24.399 30.675,24.384 C -13.703,24.423 0.012,13.482 0,0"
             style="fill:#ffffff;fill-opacity:1;fill-rule:nonzero;stroke:none"
             id="path2745" /></g><g
           id="g2747"
           transform="translate(308.4229,75.6846)"><path
             d="m 0,0 c -0.012,-13.481 13.703,-24.422 30.632,-24.437 16.93,-0.015 30.663,10.902 30.675,24.384 C 61.319,13.429 47.604,24.37 30.674,24.385 13.745,24.399 0.012,13.482 0,0"
             style="fill:#ffffff;fill-opacity:1;fill-rule:nonzero;stroke:none"
             id="path2749" /></g><g
           id="g2751"
           transform="translate(190.8188,111.6753)"><path
             d="M 0,0 -0.009,-12.235"
             style="fill:none;stroke:#495059;stroke-width:15;stroke-linecap:round;stroke-linejoin:round;stroke-miterlimit:10;stroke-dasharray:none;stroke-opacity:1"
             id="path2753" /></g><g
           id="g2755"
           transform="translate(321.2417,111.5479)"><path
             d="M 0,0 -0.009,-12.235"
             style="fill:none;stroke:#495059;stroke-width:15;stroke-linecap:round;stroke-linejoin:round;stroke-miterlimit:10;stroke-dasharray:none;stroke-opacity:1"
             id="path2757" /></g><g
           id="g2759"
           transform="translate(238.8228,93.96)"><path
             d="M 0,0 34.386,-0.03"
             style="fill:none;stroke:#495059;stroke-width:15;stroke-linecap:round;stroke-linejoin:round;stroke-miterlimit:10;stroke-dasharray:none;stroke-opacity:1"
             id="path2761" /></g><g
           id="g2763"
           transform="translate(114.9419,29.6187)"><path
             d="m 0,0 -27.538,93.967 c -3.309,11.293 -4.989,22.999 -4.989,34.767 v 56.44 h -61.811 v -56.44 c 0,-11.768 1.68,-23.474 4.989,-34.767 L -61.811,0 c 5.145,-17.557 21.249,-29.619 39.544,-29.619 H 39.544 C 21.249,-29.619 5.145,-17.557 0,0"
             style="fill:#db818d;fill-opacity:1;fill-rule:nonzero;stroke:none"
             id="path2765" /></g><g
           id="g2767"
           transform="translate(491.3965,235.3965)"><path
             d="m 0,0 h -103.342 c -9.688,0 -19.066,-3.414 -26.487,-9.641 l -31.875,-26.746 c -3.711,-3.113 -8.4,-4.821 -13.244,-4.821 h -120.897 c -4.844,0 -9.533,1.708 -13.244,4.821 l -31.875,26.746 C -348.385,-3.414 -357.763,0 -367.451,0 h -103.342 c -11.379,0 -20.603,-9.225 -20.603,-20.604 0,-11.379 9.224,-20.604 20.603,-20.604 h 95.843 c 4.844,0 9.533,-1.706 13.243,-4.82 l 31.875,-26.746 c 7.422,-6.227 16.8,-9.641 26.488,-9.641 h 135.895 c 9.688,0 19.066,3.414 26.488,9.641 l 31.875,26.746 c 3.71,3.114 8.399,4.82 13.243,4.82 H 0 c 11.379,0 20.604,9.225 20.604,20.604 C 20.604,-9.225 11.379,0 0,0"
             style="fill:#fce68d;fill-opacity:1;fill-rule:nonzero;stroke:none"
             id="path2769" /></g><g
           id="g2771"
           transform="translate(235.3965,173.5854)"><path
             d="m 0,0 c 0,11.379 9.225,20.604 20.604,20.604 h -60.449 c -4.844,0 -9.533,1.707 -13.244,4.82 L -84.964,52.17 c -7.421,6.227 -16.799,9.641 -26.487,9.641 h -103.342 c -11.379,0 -20.603,-9.225 -20.603,-20.603 0,-11.38 9.224,-20.604 20.603,-20.604 h 95.843 c 4.844,0 9.533,-1.707 13.243,-4.821 l 31.875,-26.746 c 7.422,-6.227 16.8,-9.641 26.488,-9.641 H 20.604 C 9.225,-20.604 0,-11.379 0,0"
             style="fill:#f0d87c;fill-opacity:1;fill-rule:nonzero;stroke:none"
             id="path2773" /></g><g
           id="g2775"
           transform="translate(450.189,326.4595)"><path
             d="m 0,0 v 27.188 c 0,7.849 -1.119,15.646 -3.326,23.178 l -27.538,93.967 h -326.65 l -27.538,-93.968 c -2.207,-7.531 -3.326,-15.328 -3.326,-23.177 V 0 Z"
             style="fill:#495059;fill-opacity:1;fill-rule:nonzero;stroke:none"
             id="path2777" /></g><g
           id="g2779"
           transform="translate(161.1899,376.8247)"><path
             d="M 0,0 27.538,93.968 H -68.515 L -96.053,0 c -2.207,-7.531 -3.326,-15.329 -3.326,-23.177 v -27.188 h 96.053 v 27.188 C -3.326,-15.329 -2.207,-7.531 0,0"
             style="fill:#41464f;fill-opacity:1;fill-rule:nonzero;stroke:none"
             id="path2781" /></g><g
           id="g2783"
           transform="translate(450.189,326.4595)"><path
             d="m 0,0 c -5.06,2.188 -10.636,3.406 -16.5,3.406 -1.932,0 -3.83,-0.142 -5.692,-0.397 0.002,0.133 0.01,0.264 0.01,0.397 0,26.384 -21.388,47.772 -47.772,47.772 -26.383,0 -47.772,-21.388 -47.772,-47.772 0,-26.384 21.389,-47.772 47.772,-47.772 4.18,0 8.232,0.541 12.096,1.549 0.266,-2.416 0.747,-4.766 1.409,-7.039 H 0 Z"
             style="fill:#c9a07d;fill-opacity:1;fill-rule:nonzero;stroke:none"
             id="path2785" /></g><g
           id="g2787"
           transform="translate(61.811,326.4595)"><path
             d="m 0,0 c 5.06,2.188 10.636,3.406 16.5,3.406 1.932,0 3.83,-0.142 5.692,-0.397 -0.002,0.133 -0.01,0.264 -0.01,0.397 0,26.384 21.388,47.772 47.772,47.772 26.383,0 47.772,-21.388 47.772,-47.772 0,-26.384 -21.389,-47.772 -47.772,-47.772 -4.18,0 -8.232,0.541 -12.096,1.549 -0.266,-2.416 -0.747,-4.766 -1.409,-7.039 H 0 Z"
             style="fill:#ba8b68;fill-opacity:1;fill-rule:nonzero;stroke:none"
             id="path2789" /></g><g
           id="g2791"
           transform="translate(388.0547,276.6035)"><path
             d="M 0,0 H 20.924 C 20.86,22.639 2.491,40.973 -20.163,40.973 c -1.705,0 -3.382,-0.117 -5.033,-0.319 -6.742,19.883 -25.546,34.198 -47.706,34.198 -1.897,0 -3.766,-0.115 -5.609,-0.319 -8.829,20.839 -29.471,35.459 -53.528,35.459 -24.059,0 -44.702,-14.621 -53.53,-35.463 -1.852,0.207 -3.731,0.323 -5.638,0.323 -22.16,0 -40.964,-14.315 -47.706,-34.198 -1.651,0.202 -3.328,0.319 -5.034,0.319 -22.654,0 -41.023,-18.334 -41.087,-40.973 h 20.925 c 19.343,0 38.157,-6.848 52.975,-19.282 l 26.13,-21.925 h 105.899 l 26.13,21.926 C -38.158,-6.848 -19.344,0 0,0"
             style="fill:#ddaf89;fill-opacity:1;fill-rule:nonzero;stroke:none"
             id="path2793" /></g><g
           id="g2795"
           transform="translate(248.541,270.8706)"><path
             d="m 0,0 c -28.56,3.67 -50.635,28.056 -50.635,57.615 0,8.921 2.016,17.369 5.608,24.923 -0.357,-0.751 -0.703,-1.508 -1.029,-2.276 -1.851,0.207 -3.731,0.322 -5.637,0.322 -22.161,0 -40.965,-14.314 -47.706,-34.197 -1.651,0.202 -3.329,0.319 -5.034,0.319 -22.654,0 -41.023,-18.334 -41.087,-40.973 h 20.924 c 19.344,0 38.158,-6.848 52.976,-19.282 l 26.13,-21.925 H 38.391 C 18.143,-35.474 1.556,-19.849 0,0"
             style="fill:#c9a07d;fill-opacity:1;fill-rule:nonzero;stroke:none"
             id="path2797" /></g></g></g></g></svg>
