<svg id="Layer_1" height="512" viewBox="0 0 64 64" width="512" xmlns="http://www.w3.org/2000/svg" data-name="Layer 1"><ellipse cx="32" cy="55" fill="#3f73b3" rx="22" ry="7"/><ellipse cx="32" cy="55" fill="#4d8bd9" rx="12" ry="3"/><path d="m53 23a20.9073 20.9073 0 0 1 -5.35 14l-1.65 2-8.09 9.25h-.01l-3.36 3.85h-.01l-2.53 2.9-2.53-2.9h-.01l-3.36-3.85h-.01l-8.09-9.25-1.65-2a20.99924 20.99924 0 1 1 36.65-14z" fill="#cc5767"/><circle cx="32" cy="23" fill="#e6f1ff" r="17"/><path d="m43.25928 27.42523v-2.79266l2.463-1.39636-.61951-3.799a.70011.70011 0 0 0 -.46551-.516l-2.78539-.92121h-6.33338l-2.78534.92114a.70011.70011 0 0 0 -.46551.516l-.61951 3.799 2.463 1.39636v2.79266l-1.40741 3.49085v9.0484a16.97257 16.97257 0 0 0 13.36958-7.42828l.14893-.53613z" fill="#abb8bf"/><path d="m22.18518 21.3963-2.11108-1.3963v6.28351l-3.07288 4.71466a17.00485 17.00485 0 0 0 12.03388 8.72683l.18713-.16944v-7.6867l-1.40741-2.79267 1.25879-2.49786a9.68835 9.68835 0 0 0 .14862-1.69116v-4.88717l-2.11115 1.3963z" fill="#abb8bf"/><g fill="#5b6d80"><circle cx="22.75" cy="24.75" r=".75"/><circle cx="26.709" cy="24.75" r=".75"/><circle cx="36.25" cy="23.108" r=".75"/><circle cx="41" cy="23.108" r=".75"/><path d="m38.88141 25.5h-.42883a.7684.7684 0 0 0 -.78559.74994v.00006a.76841.76841 0 0 0 .78559.75h.42883a.7684.7684 0 0 0 .78558-.75v-.00006a.76839.76839 0 0 0 -.78558-.74994z"/></g></svg>