<?xml version="1.0" encoding="UTF-8" standalone="no"?>
<!-- Created with Inkscape (http://www.inkscape.org/) -->

<svg
   version="1.1"
   id="svg5073"
   width="682.66669"
   height="682.66669"
   viewBox="0 0 682.66669 682.66669"
   xmlns="http://www.w3.org/2000/svg"
   xmlns:svg="http://www.w3.org/2000/svg">
  <defs
     id="defs5077">
    <clipPath
       clipPathUnits="userSpaceOnUse"
       id="clipPath5087">
      <path
         d="M 0,512 H 512 V 0 H 0 Z"
         id="path5085" />
    </clipPath>
  </defs>
  <g
     id="g5079"
     transform="matrix(1.3333333,0,0,-1.3333333,0,682.66667)">
    <g
       id="g5081">
      <g
         id="g5083"
         clip-path="url(#clipPath5087)">
        <g
           id="g5089"
           transform="translate(512,256)">
          <path
             d="m 0,0 c 0,-10.52 -0.63,-20.89 -1.87,-31.08 -5.32,-43.98 -21.8,-84.51 -46.51,-118.71 -8.53,-11.8 -18.04,-22.85 -28.41,-33.01 -46.18,-45.28 -109.43,-73.2 -179.21,-73.2 -42.51,0 -82.6,10.37 -117.89,28.71 -13.58,7.05 -26.45,15.29 -38.47,24.58 -19.52,15.08 -36.8,32.91 -51.26,52.92 -24.71,34.2 -41.19,74.73 -46.51,118.71 -1.24,10.19 -1.87,20.56 -1.87,31.08 0,141.38 114.62,256 256,256 C -114.62,256 0,141.38 0,0"
             style="fill:#da4a54;fill-opacity:1;fill-rule:nonzero;stroke:none"
             id="path5091" />
        </g>
        <g
           id="g5093"
           transform="translate(193.396,372.8726)">
          <path
             d="m 0,0 c 0,15.7 -12.727,28.427 -28.427,28.427 -15.7,0 -28.427,-12.727 -28.427,-28.427 0,-15.7 12.727,-28.427 28.427,-28.427 C -12.727,-28.427 0,-15.7 0,0"
             style="fill:#efe7e4;fill-opacity:1;fill-rule:nonzero;stroke:none"
             id="path5095" />
        </g>
        <g
           id="g5097"
           transform="translate(99.6201,216.71)">
          <path
             d="m 0,0 h 119.89 v -214.12 c -28.98,4.13 -56.4,13.13 -81.4,26.12 -35.63,18.51 -66.36,45.17 -89.73,77.5 -24.71,34.2 -41.19,74.73 -46.51,118.71 4.7,10.06 14.91,17.03 26.76,17.03 5.83,0 11.27,-1.7 15.85,-4.61 3.46,12.47 14.89,21.62 28.46,21.62 C -10.36,42.25 2.87,29.02 2.87,12.7 2.87,8.15 1.84,3.85 0,0"
             style="fill:#8659b9;fill-opacity:1;fill-rule:nonzero;stroke:none"
             id="path5099" />
        </g>
        <g
           id="g5101"
           transform="translate(510.1299,224.9199)">
          <path
             d="m 0,0 c -5.32,-43.98 -21.8,-84.51 -46.51,-118.71 -46.5,-64.34 -122.17,-106.21 -207.62,-106.21 -6.69,0 -13.31,0.26 -19.87,0.76 V -8.21 h 176.25 c -1.84,3.85 -2.87,8.15 -2.87,12.7 0,16.32 13.23,29.55 29.55,29.55 13.57,0 25,-9.15 28.46,-21.62 4.58,2.91 10.02,4.61 15.85,4.61 C -14.91,17.03 -4.7,10.06 0,0"
             style="fill:#ac80dd;fill-opacity:1;fill-rule:nonzero;stroke:none"
             id="path5103" />
        </g>
        <g
           id="g5105"
           transform="translate(463.6201,106.21)">
          <path
             d="m 0,0 c -46.5,-64.34 -122.17,-106.21 -207.62,-106.21 -85.45,0 -161.12,41.87 -207.62,106.21 l 9.55,70.35 17.07,125.74 c 0,0 4.23,30.02 12.88,58.95 8.03,26.89 19.88,52.84 35.68,52.84 0,0 11.38,-3.91 24.14,-13.87 10.82,-8.42 22.63,-21.2 29.32,-39.6 0,0 9.54,6.76 27.03,12.54 12.83,4.26 29.96,7.97 50.73,8.11 0.41,0.01 0.81,0.01 1.22,0.01 49.82,0 78.97,-20.66 78.97,-20.66 6.69,18.4 18.5,31.18 29.32,39.61 12.76,9.95 24.15,13.86 24.15,13.86 15.8,0 27.65,-25.95 35.68,-52.84 8.65,-28.93 12.88,-58.95 12.88,-58.95 z"
             style="fill:#9b9595;fill-opacity:1;fill-rule:nonzero;stroke:none"
             id="path5107" />
        </g>
        <g
           id="g5109"
           transform="translate(254.7803,381.27)">
          <path
             d="m 0,0 c -51.41,-1.19 -94.271,-77.61 -105.17,-184.66 -5.47,-53.63 -5.5,-116.06 -11.5,-167.9 -35.63,18.51 -66.36,45.17 -89.73,77.5 l 9.55,70.35 17.07,125.74 c 0,0 4.23,30.02 12.88,58.95 8.03,26.89 19.879,52.84 35.68,52.84 0,0 11.38,-3.91 24.14,-13.87 10.82,-8.42 22.63,-21.2 29.32,-39.6 0,0 9.54,6.76 27.03,12.54 C -37.9,-3.85 -20.771,-0.14 0,0"
             style="fill:#736e6e;fill-opacity:1;fill-rule:nonzero;stroke:none"
             id="path5111" />
        </g>
        <g
           id="g5113"
           transform="translate(273.165,209.981)">
          <path
             d="M 0,0 16.011,27.732 C 23.64,40.946 14.104,57.463 -1.154,57.463 h -32.022 c -15.258,0 -24.794,-16.517 -17.165,-29.731 L -34.33,0 C -26.701,-13.214 -7.629,-13.214 0,0"
             style="fill:#454045;fill-opacity:1;fill-rule:nonzero;stroke:none"
             id="path5115" />
        </g>
        <g
           id="g5117"
           transform="translate(192.3325,261.8687)">
          <path
             d="m 0,0 c 0,18.285 -14.822,33.107 -33.107,33.107 -18.284,0 -33.107,-14.822 -33.107,-33.107 0,-18.284 14.823,-33.107 33.107,-33.107 C -14.822,-33.107 0,-18.284 0,0"
             style="fill:#fff;fill-opacity:1;fill-rule:nonzero;stroke:none"
             id="path5119" />
        </g>
        <g
           id="g5121"
           transform="translate(179.7383,261.8687)">
          <path
             d="m 0,0 c 0,11.329 -9.184,20.513 -20.513,20.513 -11.328,0 -20.512,-9.184 -20.512,-20.513 0,-11.329 9.184,-20.513 20.512,-20.513 C -9.184,-20.513 0,-11.329 0,0"
             style="fill:#454045;fill-opacity:1;fill-rule:nonzero;stroke:none"
             id="path5123" />
        </g>
        <g
           id="g5125"
           transform="translate(385.8813,261.8687)">
          <path
             d="m 0,0 c 0,18.285 -14.823,33.107 -33.107,33.107 -18.285,0 -33.107,-14.822 -33.107,-33.107 0,-18.284 14.822,-33.107 33.107,-33.107 C -14.823,-33.107 0,-18.284 0,0"
             style="fill:#fff;fill-opacity:1;fill-rule:nonzero;stroke:none"
             id="path5127" />
        </g>
        <g
           id="g5129"
           transform="translate(373.2871,261.8687)">
          <path
             d="m 0,0 c 0,11.329 -9.184,20.513 -20.513,20.513 -11.329,0 -20.512,-9.184 -20.512,-20.513 0,-11.329 9.183,-20.513 20.512,-20.513 C -9.184,-20.513 0,-11.329 0,0"
             style="fill:#454045;fill-opacity:1;fill-rule:nonzero;stroke:none"
             id="path5131" />
        </g>
        <g
           id="g5133"
           transform="translate(255.5718,231.2573)">
          <path
             d="m 0,0 v -36.584 c 0,-10.697 -8.671,-19.368 -19.368,-19.368 -10.697,0 -19.368,8.671 -19.368,19.368 v 7.066"
             style="fill:none;stroke:#454045;stroke-width:10;stroke-linecap:round;stroke-linejoin:miter;stroke-miterlimit:10;stroke-dasharray:none;stroke-opacity:1"
             id="path5135" />
        </g>
        <g
           id="g5137"
           transform="translate(255.5718,231.2573)">
          <path
             d="m 0,0 v -36.584 c 0,-10.697 8.671,-19.368 19.368,-19.368 10.697,0 19.368,8.671 19.368,19.368 v 7.066"
             style="fill:none;stroke:#454045;stroke-width:10;stroke-linecap:round;stroke-linejoin:miter;stroke-miterlimit:10;stroke-dasharray:none;stroke-opacity:1"
             id="path5139" />
        </g>
        <g
           id="g5141"
           transform="translate(124.5283,333.9844)">
          <path
             d="M 0,0 C 8.241,3.587 13.09,12.339 11.51,21.187 8.724,36.796 -3.19,55.896 -12.689,55.105 -26.458,53.959 -39.864,-5.767 -23.921,-5.767 -15.221,-5.767 -6.305,-2.745 0,0"
             style="fill:#595454;fill-opacity:1;fill-rule:nonzero;stroke:none"
             id="path5143" />
        </g>
        <g
           id="g5145"
           transform="translate(387.4717,333.9844)">
          <path
             d="M 0,0 C -8.241,3.587 -13.09,12.339 -11.51,21.187 -8.724,36.796 3.19,55.896 12.689,55.105 26.458,53.959 39.864,-5.767 23.921,-5.767 15.221,-5.767 6.305,-2.745 0,0"
             style="fill:#595454;fill-opacity:1;fill-rule:nonzero;stroke:none"
             id="path5147" />
        </g>
        <g
           id="g5149"
           transform="translate(435.21,73.2002)">
          <path
             d="m 0,0 c -46.18,-45.28 -109.43,-73.2 -179.21,-73.2 -22.1,0 -43.55,2.8 -64.01,8.08 -18.89,4.86 -36.94,11.83 -53.88,20.63 -13.58,7.05 -26.45,15.29 -38.47,24.58 4.93,2.88 10.66,4.53 16.78,4.53 0.07,0 0.15,-0.01 0.23,-0.01 1.62,12.02 11.91,21.29 24.38,21.29 4.67,0 9.04,-1.3 12.76,-3.57 9.65,17.96 28.61,30.18 50.42,30.18 5.54,0 10.91,-0.79 15.98,-2.26 2.42,-0.71 4.77,-1.57 7.05,-2.57 0.03,-0.01 0.05,-0.02 0.07,-0.03 5.78,-2.56 11.04,-6.04 15.63,-10.27 4.51,5.58 11.4,9.14 19.13,9.14 9.02,0 16.9,-4.85 21.18,-12.09 5.69,4.53 12.89,7.25 20.72,7.25 12.79,0 23.88,-7.22 29.45,-17.8 9.8,7.9 22.26,12.63 35.83,12.63 17.45,0 33.07,-7.82 43.56,-20.14 4.79,2.68 10.31,4.21 16.2,4.21 2.12,0 4.19,-0.2 6.2,-0.58"
             style="fill:#ac80dd;fill-opacity:1;fill-rule:nonzero;stroke:none"
             id="path5151" />
        </g>
        <g
           id="g5153"
           transform="translate(204.21,105.71)">
          <path
             d="m 0,0 c 5.54,0 10.91,-0.79 15.98,-2.26 -26.54,4.49 -55.5,-44.03 -7.34,-62.92 0,0 -16.62,-4.66 -10.64,-23.28 0,0 -7.33,-1.88 -10.22,-9.17 -18.89,4.86 -36.94,11.83 -53.88,20.63 -13.58,7.05 -26.45,15.29 -38.47,24.58 4.93,2.88 10.66,4.53 16.78,4.53 0.07,0 0.15,-0.01 0.23,-0.01 1.62,12.02 11.91,21.29 24.38,21.29 4.67,0 9.04,-1.3 12.76,-3.57 C -40.77,-12.22 -21.81,0 0,0"
             style="fill:#8659b9;fill-opacity:1;fill-rule:nonzero;stroke:none"
             id="path5155" />
        </g>
        <g
           id="g5157"
           transform="translate(227.3101,100.8501)">
          <path
             d="M 0,0 V -0.01 C -0.02,0 -0.05,0.02 -0.07,0.03 -0.04,0.02 -0.02,0.01 0,0"
             style="fill:#efe7e4;fill-opacity:1;fill-rule:nonzero;stroke:none"
             id="path5159" />
        </g>
        <g
           id="g5161"
           transform="translate(340.0498,372.9102)">
          <path
             d="m 0,0 c 0,-15.7 -12.73,-28.43 -28.43,-28.43 -9.52,0 -17.94,4.69 -23.1,11.87 -6.96,-8.39 -17.47,-13.74 -29.23,-13.74 -4.54,0 -8.89,0.8 -12.92,2.26 -14.6,5.28 -25.04,19.28 -25.04,35.7 0,20.97 17,37.97 37.96,37.97 1.59,0 3.14,-0.11 4.68,-0.3 1.5,12.82 12.4,22.77 25.63,22.77 6.87,0 13.12,-2.69 17.75,-7.08 0.2,-0.18 0.4,-0.37 0.6,-0.57 4.62,-4.66 7.47,-11.08 7.47,-18.17 0,-5.1 -1.48,-9.85 -4.04,-13.86 0.08,0 0.16,0.01 0.24,0.01 C -12.73,28.43 0,15.7 0,0"
             style="fill:#efe7e4;fill-opacity:1;fill-rule:nonzero;stroke:none"
             id="path5163" />
        </g>
        <g
           id="g5165"
           transform="translate(307.3501,433.9297)">
          <path
             d="m 0,0 c -13.69,12.28 -39.56,-10.15 -27.32,-28.94 0,0 -24.39,10.2 -36.8,-25.27 -4.71,-13.45 -2.02,-25.31 3.14,-34.85 -14.6,5.28 -25.04,19.28 -25.04,35.7 0,20.97 17,37.97 37.96,37.97 1.59,0 3.14,-0.11 4.68,-0.3 1.5,12.82 12.4,22.77 25.63,22.77 C -10.88,7.08 -4.63,4.39 0,0"
             style="fill:#e0d8d5;fill-opacity:1;fill-rule:nonzero;stroke:none"
             id="path5167" />
        </g>
        <g
           id="g5169"
           transform="translate(406.3936,469.3384)">
          <path
             d="m 0,0 c 0,15.152 -12.283,27.435 -27.435,27.435 -15.151,0 -27.434,-12.283 -27.434,-27.435 0,-15.152 12.283,-27.435 27.434,-27.435 C -12.283,-27.435 0,-15.152 0,0"
             style="fill:#efe7e4;fill-opacity:1;fill-rule:nonzero;stroke:none"
             id="path5171" />
        </g>
        <g
           id="g5173"
           transform="translate(386.9146,443.0684)">
          <path
             d="m 0,0 c -2.52,-0.76 -5.19,-1.17 -7.96,-1.17 -15.15,0 -27.43,12.29 -27.43,27.44 0,15.15 12.28,27.43 27.43,27.43 2.77,0 5.44,-0.41 7.96,-1.17 C -11.27,49.12 -19.48,38.65 -19.48,26.27 -19.48,13.89 -11.27,3.42 0,0"
             style="fill:#e0d8d5;fill-opacity:1;fill-rule:nonzero;stroke:none"
             id="path5175" />
        </g>
        <g
           id="g5177"
           transform="translate(400.4077,469.8374)">
          <path
             d="m 0,0 c 0,-4.959 -2.68,-8.979 -5.985,-8.979 -3.307,0 -5.986,4.02 -5.986,8.979 0,4.958 2.679,8.979 5.986,8.979 C -2.68,8.979 0,4.958 0,0"
             style="fill:#fff;fill-opacity:1;fill-rule:nonzero;stroke:none"
             id="path5179" />
        </g>
        <g
           id="g5181"
           transform="translate(468.7417,432.4282)">
          <path
             d="m 0,0 c 0,9.917 -8.039,17.956 -17.956,17.956 -9.916,0 -17.955,-8.039 -17.955,-17.956 0,-9.917 8.039,-17.956 17.955,-17.956 C -8.039,-17.956 0,-9.917 0,0"
             style="fill:#efe7e4;fill-opacity:1;fill-rule:nonzero;stroke:none"
             id="path5183" />
        </g>
        <g
           id="g5185"
           transform="translate(455.9927,415.2349)">
          <path
             d="m 0,0 c -1.649,-0.497 -3.396,-0.766 -5.209,-0.766 -9.916,0 -17.953,8.044 -17.953,17.959 0,9.915 8.037,17.953 17.953,17.953 1.813,0 3.56,-0.269 5.209,-0.766 C -7.376,32.148 -12.749,25.296 -12.749,17.193 -12.749,9.091 -7.376,2.238 0,0"
             style="fill:#e0d8d5;fill-opacity:1;fill-rule:nonzero;stroke:none"
             id="path5187" />
        </g>
        <g
           id="g5189"
           transform="translate(464.8237,432.7549)">
          <path
             d="m 0,0 c 0,-3.246 -1.754,-5.876 -3.917,-5.876 -2.164,0 -3.918,2.63 -3.918,5.876 0,3.245 1.754,5.876 3.918,5.876 C -1.754,5.876 0,3.245 0,0"
             style="fill:#fff;fill-opacity:1;fill-rule:nonzero;stroke:none"
             id="path5191" />
        </g>
        <g
           id="g5193"
           transform="translate(49.7637,310.1143)">
          <path
             d="m 0,0 c 0,9.917 -8.039,17.956 -17.955,17.956 -9.917,0 -17.956,-8.039 -17.956,-17.956 0,-9.917 8.039,-17.956 17.956,-17.956 C -8.039,-17.956 0,-9.917 0,0"
             style="fill:#efe7e4;fill-opacity:1;fill-rule:nonzero;stroke:none"
             id="path5195" />
        </g>
        <g
           id="g5197"
           transform="translate(37.0151,292.9209)">
          <path
             d="m 0,0 c -1.649,-0.497 -3.397,-0.766 -5.21,-0.766 -9.915,0 -17.952,8.044 -17.952,17.959 0,9.915 8.037,17.953 17.952,17.953 1.813,0 3.561,-0.269 5.21,-0.766 C -7.376,32.148 -12.75,25.296 -12.75,17.193 -12.75,9.091 -7.376,2.238 0,0"
             style="fill:#e0d8d5;fill-opacity:1;fill-rule:nonzero;stroke:none"
             id="path5199" />
        </g>
        <g
           id="g5201"
           transform="translate(45.8462,310.4404)">
          <path
             d="m 0,0 c 0,-3.245 -1.754,-5.876 -3.917,-5.876 -2.164,0 -3.918,2.631 -3.918,5.876 0,3.246 1.754,5.876 3.918,5.876 C -1.754,5.876 0,3.246 0,0"
             style="fill:#fff;fill-opacity:1;fill-rule:nonzero;stroke:none"
             id="path5203" />
        </g>
        <g
           id="g5205"
           transform="translate(381.0024,89.3833)">
          <path
             d="m 0,0 c 0,9.917 -8.039,17.956 -17.955,17.956 -9.917,0 -17.956,-8.039 -17.956,-17.956 0,-9.917 8.039,-17.955 17.956,-17.955 C -8.039,-17.955 0,-9.917 0,0"
             style="fill:#efe7e4;fill-opacity:1;fill-rule:nonzero;stroke:none"
             id="path5207" />
        </g>
        <g
           id="g5209"
           transform="translate(368.2539,72.1904)">
          <path
             d="m 0,0 c -1.649,-0.498 -3.397,-0.766 -5.209,-0.766 -9.916,0 -17.953,8.044 -17.953,17.959 0,9.915 8.037,17.953 17.953,17.953 1.812,0 3.56,-0.269 5.209,-0.766 C -7.376,32.148 -12.75,25.295 -12.75,17.193 -12.75,9.09 -7.376,2.238 0,0"
             style="fill:#e0d8d5;fill-opacity:1;fill-rule:nonzero;stroke:none"
             id="path5211" />
        </g>
        <g
           id="g5213"
           transform="translate(377.085,89.71)">
          <path
             d="m 0,0 c 0,-3.246 -1.754,-5.876 -3.917,-5.876 -2.164,0 -3.918,2.63 -3.918,5.876 0,3.246 1.754,5.876 3.918,5.876 C -1.754,5.876 0,3.246 0,0"
             style="fill:#fff;fill-opacity:1;fill-rule:nonzero;stroke:none"
             id="path5215" />
        </g>
        <g
           id="g5217"
           transform="translate(236.2324,46.02)">
          <path
             d="m 0,0 c 0,13.128 -10.642,23.771 -23.77,23.771 -13.128,0 -23.771,-10.643 -23.771,-23.771 0,-13.128 10.643,-23.771 23.771,-23.771 C -10.642,-23.771 0,-13.128 0,0"
             style="fill:#efe7e4;fill-opacity:1;fill-rule:nonzero;stroke:none"
             id="path5219" />
        </g>
        <g
           id="g5221"
           transform="translate(219.355,23.2588)">
          <path
             d="m 0,0 c -2.184,-0.659 -4.497,-1.014 -6.897,-1.014 -13.126,0 -23.766,10.649 -23.766,23.775 0,13.127 10.64,23.766 23.766,23.766 2.4,0 4.713,-0.355 6.897,-1.013 C -9.765,42.559 -16.878,33.488 -16.878,22.761 -16.878,12.035 -9.765,2.963 0,0"
             style="fill:#e0d8d5;fill-opacity:1;fill-rule:nonzero;stroke:none"
             id="path5223" />
        </g>
        <g
           id="g5225"
           transform="translate(231.0464,46.4521)">
          <path
             d="m 0,0 c 0,-4.296 -2.322,-7.779 -5.187,-7.779 -2.864,0 -5.186,3.483 -5.186,7.779 0,4.296 2.322,7.779 5.186,7.779 C -2.322,7.779 0,4.296 0,0"
             style="fill:#fff;fill-opacity:1;fill-rule:nonzero;stroke:none"
             id="path5227" />
        </g>
        <g
           id="g5229"
           transform="translate(472.4033,285.0273)">
          <path
             d="m 0,0 c 0,18.596 -15.075,33.67 -33.67,33.67 -18.595,0 -33.67,-15.074 -33.67,-33.67 0,-18.595 15.075,-33.669 33.67,-33.669 C -15.075,-33.669 0,-18.595 0,0"
             style="fill:#efe7e4;fill-opacity:1;fill-rule:nonzero;stroke:none"
             id="path5231" />
        </g>
        <g
           id="g5233"
           transform="translate(448.4966,252.7871)">
          <path
             d="m 0,0 c -3.093,-0.933 -6.37,-1.436 -9.769,-1.436 -18.593,0 -33.664,15.083 -33.664,33.676 0,18.593 15.071,33.664 33.664,33.664 3.399,0 6.676,-0.503 9.769,-1.435 C -13.831,60.283 -23.907,47.434 -23.907,32.24 -23.907,17.047 -13.831,4.197 0,0"
             style="fill:#e0d8d5;fill-opacity:1;fill-rule:nonzero;stroke:none"
             id="path5235" />
        </g>
        <g
           id="g5237"
           transform="translate(465.0571,285.6396)">
          <path
             d="m 0,0 c 0,-6.085 -3.289,-11.019 -7.346,-11.019 -4.057,0 -7.346,4.934 -7.346,11.019 0,6.086 3.289,11.019 7.346,11.019 C -3.289,11.019 0,6.086 0,0"
             style="fill:#fff;fill-opacity:1;fill-rule:nonzero;stroke:none"
             id="path5239" />
        </g>
        <g
           id="g5241"
           transform="translate(188.4131,460.5601)">
          <path
             d="m 0,0 c 0,18.596 -15.075,33.67 -33.67,33.67 -18.595,0 -33.67,-15.074 -33.67,-33.67 0,-18.595 15.075,-33.669 33.67,-33.669 C -15.075,-33.669 0,-18.595 0,0"
             style="fill:#efe7e4;fill-opacity:1;fill-rule:nonzero;stroke:none"
             id="path5243" />
        </g>
        <g
           id="g5245"
           transform="translate(164.5068,428.3198)">
          <path
             d="m 0,0 c -3.093,-0.933 -6.37,-1.436 -9.769,-1.436 -18.593,0 -33.665,15.083 -33.665,33.676 0,18.593 15.072,33.664 33.665,33.664 3.399,0 6.676,-0.503 9.769,-1.435 C -13.832,60.283 -23.907,47.434 -23.907,32.24 -23.907,17.047 -13.832,4.197 0,0"
             style="fill:#e0d8d5;fill-opacity:1;fill-rule:nonzero;stroke:none"
             id="path5247" />
        </g>
        <g
           id="g5249"
           transform="translate(181.0669,461.1724)">
          <path
             d="m 0,0 c 0,-6.085 -3.289,-11.019 -7.346,-11.019 -4.057,0 -7.346,4.934 -7.346,11.019 0,6.086 3.289,11.019 7.346,11.019 C -3.289,11.019 0,6.086 0,0"
             style="fill:#fff;fill-opacity:1;fill-rule:nonzero;stroke:none"
             id="path5251" />
        </g>
        <g
           id="g5253"
           transform="translate(332.5693,374.7305)">
          <path
             d="m 0,0 c 0,-6.795 -3.126,-12.304 -6.983,-12.304 -3.857,0 -6.983,5.509 -6.983,12.304 0,6.795 3.126,12.304 6.983,12.304 C -3.126,12.304 0,6.795 0,0"
             style="fill:#fff;fill-opacity:1;fill-rule:nonzero;stroke:none"
             id="path5255" />
        </g>
        <g
           id="g5257"
           transform="translate(308.959,419.958)">
          <path
             d="m 0,0 c 0,-5.142 -2.905,-9.31 -6.488,-9.31 -3.584,0 -6.489,4.168 -6.489,9.31 0,5.141 2.905,9.309 6.489,9.309 C -2.905,9.309 0,5.141 0,0"
             style="fill:#fff;fill-opacity:1;fill-rule:nonzero;stroke:none"
             id="path5259" />
        </g>
      </g>
    </g>
  </g>
</svg>
