<svg height="512pt" viewBox="0 -26 512 512" width="512pt" xmlns="http://www.w3.org/2000/svg"><path d="m263.339844 219.128906-21.898438-99.769531c-2.375-10.816406-11.957031-18.523437-23.03125-18.523437h-25.523437l4.929687-74.0625c.960938-14.414063-10.40625-26.636719-24.820312-26.7656255-14.414063.1289065-25.78125 12.3515625-24.820313 26.7656255l4.929688 74.0625h-25.523438c-11.074219 0-20.65625 7.707031-23.03125 18.523437l-21.898437 99.769531zm0 0" fill="#e57373"/><path d="m158.269531 36.773438-3.234375 48.59375c-.917968 13.785156 10.015625 25.46875 23.828125 25.46875 11.074219 0 20.65625 7.707031 23.027344 18.523437l5.875 26.753906c12.726563-10.824219 25.234375-20.085937 36.367187-26.554687l-2.242187-10.199219c-2.371094-10.816406-11.953125-18.523437-23.027344-18.523437h-25.523437l4.894531-73.507813c.976563-14.65625-10.546875-27.457031-25.238281-27.328125-10.6875.09375-19.695313 6.847656-23.25 16.203125 5.664062 4.960937 9.066406 12.417969 8.523437 20.570313zm0 0" fill="#f44336"/><path d="m224.519531 207.046875-14.808593-67.476563c-.4375-1.992187-2.199219-3.410156-4.242188-3.410156h-64.949219c-2.039062 0-3.800781 1.417969-4.238281 3.410156l-14.8125 67.476563h.023438l51.503906 18.714844zm0 0" fill="#f44336"/><path d="m212.476562 152.171875-2.765624-12.601563c-.4375-1.992187-2.199219-3.410156-4.242188-3.410156h-2.085938l4.382813 19.957032c1.574219-1.339844 3.144531-2.65625 4.710937-3.945313zm0 0" fill="#d12f2f"/><path d="m494.429688 295.289062c-1.425782-1.753906-3.5625-2.769531-5.820313-2.769531h-99.160156c-10.667969 0-19.789063 7.257813-22.1875 17.652344l-6.03125 26.160156c-1.878907 8.140625-9.023438 13.824219-17.375 13.824219h-175.710938c-8.351562 0-15.496093-5.683594-17.375-13.824219l-6.03125-26.160156c-2.398437-10.394531-11.519531-17.652344-22.1875-17.652344h-99.160156c-2.257813 0-4.394531 1.019531-5.820313 2.769531-1.421874 1.75-1.980468 4.050782-1.523437 6.261719l28.945313 139.164063c2.207031 10.609375 11.675781 18.3125 22.511718 18.3125h376.992188c10.839844 0 20.304687-7.703125 22.511718-18.3125l28.945313-139.164063c.457031-2.210937-.101563-4.511719-1.523437-6.261719zm0 0" fill="#64b5f6"/><path d="m494.429688 295.289062c-1.425782-1.753906-3.5625-2.769531-5.820313-2.769531h-99.160156c-10.667969 0-19.789063 7.257813-22.1875 17.652344l-6.03125 26.160156c-1.878907 8.140625-9.023438 13.824219-17.375 13.824219h-175.710938c-8.351562 0-15.496093-5.683594-17.375-13.824219l-6.03125-26.160156c-2.398437-10.394531-11.519531-17.652344-22.1875-17.652344h-99.160156c-2.257813 0-4.394531 1.019531-5.820313 2.769531-1.421874 1.75-1.980468 4.050782-1.523437 6.261719l28.945313 139.164063c2.207031 10.609375 11.675781 18.3125 22.511718 18.3125h376.992188c10.839844 0 20.304687-7.703125 22.511718-18.3125l28.945313-139.164063c.457031-2.210937-.101563-4.511719-1.523437-6.261719zm0 0" fill="#64b5f6"/><path d="m496.101562 300.019531h-51.652343l-16.554688 79.601563c-6.289062 30.234375-32.929687 51.902344-63.808593 51.902344h-321.003907l1.910157 9.191406c2.207031 10.609375 11.675781 18.308594 22.511718 18.308594h376.992188c10.839844 0 20.304687-7.699219 22.511718-18.308594l28.945313-139.167969c.105469-.507813.148437-1.019531.148437-1.527344zm0 0" fill="#2196f3"/><path d="m496.390625 268.242188h-31.890625v3.667968c0 4.480469-3.625 8.109375-8.101562 8.109375h-104.1875c-2.660157 3.417969-4.625 7.4375-5.648438 11.871094l-5.730469 24.847656c-1.234375 5.347657-5.996093 9.136719-11.488281 9.136719h-4.089844c-4.542968 7.175781-12.527344 11.78125-21.398437 11.78125h-160.476563l.082032.363281c2.652343 11.492188 12.886718 19.636719 24.683593 19.636719h175.710938c11.796875 0 22.03125-8.144531 24.679687-19.636719l6.035156-26.164062c1.597657-6.925781 7.757813-11.835938 14.871094-11.835938h106.957032c4.476562 0 8.101562-3.628906 8.101562-8.109375v-15.558594c0-4.480468-3.632812-8.109374-8.109375-8.109374zm0 0" fill="#2196f3"/><path d="m135.710938 268.242188c14.207031 0 26.535156 9.808593 29.726562 23.652343l5.730469 24.84375c1.234375 5.351563 5.996093 9.140625 11.488281 9.140625h146.6875c5.492188 0 10.253906-3.792968 11.488281-9.140625l5.730469-24.84375c3.191406-13.84375 15.519531-23.652343 29.726562-23.652343h82.027344c-3.433594-19.570313-20.503906-34.445313-41.054687-34.445313-.527344 0-1.054688.011719-1.574219.03125-4.953125.1875-9.6875-1.957031-12.660156-5.921875-36.019532-48.058594-102.710938-108.191406-131.683594-108.191406-24.660156 0-76.632812 43.550781-113.773438 86.148437-3.835937 4.402344-9.910156 6.097657-15.476562 4.34375-6.503906-2.050781-13.421875-3.160156-20.601562-3.160156-35.351563 0-64.441407 26.800781-68.0625 61.195313zm0 0" fill="#ffe0b2"/><g fill="#ffb74d"><path d="m297.882812 160.699219c0 4.140625-3.355468 7.5-7.5 7.5-4.140624 0-7.5-3.359375-7.5-7.5 0-4.144531 3.359376-7.5 7.5-7.5 4.144532 0 7.5 3.355469 7.5 7.5zm0 0"/><path d="m346.652344 199.46875c0 4.140625-3.355469 7.5-7.5 7.5-4.140625 0-7.5-3.359375-7.5-7.5 0-4.144531 3.359375-7.5 7.5-7.5 4.144531 0 7.5 3.355469 7.5 7.5zm0 0"/><path d="m309.882812 195.550781c0 4.140625-3.355468 7.5-7.5 7.5-4.140624 0-7.5-3.359375-7.5-7.5 0-4.144531 3.359376-7.5 7.5-7.5 4.144532 0 7.5 3.355469 7.5 7.5zm0 0"/><path d="m417.257812 233.796875c-.527343 0-1.050781.011719-1.574218.03125-.988282.035156-1.96875-.042969-2.929688-.1875.027344.042969.054688.085937.082032.128906 3.875 6.335938-.828126 14.472657-8.253907 14.472657h-58.289062c-20.0625 0-37.472657 13.847656-41.980469 33.402343-3.269531 14.183594-15.902344 24.234375-30.460938 24.234375h-105.1875l2.503907 10.859375c1.234375 5.351563 5.996093 9.140625 11.488281 9.140625h146.6875c5.492188 0 10.253906-3.789062 11.488281-9.140625l5.730469-24.84375c3.191406-13.84375 15.519531-23.652343 29.726562-23.652343h82.027344c-3.4375-19.570313-20.503906-34.445313-41.058594-34.445313zm0 0"/></g><path d="m496.390625 260.742188h-120.101563c-17.804687 0-33.035156 12.117187-37.035156 29.464843l-5.730468 24.847657c-.453126 1.957031-2.167969 3.324218-4.179688 3.324218h-146.6875c-2.011719 0-3.726562-1.367187-4.179688-3.324218l-5.730468-24.847657c-4-17.347656-19.230469-29.464843-37.035156-29.464843h-120.101563c-8.605469 0-15.609375 7-15.609375 15.609374v15.558594c0 8.609375 7.003906 15.609375 15.609375 15.609375h106.941406c3.640625 0 6.75 2.476563 7.570313 6.023438l6.03125 26.160156c3.457031 14.988281 16.613281 25.453125 31.992187 25.453125h175.707031c15.378907 0 28.535157-10.464844 31.992188-25.453125l6.035156-26.160156c.816406-3.546875 3.925782-6.023438 7.558594-6.023438h106.957031c8.605469 0 15.605469-7 15.605469-15.609375v-15.558594c0-8.609374-7.003906-15.609374-15.609375-15.609374zm0 0" fill="#90caf9"/><path d="m496.390625 260.742188h-14.390625v11.175781c0 8.617187-6.984375 15.601562-15.605469 15.601562h-84.5c-16.757812 0-31.296875 11.570313-35.058593 27.898438l-4.574219 19.828125c-1.339844 5.800781-6.503907 9.910156-12.457031 9.910156h-191.660157c-.078125 0-.15625-.003906-.230469-.003906 5.054688 12.011718 16.792969 20.003906 30.230469 20.003906h175.710938c15.378906 0 28.53125-10.464844 31.988281-25.453125l6.035156-26.160156c.816406-3.546875 3.925782-6.023438 7.5625-6.023438h106.953125c8.605469 0 15.605469-7 15.605469-15.609375v-15.558594c0-8.609374-7.003906-15.609374-15.609375-15.609374zm0 0" fill="#42a5f5"/></svg>