<svg id="Capa_1" enable-background="new 0 0 512 512" height="512" viewBox="0 0 512 512" width="512" xmlns="http://www.w3.org/2000/svg"><g><g><g><circle cx="256" cy="256" fill="#f67e0e" r="256"/></g></g><g><g><g><path d="m512 257.305c0-10.559-.653-20.964-1.895-31.187l-87.223-103.236-21 62-64 58-124-23-3 153 130.129 125.908c99.591-35.036 170.989-129.915 170.989-241.485z" fill="#f55812"/></g></g></g><g><g><g><path d="m172.041 370.297h-7.626c-4.371 0-7.947-3.576-7.947-7.947v-83.634c0-4.371 3.576-7.947 7.947-7.947h7.626c4.371 0 7.947 3.576 7.947 7.947v83.634c0 4.371-3.576 7.947-7.947 7.947z" fill="#24133f"/></g></g><g><g><ellipse cx="165.753" cy="363.407" fill="#24133f" rx="14.236" ry="17.609"/></g></g><g><g><path d="m202.988 371.063h-7.626c-4.371 0-7.947-3.576-7.947-7.947v-83.634c0-4.371 3.576-7.947 7.947-7.947h7.626c4.371 0 7.947 3.576 7.947 7.947v83.634c0 4.371-3.576 7.947-7.947 7.947z" fill="#24133f"/></g></g><g><g><ellipse cx="196.7" cy="364.172" fill="#24133f" rx="14.236" ry="17.609"/></g></g><g><g><path d="m409.373 190.426c12.01-14.244 24.431-28.063 37.248-41.442-6.13 2.002-12.704 3.135-19.556 3.372.235-9.302-1.09-19.165-3.899-29.027-6.18 13.716-14.053 26.158-23.428 37.024-2.483-3.968.537-27.257-2.948-26.562-1.851.369-9.6 20.777-10.311 22.562-2.707 6.795-11.154 16.746-12.55 24.343-2.204-3.248-3.35-14.767-4.79-12.203-8.212 14.623-12.559 40.536-24.231 51.741-5.945 5.707-12.873 10.436-20.731 13.438-.786-2.972-1.662-5.915-2.633-8.807-3.246-9.665-7.454-19.149-13.849-27.09-6.19-7.687-14.241-13.689-22.725-18.732-15.689-9.327-34.035-15.727-52.077-12.966-20.027 3.064-36.759 16.867-50.158 32.064-14.128 16.025-27.06 34.828-34.965 54.785-3.196 8.068-11.992 6.325-6.774 13.512 2.663 3.668 13.798 15.286 16.624 18.831 2.737 3.433 7.104 11.94 11.216 13.553.579.227 1.224.187 1.845.144 11.604-.812 28.651 1.088 40.255.276 1.193-13.529-1.229-29.608 3.512-42.335 2.655-7.127 6.445-14.662 13.458-17.605 3.243-1.361 6.874-1.57 10.371-1.192 11.849 1.283 15.566 5.411 22.174 15.33s7.403 27.224 9.284 38.993v64.535c-3.027 3.229-4.952 7.998-4.952 13.33 0 9.725 6.374 17.609 14.236 17.609s14.236-7.884 14.236-17.609c0-.953-.078-1.881-.196-2.793.122-.676.196-1.367.196-2.076v-74.41c2.487-.179 4.978-.358 7.427-.53v67.245c-3.027 3.229-4.951 7.998-4.951 13.33 0 9.725 6.373 17.609 14.236 17.609s14.236-7.884 14.236-17.609c0-.953-.078-1.882-.196-2.794.122-.675.196-1.367.196-2.076v-76.008c0-1.379-.253-2.698-.694-3.93.07-.175.145-.35.209-.525 3.965-10.677 4.892-22.087 3.838-33.461 12.158-1.944 21.294-10.752 30.409-17.486 7.772-5.742 16.062-10.796 24.801-15.12-2.895.512-6.31-.268-9.435-2.156 16.265-6.449 31.768-14.262 46.377-23.374-3.305-2.306-6.979-3.624-10.335-3.708z" fill="#24133f"/></g></g><g><g><path d="m409.373 190.426c12.01-14.244 24.431-28.063 37.248-41.442-6.13 2.002-12.704 3.135-19.556 3.372.235-9.302-1.09-19.165-3.899-29.027-6.18 13.716-14.053 26.158-23.428 37.024-2.483-3.968.537-27.257-2.948-26.562-1.851.369-9.6 20.777-10.311 22.562-2.707 6.795-11.154 16.746-12.55 24.343-2.204-3.248-3.35-14.767-4.79-12.203-8.212 14.623-12.559 40.536-24.231 51.741-5.945 5.707-12.873 10.436-20.731 13.438-.786-2.972-1.662-5.915-2.633-8.807-3.246-9.665-7.454-19.149-13.849-27.09-6.19-7.687-14.241-13.689-22.725-18.732-11.169-6.64-23.686-11.775-36.479-13.2v74.938c4.71 2.381 7.753 6.342 11.961 12.658 6.608 9.919 7.403 27.224 9.284 38.993v64.535c-3.027 3.229-4.952 7.998-4.952 13.33 0 9.725 6.374 17.609 14.236 17.609s14.236-7.884 14.236-17.609c0-.953-.078-1.881-.196-2.793.122-.676.196-1.367.196-2.076v-74.41c2.487-.179 4.978-.358 7.427-.53v67.245c-3.027 3.229-4.951 7.998-4.951 13.33 0 9.725 6.373 17.609 14.236 17.609s14.236-7.884 14.236-17.609c0-.953-.078-1.882-.196-2.794.122-.675.196-1.367.196-2.076v-76.008c0-1.379-.253-2.698-.694-3.93.07-.175.145-.35.209-.525 3.965-10.677 4.892-22.087 3.838-33.461 12.158-1.944 21.294-10.752 30.409-17.486 7.772-5.742 16.062-10.796 24.801-15.12-2.895.512-6.31-.268-9.435-2.156 16.265-6.449 31.768-14.262 46.377-23.374-3.306-2.305-6.98-3.623-10.336-3.707z" fill="#150c28"/></g></g><g><g><g><g><ellipse cx="124.217" cy="233.198" fill="#24133f" rx="44.515" ry="38.153" transform="matrix(.913 -.408 .408 .913 -84.299 70.926)"/></g></g><g><g><path d="m164.674 214.625-17.865-40c-.878-1.967-3.849-1.822-4.708.23l-37.717 44.784z" fill="#24133f"/></g></g><g><g><path d="m83.45 250.902-17.865-40c-.878-1.967 1.212-4.082 3.313-3.352l58.523 1.802z" fill="#24133f"/></g></g></g><g><g><g><g><path d="m134.22 240.27s10.762-3.103 13.735-10.873c2.972-7.77-2.971-17.264-2.971-17.264s-5.512 4.489-8.484 12.259-2.28 15.878-2.28 15.878z" fill="#f4c914"/></g></g></g><g><g><g><path d="m132.494 219.077 9.904 16.013-2.996-24.832z" fill="#24133f"/></g></g></g></g><g><g><g><g><path d="m120.497 246.399s-9.494 5.944-17.264 2.971-10.873-13.735-10.873-13.735 7.022-1.109 14.792 1.864 13.345 8.9 13.345 8.9z" fill="#f4c914"/></g></g></g><g><g><g><path d="m105.867 230.969 5.315 18.063-16.493-18.804z" fill="#24133f"/></g></g></g></g><g><g><path d="m128.225 255.266-2.278 11.123 21.609-9.651-11.329-5.442c-3.324-1.597-7.263.357-8.002 3.97z" fill="#b90ff5"/></g></g><g><g><g><path d="m135.46 250.207 2.734 6.122 3.224-5.112-6.3-1.775" fill="#24133f"/></g></g><g><g><path d="m127.807 253.625 2.734 6.122-5.959-1.01 2.883-5.878" fill="#24133f"/></g></g></g></g></g></g></svg>