<?xml version="1.0" encoding="UTF-8" standalone="no"?>
<!-- Created with Inkscape (http://www.inkscape.org/) -->

<svg
   version="1.1"
   id="svg5307"
   xml:space="preserve"
   width="682.66669"
   height="682.66669"
   viewBox="0 0 682.66669 682.66669"
   xmlns="http://www.w3.org/2000/svg"
   xmlns:svg="http://www.w3.org/2000/svg"><defs
     id="defs5311"><clipPath
       clipPathUnits="userSpaceOnUse"
       id="clipPath5321"><path
         d="M 0,512 H 512 V 0 H 0 Z"
         id="path5319" /></clipPath></defs><g
     id="g5313"
     transform="matrix(1.3333333,0,0,-1.3333333,0,682.66667)"><g
       id="g5315"><g
         id="g5317"
         clip-path="url(#clipPath5321)"><g
           id="g5323"
           transform="translate(101.0957,502.0049)"><path
             d="m 0,0 91.003,-32.745 v -38.661 c 0,-57.92 -36.437,-109.577 -91,-129.011 -54.562,19.434 -91,71.091 -91,129.011 v 38.661 L 0.007,0"
             style="fill:#9fedbb;fill-opacity:1;fill-rule:nonzero;stroke:none"
             id="path5325" /></g><g
           id="g5327"
           transform="translate(96.7402,369.124)"><path
             d="m 0,0 c -4.437,0 -8.871,1.692 -12.256,5.077 l -20.407,20.407 c -3.642,3.642 -3.642,9.546 0,13.189 l 11.324,11.324 c 3.642,3.642 9.547,3.642 13.189,0 L 0,41.847 25.911,67.757 c 3.641,3.641 9.547,3.641 13.188,0 L 50.423,56.432 c 3.642,-3.642 3.642,-9.547 0,-13.189 L 12.256,5.077 C 8.873,1.693 4.436,0 0,0"
             style="fill:#ffffff;fill-opacity:1;fill-rule:nonzero;stroke:none"
             id="path5329" /></g><g
           id="g5331"
           transform="translate(328.8174,308.9512)"><path
             d="m 0,0 c -17.741,-31.006 -43.762,-56.461 -75.151,-73.517 l -46.569,-25.302 c -42.184,-22.921 -68.448,-67.083 -68.448,-115.093 0,-46.969 38.075,-85.044 85.043,-85.044 h 82.327 39.28 110.208 l -0.016,9.741 c -0.027,16.775 -13.632,30.358 -30.406,30.358 H 77.436 l 0.064,86.413 0.002,37.26 -0.007,0.007 c 18.794,20.536 30.26,47.89 30.26,77.922 0,14.573 -2.7,28.516 -7.627,41.355 l -25.381,8.547 c 9.547,-5.597 20.415,-8.547 31.482,-8.547 h 23.008 c 24.27,0 43.946,19.674 43.946,43.946 v 17.563 c 0,9.145 -7.413,16.557 -16.557,16.557 h -14.439 c -9.443,0 -18.271,4.687 -23.562,12.508 l -3.416,5.05 c -13.96,20.636 -37.25,33 -62.164,33 H 42.328 Z"
             style="fill:#ffdb8c;fill-opacity:1;fill-rule:nonzero;stroke:none"
             id="path5333" /></g><g
           id="g5335"
           transform="translate(483.8218,371.1172)"><path
             d="m 0,0 h -14.057 c -0.169,-1.29 -0.265,-2.604 -0.265,-3.94 0,-16.641 13.489,-30.13 30.13,-30.13 0.798,0 1.587,0.04 2.37,0.101 v 15.791 C 18.178,-8.139 10.04,0 0,0"
             style="fill:#fff3da;fill-opacity:1;fill-rule:nonzero;stroke:none"
             id="path5337" /></g><g
           id="g5339"
           transform="translate(342.9961,306.542)"><path
             d="m 0,0 v 0 c 21.143,0 38.283,17.14 38.283,38.283 v 76.85 h -20.69 c -30.86,0 -55.876,-25.017 -55.876,-55.877 V 38.283 C -38.283,17.14 -21.143,0 0,0"
             style="fill:#fff3da;fill-opacity:1;fill-rule:nonzero;stroke:none"
             id="path5341" /></g><g
           id="g5343"
           transform="translate(123.6665,50.0049)"><path
             d="m 0,0 h 158.081 c 11.045,0 20,-8.954 20,-20 0,-11.046 -8.955,-20 -20,-20 H 68.532 -22.832 c -50.167,0 -90.835,40.668 -90.835,90.834 v 10e-4 c 0,40.919 27.36,76.786 66.824,87.603 l 88.482,24.251 86.898,-2.952 c 16.993,-20.581 24.154,-47.554 19.605,-73.854 -4.005,-23.159 -9.963,-45.939 -17.81,-68.094 -2.192,-6.191 -4.923,-12.08 -8.129,-17.622 z"
             style="fill:#ffffff;fill-opacity:1;fill-rule:nonzero;stroke:none"
             id="path5345" /></g><g
           id="g5347"
           transform="translate(259.3799,284.1758)"><path
             d="m 0,0 c 1.193,4.172 2.029,8.523 2.383,13.017 0.629,7.99 -0.195,15.757 -2.249,23.046 -11.19,-3.368 -21.19,-9.658 -29.058,-18.035 l -40.067,0.016 c -7.866,8.369 -17.861,14.653 -29.043,18.019 -2.053,-7.288 -2.878,-15.056 -2.248,-23.046 0.352,-4.479 1.148,-8.816 2.335,-12.975 -7.523,-9.155 -12.041,-20.874 -12.041,-33.648 0,-29.294 23.747,-53.041 53.041,-53.041 h 15.912 c 29.294,0 53.041,23.747 53.041,53.041 C 12.006,-20.831 7.523,-9.156 0,0"
             style="fill:#ffffff;fill-opacity:1;fill-rule:nonzero;stroke:none"
             id="path5349" /></g><g
           id="g5351"
           transform="translate(210.3887,230.9648)"><path
             d="m 0,0 h -0.003 c -2.685,0.001 -5.209,1.186 -6.926,3.248 l -2.633,3.159 c -2.228,2.674 -2.715,6.44 -1.238,9.594 1.477,3.153 4.682,5.191 8.164,5.191 h 5.272 c 3.482,0 6.687,-2.038 8.164,-5.191 1.476,-3.153 0.991,-6.918 -1.238,-9.594 L 6.926,3.244 C 5.208,1.183 2.684,0 0,0"
             style="fill:#ffdb8c;fill-opacity:1;fill-rule:nonzero;stroke:none"
             id="path5353" /></g><g
           id="g5355"
           transform="translate(101.0957,502.0049)"><path
             d="m 0,0 91.003,-32.745 v -38.661 c 0,-57.92 -36.437,-109.577 -91,-129.011 -54.562,19.434 -91,71.091 -91,129.011 v 38.661 L 0.007,0"
             style="fill:none;stroke:#ffab68;stroke-width:20;stroke-linecap:round;stroke-linejoin:round;stroke-miterlimit:10;stroke-dasharray:none;stroke-opacity:1"
             id="path5357" /></g><g
           id="g5359"
           transform="translate(371.1455,421.6748)"><path
             d="m 0,0 h 10.717 c 24.914,0 48.204,-12.363 62.164,-33 l 3.416,-5.05 c 5.291,-7.821 14.119,-12.508 23.562,-12.508 h 14.439 c 9.144,0 16.556,-7.412 16.556,-16.556 v -17.564 c 0,-24.271 -19.675,-43.946 -43.945,-43.946 H 63.901 c -11.068,0 -21.935,2.95 -31.483,8.548"
             style="fill:none;stroke:#ffab68;stroke-width:20;stroke-linecap:round;stroke-linejoin:round;stroke-miterlimit:10;stroke-dasharray:none;stroke-opacity:1"
             id="path5361" /></g><g
           id="g5363"
           transform="translate(342.9961,306.542)"><path
             d="m 0,0 v 0 c 21.143,0 38.283,17.14 38.283,38.283 v 76.85 h -20.69 c -30.86,0 -55.876,-25.017 -55.876,-55.877 V 38.283 C -38.283,17.14 -21.143,0 0,0 Z"
             style="fill:none;stroke:#ffab68;stroke-width:20;stroke-linecap:round;stroke-linejoin:round;stroke-miterlimit:10;stroke-dasharray:none;stroke-opacity:1"
             id="path5365" /></g><g
           id="g5367"
           transform="translate(328.8174,308.9512)"><path
             d="M 0,0 C -14.145,-24.72 -33.552,-45.912 -56.748,-62.132"
             style="fill:none;stroke:#ffab68;stroke-width:20;stroke-linecap:round;stroke-linejoin:round;stroke-miterlimit:10;stroke-dasharray:none;stroke-opacity:1"
             id="path5369" /></g><g
           id="g5371"
           transform="translate(306.1318,50.0938)"><path
             d="m 0,0 c 17.492,10.021 29.342,28.937 29.342,50.541 0,32.105 -26.026,58.131 -58.131,58.131 -1.043,0 -2.08,-0.027 -3.109,-0.082"
             style="fill:none;stroke:#ffab68;stroke-width:20;stroke-linecap:round;stroke-linejoin:round;stroke-miterlimit:10;stroke-dasharray:none;stroke-opacity:1"
             id="path5373" /></g><g
           id="g5375"
           transform="translate(305.9546,50.0938)"><path
             d="m 0,0 h 18.832 c 16.774,0 30.379,-13.583 30.407,-30.357 l 0.015,-9.742 h -99.209"
             style="fill:none;stroke:#ffab68;stroke-width:20;stroke-linecap:round;stroke-linejoin:round;stroke-miterlimit:10;stroke-dasharray:none;stroke-opacity:1"
             id="path5377" /></g><g
           id="g5379"
           transform="translate(428.9453,293.0508)"><path
             d="m 0,0 c 4.927,-12.839 7.627,-26.781 7.627,-41.354 0,-30.033 -11.466,-57.386 -30.26,-77.922 l 0.008,-0.007 -0.002,-37.261 -0.065,-86.413 H -3.86 c 16.774,0 30.379,-13.583 30.406,-30.357 l 0.016,-9.742 H -83.646"
             style="fill:none;stroke:#ffab68;stroke-width:20;stroke-linecap:round;stroke-linejoin:round;stroke-miterlimit:10;stroke-dasharray:none;stroke-opacity:1"
             id="path5381" /></g><g
           id="g5383"
           transform="translate(406.2529,50.0938)"><path
             d="M 0,0 H -8.23"
             style="fill:none;stroke:#ffab68;stroke-width:20;stroke-linecap:round;stroke-linejoin:round;stroke-miterlimit:10;stroke-dasharray:none;stroke-opacity:1"
             id="path5385" /></g><g
           id="g5387"
           transform="translate(245.8696,50.1719)"><path
             d="m 0,0 c 3.206,5.542 5.937,11.431 8.129,17.622 7.847,22.155 13.805,44.935 17.81,68.094 4.549,26.3 -2.612,53.273 -19.605,73.854"
             style="fill:none;stroke:#ffab68;stroke-width:20;stroke-linecap:round;stroke-linejoin:round;stroke-miterlimit:10;stroke-dasharray:none;stroke-opacity:1"
             id="path5389" /></g><g
           id="g5391"
           transform="translate(165.3052,212.6943)"><path
             d="m 0,0 -88.481,-24.251 c -39.464,-10.817 -66.824,-46.685 -66.824,-87.603 v -0.001 c 0,-50.166 40.668,-90.834 90.834,-90.834 h 91.364"
             style="fill:none;stroke:#ffab68;stroke-width:20;stroke-linecap:round;stroke-linejoin:round;stroke-miterlimit:10;stroke-dasharray:none;stroke-opacity:1"
             id="path5393" /></g><g
           id="g5395"
           transform="translate(204.9834,50.1719)"><path
             d="m 0,0 c 0.127,25.664 5.904,50.99 16.923,74.177 l 2.557,5.38"
             style="fill:none;stroke:#ffab68;stroke-width:20;stroke-linecap:round;stroke-linejoin:round;stroke-miterlimit:10;stroke-dasharray:none;stroke-opacity:1"
             id="path5397" /></g><g
           id="g5399"
           transform="translate(123.6665,50.0049)"><path
             d="m 0,0 h 158.081 c 11.045,0 20,-8.954 20,-20 0,-11.046 -8.955,-20 -20,-20 H 68.532"
             style="fill:none;stroke:#ffab68;stroke-width:20;stroke-linecap:round;stroke-linejoin:round;stroke-miterlimit:10;stroke-dasharray:none;stroke-opacity:1"
             id="path5401" /></g><g
           id="g5403"
           transform="translate(259.3799,284.1758)"><path
             d="m 0,0 c 1.193,4.172 2.029,8.523 2.383,13.017 0.629,7.99 -0.195,15.757 -2.249,23.046 -11.19,-3.368 -21.19,-9.658 -29.058,-18.035 l -40.067,0.016 c -7.866,8.369 -17.861,14.653 -29.043,18.019 -2.053,-7.288 -2.878,-15.056 -2.248,-23.046 0.352,-4.479 1.148,-8.816 2.335,-12.975 -7.523,-9.155 -12.041,-20.874 -12.041,-33.648 0,-29.294 23.747,-53.041 53.041,-53.041 h 15.912 c 29.294,0 53.041,23.747 53.041,53.041 C 12.006,-20.831 7.523,-9.156 0,0 Z"
             style="fill:none;stroke:#ffab68;stroke-width:20;stroke-linecap:round;stroke-linejoin:round;stroke-miterlimit:10;stroke-dasharray:none;stroke-opacity:1"
             id="path5405" /></g><g
           id="g5407"
           transform="translate(112.8921,141.2686)"><path
             d="m 0,0 c 27.87,0 50.462,-22.593 50.462,-50.463 0,-16.669 -8.086,-31.444 -20.545,-40.634"
             style="fill:none;stroke:#ffab68;stroke-width:20;stroke-linecap:round;stroke-linejoin:round;stroke-miterlimit:10;stroke-dasharray:none;stroke-opacity:1"
             id="path5409" /></g></g></g></g></svg>
