<?xml version="1.0" encoding="UTF-8"?>
<svg xmlns="http://www.w3.org/2000/svg" xmlns:xlink="http://www.w3.org/1999/xlink" version="1.1" id="Capa_1" x="0px" y="0px" viewBox="0 0 512 512" style="enable-background:new 0 0 512 512;" xml:space="preserve" width="512" height="512">
<g>
	<g>
		<g>
			<path style="fill:#516980;" d="M23.222,259.744c14.328,36.501,24.049,74.27,19.859,109.078&#10;&#9;&#9;&#9;&#9;c-1.528,12.695,7.015,24.482,19.544,27.089c50.965,10.606,116.666,8.566,148.114,2.287&#10;&#9;&#9;&#9;&#9;c4.807-11.171-51.902-128.383-89.243-175.15C115.036,214.957,19.668,250.69,23.222,259.744z"/>
			<path style="fill:#FF97C1;" d="M303.058,276.401c32.161,33.658,0,151.952,0,151.952l-14.964,53.262h-99.086&#10;&#9;&#9;&#9;&#9;c-7.82-15.836-17.86-41.912-18.21-74.902c-0.75-71.325,44.4-119.282,55.36-130.312&#10;&#9;&#9;&#9;&#9;C226.159,276.401,284.001,256.457,303.058,276.401z"/>
			<path style="fill:#FF71A8;" d="M189.009,481.615h-57.93c-11.62,0-21.04-9.411-21.04-21.021v-68.178&#10;&#9;&#9;&#9;&#9;c0-29.763,11.22-56.918,29.68-77.45c21.94,1.708,43.89,3.417,65.84,5.125c-8.55,20.461-18.62,51.323-21.13,89.908&#10;&#9;&#9;&#9;&#9;C182.659,437.235,185.089,461.473,189.009,481.615z"/>
			<g>
				<path style="fill:#FF7E27;" d="M392.398,481.615h17.43c11.62,0,21.04-9.411,21.04-21.021v-67.419&#10;&#9;&#9;&#9;&#9;&#9;c0-40.023-28.254-73.45-65.922-81.46c-4.867,7.902-29.497,49.667-16.166,101.775&#10;&#9;&#9;&#9;&#9;&#9;C358.507,451.509,383.029,473.875,392.398,481.615z"/>
				<path style="fill:#FFC7A4;" d="M392.398,431.081v50.534h-39.34c-5.044-10.07-13.921-31.371-11.834-58.844&#10;&#9;&#9;&#9;&#9;&#9;c1.177-15.498,5.464-27.96,9.234-36.45C373.878,387.84,392.398,407.292,392.398,431.081z"/>
				<path style="fill:#FF6E02;" d="M364.946,311.716c-3.099,10.638-6.026,22.273-8.534,34.836&#10;&#9;&#9;&#9;&#9;&#9;c-2.834,14.198-4.724,27.529-5.954,39.77c-8.833,7.753-22.283,21.495-32.859,42.263c-10.962,21.525-14.039,41.17-14.99,53.031&#10;&#9;&#9;&#9;&#9;&#9;h-14.514c-13.231,0-23.956-10.726-23.956-23.956v-64.483c0-35.448,22.17-65.72,53.41-77.739&#10;&#9;&#9;&#9;&#9;&#9;C333.348,314.196,349.147,312.956,364.946,311.716z"/>
				<path style="fill:#FFAA75;" d="M353.058,481.615h-50.45v-50.534c0-24.778,20.1-44.859,44.9-44.859c0.99,0,1.98,0.03,2.95,0.1&#10;&#9;&#9;&#9;&#9;&#9;c-1.03,10.52-1.68,21.7-1.79,33.48C348.448,442.68,350.288,463.452,353.058,481.615z"/>
			</g>
			<ellipse style="fill:#FFD4BD;" cx="50.167" cy="246.709" rx="40.732" ry="40.695"/>
			<path style="fill:#FFD4BD;" d="M301.718,195.315c0,59.866-40.81,110.22-96.159,124.777&#10;&#9;&#9;&#9;&#9;c-11.491-20.272-24.874-49.794-31.31-87.242c-13.154-76.535,10.958-138.184,23.03-164.19&#10;&#9;&#9;&#9;&#9;C259.047,90.468,301.718,141.561,301.718,195.315z"/>
			<path style="fill:#FFBF9D;" d="M205.559,320.092c-10.52,2.767-21.57,4.246-32.97,4.246c-71.319,0-129.139-57.767-129.139-129.023&#10;&#9;&#9;&#9;&#9;c0-84.052,95.752-144.655,129.139-129.013c12.896,6.042,17.855,24.104,19.66,42.172c-6.196,20.688-11.933,47.683-12.781,79.475&#10;&#9;&#9;&#9;&#9;C177.906,246.523,193.698,292.914,205.559,320.092z"/>
			<path style="fill:#5B778F;" d="M332.028,162.275c-67.89,0.43-139.779-53.801-139.779-53.801c-0.04,0.16-0.08,0.33-0.12,0.49&#10;&#9;&#9;&#9;&#9;c-2.482-6.287-7.374-21.157-4.199-39.94c2.985-17.665,11.552-29.602,15.829-34.842&#10;&#9;&#9;&#9;&#9;C262.119,47.899,323.168,97.544,332.028,162.275z"/>
			<path style="fill:#FFD4BD;" d="M454.819,389.991l-6.607,3.416c-15.788,8.161-35.209,1.99-43.378-13.784&#10;&#9;&#9;&#9;&#9;c-8.169-15.774-1.992-35.178,13.796-43.339l6.607-3.416c15.788-8.161,35.209-1.99,43.378,13.784&#10;&#9;&#9;&#9;&#9;C476.784,362.426,470.607,381.829,454.819,389.991z"/>
			<path style="fill:#FF6E02;" d="M300.935,133.735c0,0-37.259,34.538-15.149,86.949c8.332,19.75,96.353-17.315,88.021-37.065&#10;&#9;&#9;&#9;&#9;C351.698,131.208,300.935,133.735,300.935,133.735z"/>
			<path style="fill:#FF7E27;" d="M503.618,198.806c0,0,10.147,49.757-38.383,79.49c-18.287,11.204-68.221-70.151-49.934-81.355&#10;&#9;&#9;&#9;&#9;C463.831,167.208,503.618,198.806,503.618,198.806z"/>
			<path style="fill:#516980;" d="M203.759,34.181c-4.43,20.371-8.82,45.578-11.63,74.782&#10;&#9;&#9;&#9;&#9;c-20,82.535-137.409,125.856-180.279,123.917c-2.8-12.049-4.35-24.658-4.35-37.566c0-91.087,73.91-164.93,165.089-164.93&#10;&#9;&#9;&#9;&#9;C182.669,30.385,193.169,31.694,203.759,34.181z"/>
			<path style="fill:#FFD4BD;" d="M336.058,389.439c-7.23-12.948-22.41-19.392-36.68-15.316&#10;&#9;&#9;&#9;&#9;c-29.974,7.934-67.527,2.567-95.579-12.648c-12.618-6.844-28.209-4.699-38.359,5.451c-15.229,15.228-11.584,40.883,7.353,51.14&#10;&#9;&#9;&#9;&#9;c43.226,23.414,99.692,30.446,143.985,17.941C336.738,430.352,346.158,407.542,336.058,389.439z"/>
			<path style="fill:#FF8C42;" d="M468.637,291.778c-11.208,40.537-60.445,62.645-111.519,51.31&#10;&#9;&#9;&#9;&#9;c-3.846-14.698-9.648-46.88,1.355-85.586c9.809-34.3,28.445-56.882,38.654-67.661&#10;&#9;&#9;&#9;&#9;C448.188,205.666,480.037,250.595,468.637,291.778z"/>
			<path style="fill:#FF7E27;" d="M397.128,189.84c-8.18,15.955-16.12,34.359-22.77,55.15c-12.33,38.545-16.329,72.85-17.239,98.098&#10;&#9;&#9;&#9;&#9;c-2.137-0.374-5.217-1.296-6.131-1.515c-6.41-1.768-12.53-3.986-18.32-6.604c-42.43-19.143-67.319-59.326-57.049-96.472&#10;&#9;&#9;&#9;&#9;c11.68-42.212,64.35-64.511,117.649-49.795c1.02,0.28,2.04,0.579,3.04,0.889C396.578,189.67,396.858,189.76,397.128,189.84z"/>
		</g>
	</g>
	<g>
		<path style="fill:none;stroke:#000000;stroke-width:15;stroke-linecap:round;stroke-linejoin:round;stroke-miterlimit:10;" d="&#10;&#9;&#9;&#9;M336.058,389.439c-7.23-12.948-22.41-19.392-36.68-15.316c-29.974,7.934-67.527,2.567-95.579-12.648&#10;&#9;&#9;&#9;c-12.618-6.844-28.209-4.699-38.359,5.451c-15.229,15.228-11.584,40.883,7.353,51.14c43.226,23.414,99.692,30.446,143.985,17.941&#10;&#9;&#9;&#9;C336.738,430.352,346.158,407.542,336.058,389.439z"/>
		<path style="fill:none;stroke:#000000;stroke-width:15;stroke-linecap:round;stroke-linejoin:round;stroke-miterlimit:10;" d="&#10;&#9;&#9;&#9;M32.204,284.924c9.058,28.469,14.108,57.117,10.875,84c-1.528,12.707,7.015,24.504,19.544,27.114&#10;&#9;&#9;&#9;c14.95,3.114,31.167,5.139,47.417,6.287"/>
		<path style="fill:none;stroke:#000000;stroke-width:15;stroke-linecap:round;stroke-linejoin:round;stroke-miterlimit:10;" d="&#10;&#9;&#9;&#9;M74.555,279.326c-6.799,5.092-15.243,8.107-24.391,8.107c-22.496,0-40.732-18.236-40.732-40.732c0-4.86,0.851-9.521,2.413-13.843"/>
		
			<line style="fill:none;stroke:#000000;stroke-width:15;stroke-linecap:round;stroke-linejoin:round;stroke-miterlimit:10;" x1="285.18" y1="481.819" x2="191.722" y2="481.819"/>
		<path style="fill:none;stroke:#000000;stroke-width:15;stroke-linecap:round;stroke-linejoin:round;stroke-miterlimit:10;" d="&#10;&#9;&#9;&#9;M156.722,481.819h-25.645c-11.619,0-21.038-9.419-21.038-21.038v-68.236c0-27.825,9.787-53.365,26.106-73.364"/>
		<path style="fill:none;stroke:#000000;stroke-width:15;stroke-linecap:round;stroke-linejoin:round;stroke-miterlimit:10;" d="&#10;&#9;&#9;&#9;M275.649,273.08c-23.575,31.175-60.968,51.32-103.066,51.32c-60.005,0-110.451-40.926-124.948-96.388"/>
		<path style="fill:none;stroke:#000000;stroke-width:15;stroke-linecap:round;stroke-linejoin:round;stroke-miterlimit:10;" d="&#10;&#9;&#9;&#9;M244.037,49.04c-23.397-12.083-48.502-18.859-71.454-18.859C81.41,30.181,7.5,104.091,7.5,195.263&#10;&#9;&#9;&#9;c0,12.917,1.543,25.533,4.349,37.596c42.951,1.937,160.734-41.587,180.397-124.518c0,0,42.948,32.423,93.8,46.954"/>
		<path style="fill:none;stroke:#000000;stroke-width:15;stroke-linecap:round;stroke-linejoin:round;stroke-miterlimit:10;" d="&#10;&#9;&#9;&#9;M326.081,137.835c-9.824-27.712-29.096-51.694-52.552-69.944"/>
		<path style="fill:none;stroke:#000000;stroke-width:15;stroke-linecap:round;stroke-linejoin:round;stroke-miterlimit:10;" d="&#10;&#9;&#9;&#9;M430.869,397.027v63.754c0,11.619-9.419,21.039-21.039,21.039H285.18c-11.619,0-21.039-9.419-21.039-21.039V442.03"/>
		<path style="fill:none;stroke:#000000;stroke-width:15;stroke-linecap:round;stroke-linejoin:round;stroke-miterlimit:10;" d="&#10;&#9;&#9;&#9;M265.597,377.706c4.727-24.982,20.601-46.022,42.254-57.753"/>
		<path style="fill:none;stroke:#000000;stroke-width:15;stroke-linecap:round;stroke-linejoin:round;stroke-miterlimit:10;" d="&#10;&#9;&#9;&#9;M441.297,329.357c11.18,0.452,21.808,6.728,27.318,17.376c8.169,15.788,1.992,35.21-13.796,43.379l-6.607,3.419&#10;&#9;&#9;&#9;c-15.788,8.169-35.209,1.992-43.378-13.796c-6.367-12.305-4.02-26.816,4.8-36.488"/>
		<path style="fill:none;stroke:#000000;stroke-width:15;stroke-linecap:round;stroke-linejoin:round;stroke-miterlimit:10;" d="&#10;&#9;&#9;&#9;M335.162,388.06c3.921-1.119,8.062-1.718,12.343-1.718c24.795,0,44.896,20.101,44.896,44.896v50.581"/>
		
			<line style="fill:none;stroke:#000000;stroke-width:15;stroke-linecap:round;stroke-linejoin:round;stroke-miterlimit:10;" x1="302.609" y1="481.819" x2="302.609" y2="439.275"/>
		<path style="fill:none;stroke:#000000;stroke-width:15;stroke-linecap:round;stroke-linejoin:round;stroke-miterlimit:10;" d="&#10;&#9;&#9;&#9;M374.234,184.958c-0.092-0.477-0.233-0.946-0.427-1.405c-22.11-52.459-72.872-49.93-72.872-49.93s-36.326,33.704-15.957,85.054"/>
		<path style="fill:none;stroke:#000000;stroke-width:15;stroke-linecap:round;stroke-linejoin:round;stroke-miterlimit:10;" d="&#10;&#9;&#9;&#9;M415.301,196.887c48.53-29.76,88.317,1.867,88.317,1.867s9.327,45.778-32.671,75.781"/>
		
			<ellipse transform="matrix(0.2663 -0.9639 0.9639 0.2663 17.4533 553.2223)" style="fill:none;stroke:#000000;stroke-width:15;stroke-linecap:round;stroke-linejoin:round;stroke-miterlimit:10;" cx="372.13" cy="265.146" rx="79.373" ry="100.125"/>
		<g>
			<path style="fill:none;stroke:#000000;stroke-width:15;stroke-linecap:round;stroke-linejoin:round;stroke-miterlimit:10;" d="&#10;&#9;&#9;&#9;&#9;M145.804,241.273c-2.42-6.494-9.646-9.797-16.14-7.377c-6.494,2.42-9.797,9.646-7.377,16.14"/>
			<path style="fill:none;stroke:#000000;stroke-width:15;stroke-linecap:round;stroke-linejoin:round;stroke-miterlimit:10;" d="&#10;&#9;&#9;&#9;&#9;M227.398,210.87c-2.42-6.494,0.883-13.721,7.377-16.14c6.494-2.42,13.721,0.883,16.141,7.377"/>
			<path style="fill:none;stroke:#000000;stroke-width:15;stroke-linecap:round;stroke-linejoin:round;stroke-miterlimit:10;" d="&#10;&#9;&#9;&#9;&#9;M179.249,244.463c4.33,2.35,9.612,2.89,14.591,1.035c4.979-1.855,8.62-5.72,10.356-10.33"/>
		</g>
		<g>
			<g>
				<g>
					<path style="fill:none;stroke:#000000;stroke-width:15;stroke-linecap:round;stroke-miterlimit:10;" d="M368.733,272.497&#10;&#9;&#9;&#9;&#9;&#9;&#9;c-2.33,6.452-9.45,9.792-15.901,7.462s-9.793-9.45-7.462-15.901"/>
					<path style="fill:none;stroke:#000000;stroke-width:15;stroke-linecap:round;stroke-miterlimit:10;" d="M392.097,280.936&#10;&#9;&#9;&#9;&#9;&#9;&#9;c-2.33,6.452-9.45,9.793-15.901,7.462c-6.452-2.33-9.793-9.45-7.462-15.901"/>
				</g>
			</g>
			<path style="fill:none;stroke:#000000;stroke-width:15;stroke-linecap:round;stroke-linejoin:round;stroke-miterlimit:10;" d="&#10;&#9;&#9;&#9;&#9;M333.589,249.009c2.219-6.143-0.962-12.923-7.106-15.142c-6.143-2.219-12.923,0.962-15.142,7.106"/>
			<path style="fill:none;stroke:#000000;stroke-width:15;stroke-linecap:round;stroke-linejoin:round;stroke-miterlimit:10;" d="&#10;&#9;&#9;&#9;&#9;M410.775,276.889c2.219-6.143,8.998-9.325,15.142-7.106c6.143,2.219,9.325,8.998,7.106,15.142"/>
		</g>
	</g>
</g>















</svg>
