<svg id="Capa_1" enable-background="new 0 0 512 512" height="512" viewBox="0 0 512 512" width="512" xmlns="http://www.w3.org/2000/svg"><g><path d="m512 256c0 52.84-16.02 101.95-43.46 142.73-45.96 68.32-379.12 68.32-425.08 0-27.44-40.78-43.46-89.89-43.46-142.73 0-141.38 114.62-256 256-256s256 114.62 256 256z" fill="#c8effe"/><path d="m354.451 109.505h-196.908v-61.304c0-25.644 20.863-46.507 46.507-46.507h103.893c25.644 0 46.507 20.863 46.507 46.507v61.304zm-176.908-20h156.908v-41.304c0-14.616-11.891-26.507-26.507-26.507h-103.894c-14.616 0-26.507 11.891-26.507 26.507z" fill="#925cb4"/><g fill="#6354b1"><path d="m320.743 21.694h-12.8c14.616 0 26.507 11.891 26.507 26.507v41.304h12.8v-41.304c.001-14.616-11.891-26.507-26.507-26.507z"/><path d="m216.85 1.694h-12.8c-25.644 0-46.507 20.863-46.507 46.507v61.304h12.8v-61.304c0-25.644 20.863-46.507 46.507-46.507z"/></g><g><path d="m468.54 398.73c-45.96 68.32-124 113.27-212.54 113.27h-110.81c-59.45 0-106.37-50.52-101.99-109.8l.26-3.47 18.05-244.3c3.94-53.41 48.43-94.73 101.99-94.73h185c53.56 0 98.05 41.32 101.99 94.73z" fill="#fee45a"/><path d="m229.308 511.998h-84.119c-59.452 0-106.368-50.514-101.995-109.802l18.312-247.762c3.937-53.416 48.425-94.74 101.986-94.74h84.129c-53.561 0-98.049 41.324-101.995 94.74l-18.302 247.762c-4.384 59.288 42.542 109.802 101.984 109.802z" fill="#ffc344"/><circle cx="255.265" cy="317.838" fill="#fe9738" r="168.326"/><path d="m398.991 317.838c0 52.884-28.556 99.093-71.089 124.041-21.31 12.517-46.142 19.685-72.637 19.685-10.379 0-20.498-1.103-30.248-3.202-14.684-3.134-28.536-8.522-41.179-15.777-43.201-24.783-72.298-71.37-72.298-124.747 0-79.379 64.347-143.726 143.726-143.726s143.725 64.347 143.725 143.726z" fill="#423d45"/><circle cx="352.352" cy="282.809" fill="#625d66" r="18.692"/><circle cx="312.801" cy="229.405" fill="#625d66" r="26.827"/><path d="m294.597 456.118c-12.498 3.55-25.692 5.446-39.332 5.446-79.379 0-143.726-64.347-143.726-143.726s64.347-143.726 143.726-143.726c13.639 0 26.834 1.896 39.332 5.446-60.255 17.102-104.394 72.54-104.394 138.28s44.139 121.178 104.394 138.28z" fill="#29262b"/><g><path d="m327.905 441.884c-21.31 12.52-46.14 19.68-72.64 19.68-26 0-50.39-6.9-71.43-18.97l5.74-15.41c.76.47 1.53.92 2.3 1.36 11.22 6.44 23.52 11.22 36.55 14.01 8.65 1.86 17.63 2.84 26.84 2.84 23.52 0 45.55-6.36 64.46-17.47.82-.48 1.63-.97 2.43-1.47z" fill="#dedbee"/><g><g><path d="m354.97 229.41-8.77 101.44c-28.01 0-41.96-22.71-41.96-50.72 0-8.69 2.19-16.87 6.04-24.02 6.17-11.47 16.64-20.28 29.24-24.3 4.87-1.56 10.06-2.4 15.45-2.4z" fill="#dedbee"/><path d="m339.52 231.81c-1.21 13.69-12.71 24.42-26.72 24.42-.85 0-1.69-.04-2.52-.12 6.17-11.47 16.64-20.28 29.24-24.3z" fill="#f9f7f8"/><path d="m354.97 229.41v101.44l-35.43-40.66z" fill="#ed3554"/><path d="m354.97 264.31v37c-.85.13-1.73.19-2.62.19-10.32 0-18.69-8.37-18.69-18.69s8.37-18.69 18.69-18.69c.89 0 1.77.06 2.62.19z" fill="#ff4760"/></g><g><path d="m157.037 229.405c28.013 0 50.722 22.709 50.722 50.722s-10.731 50.722-38.744 50.722z" fill="#f9f7f8"/><path d="m157.037 229.405 35.428 60.789-35.428 40.655z" fill="#ff4760"/></g></g><path d="m366.54 341.49c0-15.1-4.23-29.21-11.57-41.21-5.36-8.76-12.37-16.41-20.62-22.49-10.56-7.79-23.12-13.02-36.78-14.77-3.32-.43-6.71-.65-10.14-.65h-62.86c-3.43 0-6.81.22-10.14.65-17.79 2.27-33.74 10.46-45.8 22.53-14.31 14.32-23.17 34.09-23.17 55.94 0 32.956 20.158 61.201 48.812 73.096l-10.435 27.999c21.039 12.072 45.426 18.979 71.428 18.979 26.495 0 51.327-7.168 72.637-19.686l-10.174-27.294c9.66-4.01 18.36-9.868 25.642-17.145 14.32-14.319 23.17-34.099 23.17-55.949z" fill="#f9f7f8"/><path d="m197.995 341.49c0-21.849 8.858-41.632 23.172-55.946 14.32-14.314 34.102-23.172 55.946-23.172h-52.539c-21.844 0-41.626 8.858-55.946 23.172-14.314 14.314-23.172 34.096-23.172 55.946 0 32.957 20.16 61.2 48.816 73.094l-10.436 28.001c12.643 7.255 26.495 12.643 41.179 15.777l3.346-37.755h48.751c-43.692.001-79.117-35.424-79.117-79.117z" fill="#dedbee"/><path d="m354.97 300.28v1.03c-.85.13-1.73.19-2.62.19-10.32 0-18.69-8.37-18.69-18.69 0-1.74.24-3.42.69-5.02 8.25 6.08 15.26 13.73 20.62 22.49z" fill="#fff"/><g><circle cx="199.201" cy="318.305" fill="#423d45" r="16.803"/><path d="m204.738 334.171c-1.736.609-3.598.937-5.537.937-9.279 0-16.803-7.524-16.803-16.803 0-9.285 7.524-16.803 16.803-16.803 1.939 0 3.801.328 5.537.937-6.558 2.285-11.266 8.521-11.266 15.866.001 7.339 4.709 13.581 11.266 15.866z" fill="#29262b"/><circle cx="312.801" cy="318.305" fill="#423d45" r="16.803"/><path d="m318.338 334.171c-1.736.609-3.598.937-5.537.937-9.279 0-16.803-7.524-16.803-16.803 0-9.285 7.524-16.803 16.803-16.803 1.939 0 3.801.328 5.537.937-6.558 2.285-11.266 8.521-11.266 15.866.001 7.339 4.709 13.581 11.266 15.866z" fill="#29262b"/></g><path d="m270.664 371.978c-5.766 0-10.977-2.427-14.662-6.313-3.686 3.886-8.896 6.313-14.662 6.313-11.146 0-20.213-9.068-20.213-20.213 0-3.066 2.485-5.551 5.551-5.551s5.551 2.485 5.551 5.551c0 5.024 4.087 9.111 9.111 9.111s9.111-4.087 9.111-9.111c0-3.066 2.485-5.551 5.551-5.551s5.551 2.485 5.551 5.551c0 5.024 4.087 9.111 9.111 9.111s9.111-4.087 9.111-9.111c0-3.066 2.485-5.551 5.551-5.551s5.551 2.485 5.551 5.551c0 11.146-9.068 20.213-20.213 20.213z" fill="#d2cfe9"/><g><path d="m277.759 330.466c0 3.944-1.602 7.52-4.186 10.108-2.333 2.333-5.472 3.862-8.961 4.139v.727c0 4.758-3.853 8.611-8.611 8.611s-8.615-3.853-8.615-8.611v-.727c-7.359-.584-13.143-6.745-13.143-14.247 0-3.948 1.597-7.52 4.186-10.108 2.589-2.589 6.16-4.186 10.108-4.186h14.927c7.892-.001 14.295 6.398 14.295 14.294z" fill="#423d45"/><path d="m258.889 353.553c-.905.325-1.874.498-2.888.498-4.758 0-8.615-3.853-8.615-8.611v-.727c-7.359-.584-13.143-6.745-13.143-14.247 0-3.948 1.597-7.52 4.186-10.108 2.589-2.589 6.16-4.186 10.108-4.186h7.624c-2.351 0-4.481 1.597-6.022 4.186s-2.494 6.16-2.494 10.108c0 7.502 3.446 13.663 7.831 14.247v.727c.001 3.745 1.426 6.927 3.413 8.113z" fill="#29262b"/></g></g></g><g fill="#423d45"><g><circle cx="390.029" cy="114.964" r="14.612"/><circle cx="352.352" cy="114.964" r="14.612"/><circle cx="314.675" cy="114.964" r="14.612"/></g><g><circle cx="197.325" cy="114.964" r="14.612"/><circle cx="159.648" cy="114.964" r="14.612"/><circle cx="121.971" cy="114.964" r="14.612"/></g></g></g></svg>