<svg id="Layer_3" enable-background="new 0 0 64 64" height="512" viewBox="0 0 64 64" width="512" xmlns="http://www.w3.org/2000/svg"><g><path d="m47 62h-20c-3.314 0-6-2.686-6-6v-48c0-3.314 2.686-6 6-6h20c3.314 0 6 2.686 6 6v48c0 3.314-2.686 6-6 6z" fill="#8892a0"/><path d="m21 10h32v40h-32z" fill="#8bd2f5"/><path d="m25 16h24v28h-24z" fill="#c7e2fb"/><path d="m25 40.963c.24.009.475.037.718.037 11.201 0 20.282-9.178 20.282-20.5 0-1.548-.184-3.05-.506-4.5h-20.494z" fill="#ebf7fe"/><path d="m21 56v-29-2c0-1.657-1.343-3-3-3s-3 1.343-3 3v8.646c0 2.206-.514 4.381-1.5 6.354s-1.5 4.148-1.5 6.354v4.756c0 .59-.095 1.175-.281 1.735-.46 1.38-1.45 2.521-2.751 3.172l-1.968.983v5h20c-3.314 0-6-2.686-6-6z" fill="#fadfb2"/><circle cx="37" cy="56" fill="#fff" r="2"/><g fill="#fadfb2"><path d="m54 26h-3c-1.657 0-3-1.343-3-3 0-1.657 1.343-3 3-3h3c1.657 0 3 1.343 3 3 0 1.657-1.343 3-3 3z"/><path d="m54 32h-3c-1.657 0-3-1.343-3-3 0-1.657 1.343-3 3-3h3c1.657 0 3 1.343 3 3 0 1.657-1.343 3-3 3z"/><path d="m54 38h-3c-1.657 0-3-1.343-3-3 0-1.657 1.343-3 3-3h3c1.657 0 3 1.343 3 3 0 1.657-1.343 3-3 3z"/><path d="m54 44h-3c-1.657 0-3-1.343-3-3 0-1.657 1.343-3 3-3h3c1.657 0 3 1.343 3 3 0 1.657-1.343 3-3 3z"/></g><g><path d="m35 5h4v2h-4z" fill="#fff"/></g><g><path d="m30 23h-2v-3c0-.553.448-1 1-1h3v2h-2z" fill="#8892a0"/></g><g><path d="m46 23h-2v-2h-2v-2h3c.552 0 1 .447 1 1z" fill="#8892a0"/></g><g><path d="m32 41h-3c-.552 0-1-.447-1-1v-3h2v2h2z" fill="#8892a0"/></g><g><path d="m45 41h-3v-2h2v-2h2v3c0 .553-.448 1-1 1z" fill="#8892a0"/></g><path d="m32 37v-4c0-1.105.895-2 2-2h6c1.105 0 2 .895 2 2v4z" fill="#4472b0"/><path d="m37 21c1.657 0 3 1.343 3 3v2c0 1.657-1.343 3-3 3-1.657 0-3-1.343-3-3v-2c0-1.657 1.343-3 3-3z" fill="#fadfb2"/></g></svg>