<svg id="Layer_1" enable-background="new 0 0 64 64" height="512" viewBox="0 0 64 64" width="512" xmlns="http://www.w3.org/2000/svg" xmlns:xlink="http://www.w3.org/1999/xlink"><linearGradient id="lg1"><stop offset="0" stop-color="#ff9811"/><stop offset="1" stop-color="#ffb655"/></linearGradient><linearGradient id="SVGID_1_" gradientUnits="userSpaceOnUse" x1="28" x2="28" xlink:href="#lg1" y1="54" y2="16"/><linearGradient id="SVGID_2_" gradientUnits="userSpaceOnUse" x1="28" x2="28" y1="54" y2="16"><stop offset="0" stop-color="#ffc477"/><stop offset="1" stop-color="#ffdaaa"/></linearGradient><linearGradient id="SVGID_3_" gradientUnits="userSpaceOnUse" x1="41.5" x2="41.5" xlink:href="#lg1" y1="36" y2="30.999"/><linearGradient id="SVGID_4_" gradientUnits="userSpaceOnUse" x1="42.501" x2="42.501" xlink:href="#lg1" y1="43" y2="38"/><linearGradient id="SVGID_5_" gradientUnits="userSpaceOnUse" x1="59" x2="59" y1="54" y2="44"><stop offset=".0161" stop-color="#ff5023"/><stop offset="1" stop-color="#ff7956"/></linearGradient><linearGradient id="SVGID_6_" gradientUnits="userSpaceOnUse" x1="56.817" x2="56.817" y1="44.217" y2="10"><stop offset="0" stop-color="#a71159"/><stop offset="1" stop-color="#c61469"/></linearGradient><g><g><path d="m55.832 50.445-2-3c-.073-.109-.168-.204-.277-.277l-7.299-4.866 1.061-.354c.251-.083.459-.264.578-.501.043-.087 1.031-2.097 1.102-5.108l2.803-3.739c.228-.303.264-.709.094-1.048-.169-.338-.515-.552-.895-.552 0 0 0 0-.001 0l-3.525.006c-2.575-2.781-7.101-3.006-8.473-3.006-3.298 0-5.918 2.319-7.108 3.592-1.567-1.22-5.329-3.592-10.892-3.592-6.366 0-10.331 1.6-11.248 2.012-.421.018-1.523-.012-2.423-.499-.894-.485-1.329-1.307-1.329-2.513 0-10.47-3.332-11-4-11-.498 0-.92.366-.99.858-.041.289-1.01 7.118-1.01 11.142 0 5.701 4.314 8.176 7.128 8.849l.845 5.071c-.276.839-.973 3.065-.973 4.08 0 4.449 4.221 7.665 4.4 7.8.173.13.383.2.6.2h8c.008.001.016 0 .019 0 .553 0 1-.447 1-1 0-.188-.052-.364-.142-.515-.308-.814-1.5-3.485-3.877-3.485h-1.382l-.276-.553 2.59-1.295c.996.647 1.801 1.112 2.563 1.481 1.119 3.041 3.785 5.076 3.903 5.165.173.132.385.202.602.202h6c.008.001.015 0 .019 0 .553 0 1-.447 1-1 0-.188-.052-.364-.142-.515-.216-.569-.864-2.047-2.047-2.884 2.193-.588 4.091-1.687 5.068-2.32 1.319 1.196 4.417 3.719 7.102 3.719 1.236 0 1.907-.336 2.447-.605.458-.23.789-.395 1.553-.395.525 0 1.581.732 2.43 1.321 1.244.864 2.419 1.679 3.57 1.679 2.347 0 3.575-1.16 3.707-1.293.337-.337.39-.865.125-1.262z" fill="url(#SVGID_1_)"/><path d="m55.832 50.445-2-3c-.073-.109-.168-.204-.277-.277l-7.299-4.866 1.061-.354c.251-.083.459-.264.578-.501.043-.087 1.031-2.097 1.102-5.108l2.803-3.739c.228-.303.264-.709.094-1.048-.169-.338-.515-.552-.895-.552 0 0 0 0-.001 0l-3.525.006c-2.575-2.781-7.101-3.006-8.473-3.006-3.298 0-5.918 2.319-7.108 3.592-1.567-1.22-5.329-3.592-10.892-3.592-6.366 0-10.331 1.6-11.248 2.012-.421.018-1.523-.012-2.423-.499-.894-.485-1.329-1.307-1.329-2.513 0-10.47-3.332-11-4-11-.498 0-.92.366-.99.858-.041.289-1.01 7.118-1.01 11.142 0 5.701 4.314 8.176 7.128 8.849l.845 5.071c-.276.839-.973 3.065-.973 4.08 0 4.449 4.221 7.665 4.4 7.8.173.13.383.2.6.2h8c.008.001.016 0 .019 0 .553 0 1-.447 1-1 0-.188-.052-.364-.142-.515-.308-.814-1.5-3.485-3.877-3.485h-1.382l-.276-.553 2.59-1.295c3.021 1.966 5.165 2.848 9.068 2.848 3.301 0 6.518-1.822 7.899-2.719 1.319 1.196 4.416 3.719 7.101 3.719 1.236 0 1.907-.336 2.447-.605.458-.23.789-.395 1.553-.395.525 0 1.581.732 2.43 1.321 1.244.864 2.419 1.679 3.57 1.679 2.347 0 3.575-1.16 3.707-1.293.337-.337.39-.865.125-1.262z" fill="url(#SVGID_2_)"/><g><path d="m40 36c-.553 0-1-.447-1-1v-3c0-.321.154-.623.415-.811s.597-.241.901-.137l3 1c.523.174.807.74.632 1.265-.174.523-.735.808-1.265.632l-1.683-.561v1.612c0 .553-.447 1-1 1z" fill="url(#SVGID_3_)"/></g><g><path d="m45 43c-.15 0-.303-.034-.446-.105-2.032-1.017-4.982-2.979-5.107-3.062-.46-.307-.584-.927-.277-1.387.306-.46.925-.584 1.387-.277.029.02 2.973 1.978 4.892 2.938.494.247.694.848.447 1.342-.176.349-.529.551-.896.551z" fill="url(#SVGID_4_)"/></g><circle cx="59" cy="49" fill="url(#SVGID_5_)" r="5"/></g><path d="m58.29 44.072c.233-.034.467-.072.71-.072.481 0 .937.09 1.378.217 2.924-7.982-.466-14.35-3.226-19.511-3.091-5.775-4.637-9.225-.483-12.963.41-.369.443-1.002.074-1.412-.369-.411-1.002-.444-1.412-.074-5.521 4.969-2.812 10.032.057 15.393 2.766 5.171 5.878 11.021 2.902 18.422z" fill="url(#SVGID_6_)"/></g></svg>