<?xml version="1.0" encoding="UTF-8"?>
<svg xmlns="http://www.w3.org/2000/svg" xmlns:xlink="http://www.w3.org/1999/xlink" version="1.1" id="Capa_1" x="0px" y="0px" viewBox="0 0 512 512" style="enable-background:new 0 0 512 512;" xml:space="preserve" width="512" height="512">
<g>
	<path style="fill:#FFF0CE;" d="M346.277,371.226c-13.433-5.147-20.151-20.209-15.003-33.642&#10;&#9;&#9;c5.145-13.434,20.209-20.15,33.641-15.004c16.349,6.264,41.526,6.055,60.918-8.528c20.164-15.167,29.139-42.978,25.954-80.43&#10;&#9;&#9;c-1.219-14.333,9.413-26.941,23.746-28.16c14.342-1.208,26.942,9.413,28.16,23.746C514.546,356.83,413.432,396.955,346.277,371.226&#10;&#9;&#9;z"/>
	<path style="fill:#FFDDB9;" d="M458.967,354.179c-0.661-4.156-1.47-8.157-2.248-11.999c-3.033-15.03-8.472-28.885-17.595-42.259&#10;&#9;&#9;c-3.685,5.507-8.117,10.239-13.292,14.131c-19.393,14.584-44.57,14.792-60.918,8.528c-13.432-5.146-28.496,1.57-33.641,15.004&#10;&#9;&#9;c-5.147,13.433,1.57,28.495,15.003,33.642C381.521,384.729,426.11,380.08,458.967,354.179z"/>
	<path style="fill:#E9A982;" d="M503.694,229.209c-1.218-14.333-13.818-24.955-28.16-23.746&#10;&#9;&#9;c-14.334,1.219-24.965,13.827-23.746,28.16c0.724,8.51,0.813,16.516,0.292,23.995c12.781,4.702,32.306,6.97,52.046,1.941&#10;&#9;&#9;C504.71,250.048,504.606,239.945,503.694,229.209z"/>
	<path style="fill:#FFF0CE;" d="M163.872,357.901c-20.959-40.985-4.724-91.2,36.261-112.159&#10;&#9;&#9;c40.985-20.96,91.201-4.724,112.159,36.261c0.326,0.636,0.623,1.172,0.884,1.616c2.568,0.135,7.533,0.011,15.656-1.63&#10;&#9;&#9;c33.852-6.835,67.038,7.877,85.36,34.695c6.107,8.94,0.551,23.418,2.829,34.698c2.159,10.688,7.936,5.054,12.29,13.723&#10;&#9;&#9;c13.932,47.286-33.044,73.33-67.477,80.285C269.085,464.12,199.523,427.619,163.872,357.901z M310.963,283.366L310.963,283.366&#10;&#9;&#9;L310.963,283.366z"/>
	<path style="fill:#FFDDB9;" d="M328.831,281.989c-8.122,1.641-13.088,1.765-15.656,1.63c-0.262-0.444-0.559-0.979-0.884-1.616&#10;&#9;&#9;c-20.958-40.985-71.173-57.221-112.158-36.261c-40.985,20.958-57.22,71.173-36.261,112.159&#10;&#9;&#9;c10.785,21.091,24.679,39.136,41.374,53.537c24.029-10.211,48.577-27.616,72.707-51.746c26.188-26.188,44.314-52.453,54.066-78.283&#10;&#9;&#9;C330.957,281.581,329.895,281.775,328.831,281.989z"/>
	<path style="fill:#FFF0CE;" d="M95.156,232.992c-12.676-0.409-45.595,8.917-73.413,24.592c-14.881,8.385-18.857,28.157-8.319,41.6&#10;&#9;&#9;c16.401,20.923,42.12,42.63,73.617,29.025L95.156,232.992z"/>
	<path style="fill:#FFDDB9;" d="M54.177,330.504c10.014,2.943,21.031,2.817,32.864-2.294l8.115-95.217&#10;&#9;&#9;c-7.515-0.242-22.145,2.937-38.609,8.832C46.541,271.321,45.751,302.403,54.177,330.504z"/>
	<path style="fill:#FFBBD5;" d="M87.041,328.209l3.383-39.701c-46.175-17.702-77.492-1.171-77.001,10.676&#10;&#9;&#9;C29.825,320.107,55.544,341.814,87.041,328.209z"/>
	<path style="fill:#FF96C0;" d="M54.177,330.504c10.014,2.943,21.031,2.817,32.864-2.295l3.383-39.701&#10;&#9;&#9;c-15.89-6.092-30.02-8.129-41.7-7.699C47.594,297.778,49.413,314.617,54.177,330.504z"/>
	<path style="fill:#FFF0CE;" d="M151.253,176.895c-0.409-12.676,8.917-45.595,24.592-73.413c8.385-14.881,28.157-18.857,41.6-8.319&#10;&#9;&#9;c20.923,16.401,42.63,42.12,29.025,73.617L151.253,176.895z"/>
	<path style="fill:#FFDDB9;" d="M248.765,135.916c2.943,10.014,2.817,21.031-2.295,32.864l-95.217,8.115&#10;&#9;&#9;c-0.242-7.515,2.937-22.145,8.832-38.609C189.582,128.28,220.664,127.49,248.765,135.916z"/>
	<path style="fill:#FFBBD5;" d="M246.47,168.78l-39.701,3.384c-17.702-46.175-1.171-77.492,10.676-77.001&#10;&#9;&#9;C238.368,111.564,260.075,137.283,246.47,168.78z"/>
	<path style="fill:#FF96C0;" d="M248.765,135.916c2.943,10.014,2.817,21.031-2.295,32.864l-39.701,3.384&#10;&#9;&#9;c-6.092-15.89-8.129-30.02-7.699-41.7C216.039,129.333,232.878,131.152,248.765,135.916z"/>
	<path style="fill:#FFF0CE;" d="M286.515,183.867c-45.216-45.216-123.148-40.595-174.065,10.322&#10;&#9;&#9;c-50.917,50.917-55.539,128.849-10.322,174.065c45.216,45.216,103.695,21.142,154.612-29.775&#10;&#9;&#9;C307.657,287.562,331.731,229.083,286.515,183.867z"/>
	<circle style="fill:#00D6D3;" cx="352.192" cy="282.522" r="61.48"/>
	<path style="fill:#00BED6;" d="M411.716,297.959c-78.342,14.973-95.124-35.221-87.967-69.938&#10;&#9;&#9;c-19.631,10.267-33.036,30.812-33.036,54.501c0,33.954,27.526,61.48,61.48,61.48C380.815,344.002,404.867,324.441,411.716,297.959z&#10;&#9;&#9;"/>
	<path style="fill:#E9A982;" d="M302.732,389.531c-14.024,3.204-27.99-5.568-31.194-19.592c-4.073-17.827-4.268-46.234,7.396-72.498&#10;&#9;&#9;c5.841-13.147,21.23-19.072,34.378-13.232c13.147,5.839,19.071,21.23,13.233,34.377c-6.934,15.612-5.916,32.332-4.221,39.751&#10;&#9;&#9;C325.527,372.361,316.756,386.327,302.732,389.531z"/>
	<path style="fill:#E9A982;" d="M379.304,379.703c-7.225-24.752-8.534-45.978-4.119-66.801&#10;&#9;&#9;c2.983-14.073,16.814-23.065,30.883-20.078c14.073,2.984,23.062,16.81,20.078,30.883c-2.56,12.076-1.555,25.23,3.164,41.398&#10;&#9;&#9;c4.031,13.809-3.896,28.271-17.705,32.302C397.798,401.439,383.334,393.511,379.304,379.703z"/>
	<path style="fill:#FF6E80;" d="M329.542,98.363c0,25.392,24.679,51.338,50.046,64.589c7.625,3.983,16.748,3.983,24.373,0&#10;&#9;&#9;c25.367-13.251,50.046-39.197,50.046-64.589c0-20.23-16.4-36.63-36.63-36.63c-8.846,0-16.958,3.137-23.288,8.358&#10;&#9;&#9;c-1.34,1.105-3.29,1.105-4.63,0c-6.33-5.221-14.442-8.358-23.288-8.358C345.941,61.733,329.542,78.132,329.542,98.363z"/>
	<path style="fill:#F8475E;" d="M371.179,62.074c-1.637-0.224-3.309-0.341-5.008-0.341c-20.23,0-36.63,16.4-36.63,36.63&#10;&#9;&#9;c0,25.392,24.679,51.338,50.046,64.589c7.625,3.983,16.748,3.983,24.373,0c7.532-3.935,15.004-8.989,21.787-14.815&#10;&#9;&#9;C361.415,141.513,363.185,85.488,371.179,62.074z"/>
	<g>
		<path style="fill:none;stroke:#000000;stroke-width:15;stroke-linecap:round;stroke-linejoin:round;stroke-miterlimit:10;" d="&#10;&#9;&#9;&#9;M271.538,369.939c-4.073-17.827-4.268-46.234,7.396-72.498c5.841-13.147,21.23-19.072,34.378-13.232&#10;&#9;&#9;&#9;c13.147,5.839,19.071,21.23,13.233,34.377c-6.934,15.612-5.916,32.332-4.221,39.751"/>
		<path style="fill:none;stroke:#000000;stroke-width:15;stroke-linecap:round;stroke-linejoin:round;stroke-miterlimit:10;" d="&#10;&#9;&#9;&#9;M329.542,98.363c0,25.392,24.679,51.338,50.046,64.589c7.625,3.983,16.748,3.983,24.373,0&#10;&#9;&#9;&#9;c25.367-13.251,50.046-39.197,50.046-64.589c0-20.23-16.4-36.63-36.63-36.63c-8.846,0-16.958,3.137-23.288,8.358&#10;&#9;&#9;&#9;c-1.34,1.105-3.29,1.105-4.63,0c-6.33-5.221-14.442-8.358-23.288-8.358C345.941,61.733,329.542,78.132,329.542,98.363z"/>
		<path style="fill:none;stroke:#000000;stroke-width:15;stroke-linecap:round;stroke-linejoin:round;stroke-miterlimit:10;" d="&#10;&#9;&#9;&#9;M321.738,335.92c8.98,5.133,19.37,8.081,30.454,8.081c7.189,0,14.085-1.246,20.498-3.514"/>
		<path style="fill:none;stroke:#000000;stroke-width:15;stroke-linecap:round;stroke-linejoin:round;stroke-miterlimit:10;" d="&#10;&#9;&#9;&#9;M412.393,295.044c0.837-4.043,1.279-8.231,1.279-12.522c0-33.954-27.526-61.48-61.48-61.48c-33.955,0-61.48,27.525-61.48,61.48&#10;&#9;&#9;&#9;c0,0.793,0.03,1.578,0.06,2.363"/>
		<path style="fill:none;stroke:#000000;stroke-width:15;stroke-linecap:round;stroke-linejoin:round;stroke-miterlimit:10;" d="&#10;&#9;&#9;&#9;M310.388,237.457c-0.158-18.95-7.43-37.147-23.873-53.591c-45.216-45.216-123.148-40.595-174.065,10.322&#10;&#9;&#9;&#9;c-50.917,50.917-55.539,128.849-10.323,174.065c45.216,45.216,103.695,21.142,154.612-29.775&#10;&#9;&#9;&#9;c5.065-5.065,9.858-10.205,14.35-15.399"/>
		<path style="fill:none;stroke:#000000;stroke-width:15;stroke-linecap:round;stroke-linejoin:round;stroke-miterlimit:10;" d="&#10;&#9;&#9;&#9;M167.191,120.667c-7.52,16.704-12.682,33.41-14.83,45.197"/>
		<path style="fill:none;stroke:#000000;stroke-width:15;stroke-linecap:round;stroke-linejoin:round;stroke-miterlimit:10;" d="&#10;&#9;&#9;&#9;M249.414,159.988c6.553-27.494-13.028-49.977-31.969-64.825c-8.877-6.959-20.514-7.588-29.81-2.928"/>
		<path style="fill:none;stroke:#000000;stroke-width:15;stroke-linecap:round;stroke-linejoin:round;stroke-miterlimit:10;" d="&#10;&#9;&#9;&#9;M217.445,95.163c-10.123-0.42-23.647,22.397-16.33,57.851"/>
		<path style="fill:none;stroke:#000000;stroke-width:15;stroke-linecap:round;stroke-linejoin:round;stroke-miterlimit:10;" d="&#10;&#9;&#9;&#9;M84.125,234.1c-15.878,2.893-40.681,11.257-62.381,23.484c-14.881,8.385-18.857,28.157-8.32,41.6&#10;&#9;&#9;&#9;c14.848,18.941,37.331,38.522,64.825,31.969"/>
		<path style="fill:none;stroke:#000000;stroke-width:15;stroke-linecap:round;stroke-linejoin:round;stroke-miterlimit:10;" d="&#10;&#9;&#9;&#9;M71.275,282.854c-35.454-7.317-58.271,6.207-57.851,16.33"/>
		<path style="fill:none;stroke:#000000;stroke-width:15;stroke-linecap:round;stroke-linejoin:round;stroke-miterlimit:10;" d="&#10;&#9;&#9;&#9;M379.304,379.703c-7.225-24.752-8.534-45.978-4.119-66.801c2.983-14.073,16.814-23.065,30.883-20.078&#10;&#9;&#9;&#9;c14.073,2.984,23.062,16.81,20.078,30.883c-2.56,12.076-1.555,25.23,3.164,41.398"/>
		<path style="fill:none;stroke:#000000;stroke-width:15;stroke-linecap:round;stroke-linejoin:round;stroke-miterlimit:10;" d="&#10;&#9;&#9;&#9;M182.852,387.837c38.79,49.767,100.606,73.38,178.981,57.553c34.433-6.955,81.409-32.999,67.477-80.285"/>
		<path style="fill:none;stroke:#000000;stroke-width:15;stroke-linecap:round;stroke-linejoin:round;stroke-miterlimit:10;" d="&#10;&#9;&#9;&#9;M492.047,311.314c9.731-21.718,14.466-48.96,11.647-82.106c-1.218-14.333-13.818-24.955-28.16-23.746&#10;&#9;&#9;&#9;c-14.334,1.219-24.965,13.827-23.746,28.16c3.159,37.156-5.656,64.818-25.487,80.062"/>
		<path style="fill:none;stroke:#000000;stroke-width:15;stroke-linecap:round;stroke-linejoin:round;stroke-miterlimit:10;" d="&#10;&#9;&#9;&#9;M430.629,370.405c15.549-6.118,30.052-15.726,42.018-29.047"/>
		<path style="fill:none;stroke:#000000;stroke-width:15;stroke-linecap:round;stroke-linejoin:round;stroke-miterlimit:10;" d="&#10;&#9;&#9;&#9;M452.079,257.618c12.781,4.702,32.306,6.97,52.046,1.941"/>
		<g>
			<g>
				
					<line style="fill:none;stroke:#000000;stroke-width:15;stroke-linecap:round;stroke-linejoin:round;stroke-miterlimit:10;" x1="133.81" y1="310.963" x2="142.295" y2="319.448"/>
				
					<line style="fill:none;stroke:#000000;stroke-width:15;stroke-linecap:round;stroke-linejoin:round;stroke-miterlimit:10;" x1="222.125" y1="222.647" x2="230.611" y2="231.132"/>
				<g>
					<path style="fill:none;stroke:#000000;stroke-width:15;stroke-linecap:round;stroke-linejoin:round;stroke-miterlimit:10;" d="&#10;&#9;&#9;&#9;&#9;&#9;&#9;M212.084,259.777c5.645,5.645,5.645,14.798,0,20.443c-5.645,5.645-14.798,5.645-20.443,0c5.645,5.645,5.645,14.798,0,20.443&#10;&#9;&#9;&#9;&#9;&#9;&#9;c-5.645,5.645-14.798,5.645-20.443,0"/>
				</g>
				
					<line style="fill:none;stroke:#000000;stroke-width:15;stroke-linecap:round;stroke-linejoin:round;stroke-miterlimit:10;" x1="191.641" y1="280.221" x2="177.228" y2="265.808"/>
				
					<line style="fill:none;stroke:#000000;stroke-width:15;stroke-linecap:round;stroke-linejoin:round;stroke-miterlimit:10;" x1="173.24" y1="269.796" x2="181.081" y2="261.955"/>
			</g>
		</g>
	</g>
</g>















</svg>
