<svg id="Capa_1" enable-background="new 0 0 512 512" height="512" viewBox="0 0 512 512" width="512" xmlns="http://www.w3.org/2000/svg"><g><path d="m458.007 257.666c-1.824 26.204-10.986 46.064-27.039 58.139-19.979 15.024-45.916 15.239-62.758 8.786-13.838-5.301-29.357 1.618-34.657 15.457-5.303 13.839 1.617 29.356 15.456 34.658 63.364 24.276 156.055-8.371 162.616-115.04-17.899-10.846-39.462-9.696-53.618-2z" fill="#fff0ce"/><path d="m465.103 357.144c-.681-4.281-1.515-8.403-2.315-12.361-3.125-15.484-8.728-29.757-18.126-43.535-3.796 5.674-8.362 10.548-13.693 14.558-19.979 15.024-45.916 15.239-62.758 8.786-13.838-5.301-29.357 1.618-34.657 15.457-5.303 13.839 1.617 29.356 15.456 34.658 36.308 13.91 82.244 9.121 116.093-17.563z" fill="#ffddb9"/><path d="m511.18 228.399c-1.255-14.766-14.235-25.708-29.011-24.464-14.767 1.256-25.719 14.244-24.464 29.011.746 8.767.837 17.015.301 24.72 13.167 4.844 33.282 7.18 53.618 2 .604-9.798.497-20.206-.444-31.267z" fill="#e9a982"/><path d="m161.095 360.979c-21.592-42.223-4.867-93.955 37.356-115.546 42.223-21.593 93.955-4.867 115.546 37.356.335.656.642 1.207.911 1.664 2.646.139 7.761.011 16.129-1.679 34.874-7.041 69.063 8.115 87.939 35.743 6.292 9.21.567 24.125 2.915 35.746 2.224 11.011 8.176 5.207 12.661 14.138 14.353 48.714-34.042 75.545-69.515 82.71-95.551 19.295-167.214-18.309-203.942-90.132z" fill="#fff0ce"/><path d="m331.037 282.774c-8.368 1.69-13.483 1.818-16.129 1.679-.269-.457-.575-1.009-.911-1.664-21.591-42.223-73.323-58.95-115.546-37.356-42.223 21.591-58.949 73.323-37.357 115.546 11.111 21.728 25.424 40.318 42.624 55.154 24.755-10.519 50.044-28.451 74.903-53.309 26.979-26.979 45.652-54.037 55.699-80.648-1.093.178-2.188.377-3.283.598z" fill="#ffddb9"/><path d="m205.288 169.631c10.998-39.666 14.609-60.089 10.998-79.326-13.849-10.856-34.218-6.76-42.857 8.571-16.148 28.658-25.756 62.571-25.335 75.63z" fill="#fff0ce"/><path d="m205.288 169.631c4.887-17.626 8.311-31.446 10.296-43.057-19.324-1.071-39.183 1.641-58.39 8.157-6.073 16.961-9.349 32.033-9.099 39.775z" fill="#ffddb9"/><path d="m248.552 132.289c-5.038-17.144-18.809-31.435-32.266-41.984-8.004-.332-18.084 13.433-18.929 36.367 14.592 9.502 35.835 11.188 51.195 5.617z" fill="#ffbbd5"/><path d="m248.552 132.289c3.032 10.317 2.902 21.666-2.364 33.857l-40.9 3.486c-6.276-16.37-8.375-30.927-7.931-42.96 17.481-1.165 34.828.709 51.195 5.617z" fill="#ff96c0"/><path d="m85.429 289.49c-39.666 10.998-60.089 14.609-79.326 10.998-10.856-13.849-6.76-34.218 8.571-42.857 28.658-16.148 62.571-25.756 75.63-25.335z" fill="#fff0ce"/><path d="m85.429 289.49c-17.626 4.887-31.446 8.312-43.057 10.296-1.071-19.324 1.641-39.183 8.156-58.39 16.961-6.073 32.033-9.349 39.775-9.099z" fill="#ffddb9"/><path d="m48.087 332.754c-17.144-5.038-31.435-18.809-41.984-32.266-.332-8.004 13.433-18.084 36.367-18.929 9.502 14.593 11.188 35.835 5.617 51.195z" fill="#ffbbd5"/><path d="m48.087 332.754c10.317 3.031 21.666 2.902 33.857-2.364l3.486-40.9c-16.37-6.276-30.927-8.375-42.96-7.931-1.165 17.481.709 34.828 5.617 51.195z" fill="#ff96c0"/><path d="m287.442 181.688c-46.582-46.582-126.867-41.821-179.322 10.634s-57.216 132.74-10.634 179.322 106.827 21.78 159.282-30.674 77.256-112.7 30.674-159.282z" fill="#fff0ce"/><g><g><g fill="#425460"><path d="m133.563 326.667-8.741-8.742c-2.929-2.929-2.929-7.678 0-10.607s7.678-2.929 10.606 0l8.741 8.742c2.929 2.929 2.929 7.678 0 10.607-2.928 2.929-7.678 2.93-10.606 0z"/><path d="m224.546 235.684-8.742-8.741c-2.929-2.929-2.929-7.677 0-10.606s7.678-2.93 10.606 0l8.742 8.741c2.929 2.929 2.929 7.677 0 10.607-2.928 2.928-7.677 2.928-10.606-.001z"/><path d="m216.066 254.588c-2.93-2.929-7.678-2.928-10.607.001s-2.928 7.678.001 10.607c2.889 2.888 2.888 7.564 0 10.454-2.889 2.889-7.565 2.889-10.454 0l-14.848-14.848c-2.929-2.929-6.017-1.268-8.945 1.661-2.929 2.929-4.59 6.017-1.661 8.945l14.848 14.848c2.889 2.89 2.889 7.564 0 10.454-2.889 2.888-7.565 2.889-10.454 0-2.93-2.928-7.678-2.929-10.607 0s-2.929 7.678-.001 10.607c8.751 8.751 22.916 8.751 31.667 0 4.039-4.039 6.21-9.251 6.512-14.549 5.298-.302 10.51-2.473 14.549-6.512 8.752-8.752 8.752-22.917 0-31.668z"/></g><path d="m170.746 277.712c-1.919 0-3.839-.732-5.303-2.197-2.929-2.929-2.929-7.678 0-10.606l8.078-8.077c2.929-2.929 7.678-2.929 10.607 0s2.929 7.678 0 10.607l-8.078 8.077c-1.465 1.464-3.385 2.196-5.304 2.196z" fill="#ffbbd5"/></g></g><path d="m416.425 299.226c1.314-5.082 2.015-10.411 2.015-15.904 0-34.98-28.357-63.337-63.337-63.337-10.576 0-20.538 2.606-29.303 7.19-29.205 45.771 1.908 130.576 90.625 72.051z" fill="#00d6d3"/><path d="m416.425 299.226c-80.709 15.426-97.997-36.285-90.624-72.051-20.224 10.577-34.034 31.743-34.034 56.147 0 34.98 28.357 63.337 63.337 63.337 29.486 0 54.265-20.151 61.321-47.433z" fill="#00bed6"/><path d="m304.149 393.564c-14.448 3.3-28.835-5.736-32.136-20.183-4.195-18.365-4.397-47.631 7.62-74.687 6.017-13.545 21.871-19.648 35.416-13.632 13.544 6.015 19.647 21.871 13.633 35.415-7.144 16.083-6.095 33.308-4.349 40.951 3.3 14.448-5.736 28.835-20.184 32.136z" fill="#e9a982"/><path d="m383.034 383.439c-7.443-25.499-8.792-47.367-4.243-68.818 3.073-14.498 17.322-23.761 31.816-20.684 14.497 3.074 23.758 17.318 20.684 31.816-2.637 12.44-1.602 25.992 3.26 42.648 4.153 14.226-4.014 29.125-18.24 33.278-14.225 4.153-29.125-4.015-33.277-18.24z" fill="#e9a982"/><path d="m331.768 93.601c0 26.159 25.425 52.888 51.558 66.54 7.855 4.103 17.254 4.103 25.109 0 26.133-13.652 51.558-40.381 51.558-66.54 0-20.841-16.895-37.736-37.736-37.736-9.113 0-17.471 3.232-23.992 8.611-1.381 1.139-3.389 1.139-4.77 0-6.521-5.379-14.878-8.611-23.992-8.611-20.84 0-37.735 16.895-37.735 37.736z" fill="#ff6e80"/><path d="m374.663 56.216c-1.687-.231-3.409-.351-5.159-.351-20.841 0-37.736 16.895-37.736 37.736 0 26.159 25.425 52.888 51.558 66.54 7.855 4.103 17.254 4.103 25.109 0 7.76-4.054 15.457-9.26 22.444-15.262-66.275-6.824-64.451-64.541-56.216-88.663z" fill="#f8475e"/></g></svg>