<svg id="Layer_4" height="512" viewBox="0 0 300 300" width="512" xmlns="http://www.w3.org/2000/svg" data-name="Layer 4"><path d="m208.18 140.86 2.35.97c-2.26 5.39-3.31 10.17-4.99 15.73-5.84 3.67-9.95 10.53-11.71 17.39l-5.52.3c-3.47-.91-9.01-1.64-12.55-2.23-1.62-3.24 2.96-12.74 7.66-16.6 6.69-3.95 11.29-8.87 14.84-16.39 0 0 8.56.82 9.93.83z" fill="#faa51e"/><path d="m99.8 61.4c-5.79-15.45-24.09-10.17-30.54-3.43-30.11-24.1-52.23 21.89 0 47.96 10.81-4.16 37.89-25.56 30.54-44.53z" fill="#fc5061"/><path d="m241.56 81.99c-3.02-23.15-16.91-25.31-28.69-29.51-5-1.77-16.86-12.85-18.88-14.56-32-26.09-66.8-.09-77.75 29.24-10.16 18.16-.39 50.23 1.87 58.18 2.39.11 5.09.73 7.52.52-.34-7.46 2.74-13.13 5.29-20.49 0 0 2.12-2.94 2.12-2.94-2.58-.97 6.8-16.71 7.41-15.73.14-.3 1.64-.15 1.75-.4 12.42-.27 18.01 9.86 26.45-1.51 5.71 33.41 47.29 35.62 47.21 39.17-.07 3.38 3.34 8.56 1.24 11.23.57.63 1.04 1.37 1.43 2.13 12.57-12.53 24.74-37.22 23.03-55.33z" fill="#594449"/><path d="m225.65 206.53c-3.82 1.19-8.24 1.5-12.27.86.88 6.1 3.32 12.37 7 17.28 1.39 1.76 3.04 3.32 4.15 5.27 3.15 6.68 2.59 17.82-2.67 23.36-3.1 3.39-9.58 3.43-11.68-1.02-1.11-2.42-.34-5.23-.32-7.9-2.02-20.8-25.72-18.74-26.98-47.11-13.25-5.32-29.6-10.63-44.31-7.85-7.64 1.03-24.59 2.79-23.45 13.26 17.23-4.12 36.13-5.03 52.25 3.77 5.71 3.22 10.11 8.29 14.37 13.27 4.74 6.06 10.85 11.32 14.58 18.07 2.13 5.15.12 11.12 1.3 16.57 1 7.14 15.53 20.24 22.93 18.62v.03c10.44-5.39 15.08-18.32 16.62-29.41 2.22-14.82 1.03-45.13 1.03-45.13-3.3 3.74-7.63 6.57-12.54 8.05" fill="#ffa4a4"/><path d="m169.81 222.04c-4.58.17-9.19-.67-13.41-2.47-3.6-1.53-7.12-3.78-11.03-3.68-5.59.58-10.71 4.06-16.57 3.45-2.06 0-4.67-.62-5-2.67.38-5.03 9.26-7.48 13.51-8.14-.56-1.14-2.21-.91-3.44-.6-6.08 1.43-16.15 1.53-18.75-5.24 17.23-4.12 36.13-5.03 52.25 3.78 5.71 3.22 10.11 8.29 14.37 13.27 4.74 6.06 10.85 11.32 14.58 18.07 2.13 5.15.12 11.12 1.3 16.57.99 7.15 15.56 20.25 22.93 18.62v.03c-15.76 6.09-28.27-9.9-36.29-21.31-5.61-8.89-8.83-19.23-11.92-29.24l-2.53-.42z" fill="#ffd7cd"/><path d="m178.11 170.66c-13.83-2.34-28.07-2.25-41.87.25l-.11-.63c-10.29-8.29-13-22.98-10.9-35.52.95 3.86 6.39 4.69 8.41 8.11 1.36 2.32 4.5 3.23 6.32 5.24 3.78 4.69 5.84 7.72 11.4 10.65 5.47 2.37 9.65 1.19 15.27 1.04 6.96-.15 12.26 3.52 18.22 0l-6.73 10.86z" fill="#ffa4a4"/><path d="m176.8 236.03-1.54.55c-4.13 3.76-10.61 7.76-16.31 6.34-3.12-1.77 2.28-10.19.8-15.79 0-1.17-.92-1.98-2.01-1.36-4.26 1.79-6.52 6.33-9.33 10-5.24 6.79-13.62 12.19-22.48 10.28-11.04-1.49-21.86-4.28-32.75-6.57-5.2-.63-7.72-4.05-6.65-9.23.48-4.41 1.61-11.69 2.9-18.8-15.78-8.36-28-4.82-43.93-.18-1.58 16.93-1.64 34.33 2.14 50.98 2.37 15.39 39.87 15.58 52.3 15.04 18.03-.41 35.59-6.31 53.5-7.08 13.35 4.74 29.3-3.16 30.21-18.13l.6-.37c-3.07-4.87-5.44-10.2-7.46-15.67z" fill="#ffd7cd"/><path d="m215.52 117.72c-.97-.28-1.99-.33-3.03-.2.3-.65 1.4-2.96 1.68-3.57 0 0-32.85-15-38.55-48.41-8.45 11.36-23.23 16.67-35.65 16.94-.11.25-.24.52-.38.83-2.37-4.5-8.48-4.77-12.14-1.49-6.34 5.93-8.24 20.64 1.29 24.44-10.76 19.85-2.12 46.01 18.38 55.37 20.25 9.84 45.89-.02 54.43-20.94 1.45.9 3.15.92 4.75 1.26 1.36-5.09 5.33-12.44 10.81-6.75 4.55-4.86 5.91-14.94-1.58-17.47z" fill="#ffd7cd"/><path d="m136.13 170.28c-14.73-12.16-10.17-28-12.06-44.4-25.66-4.65-53.1 15.07-64.2 35.13-8.55 15.15-12.68 33.09-14.37 50.25 15.93-4.64 28.16-8.18 43.93.18 1.17-6.48 2.48-12.83 3.55-16.74h.18c.29-1.55 1.63-2.77 2.57-4 .08-.39.85-1.25 1.14-1.28 9.95-10.76 25.04-15.93 39.38-18.51l-.11-.63z" fill="#ffce5f"/><path d="m157.85 114.98c-5.52-.55-10.29-2.46-13.13-7.18-.55-1.88 2.41-2.71 2.91-.81.3.65 2.91 2.73 4.75 3.6 1.86.87 5.15 1.56 5.88 1.35.75-.36 1.63-.03 1.99.72.65 1.53-.95 2.44-2.39 2.32z" fill="#594449"/><path d="m190.37 130.35c-5.52-.56-10.29-2.47-13.13-7.2-.54-1.88 2.41-2.7 2.91-.8.3.65 2.9 2.73 4.75 3.6 1.86.88 5.14 1.57 5.88 1.36.75-.36 1.63-.03 1.99.72.65 1.54-.96 2.45-2.4 2.32z" fill="#594449"/><path d="m135.31 89.83c-.03-2.09-.83-4.01-2.28-5.52-.38-.39-1.04.13-.67.53 2.31 2.26 2.54 5.74 1.47 8.66-4.44-2.72-9.23 6.07-4.7 8.47 3.13.2 6.17-8.66 6.17-12.14z" fill="#ffa4a4"/><path d="m215.23 123.21c-4.05-.26-7.14 2.95-8.66 6.4-1.57 2.26-2.91 7.01-1.53 7.52 4.61 1.75 7.85-7.41 3-8.71 2.84-5.67 9.07-3.87 7.18-5.22z" fill="#ffa4a4"/><path d="m214.17 113.94s-32.85-15-38.55-48.41c-8.45 11.36-23.23 16.67-35.65 16.94-.11.25 23.6.64 33.77-9.01 5.45 27.29 40.41 40.53 40.43 40.47z" fill="#ffa4a4"/><path d="m136.13 170.28 2.13 6.46c-2.57.45-.45.88-2.98 1.52-11.79 2.94-23.19 5.48-31.33 14.32-.29.03-2.2-.39-2.28 0-.56.65-2.99-.69-3.5 0 5.79 1.37 11.56 2.6 5.25 2.54l-2.8 3.5c-1.08 3.91-1.28 6.33-2.45 12.81l-9.17-.08c-3.48-1.93-7.27-3.33-11.16-4.15 2.97-9.27 7.28-18.1 12.79-26.12 10.69-14.77 32.01-36.75 14.47-53.87l-.16-.73c6.32-1.62 12.74-1.3 19.13-.6 1.9 16.45-2.69 32.19 12.06 44.4z" fill="#faa51e"/><path d="m241.56 81.99c.52 4.02.25 8.14-.54 12.27-24.82 5.03-54.79-16.36-53.4-42.48-13.49 9.43-30.99 10.47-47.45 10.33-6.79.35-14.02-1.76-17.82-7.77 14.71-20.66 48.69-43.71 76.42-23.18 22.76 15.2 38.08 10.59 42.79 50.83z" fill="#6d555c"/><path d="m161.96 126.77c-1.32 2.71-3.32 5.01-5.85 6.65-.44.28-.54 1.05 0 1.3 1.26.6 2.39 1.47 3.23 2.6.24.32.65.5 1.03.27 1.4-1.31-2.45-3.59-3.5-4.17v1.3c2.74-1.77 4.97-4.26 6.4-7.19.42-.87-.88-1.64-1.3-.76z" fill="#ffa4a4"/><path d="m142.68 139.65c1.21 10.72 9.77 13.05 19.14 11.18.96-.14.55-1.6-.4-1.46-20.83 4.23-15.47-15.35-18.74-9.73z" fill="#ffa4a4"/><path d="m216.62 142.31c-.01 3.62-1.84 11.74-1.84 11.74-2.63 5.69-7.58 5.62-11.74 3 .84-2.46 2.35-24.03 10.42-23.85 0 0 3.16 6.12 3.16 9.11z" fill="#f4baba"/><path d="m184.25 251.71-.6.37c-.47 10.91-11.13 20.2-21.95 19.56 2.06-1.67 2.5-4.91 2.17-7.66-.69-8.61-7.98-17.15-17.1-16.05-20.23 8.12-43.01 11.99-63.77 2.92-2.86-1.16-5.77-2.6-7.59-5.08-5.56-9.82-.44-28.05 2.43-38.55 8.95-.48 43.95 28.84 52.65 30.45.87-2.3 29.38-18.86 33.36-13.5.39 3.38 4.08 12.92 7.71 9.37l5.24 2.49c2.02 5.48 4.39 10.8 7.46 15.67z" fill="#ffa4a4"/><path d="m176.8 236.03c-.11.16-23.29 15.42-18.17 1.18.75-1.83 3.08-13-.89-11.44-4.26 1.79-6.52 6.33-9.33 10-2.44 3.17-5.49 5.87-8.94 7.88-4.05 2.57-8.86 3.25-13.54 2.4 7.09-4.81 17.16-13.16 11.67-25.87l-2.33-1.46c9.45-3.45 11.93-4.01 21.13.86 5 2.44 10.59 2.18 15.93 2.89 1.4 4.53 2.82 9.1 4.46 13.57z" fill="#a6a6a6"/><path d="m259.88 158.93c-4.5-4.62-20.59 2.28-22.41 2.37-3.66-3.86-8.37-6.56-13.63-7.77-1.02-1.73-3.39-19.75-10.39-20.32 3.35 7.85 2.07 13.12.03 19.93-10.75 1.63-19.7 9.68-22.41 20.27-29.3-7.96-79.9-6.9-97.92 21.31h-.18c-2.29 8.32-5.54 27.22-6.45 35.53-1.04 5.18 1.41 8.59 6.65 9.23 10.9 2.29 21.71 5.09 32.75 6.57 7.09-4.81 17.16-13.16 11.67-25.87l-2.33-1.46c-19.66 3.35-10.73-8.94 2.03-10.19-.56-1.14-2.21-.91-3.44-.6-6.22 1.5-17.49 1.5-18.93-6.28.96-9.9 15.75-11.05 23.63-12.22 14.71-2.77 31.06 2.53 44.31 7.85 1.25 28.37 24.96 26.31 26.98 47.11-.02 2.67-.79 5.49.32 7.9 2.1 4.44 8.58 4.41 11.68 1.02 5.26-5.54 5.81-16.68 2.67-23.36-1.11-1.95-2.76-3.51-4.15-5.27-3.67-4.91-6.12-11.18-7-17.28 20.55 3.72 38.06-18.34 29.68-37.54 5.32-4.65 10.9-8.4 16.82-10.92zm-42.64 91.14c-.43 1.5-1 2.97-1.69 4.38.7-1.41 1.26-2.88 1.69-4.38z" fill="#fff"/><path d="m227.88 192.14c13.86-10.24 11.87-22.86 5.97-34.04 4.07 2.99 7.28 7.04 9.21 11.75.56 1.35 4.7.82 5.04 2.27.46 2-.9 3.62-.9 5.75 0 .17-2.08 2.74-2.09 2.91-.12 6.78-2.71 12.98-6.92 17.7-12.47 14.93-38.32 10.8-45.62-7.1 9.68 7.36 23.52 8.9 35.31.77z" fill="#e0e0ef"/><path d="m212.97 171.06c-6.13.39-10.03-7.02-6.78-8.05 3.36-.2.37 6.14 8.67 4.86.83-.13 1.6.42 1.74 1.24.29 2.01-2.37 1.91-3.63 1.95z" fill="#594449"/><path d="m235.41 183.04c-4.31 0-7.16-2.31-7.72-6.38-.11-.83.46-1.59 1.29-1.7 3.36.08.06 5.83 7.58 5 1.1-.23 2.73-.5 3.01 1 .28 2.22-2.71 1.97-4.16 2.08z" fill="#594449"/><path d="m218.71 192.89c-3.73-1.5-4.87-6.12-2.7-9.38.28-.42.07-.82-.28-1-.33-.2-.79-.2-1.05.23-.76 1.27-2.26 2.28-3.69 2.75-2.44.79-4.84-.02-6.74-1.65-4.6-.59 3.85 6.3 9.29 2.09-1.55 6.43 7.19 10.55 5.17 6.97z" fill="#ffa4a4"/><path d="m214.88 179.13c6.65 1.35 6.49 5.28 0 6.04-1.97-.38-3.29-6.22 0-6.04z" fill="#bc4c61"/><g fill="#594449"><path d="m219.58 186.66c3.65 2.45 8 3.74 12.4 3.68.97-.01.97-1.52 0-1.51-4.15.05-8.2-1.16-11.64-3.48-.81-.54-1.56.76-.76 1.3z"/><path d="m217.9 189.19c1.94 3.72 5.87 5.56 9.53 7.16.85.48 1.62-.83.76-1.3-3.42-1.49-7.17-3.14-8.99-6.62-.45-.86-1.75-.1-1.3.76z"/><path d="m210.87 179.59c-3.12-1.56-4.85-4.72-5.91-7.92-.3-.92-1.76-.52-1.46.4 1.18 3.55 3.13 7.08 6.6 8.82.87.43 1.63-.87.76-1.3z"/><path d="m207.9 181.59c-3.28-1.7-6.65-3.47-9.02-6.39-.26-.32-.8-.27-1.07 0-2.06 1.58 12.86 11.02 10.09 6.39z"/></g><path d="m208.5 220.13c10.41 8.68 11.96 23.75 6.9 35.62-12.53-2.61 2.29-13.62-14.76-27.99-13.36-10.59-17.37-18.04-18.14-35.15 6.35.82 6.92 8.9 9.41 13.55 3.46 6.42 11.03 9.24 16.59 13.97z" fill="#e0e0ef"/><path d="m93.16 194.71c.29-1.56 1.63-2.78 2.57-4.01-4.09 19.28 10.84 25.96 26.92 18.25l.14-.69c3.66.72 7.47.56 11.08-.33 1.23-.3 2.88-.53 3.44.6-12.81 1.27-21.66 13.54-2.03 10.19l2.33 1.46c5.51 12.72-4.63 21.09-11.67 25.87-11.04-1.49-21.86-4.28-32.75-6.57-5.23-.64-7.7-4.05-6.65-9.23.91-8.31 4.16-27.21 6.45-35.54h.18z" fill="#e0e0ef"/><path d="m259.88 158.93c6.34 6.59-14.54 20.78-14.78 21.85.09-3.83-.66-7.58-2.04-10.93 4.37-5.61 9.84-9.46 16.82-10.92z" fill="#f4baba"/><path d="m99.8 61.4c7.34 19.09-19.76 40.27-30.46 44.53-.18.03-4.24-1.92-10.07-5.96l.1-.15c8.93-2.49 19.53-10.22 25.4-17.34 5.92-8.51 10.39-22.23 2.7-30.94v-.07c5.58.75 10.3 3.92 12.33 9.92z" fill="#de354e"/><path d="m51.68 56.04c8.45.04 8.45 12.89 0 12.92-8.45-.04-8.45-12.89 0-12.92z" fill="#fff"/><path d="m260.95 157.68c-5.78-4.59-15.56-.03-23.01 1.69-3.5-3.45-7.9-5.93-12.61-7.16-1.48-5.82-2.94-10.39-4.97-14.94 11.39-11.73 18.16-26.86 22.14-42.96 3.58-21.55-7.72-49.66-22.04-52.95-4.94-1.75-18.66-9.59-20.51-11.16-18.04-15.25-44.16-6.37-57.32 3.32-29.89 18.96-41.64 60.15-24.64 90.29-24.25-1.34-49.34 19.24-58.44 36.24-16.19 30.58-18.73 68.63-12.32 101.87 2.04 15.81 39.53 16.64 53.43 15.92 14.79-.85 29.4-3.67 43.74-6.27 5.96-1.7 11.79-.36 17.71.64 9.97.86 21.02-8.55 22.92-18.35 14.27 20.92 37.07 33.45 50.21 2.81 6.35-18.99 6.04-38.96 4.8-58.59 3.87-4.67 6.16-10.46 6.51-16.48 6.17-6.12 20.86-17.02 14.4-23.91zm-8.4.72c1.46-.22 3.18-.44 4.7-.01-4.96.91-10.41 5.09-13.63 8.76-1.03-2.08-2.31-4.02-3.81-5.78 4.8-1.45 8.88-2.4 12.75-2.97zm-29.9-6.76c-2.31-.38-4.68-.48-7.09-.27 1.75-5.03 2.44-10.94.63-15.98 3.61 4.66 4.53 10.01 6.45 16.26zm-20.79 74.68c-7.41-6.14-15.3-13.3-16.33-23.19-.78-3.93-1.22-7.55-1.38-11.55-.07-1.58-2.56-1.45-2.45.14.04 1.11.12 2.23.21 3.31-9.92-3.83-20.1-7.45-30.97-7.97-10.41.24-21.27.83-30.5 5.49-12.72 7.33-3.7 18.08 8.78 16.88-6.61 2.61-9.44 10.19.15 10.63 2.61.02 4.7-.19 6.6-.62 4.5 10.63.43 20.47-10.13 24.7-6.34-.87-12.69-2.26-18.84-3.6-5.09-1.65-14.18-1.77-17.9-5.16-2.8-1.89 4.37-38.35 6.46-42.05 20.25-25.42 63.99-27.08 94.47-19.41-3.54 15.15 7.15 31.34 22.44 34 1.62 6.18 3.41 12.13 7.27 16.99 1.34 1.7 3 3.28 4.03 5.11 3.39 6.9 2.37 24.03-7.9 23.91-10.67-2.03 3.1-13.1-14.01-27.6zm-63.52-7.57c13.62-6.53 17.15 5.64 33.2 4.13 1.18 3.71 2.59 7.64 4.06 11.66-2.33 2.76-19.55 12.8-15.32 2.51 4.43-14.71-1.86-18.06-10.49-5.13-4.2 6.37-11.4 12.76-19.23 12.66 9.23-5.95 11.97-15.72 7.78-25.83zm-6.71-56.21c-4.42-6.65-5-14.8-5.28-22.36 8.04 21.84 35.4 32.52 56.14 22.12-2.12 2.83-4.62 5.74-5.65 6.47-13.05-1.99-26.22-1.87-39.2.37-2.1-2.07-4.34-4.13-6.01-6.59zm59 8.98c-3.25-.8-7.68-1.71-10.75-2.26 2.61-2.7 6.09-7.43 7.41-9.62 6.68-4.29 11.93-10.4 15.22-17.65.79.31 1.64.53 2.52.64-1.38 4.3-2.34 9.2-3.09 13.57-5.45 3.69-9.41 9.07-11.31 15.33zm12.22-32.06c-.69-.45-1.65-.44-2.04.39-3.32 7.73-8.86 14.27-16.16 18.53-33.08 19.35-71.13-15.4-55.06-50.08 3.44-5.53-4.55-1.68-5.51-11.54-.52-4.51 1.44-11.66 4.73-14.18 2.94-2.68 8.39-2.77 10.33 1.35.53 1.04 2.19.72 2.31-.42 10.8-.45 24.79-4.69 33.91-15.25 6.32 30.28 28.97 41.45 37.66 45.75-.45 1.21-2.79 4.37-.02 4.47 8-.55 8.62 9.5 4.27 14.59-5.74-4.46-10.16 2.29-11.41 7.15-1.09-.05-2.12-.31-3.01-.76zm-89.17-58.01c2-8.94 5.89-19.33 10.3-26.54 13.82-19.72 47.78-42.91 74.39-22.84 2.23 1.88 16.33 9.84 21.27 11.59 13.1 2.9 23.84 29.84 20.45 50.18-3.77 15.28-10.28 29.9-20.98 41.2-.04-.06-.08-.11-.12-.17 5.23-6.27 4.98-17.32-4.2-18.85.33-1.16 2.23-2.61.59-3.58-9.94-5.08-32.22-15.11-38.1-47.23-.14-1.03-1.6-1.39-2.19-.53-8.83 11.88-23.73 16.13-34.9 16.45-3.2-4.2-9.6-3.48-12.96-.42-3.92 3.06-6.17 10.99-5.57 16.34.25 3.86 2.66 7.99 6.02 9.56-.19.41-.3.64-.3.64-2.56 5.42-3.87 11.17-3.93 17.1-.81-.14-1.63-.25-2.45-.34-7.46-11.72-10.19-28.29-7.3-42.58zm-61.87 104.58c6.7-30.25 35.1-63.93 71.68-59.18 1.77 15.31-2.33 31.07 11.19 42.83-17.1 3.27-32.68 10.37-41.18 22.31-2.61 5.19-2.68 9.82-4.33 17.23-12.72-7.11-28.72-4.71-41.49.12.87-7.84 2.25-15.67 4.12-23.3zm124.1 78.42c-6.71 6.35-13.93 5.81-21.82 3.89-18.02.68-35.34 6.63-53.56 7.05-14.25.67-48.88-.26-50.91-14.07-3.53-14.9-3.7-33.63-2.21-49.31 12.73-4.84 28.68-7.68 41.3-.26-.94 8.5-4.82 19.86-1.6 25.08 4.11 4.47 13.58 4.21 19.36 6.11 17.01 3.32 30.79 9.51 43.43-6.97 2.7-3.49 5.01-8.15 9.04-9.67 1.84 6.02-4.55 14.31-.15 17.11 5.94 2.07 13.06-2.76 17.72-6.38 2.04 5.38 4.14 9.8 6.49 13.7-.32 4.88-2.95 9.99-7.1 13.73zm60.33-21.61c-2.21 19.75-16.66 39.8-36.1 24.09-14.4-11.95-21.17-27.92-26.56-45.75-.2-.64-.85-.97-1.49-.83-1.98.28-7.39.6-14.72-2.42-3.72-1.54-7.28-3.87-11.5-3.77-5.97.53-10.16 3.96-16.49 3.44-1.31 0-3.58-.36-3.78-1.62 1.01-4.01 8.68-6.17 12.41-6.71.82-.07 1.34-1.04.95-1.76-.71-1.44-2.34-1.86-4.83-1.25-3.27.82-6.75.96-10.04.41-2.78-.48-6.38-1.97-7.18-4.78-.83-9.07 15.7-10.81 22.35-11.68 14.59-2.45 29.66 1.85 42.95 7.73 1.5 27.4 25.1 26.67 26.78 45.86-.04 2.79-.82 5.68.43 8.4 2.29 5.07 9.9 5.46 13.61 1.39 3.53-3.19 4.61-8.93 4.78-13.19 1.38-15.74-9.12-14.07-12.69-32.09 8.24.88 16.75-2.05 22.67-7.82 1.07 14.1.55 28.33-1.55 42.34zm21.8-76.53c-2.62 3.48-6.47 7.51-11.47 11.99-.05-1.05 0-2.77-1.48-2.65-.67.07-1.16.68-1.09 1.35.11 1.12.18 2.21.14 3.35.08 15.4-15.08 28.11-30.23 25.34-14.89-2-25.28-17.91-21.24-32.37 1.66-6.47 5.71-12 11.39-15.58.57-.36.74-1.11.39-1.68 1.33-5.73 2.95-19.5 8.39-21.87 3.14 4.98 2.07 12.24-.06 17.55-1.2.32-3.58.24-3.23 2.04.18.65.86 1.04 1.51.86.97-.27 1.97-.48 2.95-.63 6.92-1.02 13.81.63 19.41 4.74 3.85 2.82 6.96 6.75 8.77 11.19.14.34.43.59.78.71.49.16 1.05-.05 1.36-.46 3.02-4.15 10.16-9.92 15.69-9.56.5 1.42-.12 3.23-1.98 5.69z" fill="#3f3436"/><path d="m69.48 106.82c13.06-3.88 39.3-26.03 32.13-45.92-4.84-12.76-19.99-14.6-31.58-4.59-31.83-23.77-53.46 24.42-.55 50.52zm-28.71-45.14c2.05-6.44 8.48-9.87 15.57-9.18 2.82.23 7.28 1.47 12.57 6.07.37.33.66.55 1.16.53 30.43-23.44 48.83 20.57-.04 45.26-12.36-5.42-35.8-25.31-29.26-42.68z" fill="#3f3436"/></svg>