<svg id="Layer_1" enable-background="new 0 0 74 74" height="512" viewBox="0 0 74 74" width="512" xmlns="http://www.w3.org/2000/svg"><g><path d="m21.41 32.4c.42-.38.63-.94.57-1.5-.17-1.57-.19-4.67 1.99-5.85 3.07-1.67 6.85-.46 7.56 2.83.71 3.28 1.5 4.71 3.14 5.38 3.2 1.29 4.45 4.66 4.08 6.18s-5.65 4.38-5.65 4.38h-5.66s-6.15 1.71-8.13-4.42c-1.12-3.49.95-5.95 2.1-7z" fill="#3f4346"/><g><g><path d="m50.3 28.95c-.92.45-1.38 1.38-1.5 2.24-.13.92.1 1.75.36 2.47.56 1.43 1.17 2.63.91 3.54-.22.93-1.12 1.78-2.14 2.13-1.06.38-2.32.38-3.65.26-.8-.07-1.5.51-1.57 1.31s.51 1.5 1.31 1.57c.05 0 .1.01.15.01 1.5-.01 3.16-.13 4.74-.86 1.58-.75 2.94-2.17 3.22-4.07.14-.96-.12-1.87-.44-2.6-.32-.74-.7-1.35-.98-1.93s-.47-1.16-.44-1.67c.02-.54.25-1.04.62-1.27l.02-.01c.3-.18.4-.57.21-.87-.17-.29-.53-.39-.82-.25z" fill="#ccc"/></g><g><path d="m42.83 42.56s3.93.37 5.01-3.65-3.09-5.9-3.09-8.15-1.22-4.26-1.22-4.26l-.7-2.2-.98 1.4-1.26-.09-1.17-1.5-.7 1.92c-2.27 2.94-2.69 6.23-1.17 9.9.45 1.09.71 2.26.71 3.44v3.2h4.57z" fill="#e1e1e1"/></g><g><path d="m45.44 32.48c-.79.33-1.62.57-2.45.74-.02.01-.04.01-.05.01-.12 0-.22-.08-.25-.2-.03-.14.06-.27.2-.3.78-.15 1.54-.38 2.27-.68.08.14.17.29.28.43z" fill="#ccc"/></g><g><path d="m46.1 33.38c-.74.29-1.5.52-2.28.68h-.05c-.11 0-.22-.08-.24-.2-.03-.13.06-.26.19-.29.7-.14 1.39-.34 2.06-.59.11.13.22.27.32.4z" fill="#ccc"/></g><g><path d="m46.78 34.28c-.69.27-1.4.47-2.12.61-.02.01-.04.01-.05.01-.12 0-.22-.08-.25-.2-.03-.14.06-.27.2-.3.65-.13 1.29-.31 1.91-.54.1.14.21.28.31.42z" fill="#ccc"/></g><g><path d="m47.36 35.21c-.61.22-1.24.39-1.87.52h-.05c-.11 0-.22-.08-.24-.2-.03-.13.06-.26.19-.29.58-.12 1.16-.27 1.72-.46.09.14.18.28.25.43z" fill="#ccc"/></g><g><path d="m39.34 38.05h.43v4.5h-.43z" fill="#ccc"/></g><g><path d="m41.78 39.55h1.78v.43h-1.78z" fill="#ccc"/></g><g><path d="m41.57 38.05h.43v4.5h-.43z" fill="#ccc"/></g><g><path d="m39.33 30.66c.53 0 .96-.43.96-.96 0-.08-.07-.15-.15-.15s-.15.07-.15.15c0 .36-.29.66-.66.66-.08 0-.15.07-.15.15 0 .09.07.15.15.15z" fill="#ccc"/></g><g><path d="m40.94 30.66c.08 0 .15-.07.15-.15s-.07-.15-.15-.15c-.36 0-.66-.29-.66-.66 0-.08-.07-.15-.15-.15s-.15.07-.15.15c.01.54.44.96.96.96z" fill="#ccc"/></g><g><path d="m39.33 29.54c.07 0 .13-.05.15-.12.02-.08-.03-.16-.11-.18l-1.54-.35c-.08-.02-.16.03-.18.11s.03.16.11.18l1.54.35c.01.01.02.01.03.01z" fill="#ccc"/></g><g><path d="m37.79 30.37h.03l1.54-.35c.08-.02.13-.1.11-.18s-.1-.13-.18-.11l-1.54.35c-.08.02-.13.1-.11.18.02.07.08.11.15.11z" fill="#ccc"/></g><g><path d="m41.24 29.54h.03l1.54-.35c.08-.02.13-.1.11-.18s-.1-.13-.18-.11l-1.54.35c-.08.02-.13.1-.11.18.02.06.08.11.15.11z" fill="#ccc"/></g><g><path d="m42.78 30.37c.07 0 .13-.05.15-.12.02-.08-.03-.16-.11-.18l-1.54-.35c-.08-.02-.16.03-.18.11s.03.16.11.18l1.54.35c.01.01.02.01.03.01z" fill="#ccc"/></g><g><path d="m38.87 28.15c0 .22.2.41.42.41s.41-.18.41-.41c0-.24-.18-.42-.41-.42s-.42.18-.42.42z" fill="#3f4346"/></g><g><path d="m40.54 28.15c0 .22.2.41.42.41s.41-.18.41-.41c0-.24-.18-.42-.41-.42s-.42.18-.42.42z" fill="#3f4346"/></g></g><path d="m25.61 34.09 2.78 3.89 2.03-2.47c-.85-.23-2.25-1.24-2.8-2.17z" fill="#f2af97"/><path d="m27.63 33.34s-1.25 2.17-2.97 1.93c-1.72-.25-2.09-4.47-1.7-6.88 1.09 1.21 2.41 1.62 4.04 1-.01 0-.3 2.45.63 3.95z" fill="#fdc5ae"/><path d="m57.99 35.48s.72.76 1.74 1.9c-1.03.24-1.96.74-2.8 1.53l-.87-1.98c-.54-.74-.77-.82-1.74-1.32-.96-.5-.52-1.26 1.16-2.56s2.07-4.81 3.07-4.67c1 .13-.56 7.1-.56 7.1z" fill="#fdc5ae"/><g><path d="m16.84 43.78 1.65-.1.03 1.8c-1.01-.14-1.68-.25-1.68-.25z" fill="#f2af97"/><path d="m29.6 35.45c-1.02-.13-1.96.54-2.18 1.54l-1.37 6.17-7.56.45.04 2.12c3.07.43 8.76 1.1 9.81.38 1-.69 2.26-5.38 2.95-8.22.27-1.16-.51-2.3-1.69-2.44z" fill="#578dce"/><path d="m16.84 45.24s-1.43.52-1.91.28c-.49-.25-.42-.45-.21-.59 0 0-.49-.13-.14-.42 0 0-.28-.06-.29-.34s.35-.25.35-.25-.51-.24-.25-.53.64-.17.64-.17c.3-.66.89-.55 1.82.56z" fill="#f2af97"/></g><g><path d="m20.13 46.79h-10.86c-.33 0-.63-.21-.75-.52l-3.47-9.26c-.16-.41.05-.88.47-1.03.41-.16.88.05 1.03.47l3.28 8.74h10.3c.44 0 .8.36.8.8s-.36.8-.8.8z" fill="#2f4565"/></g><path d="m43.59 49.37.81-7.64s-5.92 0-11.65-5.68-7.38 4.68-4.44 8.26c2.38 2.91 9.93 5.49 15.28 5.06z" fill="#6da1e8"/><path d="m28.89 37.96c-.11 2.02-.47 3.99-.9 5.93-.28-.44-.5-.93-.67-1.47.43-1.51.93-3 1.57-4.46z" fill="#578dce"/><path d="m32.74 38.93c-.19 1.56-.48 3.1-.91 4.62-.21.76-.47 1.51-.77 2.25-.07.17-.15.35-.24.52-.31-.18-.61-.37-.89-.56.07-.13.14-.26.2-.38.33-.67.6-1.39.9-2.1.56-1.44 1.12-2.9 1.71-4.35z" fill="#578dce"/><path d="m63.96 44.9.92-9.71s4.86-6.46 4.02-7c-.84-.55-2.45 1.89-4.41 2.65-1.98.78-3.69 1.26-3.54 2.26.13.81 1.14.71 1 1.49l-2.41 8.85z" fill="#efb19c"/><path d="m64.76 36.26-.8 8.64-4.41-1.46 2.15-7.89c1.11-.18 2.06.12 3.06.71z" fill="#22374f"/><path d="m66.61 47.84c-.57 3.41-23.03 1.53-23.03 1.53-.27-2.41.05-4.97.81-7.64 5.8-1.63 7.58.1 9.3 1.31 1.55 1.1 4.5 2.32 6.1 2.44l-2.86-6.57c.84-.79 1.78-1.29 2.8-1.53 2.61 2.94 7.21 8.45 6.88 10.46z" fill="#2f4565"/><g><path d="m18.19 44.54 1.65-.06v1.81c-1-.16-1.68-.28-1.68-.28z" fill="#fdc5ae"/><path d="m31.11 36.46c-1.01-.15-1.97.5-2.21 1.5l-1.49 6.14-7.57.3v2.12c3.06.49 8.74 1.27 9.8.57 1.01-.67 2.37-5.34 3.1-8.16.3-1.15-.46-2.3-1.63-2.47z" fill="#6da1e8"/><path d="m18.16 46s-1.44.5-1.92.24-.41-.46-.2-.59c0 0-.49-.14-.13-.42 0 0-.28-.06-.28-.35s.35-.25.35-.25-.51-.25-.24-.53.64-.15.64-.15c.32-.65.9-.53 1.81.59z" fill="#fdc5ae"/></g></g></svg>