<svg id="Layer_1" enable-background="new 0 0 132 132" height="512" viewBox="0 0 132 132" width="512" xmlns="http://www.w3.org/2000/svg"><g id="_x31_4"><g><g><path d="m130 65.9949799c0 35.3466797-28.6481781 64.0051422-63.9948578 64.0051422s-64.0051422-28.6584626-64.0051422-64.0051422 28.6584625-63.9951023 64.0051422-63.9951023 63.9948578 28.6484264 63.9948578 63.9951023z" fill="#b730aa"/></g></g><g><g><ellipse cx="66" cy="66" fill="#a32391" rx="49.2" ry="49.2" transform="matrix(.383 -.924 .924 .383 -20.233 101.719)"/></g></g><g><g><g><path d="m13.9606323 103.208313c11.600708 16.2172852 30.5715332 26.7918091 52.036377 26.7918091 21.4680176 0 40.4399414-10.5747681 52.0423584-26.7918091z" fill="#ffc27c"/></g></g><g><g><path d="m26.3440552 103.208313c-.00354.057312-.0170898.1117554-.0170898.1699829v12.8387451c1.7398682 1.3798828 3.5396729 2.65979 5.4194336 3.8496704v-16.6884155c0-.0582275-.0133057-.1126709-.0169678-.1699829z" fill="#f7b26d"/></g></g><g><g><path d="m103.2597733 110.217598v7.8092651c-1.73983 1.2598953-3.5497131 2.4198227-5.4195404 3.4896622v-11.2989273c0-1.4998627 1.2099762-2.7097092 2.7098312-2.7097092 1.5062027 0 2.7097092 1.2037048 2.7097092 2.7097092z" fill="#f7b26d"/></g></g><g><g><path d="m87.1711884 114.9171677v11.4789123c-1.7698593.6299438-3.5796204 1.1798782-5.4194183 1.6298447v-13.108757c0-1.4998627 1.2098465-2.7097702 2.7097092-2.7097702 1.5064544 0 2.7097091 1.2037201 2.7097091 2.7097702z" fill="#f7b26d"/></g></g><g><g><path d="m37.5934448 103.208313v6.4384766c0 1.4687576 1.1928978 2.7097168 2.7097168 2.7097168 1.4997559 0 2.7097168-1.2098389 2.7097168-2.7097168v-6.4384766z" fill="#f7b26d"/></g></g><g><g><path d="m112.4887085 103.208313v6.7592773c1.9500732-2.0598755 3.7697754-4.2496338 5.4194336-6.5594482v-.1998291z" fill="#f7b26d"/></g></g><g><g><path d="m50.4559937 103.208313c-.2702637.4215698-.4312744.9204712-.4312744 1.4598389l.0100098 23.3178101c1.7698975.4599609 3.5797119.8399048 5.4194336 1.1398926v-24.4577026c0-.5385742-.1695557-1.0379028-.4440918-1.4598389h-4.5540772z" fill="#f7b26d"/></g></g><g><g><path d="m88.2410278 103.208313v.8589478c0 1.4638214 1.1808395 2.7096558 2.7097168 2.7096558 1.4901123 0 2.7097168-1.2198486 2.7097168-2.7096558v-.8589478z" fill="#f7b26d"/></g></g><g><g><path d="m67.3630981 103.208313v26.767395c1.8299561-.0300293 3.6397705-.1499023 5.4194336-.3400269v-26.4273681z" fill="#f7b26d"/></g></g></g><g><g><g><g><g><g><g><g><path d="m78.9877396 68.9316406v34.2075882h-58.7496529c-3.2055912 0-5.8042355-2.5986481-5.8042355-5.8042374v-28.2233047c0-5.7979889 3.5110435-11.3236809 8.1247616-13.4783783.8049717-.4426842 1.7508469-.8426476 2.8308582-1.1607513 1.3619328-.4026527 2.8071461-.6158371 4.3110561-.6158371h34.2122917c8.3256456 0 15.0749208 6.7492714 15.0749208 15.0749206z" fill="#fff"/></g></g><g><g><path d="m58.9549065 57.59058v9.2211494c0-1.5457458-1.242981-2.8287239-2.8387985-2.8287239-1.5604095 0-2.828846 1.2684364-2.828846 2.8287239v-14.8889198c3.1309013 0 5.6676445 2.536869 5.6676445 5.6677704z" fill="#e5f5f9"/></g></g><g><g><path d="m40.1379318 51.9212456v14.8878136c0-3.7571602-5.6710548-3.6899529-5.6710548 0v-9.2167587c0-1.4323845.5403328-2.7475281 1.4444237-3.757103.903801-1.0451202 2.2071915-1.7494164 3.6748314-1.8904457.1762924-.0117531.3640441-.0235062.5517997-.0235062z" fill="#e5f5f9"/></g></g><g><g><path d="m40.138 53.271h13.149v49.861h-13.149z" fill="#4fe88d"/></g></g><g><g><g><g><path d="m53.490509 50.4431v6.0401115c0 3.6341515-2.9523239 6.7951279-6.8050804 6.7951279-3.7348862 0-6.7851715-3.0402107-6.7851715-6.7951279v-6.0401115z" fill="#ffc27c"/></g></g></g><g><g><path d="m53.491581 50.4397659v3.6760025c-3.1167831 1.3011246-6.8139648 1.618187-10.1683388.9720993-.8915291-.1717186-1.7207069.4900627-1.7207069 1.3979759 0 3.4631538 2.6021767 6.3169136 5.9398003 6.7328758-.2805786.0290489-.5611534.0580406-.8610954.0580406-3.7339249 0-6.781292-3.0471878-6.781292-6.7909164v-6.0460777z" fill="#f7b26d"/></g></g></g></g></g></g></g></g><g><g><path d="m68.0342865 103.1327133v-48.6587486c.0005646-.0006332.0008469-.0007744.0016861-.0013351 6.2948227 1.8447227 10.951767 7.720089 10.951767 14.6355782v34.0245056h-10.9534531z" fill="#e5f5f9"/></g></g><g><g><g><g><path d="m64.3523636 53.9535866v10.9222298c0 .4136353-.3349457.7485199-.7485161.7485199s-.7485161-.3348846-.7485161-.7485199v-11.020752c.5022965 0 1.0045929.0394325 1.4970322.0985222z" fill="#ffbc50"/></g></g><g><g><path d="m71.8470993 85.1962433c.0000076 1.7823563-1.4497452 3.2321243-3.2321014 3.2321243-.4146423 0-.7501602-.3358917-.7501602-.7501602-.0000076-.4142685.3355103-.7501526.750145-.7501526.9552841 0 1.7318039-.7769012 1.7317963-1.7318115l-.0000763-10.7673798c0-.4142761.3355179-.7501602.7501526-.7501602s.7501602.3358841.7501602.7501602" fill="#ffbc50"/></g></g><g><g><path d="m56.129612 73.6786957c.4146347 0 .7501564.3358917.7501602.7501602l.0000801 10.7673874c.0000038.9549103.7765388 1.7318039 1.7310867 1.7318039.4146385 0 .7501602.3358841.7501602.7501602.0000038.4142685-.3355141.7501526-.7501488.7501526-1.7816238 0-3.2313995-1.4497604-3.2314148-3.2321167l-.0000763-10.7673874c-.0000037-.4142685.3355141-.7501602.7501527-.7501602z" fill="#ffbc50"/></g></g><g><g><g><path d="m54.4291382 76.3928909-.0000038-.9001999c-.0000267-3.6832962 2.1905327-6.99897 5.5885735-8.4392624.3600578-.1500397.6226845-.4275894.7428246-.7576675l.7501411-2.107933c.1575012-.4426155.5699387-.7351418 1.0351257-.7351418l2.1154938.0000038c.465004 0 .8776245.2925262 1.0351334.7351379l.7501755 2.1079407c.119957.3300705.3825912.6076202.7426529.7576599 3.3907318 1.4402924 5.5886612 4.7559738 5.5886917 8.43927l.0000076.9001923c.0000076.8401718-.6074753 1.5753098-1.4101944 1.6953659-1.0442352.1740341-1.9504852-.6470032-1.9504929-1.6503601l-.0000076-.7501526c-.0000229-3.2106934-2.4230347-5.8512115-5.513588-6.0012589-1.5979309-.08255-3.1431122.4800644-4.3058815 1.590332-2.2454376 2.130188-1.7470436 4.7314606-1.8154678 5.1610794.0000076 1.0468292-.9372025 1.8205338-1.9427795 1.6503525-.8027192-.1200484-1.4103967-.8551864-1.4104043-1.6953582z" fill="#43a1ff"/></g></g></g><g><g><g><path d="m54.4291382 76.3928909-.0000038-.9001999c-.0000267-3.6832962 2.1905327-6.99897 5.5885735-8.4392624.3600578-.1500397.6226845-.4275894.7428246-.7576675l.7501411-2.107933c.1575012-.4426155.5699387-.7351418 1.0351257-.7351418l2.1154938.0000038c.465004 0 .8776245.2925262 1.0351334.7351379l.7501755 2.1079407c.119957.3300705.3825912.6076202.7426529.7576599 3.3907318 1.4402924 5.5886612 4.7559738 5.5886917 8.43927l.0000076.9001923c0 .0599823 0 .1200104-.0148315.1725235-.1952591-3.4807358-2.3406296-6.5563583-5.5738602-7.9291611-.3600616-.1500397-.6226883-.427597-.7426529-.7576675l-.7501755-2.1079407c-.1575012-.4425659-.5701294-.7351379-1.0351334-.7351379h-2.11549c-.4651871 0-.8776245.292572-1.0351257.7351379l-.7501411 2.1079407c-.1201401.3300705-.3827667.6076202-.7428246.7576675-3.2405396 1.3727951-5.3785362 4.4484177-5.5735588 7.9291534-.0150185-.052513-.0150185-.1125411-.0150223-.1725158z" fill="#2c8cff"/></g></g></g><g><g><g><g><path d="m64.3323669 87.6737442c0-.7651672.6225586-1.3880081 1.387619-1.3880081h2.055809c.7650681 0 1.3876343.6228409 1.3876419 1.3880081.0000076.7740784-.6225586 1.3969193-1.387619 1.3969193h-2.055809c-.765068 0-1.3876342-.6228409-1.3876419-1.3969193z" fill="#43a1ff"/></g></g><g><g><path d="m64.4220352 87.2101364c.1800308-.5401382.6977692-.9226761 1.2977524-.9226761h2.0554199c.7651749 0 1.3878708.6225967 1.3878784 1.3877716 0 .6076279-.3900909 1.1252365-.9301834 1.3052673.0600739-.1425323.0899277-.3000336.08992-.4650955 0-.7651749-.6225128-1.3952789-1.3876877-1.3952789h-2.0554198c-.157692 0-.3151932.0299912-.4576798.0900116z" fill="#2c8cff"/></g></g></g><g><g><g><path d="m58.0438194 87.6737442c-.0000076-.7651749.6225548-1.3880081 1.387619-1.3880081h2.055809c.7650642 0 1.3876343.6228409 1.3876381 1.3880081.0000038.7740784-.6225548 1.3969193-1.387619 1.3969193l-2.055809-.0000076c-.7650642-.0000001-1.3876343-.6228333-1.3876381-1.3969117z" fill="#43a1ff"/></g></g><g><g><path d="m58.1334839 87.2101364c.180027-.5401382.697773-.9226761 1.2977524-.9226761h2.0554237c.7651749 0 1.387867.6225967 1.3878708 1.3877716.0000076.6076279-.3900871 1.1252365-.9301758 1.3052673.06007-.1425323.08992-.3000412.08992-.4650955-.0000076-.7651749-.6225166-1.3952789-1.3876915-1.3952789h-2.0554237c-.1576843 0-.3151893.0299835-.4576759.0900116z" fill="#2c8cff"/></g></g></g></g></g><g><g><g><path d="m29.8099957 53.8452034v21.9922829c0 .3841171-.3152275.6992798-.6992226.6992798-.3938541 0-.7090816-.3151627-.7090816-.6992798v-21.9331932c.7684783-.0698319 1.3078136-.0570565 1.4083042-.0590897z" fill="#ffbc50"/></g></g><g><g><path d="m29.2430401 81.1266174c-1.7698421 0-3.2035084-1.4336395-3.2035141-3.2034149-.0000076-1.7698288 1.4336491-3.2034149 3.2034931-3.2034149 1.7673531 0 3.2010193 1.4335785 3.2010269 3.2034149.0000038 1.7697678-1.4336509 3.2034149-3.2010059 3.2034149z" fill="#43a1ff"/></g></g><g><g><path d="m27.4319153 80.5546646c-.8425026-.5664063-1.3947105-1.536232-1.3947144-2.6336136-.0000057-1.7699127 1.4371719-3.2000198 3.2071304-3.2000275 1.0903206 0 2.0602551.5522385 2.6337242 1.3875885-2.877859-1.9583663-6.4191627 1.5470658-4.4461402 4.4460526z" fill="#2c8cff"/></g></g><g><g><path d="m29.2423706 79.4190979c-.8264637.0000076-1.4959431-.6694641-1.495945-1.4958954-.0000038-.8264542.6694717-1.4958954 1.4959354-1.495903.8253021 0 1.4947815.6694412 1.4947834 1.495903.0000039.8264313-.6694717 1.4958954-1.4947738 1.4958954z" fill="#fff"/></g></g><g><g><path d="m28.4514084 79.1954269c-.4247723-.2691193-.7079849-.7363129-.7079868-1.2743759-.0000038-.8213501.6725864-1.4938889 1.5009155-1.4938889.5380726 0 1.0053673.283287 1.2673187.7150497-1.297657-.8513793-2.9061088.699669-2.0602474 2.0532151z" fill="#e5f5f9"/></g></g></g></g><g><g><path d="m44.1758957 92.1915359v10.9409866h-23.9408569c-3.2062187 0-5.8051243-2.5996323-5.8042345-5.8058472l.0078354-28.216629c0-5.3846779 3.0298223-10.9436188 8.1163874-13.4851761.9092731-.4643211 1.8572788-.8609772 2.8343353-1.1511765v37.7178421h18.7865333z" fill="#e5f5f9"/></g></g><g><g><g><g><path d="m41.7054749 99.0220413c.0043182 2.3151016 1.8812447 4.1887512 4.1922302 4.184906l8.9602242-.0079422c.8515587-.0014114 1.5283737-.6976776 1.526783-1.5508499-.001564-.8372574-.6809425-1.5154495-1.5325012-1.5140305l1.5770264-.0026245c.8515587-.0014191 1.5283737-.6976776 1.5267525-1.5666656-.001564-.837265-.6809387-1.5154495-1.5325012-1.5140381l1.1511993-.001915c.8516579-.0014114 1.5442581-.6977005 1.5426369-1.5665894-.001564-.8373642-.6967583-1.5313416-1.5484123-1.5299225l-2.0816879.0034637c.8358688-.0013885 1.5284691-.6976776 1.5269356-1.5191269-.0015907-.8531723-.665184-1.5313873-1.4852982-1.5458374l-7.8192787.0060425 1.4172707-1.1239853c.4723816-.3800278.7236328-.9333496.722599-1.4862518-.0007629-.4107742-.1434097-.821312-.4122238-1.1684799-.6480713-.8203735-1.8311043-.9606323-2.6499825-.3114853l-3.5032578 2.7726669c-1.0063591.7964859-1.5923805 2.0114288-1.5899811 3.2963791z" fill="#ffc27c"/></g></g></g><g><g><g><path d="m54.9429131 101.1590805c.4284439.0004959.8111229-.1795654 1.0821609-.4625931.2302895.2509079.3675613.5871811.3608284.9528122-.0009766.8568802-.6823463 1.5507813-1.5214996 1.5504379l-8.9627304.0085754c-2.3121719-.000946-4.1958237-1.8670349-4.195034-4.1790848l.0035477-.499794c.8005066 1.5252151 2.556118 2.636116 4.2698936 2.6381073z" fill="#f7b26d"/></g></g></g></g><g opacity=".3"><g><g><path d="m71.3022995 81.0064316c.5461884.0752563.9180527.5658722.8428192 1.1121674l-2.1023102 15.2658005c-.0752335.5463028-.5671844.9276733-1.1133728.852417-.5367126-.0739517-.9167938-.57547-.8415604-1.1217728l2.1023178-15.2658005c.0752335-.5463028.5753938-.9167633 1.1121064-.8428116z" fill="#fff"/></g></g></g><g><g><g><g><g><path d="m28.2935944 23.2728405v11.3191395h36.405014v-16.1246166c-1.5970497 2.8749447-4.6663704 4.8054771-8.1802216 4.8054771z" fill="#13181e"/></g></g></g></g><g><g><path d="m59.9843178 22.3241978v17.6595631c0 6.4973679-4.3880119 12.4417114-10.7624702 13.6994934-8.6365547 1.7041359-16.2138443-4.8806076-16.2138443-13.2066879v-18.1523686z" fill="#ffc27c"/></g></g><g><g><path d="m59.9798355 22.3284645v17.6571541c0 6.4962273-4.3881454 12.4391594-10.7602997 13.6983452-8.6330643 1.7075043-16.2071686-4.8840904-16.2071686-13.211834v-18.1436653z" fill="#ffc27c"/></g></g><g><g><path d="m59.9798355 22.3284645v3.4532032c-1.0873718.3720436-2.251133.5723305-3.462635.5723305h-23.5048333v-4.0255337z" fill="#f7b26d"/></g></g><g><g><g><path d="m50.8034935 33.8454247v1.9827995c0 1.2975006 1.0518341 2.3493347 2.3493347 2.3493347h.0000038c1.2975044 0 2.3493347-1.0518341 2.3493347-2.3493347v-1.9827995c0-1.2975006-1.0518303-2.3493347-2.3493347-2.3493347h-.0000038c-1.2975006-.0000001-2.3493347 1.051834-2.3493347 2.3493347z" fill="#24272b"/></g></g><g><g><path d="m37.4927864 33.8454247v1.9827995c0 1.2975006 1.0518341 2.3493347 2.3493347 2.3493347h.0000038c1.2975006 0 2.3493347-1.0518341 2.3493347-2.3493347v-1.9827995c0-1.2975006-1.0518341-2.3493347-2.3493347-2.3493347h-.0000038c-1.2975006-.0000001-2.3493347 1.051834-2.3493347 2.3493347z" fill="#24272b"/></g></g></g><g><g><g><path d="m46.4974251 40.6103859c-.4858589 0-.8800468-.3941879-.8800468-.880043v-2.1027145c0-.4858589.3941879-.8800468.8800468-.8800468s.880043.3941879.880043.8800468v2.1027145c0 .4858551-.3941841.880043-.880043.880043z" fill="#24272b"/></g></g></g><g><g><path d="m41.1750832 34.2224312c0 .4575691-.3755684.8330612-.8332062.8330612-.4693871 0-.833065-.3754921-.833065-.8330612 0-.4576416.363678-.8331375.833065-.8331375.4576378 0 .8332062.3754959.8332062.8331375z" fill="#fff"/></g></g><g><g><path d="m54.5783691 33.7589149c0 .4575691-.3755684.833065-.83321.833065-.4693832 0-.8330612-.3754959-.8330612-.833065 0-.4576416.363678-.8331337.8330612-.8331337.4576417.0000001.83321.3754921.83321.8331337z" fill="#fff"/></g></g><g><g><path d="m28.2935944 15.0878077v9.8331347h28.2247925c5.1665077 0 9.3608856-4.1804733 9.3608856-9.346983v-1.375041c0-2.6665821-2.1666985-4.8331966-4.8331985-4.8331966h-27.0302239c-3.1527329-.0000001-5.7222557 2.5693521-5.7222557 5.7220859z" fill="#24272b"/></g></g><g><g opacity=".3"><g><g><path d="m48.9845238 22.3241978-10.2200432-.0000229c-.5435448 0-.9833412-.4398384-.9832993-.9833927s.4399033-.9833908.983448-.9833889l10.2200432.0000229c.5435448 0 .9833412.4398384.9832993.9833927s-.4399033.9833908-.983448.9833889z" fill="#fff"/></g></g></g><g opacity=".3"><g><g><path d="m54.0307426 22.3241978-1.7559776-.0000229c-.5435448 0-.9833412-.4398384-.9832993-.9833927s.4399071-.9833908.9834518-.9833889l1.7559776.0000229c.5435448 0 .9833412.4398384.9832993.9833927s-.4399032.9833908-.9834518.9833889z" fill="#fff"/></g></g></g></g><g><g><path d="m59.9837494 30.3405819c-.0013733 0-.0025368.0004234-.0039139.0004234v9.4289761c.0013771 0 .0025406.0004234.0039139.0004234 2.6001358 0 4.714859-2.1147232 4.714859-4.714859 0-2.600132-2.1147232-4.7149639-4.714859-4.7149639z" fill="#ffc27c"/></g></g><g><g><path d="m33.0084534 30.3405819c.0013733 0 .0025368.0004234.0039139.0004234v9.4289761c-.0013771 0-.0025406.0004234-.0039139.0004234-2.6001339 0-4.714859-2.1147232-4.714859-4.714859 0-2.600132 2.1147251-4.7149639 4.714859-4.7149639z" fill="#ffc27c"/></g></g><g><g><path d="m64.5294037 36.2761269c-.529129 2.0078583-2.3630257 3.4937973-4.5448418 3.4937973 0 0 0 0-.0072556 0v-9.4303036h.0072556c.2827911 0 .5581512.0217228.8264313.0724678v7.6906834h.0072556c1.5075759 0 2.8558807-.717598 3.7111549-1.8266449z" fill="#f7b26d"/></g></g><g><g><path d="m28.3769302 36.2761269c.529129 2.0078583 2.3630295 3.4937973 4.5448456 3.4937973h.0072556v-9.4303036c-.0072556 0-.0072556 0-.0072556 0-.2827911 0-.5581512.0217228-.8264313.0724678v7.6906834h-.0072555c-1.507576 0-2.8558807-.717598-3.7111588-1.8266449z" fill="#f7b26d"/></g></g></g><g><g><g><path d="m51.5431328 46.6212616c-1.5422592 4.1112976-7.3484535 4.0846481-8.913353 0-.2938652-.7836189.30476-1.6106834 1.1427841-1.6106834h6.6277885c.8380204 0 1.4365159.8270645 1.1427804 1.6106834z" fill="#24272b"/></g></g><g><g><path d="m49.5640793 47.7042198c-1.2732162 1.4961739-3.6231613 1.5383339-4.955246-.0074348 1.3040619-1.5321808 3.6682243-1.5210648 4.955246.0074348z" fill="#fc545d"/></g></g></g></g><g><g><g><g><g><path d="m84.1474152 83.0700836s-6.0416031 6.5111313-2.4209595 16.8366699l7.1148682-1.2743454-2.0412674-12.9180984z" fill="#ffb32c"/></g></g><g><g><g><path d="m91.0024261 101.5529327c0 1.6424561-1.2459259 2.0290451-3.040802 2.1174088-.6074982.2860794-1.3486557.4528656-2.1483459.4528656-.798584 0-1.5397263-.1667862-2.1483307-.4528656-1.7937698-.0883636-3.040802-.4749527-3.040802-2.1174088 0-2.2433243 2.3239594-4.0613937 5.1891327-4.0613937 2.8662949 0 5.1891479 1.8180695 5.1891479 4.0613937z" fill="#e5f5f9"/></g></g><g><g><g><path d="m83.9742279 101.8379059c0 .5789413-.0713348 1.2889481-.2761383 1.8324356-.2051773-.5497818-.2740021-1.2435303-.2761307-1.8324356 0-.5796661.0717392-1.2889099.2761307-1.8313293.1148758.3048553.2782288 1.2552871.2761383 1.8313293z" fill="#d3e6ed"/></g></g><g><g><path d="m88.2377548 101.8379059c0 .5810089-.0721741 1.2911148-.2761307 1.8324356-.2039185-.5411835-.2761383-1.2511902-.2761383-1.8324356 0-.3048477.0187836-.6097031.0585403-.915657.0430832-.3048553.1027298-.610817.217598-.9156723.2057343.5460357.2761307 1.2455444.2761307 1.8313293z" fill="#d3e6ed"/></g></g><g><g><path d="m86.0894241 102.2907791c0 .305954-.0187836.6108017-.059639.9167633-.0430908.3048553-.1016388.610817-.2164993.9156647-.1148605-.3048477-.1734085-.6108093-.2164993-.9156647-.0408554-.3059616-.059639-.6108093-.059639-.9167633 0-.5857925.0703964-1.2852859.2761383-1.831337.1148605.3048553.1745148.610817.2175903.9156723.0397645.305954.058548.6108094.058548.9156647z" fill="#d3e6ed"/></g></g></g></g></g><g><g><g><path d="m114.5184708 83.0700836s5.7789993 6.5111313 2.1583557 16.8366699l-7.1148682-1.2743454 2.0412674-12.9180984z" fill="#ffb32c"/></g></g><g><g><g><path d="m107.4008484 101.5529327c0 1.6424561 1.2459259 2.0290451 3.0408096 2.1174088.6074982.2860794 1.3486557.4528656 2.1483459.4528656.7985764 0 1.5397186-.1667862 2.1483231-.4528656 1.7937775-.0883636 3.0408096-.4749527 3.0408096-2.1174088 0-2.2433243-2.3239594-4.0613937-5.1891327-4.0613937-2.8662948 0-5.1891555 1.8180695-5.1891555 4.0613937z" fill="#e5f5f9"/></g></g><g><g><g><path d="m114.4290543 101.8379059c0 .5789413.0713272 1.2889481.2761307 1.8324356.2051849-.5497818.2740097-1.2435303.2761383-1.8324356 0-.5796661-.0717392-1.2889099-.2761383-1.8313293-.2046662.5431442-.2782212 1.2552871-.2761307 1.8313293z" fill="#d3e6ed"/></g></g><g><g><path d="m110.1655197 101.8379059c0 .5810089.0721741 1.2911148.2761383 1.8324356.2039108-.5411835.2761383-1.2511902.2761383-1.8324356 0-.5857849-.0703964-1.2852783-.2761383-1.8313293-.2057342.5460357-.2761383 1.2455444-.2761383 1.8313293z" fill="#d3e6ed"/></g></g><g><g><path d="m112.313858 102.2907791c0 .5810013.0721741 1.2911072.2761383 1.832428.2039108-.5411835.2761307-1.2511826.2761307-1.832428 0-.5857925-.0703888-1.2852859-.2761307-1.831337-.2057342.5460358-.2761383 1.2455445-.2761383 1.831337z" fill="#d3e6ed"/></g></g></g></g></g></g><g><g><path d="m111.6400909 98.2407227-3.7211761 4.9501953h-17.4345474l-3.7211761-4.9501953s-6.362999-15.7906189-1.7358398-27.1195908c4.6245346-11.3315277 14.1756058-1.5441055 14.1756058-1.5441055s9.548439-9.7874222 14.172966 1.5441055c4.6271666 11.3289719-1.7358324 27.1195908-1.7358324 27.1195908z" fill="#e5f5f9"/></g></g><g><g><path d="m111.6412582 98.2409286-3.7211761 4.9501648h-17.4345474l-3.7211761-4.9501648s-6.362999-15.7906494-1.7358322-27.1195908c.0761642-.1864395.1549301-.3676224.2336884-.5436172 4.7033615-10.4675369 13.9419098-1.0005188 13.9419098-1.0005188s9.2332916-9.4643898 13.9366531.9979248c.0813904.1759567.1601563.3571472.2363205.5462112 4.627159 11.3289414-1.73584 27.1195908-1.73584 27.1195908z" fill="#ffbc50"/></g></g><g><g><path d="m113.1407776 70.5751266c-1.7811966 6.133522-9.9221344 11.1012039-12.8698349 12.7276154-.6668701.3679504-1.4720383.3679886-2.1389313.0000916-2.9473495-1.6259155-11.0865097-6.5917358-12.8697968-12.7251129 4.7033615-10.4675369 13.9419098-1.0005188 13.9419098-1.0005188s9.2332917-9.4643899 13.9366532.9979247z" fill="#fc545d"/></g></g><g><g><g><path d="m101.2925873 101.1652069c0 1.8902206 1.433876 2.3351288 3.4995193 2.436821.6991425.3292313 1.5521088.5211792 2.4724274.5211792.9190521 0 1.7719955-.1919479 2.4724121-.5211792 2.0643692-.1016922 3.4995193-.5466003 3.4995193-2.436821 0-2.5817413-2.6745377-4.6740723-5.9719315-4.6740723-3.2986831 0-5.9719466 2.092331-5.9719466 4.6740723z" fill="#fff"/></g></g><g><g><g><path d="m109.381012 101.4931641c0 .666275.0820923 1.4833832.3177872 2.1088638.2361374-.6327209.3153458-1.4311218.3177948-2.1088638 0-.6671066-.0825653-1.4833527-.3177948-2.1075897-.2355424.6250762-.3201905 1.4446487-.3177872 2.1075897z" fill="#e5f5f9"/></g></g><g><g><path d="m104.4743195 101.4931641c0 .6686554.0830612 1.485878.3177872 2.1088638.2346725-.6228256.3177948-1.4399338.3177948-2.1088638 0-.6741486-.0810165-1.4791641-.3177948-2.1075897-.2367707.6284027-.3177872 1.4334335-.3177872 2.1075897z" fill="#e5f5f9"/></g></g><g><g><path d="m106.9467392 102.0143509c0 .6686554.0830536 1.485878.3177872 2.1088562.2346725-.6228256.3177948-1.4399338.3177948-2.1088562 0-.6741562-.0810165-1.4791718-.3177948-2.1075974-.2367707.6284104-.3177872 1.4334336-.3177872 2.1075974z" fill="#e5f5f9"/></g></g></g></g><g><g><path d="m98.688 86.672h1.028v16.519h-1.028z" fill="#ffb32c"/></g></g><g><g><g><path d="m105.7063141 84.5511475c0 2.1379929-4.0484161 2.6391907-6.2054367 2.6391907-3.3456345 0-6.7332916-.905983-6.7332916-2.6391907 0 .9934692 5.1617508 1.5887604 6.7332916 1.5887604 3.6738891-.0000001 6.2054367-1.050438 6.2054367-1.5887604z" fill="#ffb32c"/></g></g></g><g><g><g><path d="m97.1111832 101.1652069c0 1.8902206-1.433876 2.3351288-3.4995193 2.436821-.6991425.3292313-1.5521011.5211792-2.4724274.5211792-.9190445 0-1.7719955-.1919479-2.4724045-.5211792-2.0643692-.1016922-3.4995193-.5466003-3.4995193-2.436821 0-2.5817413 2.67453-4.6740723 5.9719238-4.6740723 3.2986831 0 5.9719467 2.092331 5.9719467 4.6740723z" fill="#fff"/></g></g><g><g><g><path d="m89.0227661 101.4931641c0 .666275-.0820923 1.4833832-.3177948 2.1088638-.2361298-.6327209-.3153381-1.4311218-.3177872-2.1088638 0-.6671143.0825577-1.4833527.3177872-2.1075897.2355423.6250762.3201981 1.4446487.3177948 2.1075897z" fill="#e5f5f9"/></g></g><g><g><path d="m93.9294586 101.4931641c0 .6686554-.0830612 1.485878-.3177948 2.1088638-.2346725-.6228256-.3177872-1.4399338-.3177872-2.1088638 0-.6741486.0810089-1.4791641.3177872-2.1075897.2367706.6284027.3177948 1.4334335.3177948 2.1075897z" fill="#e5f5f9"/></g></g><g><g><path d="m91.4570389 102.0143509c0 .6686554-.0830612 1.485878-.3177948 2.1088562-.2346725-.6228256-.3177872-1.4399338-.3177872-2.1088562 0-.6741562.0810089-1.4791718.3177872-2.1075974.2367706.6284104.3177948 1.4334336.3177948 2.1075974z" fill="#e5f5f9"/></g></g></g></g><g><g><g><g><g><path d="m82.3562393 42.4580574c2.4066696-.251152 7.2809982.3330269 11.6024704 7.6281853l-10.6693878 8.7627335s-5.607933-6.7355423-2.9481506-14.7569656c.2960281-.892769 1.0795822-1.5363275 2.015068-1.6339532z" fill="#ffb32c"/></g></g><g><g><path d="m83.7565613 55.7462387c-1.2663269-2.2601128-2.9327774-6.4338036-1.4211349-10.9930115.037735-.1135368.1315536-.1942444.2390442-.2055283.2122498-.0221138.4311142-.033287.6505508-.033287 2.0511627 0 5.0110703.9349594 7.9555893 5.1345253z" fill="#fc545d"/></g></g></g><g><g><g><path d="m116.0470352 42.4580574c-2.4066696-.251152-7.2809906.3330269-11.6024628 7.6281853l10.6693802 8.7627335s5.6079407-6.7355423 2.9481583-14.7569656c-.2960358-.892769-1.0795822-1.5363275-2.0150757-1.6339532z" fill="#ffb32c"/></g></g><g><g><path d="m114.6467133 55.7462387c1.2663345-2.2601128 2.9327774-6.4338036 1.4211349-10.9930115-.0377274-.1135368-.131546-.1942444-.2390366-.2055283-.2122574-.0221138-.4311218-.033287-.6505508-.033287-2.0511703 0-5.0110779.9349594-7.9555893 5.1345253z" fill="#fc545d"/></g></g><g><g><path d="m116.2285538 45.2794495c-.0980301-.0070114-.1960602-.009346-.2941513-.009346-2.0380554 0-4.967926.9221916-7.895462 5.0496559l-.8170929-.6700401c2.946228-4.199852 5.9040833-5.1360092 7.9561615-5.1360092.2194366 0 .4389267.0116844.6513519.0350533.1073761.009346.2007904.0910225.2381287.2054138.0583572.1750907.1120528.3501815.1610641.5252723z" fill="#f14448"/></g></g><g><g><path d="m82.1739044 45.2794495c.0980301-.0070114.1960678-.009346.2941513-.009346 2.038063 0 4.9679337.9221916 7.895462 5.0496559l.8170929-.6700401c-2.946228-4.199852-5.9040833-5.1360092-7.9561615-5.1360092-.219429 0-.4389267.0116844-.6513443.0350533-.1073837.009346-.200798.0910225-.2381287.2054138-.0583648.1750907-.1120528.3501815-.1610717.5252723z" fill="#f14448"/></g></g></g></g><g><g><ellipse cx="99.202" cy="62.146" fill="#ffbc50" rx="18.28" ry="17.206"/></g></g><g><g><path d="m100.25 79.3236771c-.3500977.0200195-.6999512.0300293-1.0500488.0300293-10.0900879 0-18.2800293-7.710022-18.2800293-17.210022s8.1899414-17.2000122 18.2800293-17.2000122c.3500977 0 .6999512.0100098 1.0500488.0300293-9.6101074.5100098-17.2399902 8-17.2399902 17.1699829s7.6298828 16.6699829 17.2399902 17.1799927z" fill="#ffb32c"/></g></g><g><g><path d="m114.419281 71.6808853c-3.2777176 4.6247482-8.8689499 7.6713181-15.2165756 7.6713181-6.3803406 0-11.9972153-3.0769424-15.2655869-7.7413712 3.7959213-2.7921066 9.1980972-4.5360107 15.1955414-4.5360107 6.0441818 0 11.486023 1.7719421 15.2866211 4.6060638z" fill="#fff"/></g></g><g><g><path d="m100.2399902 79.3136673c-.3400879.0300293-.6899414.0400391-1.0400391.0400391-6.380127 0-11.9899902-3.0800171-15.2600098-7.7399902 3.7900391-2.7900391 9.1999512-4.5400391 15.1899414-4.5400391.3300781 0 .6501465.0100098.9702148.0200195-5.5400391.2000122-10.5200195 1.9000244-14.0700684 4.5200195 3.0898439 4.3999634 8.2700197 7.3999634 14.2099611 7.6999512z" fill="#e5f5f9"/></g></g><g><g><g><g><path d="m93.5621185 58.8489761v3.5316963c0 .7187309-.5818329 1.3005943-1.3005905 1.3005943-.711174 0-1.3005981-.5757446-1.3005981-1.3005943v-3.5316963z" fill="#24272b"/></g></g><g><g><path d="m94.9058609 59.5586853c0 .397644-.3268967.7073784-.7073441.7073784h-3.852005c-.3898773 0-.7073746-.317524-.7073746-.7073784 0-.3954926.3216095-.7097092.7073746-.7097092h3.852005c.3898774 0 .7073441.317524.7073441.7097092z" fill="#13181e"/></g></g></g><g><g><g><path d="m107.4203949 58.8489761v3.5316963c0 .7187309-.5818329 1.3005943-1.3005905 1.3005943-.711174 0-1.3005905-.5757446-1.3005905-1.3005943v-3.5316963z" fill="#24272b"/></g></g><g><g><path d="m108.7641449 59.5586853c0 .397644-.3269043.7073784-.7073517.7073784h-3.852005c-.3898773 0-.7073746-.317524-.7073746-.7073784 0-.3954926.3216095-.7097092.7073746-.7097092h3.852005c.389885 0 .7073517.317524.7073517.7097092z" fill="#13181e"/></g></g></g></g><g><g><g><path d="m100.0781631 44.9596443v7.0363083c0 .4832649-.392189.8754539-.8754578.8754539-.4855499 0-.8777924-.3930702-.8777924-.8754539v-7.0363083c.2918243-.014019.5836411-.0210304.8777924-.0210304.294159 0 .5859757.0070114.8754578.0210304z" fill="#f49f16"/></g></g><g><g><path d="m95.7102356 45.2538033v4.8745079c0 .4832687-.392189.8754578-.8754578.8754578-.4893188 0-.8754578-.3996086-.8754578-.8754578v-4.4706383c.5719529-.161068 1.1555939-.2964897 1.7509156-.4038696z" fill="#f49f16"/></g></g><g><g><path d="m104.4437561 45.6576729v4.4706383c0 .4832687-.392189.8754578-.8754501.8754578-.4828491 0-.8754578-.3935165-.8754578-.8754578v-4.8745079c.5953217.1073799 1.1789551.2428016 1.7509079.4038696z" fill="#f49f16"/></g></g></g><g><g><g><path d="m101.8219147 71.9596176c-1.0835571 0-2.0428314-.5425949-2.6202774-1.3703003-.5774384.8277054-1.5367126 1.3703003-2.6202698 1.3703003-1.4820633 0-2.7587128-1.0052795-3.1045456-2.4446716-.0738449-.3074341.1155014-.6165771.4229431-.6904221.3070297-.0737839.6165085.1154327.6904297.4229355.2216797.9226608 1.0404739 1.5670776 1.9911728 1.5670776 1.129158 0 2.0477295-.9185715 2.0477295-2.0477371 0-.3162155.2563248-.5725403.5725403-.5725403.3162231 0 .5725479.2563248.5725479.5725403 0 1.1291656.9185715 2.0477371 2.0477295 2.0477371.9506989 0 1.7694931-.6444168 1.9911728-1.5670776.0737762-.3075027.3830566-.496788.6904221-.4229355.3074417.0738449.4967957.382988.4229431.6904221-.3458253 1.4393921-1.6224747 2.4446716-3.104538 2.4446716z" fill="#24272b"/></g></g></g><g><g><path d="m101.0637589 65.6438675c.4310989 0 .7805786.3494797.7805786.7805786v.0831909c0 .7494354-.3034744 1.428772-.7937546 1.9189911-.5745468.574585-1.408844.8926392-2.3111801.7662659-1.3502045-.1890945-2.3205566-1.4050522-2.3205566-2.7684326v-.0000153c0-.4310989.3494797-.7805786.7805786-.7805786z" fill="#24272b"/></g></g></g></g><g opacity=".3"><g><g><g><path d="m114.0927734 62.7460403c-.3310547 0-.5996094-.2685547-.5996094-.6000977 0-2.8100586-.9160156-5.5004883-2.6474609-7.78125-.2011719-.2636719-.1494141-.6401367.1142578-.8408203.2617188-.1992188.6396484-.1494141.8408203.1152344 1.8916016 2.4912109 2.8916016 5.4326172 2.8916016 8.5068359 0 .3315431-.2685547.6000977-.5996094.6000977z" fill="#fff"/></g></g></g><g><g><g><path d="m109.3740234 52.7230911c-.3359375-.3208008-.6953125-.6298828-1.0683594-.9189453-.2617188-.2036133-.3085938-.5805664-.1054688-.8422852s.5800781-.309082.8417969-.105957c.4042969.3139648.7949219.6499023 1.1601563.9980469.2402344.2290039.2490234.6083984.0205078.8486328-.2297973.2402382-.608551.2484818-.8486328.0205078z" fill="#fff"/></g></g></g></g><g opacity=".3"><g><g><g><path d="m112.0615234 81.9374466c-.0029297 0-.0068359 0-.0097656-.0004883-.3867188-.0053711-.6953125-.3227539-.6904297-.7094727.0068359-.4760742.0039063-.953125-.0107422-1.4306641-.0126953-.3867188.2900391-.7099609.6767578-.722168.4257813.0112305.7099609.2915039.7216797.6772461.0166016.4990234.0195313.9975586.0126953 1.4951172-.0058593.3833009-.3183593.6904298-.7001953.6904298z" fill="#fff"/></g></g></g><g><g><g><path d="m109.5234375 95.2509232c-.3691406-.1152344-.5742188-.5083008-.4589844-.8769531.7539063-2.4067383 1.734375-6.1289063 2.1279297-10.190918.0371094-.3847656.3886719-.659668.7636719-.6293945.3847656.0371094.6669922.3793945.6289063.7641602-.4042969 4.1821289-1.4111328 8.0043945-2.1845703 10.4741211-.1172181.3742369-.5153428.5735778-.8769532.4589843z" fill="#fff"/></g></g></g></g></g></svg>