<svg id="Capa_1" enable-background="new 0 0 512 512" height="512" viewBox="0 0 512 512" width="512" xmlns="http://www.w3.org/2000/svg"><g><g fill="#ffb6bd"><path d="m398.746 452.61c.021 11.282-4.549 32.303-19.412 28.247-48.123-11.745-96.647-24.647-146.633-24.783-35.043-1.611-66.666 18.416-100.189 22.282-61.7-37.412 43.097-153.732 64.446-196.421 6.624-11.385 11.519-24.428 21.374-33.566 8.837-9.23 21.586-15.245 32.099-17.016 71.005-3.281 77.125 87.344 115.089 129.212 7.968 8.595 20.497-2.617 12.872-11.535-9.559-11.353-16.527-25.084-23.144-38.617-23.039-54.314-61.418-122.532-130.922-90.456-21.783 10.398-34.275 30.868-45.015 51.396-14.777 23.303-31.575 45.379-46.703 68.694-32.778 44.98-83.577 145.893-1.95 167.915 31.682-.395 59.234-16.616 89.403-20.702 14.206-1.161 28.466-.156 42.742.365 38.223 2.576 75.532 11.661 113.489 16.957 29.56 4.529 44.402-28.561 39.653-53.205-1.806-10.504-16.884-9.502-17.199 1.233z"/><path d="m366.729 174.757c40.36-21.318 53.46-77.246 34.587-116.712-39.247-115.238-145.786-23.156-119.777 63.675 5.451 38.545 46.742 73.938 85.19 53.037zm-56.51-124.949c23.911-44.694 61.998-29.7 74.651 13.559 2.155 17.438 1.073 33.98-4.639 49.428-40.571 91.621-104.17-5.286-70.012-62.987z"/><path d="m167.597 180.502c6.897.833 13.274-3.109 15.885-9.157 57.295-10.941 57.044-99.664 31.804-139.156-45.695-68.947-126.418 8.32-112.26 70.562 4.954 34.912 25.553 73.547 64.571 77.751zm12.414-151.176c32.807 16.092 36.978 64.569 29.694 96.499-3.676 13.868-13.119 27.338-27.584 30.911-2.515-3.736-6.637-6.34-11.475-6.732-25.699-2.288-36.79-31.35-41.114-53.72-5.944-28.159 16.747-75.557 50.479-66.958z"/><path d="m493.167 187.072c-58.602-59.937-124.06 56.617-92.554 107.007 20.868 36.355 77.159 33.841 97.345-1.885 19.414-31.225 19.502-76.472-4.791-105.122zm-8.452 76.506c-13.047 65.422-98.874 36.584-70.746-25.028 28.873-65.208 77.251-38.37 70.746 25.028z"/><path d="m116.956 293.874c6.159-19.008 2.552-39.548-3.022-58.235-10.439-35.553-49.217-74.145-87.668-51.94-42.517 28.353-27.569 97.487 3.533 128.945 26.063 27.777 76.592 19.576 87.157-18.77zm-21.88-13.796c-14.719 30.577-46.028 19.182-59.879-5.851-16.547-23.943-21.936-77.971 18.199-78.65 35.617 4.581 55.725 53.57 41.68 84.501z"/></g><path d="m301.178 355.377c-10.173-1.004-21.328-2.952-32.645-4.389 1.111-8.662 2.169-17.274 2.949-25.519 1.078-9.484-7.162-17.876-16.678-16.922-8.469.754-14.724 8.23-13.971 16.699.688 7.957 1.223 15.973 1.754 24.003-10.537.197-20.657 1.861-29.657 6.256-12.066 8.143-.304 20.977 9.745 23.039 7.408 2.56 14.868 1.881 22.12-.099.774 14.382 1.923 34.214 9.747 34.257 11.903.088 7.199-18.439 9.628-26.289.472-4.543 1.024-9.21 1.608-13.931 10.795-1.745 21.909-1.63 32.724-.508 10.723 1.894 13.483-15.021 2.676-16.597z" fill="#41efcd"/></g></svg>