<svg id="Layer_1" enable-background="new 0 0 463.998 463.998" height="512" viewBox="0 0 463.998 463.998" width="512" xmlns="http://www.w3.org/2000/svg"><path d="m227.169 164.28c-166.39 0-249.6 228.19-130.55 288.46 60.66 30.71 126.28-10.84 130.55-13.64 4.27 2.8 69.9 44.35 130.56 13.64 119.05-60.27 35.84-288.46-130.56-288.46z" fill="#ffa4b8"/><path d="m332.689 199.52c-14.63-4.04-30.17-6.24-46.52-6.24-152.24 0-234.84 191.02-156.61 269.67-10.88-1.48-21.99-4.67-32.94-10.21-119.05-60.27-35.84-288.46 130.55-288.46 40.74 0 76.5 13.68 105.52 35.24z" fill="#ffbfcb"/><path d="m299.569 291.97v27.1c0 9.03-7.32 16.35-16.35 16.35h-26.14v26.15c0 9.03-7.33 16.35-16.36 16.35h-27.1c-9.03 0-16.35-7.32-16.35-16.35v-26.15h-26.14c-9.03 0-16.36-7.32-16.36-16.35v-27.1c0-9.03 7.33-16.35 16.36-16.35h26.14v-26.15c0-9.03 7.32-16.35 16.35-16.35h27.1c9.03 0 16.36 7.32 16.36 16.35v26.15h26.14c9.03 0 16.35 7.32 16.35 16.35z" fill="#eef7ff"/><path d="m398.209 64.67c70.57 29.82-5.93 119.67-43.81 103.66-37.77-15.96-26.83-133.51 43.81-103.66z" fill="#ffa4b8"/><path d="m415.669 75.75c-49.53-9.73-62.84 61.47-45.22 93.87-5.72 1.07-11.2.76-16.05-1.29-37.77-15.96-26.83-133.51 43.81-103.66 7.34 3.1 13.1 6.86 17.46 11.08z" fill="#ffbfcb"/><path d="m231.999 0c88.22 0 47.18 129.47 0 129.47-47.31 0-88.14-129.47 0-129.47z" fill="#ffa4b8"/><path d="m233.879 129.4c-47.851 3.858-91.339-129.4-1.88-129.4 19.16 0 32.22 6.11 40.45 15.67-75.85-10.236-74.49 73.823-38.57 113.73z" fill="#ffbfcb"/><path d="m65.789 64.67c70.64-29.85 81.58 87.7 43.81 103.66-37.88 16.01-114.38-73.84-43.81-103.66z" fill="#ffa4b8"/><path d="m96.789 170.07c-39.34-3.7-94.26-78.67-31-105.4 23.04-9.73 39.72-3.79 50.44 9.19-50.606 1.152-70.04 55.052-19.44 96.21z" fill="#ffbfcb"/></svg>