<svg height="512" viewBox="0 0 512 512" width="512" xmlns="http://www.w3.org/2000/svg" xmlns:xlink="http://www.w3.org/1999/xlink"><clipPath id="clip-path"><path d="m431.1 179.33c11.68-23.52 30.45-29.2 27.65-42.68-1.7-8.16-10.36-14.65-18.47-15.92-11.06-1.74-20 6.38-24.85 10.83-22.33 20.35-21.67 54.54-21.1 64.87 1.54 14.87 3.12 27.07 5 35.61 3.09 13.85 6.52 21.8 2.39 31.53-4.51 10.61-15.06 16.38-23.25 19.58 0 0-82.81-63.53-86.63-64s-7.64 3.34-9.07 8.12 35.35 57.33 35.35 57.33c-11 5.71-34.85 16.16-65.77 13.85-51.46-3.84-82.09-40-87.9-47.14l-83.45 31.84c6.17 19.63 30.49 88.41 100 125.48 69.33 37 171.51 36.07 215.29-18.47 19.47-24.25 36.26-70.14 31.35-110.24-.93-7.63-3.77-20.53-3.67-40.54.17-29.38-.81-44.07 7.13-60.05z"/></clipPath><clipPath id="clip-path-2"><path d="m193.19 232.61a54 54 0 0 0 -6.9-11.7s-11.24-20.64-30.59-25.66c0 0-9.07-22.93-15.52-22.93s-21.5 24.18-21.5 24.18-24.36-.05-54 22.4c0 0-33-6-33.68 0s12.91 33.44 12.91 33.44a114.86 114.86 0 0 0 0 21.1 54.55 54.55 0 0 0 4.39 21.41c.5 1.15 1 2.27 1.6 3.37a38.93 38.93 0 0 0 12 15.59c20 18.11 53.35 22.79 84.36 9.47 40.11-17.15 61.07-57.76 46.93-90.67z"/></clipPath><g id="Cat_playing_with_knitting_yarn" data-name="Cat playing with knitting yarn"><path d="m202.05 295.1 29.74-60.38 15.65 2.81-15.65 69.16z" fill="#ef9eb2"/><path d="m316.3 308.9s1.78-102.32 3.55-104.65 11.64-5.87 15.37-3.54 26.19 85.88 26.19 85.88z" fill="#ef9eb2"/><circle cx="267.7" cy="219.07" fill="#9dabba" r="60.87"/><path d="m218.61 214.86a3.84 3.84 0 0 1 -1.19-.19 4 4 0 0 1 -2.63-5 82.28 82.28 0 0 1 14.5-25.79c13.77-16.36 31.85-22.7 52.26-18.34a4 4 0 1 1 -1.67 7.83c-17.51-3.75-32.43 1.46-44.32 15.48a75.47 75.47 0 0 0 -13.13 23.2 4 4 0 0 1 -3.82 2.81z" fill="#c1d1e0"/><path d="m236.15 221.7a4 4 0 0 1 -3.72-5.47 81.33 81.33 0 0 1 12.81-20.59c11.62-13.64 26.06-20.76 41.76-20.64a4 4 0 0 1 0 8h-.44c-31.82 0-46.46 35.81-46.6 36.17a4 4 0 0 1 -3.81 2.53z" fill="#c1d1e0"/><path d="m249.73 240.76c-22.28 0-38.83-13.48-39.66-14.17a4 4 0 1 1 5.1-6.16c.27.22 21.73 17.55 46.79 10.69a4 4 0 1 1 2.12 7.71 54.18 54.18 0 0 1 -14.35 1.93z" fill="#c1d1e0"/><path d="m244.86 255.65c-15.64 0-25.22-6.56-25.8-7a4 4 0 0 1 4.59-6.55c.74.51 17.42 11.64 43.12.79a4 4 0 0 1 3.11 7.37 64 64 0 0 1 -25.02 5.39z" fill="#c1d1e0"/><path d="m254.84 223.07a4 4 0 0 1 -1.28-7.79c.28-.09 26.41-9.15 55.44-35.42a4 4 0 0 1 5.37 5.94c-30.36 27.47-57.13 36.68-58.25 37.06a3.86 3.86 0 0 1 -1.28.21z" fill="#c1d1e0"/><path d="m279.56 234.13a4 4 0 0 1 -1.09-7.85c.37-.11 27.11-7.95 38.83-28.33a4 4 0 1 1 6.93 4c-13.38 23.28-42.35 31.69-43.58 32a3.74 3.74 0 0 1 -1.09.18z" fill="#c1d1e0"/><path d="m257.77 267.72h-.87a4 4 0 0 1 .37-8 53.89 53.89 0 0 0 18.19-3c12.11-4.31 19.74-12.5 22.7-24.35a4 4 0 1 1 7.76 1.93c-7.99 32.01-42.22 33.42-48.15 33.42z" fill="#c1d1e0"/><path d="m265.11 279.51a4 4 0 0 1 -.33-8 70.89 70.89 0 0 0 26.16-8.51c16.6-9.56 24.65-24.74 23.92-45.13a4 4 0 1 1 8-.29c1.06 29.52-14.73 44.84-28.17 52.5a78 78 0 0 1 -29.24 9.44z" fill="#c1d1e0"/><g clip-path="url(#clip-path)"><path d="m431.1 179.33c11.68-23.52 30.45-29.2 27.65-42.68-1.7-8.16-10.36-14.65-18.47-15.92-11.06-1.74-20 6.38-24.85 10.83-22.33 20.35-21.67 54.54-21.1 64.87 1.54 14.87 3.12 27.07 5 35.61 3.09 13.85 6.52 21.8 2.39 31.53-4.51 10.61-15.06 16.38-23.25 19.58 0 0-82.81-63.53-86.63-64s-7.64 3.34-9.07 8.12 35.35 57.33 35.35 57.33c-11 5.71-34.85 16.16-65.77 13.85-51.46-3.84-82.09-40-87.9-47.14l-83.45 31.84c6.17 19.63 30.49 88.41 100 125.48 69.33 37 171.51 36.07 215.29-18.47 19.47-24.25 36.26-70.14 31.35-110.24-.93-7.63-3.77-20.53-3.67-40.54.17-29.38-.81-44.07 7.13-60.05z" fill="#f3b8c4"/><g fill="#ce668b"><path d="m114 373.44s37.7-32 46.89-28.66-19 49.2-19 49.2z"/><path d="m177.69 419.78s29.14-44.43 34.39-39.65-7.64 50.64-7.64 50.64z"/><path d="m250.78 446.06s9-53.51 16.92-52.08 14.61 46.34 14.61 46.34z"/><path d="m321 443.19s-.15-54 7.57-54 25.43 41.58 25.43 41.58z"/><path d="m399.35 407.84s-30.57-39.65-21-42.52 43.95 8.12 43.95 8.12z"/></g></g><path d="m294.72 178.23a4 4 0 0 1 -.61-7.95c6.52-1 9-6.52 9.82-8.84 1.85-5.49.83-11.52-2.53-15-2.23-2.31-5.74-4.57-9.46-7-9.15-5.9-21.69-14-16.08-27.58 5.88-14.25 17.92-15.92 23.47-14.82a4 4 0 0 1 -1.52 7.85c-1-.18-9.86-1.37-14.55 10-2.86 6.94 3 11.36 13 17.81 4.12 2.65 8 5.16 10.88 8.14 5.38 5.58 7.13 14.87 4.36 23.11-2.6 7.72-8.65 13-16.18 14.2a4.21 4.21 0 0 1 -.6.08z" fill="#9dabba"/><g clip-path="url(#clip-path-2)"><path d="m193.19 232.61a54 54 0 0 0 -6.9-11.7s-11.24-20.64-30.59-25.66c0 0-9.07-22.93-15.52-22.93s-21.5 24.18-21.5 24.18-24.36-.05-54 22.4c0 0-33-6-33.68 0s12.91 33.44 12.91 33.44a114.86 114.86 0 0 0 0 21.1 54.55 54.55 0 0 0 4.39 21.41c.5 1.15 1 2.27 1.6 3.37a38.93 38.93 0 0 0 12 15.59c20 18.11 53.35 22.79 84.36 9.47 40.11-17.15 61.07-57.76 46.93-90.67z" fill="#f3b8c4"/><g fill="#ce668b"><path d="m66.22 213.72s10.19 11.19 14.78 10.21-4-17.37-4-17.37z"/><path d="m100.36 193.89s6.29 13.77 11 14.25 1.51-17.77 1.51-17.77z"/><path d="m82.39 203.37s12.81 16.25 17.43 14.18-3.82-21.05-3.82-21.05z"/></g></g><path d="m202.05 316.94s41.8-68.39 45.86-69.35 13.38 4.3 13.62 6.93-29.74 76-29.74 76-23.05 4.41-29.74-13.58z" fill="#f3b8c4"/><ellipse cx="160.86" cy="242.5" fill="#ffe3ea" rx="9.79" ry="6.38" transform="matrix(.8 -.6 .6 .8 -113.39 145.18)"/><ellipse cx="81.03" cy="281.24" fill="#ffe3ea" rx="9.79" ry="6.38" transform="matrix(.8 -.6 .6 .8 -152.64 105.01)"/><g fill="#161813"><path d="m150.33 221.41a4.94 4.94 0 0 1 -5.42 4l3.61 2.15s3.25-2.06 3.57-5-1.09-3.84-1.76-1.15z"/><circle cx="145.1" cy="231.83" r="7.89"/><path d="m75.08 259.91a4.94 4.94 0 0 0 6.37-2.09l-.36 4.18s-3.58 1.43-6.12 0-2.46-3.13.11-2.09z"/><circle cx="86.59" cy="261.76" r="7.89"/><path d="m124 253.85s-12 5.34-9.76 8.16 8.87 5 12 3.35 7.1-9 5.88-11.71-8.12.2-8.12.2z"/><path d="m126.25 285.78a39.89 39.89 0 0 1 -16.86-3.89 1 1 0 0 1 1-1.77c.19.11 19.21 10 34.72-3.22a1 1 0 1 1 1.3 1.52 30.24 30.24 0 0 1 -20.16 7.36z"/><path d="m126.26 285.82a.78.78 0 0 1 -.22 0 1 1 0 0 1 -.76-1.19 46.6 46.6 0 0 0 -.31-21.71 1 1 0 1 1 1.93-.49 48.38 48.38 0 0 1 .33 22.63 1 1 0 0 1 -.97.76z"/><path d="m38.19 299.18a.5.5 0 0 1 -.19-1l40.5-17.44a.5.5 0 1 1 .4.92l-40.51 17.48a.45.45 0 0 1 -.2.04z"/><path d="m50.37 317.64a.5.5 0 0 1 -.35-.85l25.08-25.86a.5.5 0 1 1 .71.69l-25.08 25.87a.48.48 0 0 1 -.36.15z"/><path d="m67.33 331.47a.51.51 0 0 1 -.24-.07.5.5 0 0 1 -.19-.68l17.2-30.14a.5.5 0 0 1 .68-.19.52.52 0 0 1 .19.69l-17.2 30.13a.51.51 0 0 1 -.44.26z"/><path d="m166.7 240.22a.51.51 0 0 1 -.4-.2.52.52 0 0 1 .09-.7l30.91-23.92a.5.5 0 0 1 .61.79l-30.91 23.92a.51.51 0 0 1 -.3.11z"/><path d="m171.48 248a.49.49 0 0 1 -.48-.36.5.5 0 0 1 .33-.62l33-9.95a.5.5 0 1 1 .28 1l-33 10z"/><path d="m172.91 254.36a.5.5 0 0 1 0-1l31.51-1.36a.49.49 0 0 1 .52.48.5.5 0 0 1 -.48.52l-31.53 1.36z"/><path d="m182.15 323a1 1 0 0 1 -.47-1.89c.32-.11 28.81-15.41 35.32-30.11a1 1 0 0 1 1.32-.51 1 1 0 0 1 .51 1.32c-6.8 15.36-35 30.47-36.22 31.11a1 1 0 0 1 -.46.08z"/><path d="m204.44 344a1 1 0 0 1 -.44-1.9c.31-.15 30.7-15.24 39.89-44.2a1 1 0 0 1 1.91.6c-9.46 29.8-40.61 45.24-40.92 45.4a1.13 1.13 0 0 1 -.44.1z"/><path d="m127.79 330.14a1 1 0 0 1 -.23-2c.41-.1 41.81-10.39 57.28-37.39a1 1 0 1 1 1.73 1c-15.9 27.78-58.12 38.25-58.57 38.36a.85.85 0 0 1 -.21.03z"/><path d="m332.79 309a1 1 0 0 1 -.85-.47l-14.65-23.4a1 1 0 0 1 1.7-1.06l14.65 23.4a1 1 0 0 1 -.32 1.38 1 1 0 0 1 -.53.15z"/><path d="m249.11 256.3a.5.5 0 0 1 -.31-.1.51.51 0 0 1 -.09-.71l4.9-6.21a.5.5 0 0 1 .7-.08.5.5 0 0 1 .09.7l-4.9 6.21a.49.49 0 0 1 -.39.19z"/><path d="m254 258.57a.51.51 0 0 1 -.2 0 .49.49 0 0 1 -.25-.66l3.08-7a.49.49 0 0 1 .65-.26.49.49 0 0 1 .26.66l-3.08 7a.49.49 0 0 1 -.46.26z"/><path d="m289.47 230.63a.5.5 0 0 1 -.39-.2l-4.42-5.73a.5.5 0 0 1 .79-.61l4.42 5.73a.5.5 0 0 1 -.09.7.51.51 0 0 1 -.31.11z"/><path d="m295.8 226.21a.46.46 0 0 1 -.22-.06l-7.88-3.94a.5.5 0 0 1 -.23-.67.51.51 0 0 1 .68-.22l7.88 3.94a.5.5 0 0 1 -.23 1z"/><path d="m416.55 234.33a1 1 0 0 1 -1-.86c0-.05-.7-4.81-1-12.06a1 1 0 0 1 1-1 1 1 0 0 1 1 .95c.3 7.14 1 11.81 1 11.86a1 1 0 0 1 -.85 1.13zm-1.08-24a1 1 0 0 1 -1-1c.13-4.13.42-8.18.87-12.06a1 1 0 0 1 1.11-.88 1 1 0 0 1 .88 1.11c-.44 3.82-.73 7.82-.86 11.89a1 1 0 0 1 -1 .97zm2.82-23.81h-.22a1 1 0 0 1 -.76-1.19 92.24 92.24 0 0 1 3.36-11.66 1 1 0 0 1 1.28-.6 1 1 0 0 1 .6 1.29 88.18 88.18 0 0 0 -3.28 11.4 1 1 0 0 1 -.98.79zm8.34-22.41a1 1 0 0 1 -.86-1.5 54.42 54.42 0 0 1 7.21-9.83 1 1 0 1 1 1.46 1.37 52.47 52.47 0 0 0 -6.94 9.46 1 1 0 0 1 -.87.53zm16.3-17.26a1 1 0 0 1 -.85-.47 1 1 0 0 1 .32-1.38c.92-.57 1.87-1.11 2.82-1.62a1 1 0 0 1 .94 1.77c-.92.48-1.83 1-2.7 1.55a1 1 0 0 1 -.53.18z"/><path d="m269 424.85c-1.73 0-3.49-.05-5.24-.13a1 1 0 0 1 -.95-1.05 1 1 0 0 1 1.05-.95 102 102 0 0 0 11.87-.1 1 1 0 0 1 1.07.93 1 1 0 0 1 -.93 1.07c-2.26.15-4.57.23-6.87.23zm-17.12-1.34h-.15c-3.88-.59-7.86-1.39-11.86-2.36a1 1 0 0 1 -.73-1.21 1 1 0 0 1 1.21-.73c3.93 1 7.86 1.74 11.68 2.32a1 1 0 0 1 .84 1.14 1 1 0 0 1 -.99.84zm35.8-.47a1 1 0 0 1 -1-.81 1 1 0 0 1 .79-1.17 85.52 85.52 0 0 0 11.42-3.14 1 1 0 1 1 .67 1.88 86.72 86.72 0 0 1 -11.7 3.22zm-59.11-5.18a1.18 1.18 0 0 1 -.31-.05c-3.73-1.23-7.54-2.63-11.33-4.17a1 1 0 0 1 .75-1.85c3.75 1.52 7.52 2.9 11.21 4.12a1 1 0 0 1 -.32 1.95zm81.67-2.79a1 1 0 0 1 -.47-1.88 85.79 85.79 0 0 0 10.08-6.19 1 1 0 1 1 1.17 1.63 88.47 88.47 0 0 1 -10.32 6.37 1 1 0 0 1 -.46.07zm-103.92-6.21a1.12 1.12 0 0 1 -.43-.1c-3.59-1.72-7.2-3.58-10.73-5.53a1 1 0 0 1 1-1.75c3.5 1.93 7.07 3.77 10.62 5.47a1 1 0 0 1 -.43 1.91zm-21-11.6a1 1 0 0 1 -.53-.15c-6.3-4-10-6.78-10-6.81a1 1 0 1 1 1.21-1.59s3.68 2.8 9.89 6.7a1 1 0 0 1 -.53 1.85z"/><path d="m58.58 225.53a.41.41 0 0 1 -.21-.05c-9.17-4.19-20.33-3-20.44-3a.5.5 0 1 1 -.11-1c.11 0 11.55-1.24 21 3.07a.5.5 0 0 1 -.2.95z"/><path d="m127.53 195.91a.59.59 0 0 1 -.23 0 .51.51 0 0 1 -.22-.68c.31-.59 7.57-14.58 12.62-17.4a.5.5 0 0 1 .49.87c-4.79 2.68-12.15 16.85-12.22 17a.5.5 0 0 1 -.44.21z"/></g><path d="m184.46 91.57 26.06-5.59-19.98 15.19 5.49 14.27-9.99-4.69-10.7 8.56 1.39-15.89-15.85-4.83 15.16-5.83-1.28-14.86z" fill="#ffcd42"/><path d="m357.24 142.32-2.57-16.35-4.35 14.96h-9.49l4.94 4.75-2.57 8.11 8.9-4.35 6.33 8.1v-10.08l8.9-2.57z" fill="#ffcd42"/><path d="m81.91 166.6-.57-16.54-6.13 14.33-9.42-1.15 4.33 5.31-3.53 7.74 9.36-3.24 5.3 8.81 1.22-10.01 9.14-1.47z" fill="#ffcd42"/><path d="m467.64 227.32-.79-22.78-8.44 19.74-12.98-1.58 5.97 7.31-4.87 10.65 12.89-4.46 7.31 12.14 1.67-13.79 12.6-2.03z" fill="#ffcd42"/><path d="m78.8 378.68-4.06-16.04-2.96 15.3-9.45.87 5.35 4.27-1.81 8.31 8.46-5.15 7.05 7.5-.93-10.05 8.63-3.37z" fill="#ffcd42"/></g></svg>